<?xml version="1.0" encoding="UTF-8" standalone="no"?>
<!-- Created with Inkscape (http://www.inkscape.org/) -->

<svg
   xmlns:dc="http://purl.org/dc/elements/1.1/"
   xmlns:cc="http://creativecommons.org/ns#"
   xmlns:rdf="http://www.w3.org/1999/02/22-rdf-syntax-ns#"
   xmlns:svg="http://www.w3.org/2000/svg"
   xmlns="http://www.w3.org/2000/svg"
   xmlns:xlink="http://www.w3.org/1999/xlink"
   xmlns:sodipodi="http://sodipodi.sourceforge.net/DTD/sodipodi-0.dtd"
   xmlns:inkscape="http://www.inkscape.org/namespaces/inkscape"
   width="640"
   height="360"
   id="svg2"
   version="1.1"
   inkscape:version="0.48.2 r9819"
   inkscape:export-filename="D:\Dropbox\PiX Juegos\ripolles\fpg-sources\nivel_matajefes1\1.png"
   inkscape:export-xdpi="90"
   inkscape:export-ydpi="90"
   sodipodi:docname="Documento nuevo 1">
  <defs
     id="defs4" />
  <sodipodi:namedview
     id="base"
     pagecolor="#ffffff"
     bordercolor="#666666"
     borderopacity="1.0"
     inkscape:pageopacity="0.0"
     inkscape:pageshadow="2"
     inkscape:zoom="0.7"
     inkscape:cx="200.80149"
     inkscape:cy="132.60116"
     inkscape:document-units="px"
     inkscape:current-layer="layer1"
     showgrid="true"
     showguides="true"
     inkscape:guide-bbox="true"
     inkscape:window-width="1366"
     inkscape:window-height="706"
     inkscape:window-x="-8"
     inkscape:window-y="-8"
     inkscape:window-maximized="1">
    <inkscape:grid
       type="xygrid"
       id="grid2985"
       empspacing="5"
       visible="true"
       enabled="true"
       snapvisiblegridlinesonly="true" />
    <sodipodi:guide
       orientation="0,1"
       position="55,180"
       id="guide3077" />
  </sodipodi:namedview>
  <metadata
     id="metadata7">
    <rdf:RDF>
      <cc:Work
         rdf:about="">
        <dc:format>image/svg+xml</dc:format>
        <dc:type
           rdf:resource="http://purl.org/dc/dcmitype/StillImage" />
        <dc:title></dc:title>
      </cc:Work>
    </rdf:RDF>
  </metadata>
  <g
     inkscape:label="Capa 1"
     inkscape:groupmode="layer"
     id="layer1"
     transform="translate(0,-692.36218)">
    <image
       y="692.36218"
       x="0"
       id="image2995"
       xlink:href="file:///D:/Dropbox/PiX%20Juegos/ripolles/fpg-sources/nivel_matajefes1/1.png"
       height="360"
       width="640" />
    <path
       style="fill:#4b5f53;fill-opacity:1;stroke:#000000;stroke-width:1px;stroke-linecap:butt;stroke-linejoin:miter;stroke-opacity:1"
       d="m -10,370 c 220,0 440,0 660,0 0,-63.33333 0,-126.66667 0,-190 l 0.28566,-9.99736 c 0.0976,-3.4151 -6.84504,-0.002 -10.28566,-0.003 -6.68238,-0.002 -13.22624,10.00168 -20,10 -7.84466,-0.002 -17.03215,-9.99832 -25,-10 -6.61731,-0.001 -13.29726,5.00131 -20,5 -9.02295,-0.002 -15.82128,-4.99856 -25,-5 -7.20022,-0.001 -17.70344,5.00103 -25,5 -10.08484,-0.001 -19.72999,-4.99931 -30,-5.00031 -11.16098,-10e-4 -13.61829,5.0009 -25,5 -11.34539,-9e-4 -8.43296,-5 -20,-5 -10.00837,-3.8e-4 -19.82452,5.0002 -30,5 -5.93808,-1.2e-4 -19.00481,-5 -25,-5 -10,0 -24.59029,10.621 -35,5 -5.21092,-2.81378 -19.74161,7.84046 -25,5 -3.04892,-1.64696 -11.41768,-9.99009 -15,-10 -7.17237,-0.0198 -12.34193,5.01587 -20,5 -7.17893,-0.0149 -22.38618,5.01626 -30,5 -4.24546,-0.009 -10.61629,-9.99343 -15,-10 -7.38338,-0.0111 -22.22054,5.00788 -30,5 -8.42084,-0.009 -21.104,-5 -30,-5 -5,0 -17.41363,11.21229 -20.24577,5.0476 C 171.31028,167.55119 158.25329,175.00444 150,175 c -11.40836,-0.006 -18.54029,5.00812 -30,5 -7.79649,-0.006 -22.203213,-5.01334 -30,-5 -10.117864,0.0173 -19.879382,4.97842 -30,5 -9.524913,0.0203 -25,-5 -30,-5 -13.690476,0 -26.3095238,5 -40,5 0,63.33333 0,126.66667 0,190 z"
       id="path2998"
       inkscape:connector-curvature="0"
       transform="translate(0,692.36218)"
       sodipodi:nodetypes="cccsssssssssssssssssssssssssscc" />
    <path
       style="fill:#00d400;stroke:#008000;stroke-width:1;stroke-linecap:round;stroke-linejoin:round;stroke-miterlimit:4;stroke-opacity:1;stroke-dasharray:none;display:inline"
       d="m 25.0313,922.62303 c 0,-3.26087 -3.2609,-7.17391 -3.2609,-7.17391 2.6087,0.32608 4.2958,1.43037 5.2174,3.91304 0.6522,-1.95652 0.9391,-4.39684 -0.3261,-8.15217 3.5962,3.60817 3.2609,5.21739 4.5652,9.13043 0.3261,-1.63043 2.2929,-3.28566 5.5435,-4.8913 -2.4649,3.05226 -2.9813,3.65684 -3.587,7.17391"
       id="path9193-2"
       inkscape:connector-curvature="0"
       sodipodi:nodetypes="ccccccc" />
    <path
       style="fill:#00d400;stroke:#008000;stroke-width:1;stroke-linecap:round;stroke-linejoin:round;stroke-miterlimit:4;stroke-opacity:1;stroke-dasharray:none;display:inline"
       d="m 50.0313,1032.623 c 0,-3.2608 -3.2609,-7.1739 -3.2609,-7.1739 2.6087,0.3261 4.2958,1.4304 5.2174,3.9131 0.6522,-1.9565 0.9391,-4.3969 -0.3261,-8.1522 3.5962,3.6082 3.2609,5.2174 4.5652,9.1304 0.3261,-1.6304 2.2929,-3.2856 5.5435,-4.8913 -2.4649,3.0523 -2.9813,3.6569 -3.587,7.174"
       id="path9193-4"
       inkscape:connector-curvature="0"
       sodipodi:nodetypes="ccccccc" />
    <path
       style="fill:#00d400;stroke:#008000;stroke-width:1;stroke-linecap:round;stroke-linejoin:round;stroke-miterlimit:4;stroke-opacity:1;stroke-dasharray:none;display:inline"
       d="m 135.0313,922.62303 c 0,-3.26087 -3.2609,-7.17391 -3.2609,-7.17391 2.6087,0.32608 4.2958,1.43037 5.2174,3.91304 0.6522,-1.95652 0.9391,-4.39684 -0.3261,-8.15217 3.5962,3.60817 3.2609,5.21739 4.5652,9.13043 0.3261,-1.63043 2.2929,-3.28566 5.5435,-4.8913 -2.4649,3.05226 -2.9813,3.65684 -3.587,7.17391"
       id="path9193-9"
       inkscape:connector-curvature="0"
       sodipodi:nodetypes="ccccccc" />
    <path
       style="fill:#00d400;stroke:#008000;stroke-width:1;stroke-linecap:round;stroke-linejoin:round;stroke-miterlimit:4;stroke-opacity:1;stroke-dasharray:none;display:inline"
       d="m 140.0313,987.62308 c 0,-3.2609 -3.2609,-7.174 -3.2609,-7.174 2.6087,0.3261 4.2958,1.4304 5.2174,3.9131 0.6522,-1.9565 0.9391,-4.3969 -0.3261,-8.1522 3.5962,3.6082 3.2609,5.2174 4.5652,9.1304 0.3261,-1.6304 2.2929,-3.2856 5.5435,-4.8913 -2.4649,3.0523 -2.9813,3.6569 -3.587,7.174"
       id="path9193-46"
       inkscape:connector-curvature="0"
       sodipodi:nodetypes="ccccccc" />
    <path
       style="fill:#00d400;stroke:#008000;stroke-width:1;stroke-linecap:round;stroke-linejoin:round;stroke-miterlimit:4;stroke-opacity:1;stroke-dasharray:none;display:inline"
       d="m 298.2609,1009.5361 c 0,-3.2608 -3.2609,-7.1739 -3.2609,-7.1739 2.6087,0.3261 4.2958,1.4304 5.2174,3.9131 0.6522,-1.9565 0.9391,-4.3969 -0.3261,-8.15222 3.5962,3.60822 3.2609,5.21742 4.5652,9.13042 0.3261,-1.6304 2.2929,-3.2856 5.5435,-4.8913 -2.4649,3.0523 -2.9813,3.6569 -3.587,7.174"
       id="path9193-03"
       inkscape:connector-curvature="0"
       sodipodi:nodetypes="ccccccc" />
    <path
       style="fill:#00d400;stroke:#008000;stroke-width:1;stroke-linecap:round;stroke-linejoin:round;stroke-miterlimit:4;stroke-opacity:1;stroke-dasharray:none;display:inline"
       d="m 238.2609,929.53613 c 0,-3.26087 -3.2609,-7.17391 -3.2609,-7.17391 2.6087,0.32608 4.2958,1.43037 5.2174,3.91304 0.6522,-1.95652 0.9391,-4.39684 -0.3261,-8.15217 3.5962,3.60817 3.2609,5.21739 4.5652,9.13043 0.3261,-1.63043 2.2929,-3.28566 5.5435,-4.8913 -2.4649,3.05226 -2.9813,3.65684 -3.587,7.17391"
       id="path9193-62"
       inkscape:connector-curvature="0"
       sodipodi:nodetypes="ccccccc" />
    <path
       style="fill:#00d400;stroke:#008000;stroke-width:1;stroke-linecap:round;stroke-linejoin:round;stroke-miterlimit:4;stroke-opacity:1;stroke-dasharray:none;display:inline"
       d="m 408.2609,924.53613 c 0,-3.26087 -3.2609,-7.17391 -3.2609,-7.17391 2.6087,0.32608 4.2958,1.43037 5.2174,3.91304 0.6522,-1.95652 0.9391,-4.39684 -0.3261,-8.15217 3.5962,3.60817 3.2609,5.21739 4.5652,9.13043 0.3261,-1.63043 2.2929,-3.28566 5.5435,-4.8913 -2.4649,3.05226 -2.9813,3.65684 -3.587,7.17391"
       id="path9193-45"
       inkscape:connector-curvature="0"
       sodipodi:nodetypes="ccccccc" />
    <path
       style="fill:#00d400;stroke:#008000;stroke-width:1;stroke-linecap:round;stroke-linejoin:round;stroke-miterlimit:4;stroke-opacity:1;stroke-dasharray:none;display:inline"
       d="m 468.2609,1009.5361 c 0,-3.2608 -3.2609,-7.1739 -3.2609,-7.1739 2.6087,0.3261 4.2958,1.4304 5.2174,3.9131 0.6522,-1.9565 0.9391,-4.3969 -0.3261,-8.15222 3.5962,3.60822 3.2609,5.21742 4.5652,9.13042 0.3261,-1.6304 2.2929,-3.2856 5.5435,-4.8913 -2.4649,3.0523 -2.9813,3.6569 -3.587,7.174"
       id="path9193-8"
       inkscape:connector-curvature="0"
       sodipodi:nodetypes="ccccccc" />
    <path
       style="fill:#00d400;stroke:#008000;stroke-width:1;stroke-linecap:round;stroke-linejoin:round;stroke-miterlimit:4;stroke-opacity:1;stroke-dasharray:none;display:inline"
       d="m 358.2609,969.53618 c 0,-3.2609 -3.2609,-7.174 -3.2609,-7.174 2.6087,0.3261 4.2958,1.4304 5.2174,3.9131 0.6522,-1.9565 0.9391,-4.3969 -0.3261,-8.1522 3.5962,3.6082 3.2609,5.2174 4.5652,9.1304 0.3261,-1.6304 2.2929,-3.2856 5.5435,-4.8913 -2.4649,3.0523 -2.9813,3.6569 -3.587,7.174"
       id="path9193-81"
       inkscape:connector-curvature="0"
       sodipodi:nodetypes="ccccccc" />
    <path
       style="fill:#00d400;stroke:#008000;stroke-width:1;stroke-linecap:round;stroke-linejoin:round;stroke-miterlimit:4;stroke-opacity:1;stroke-dasharray:none;display:inline"
       d="m 553.2609,929.53613 c 0,-3.26087 -3.2609,-7.17391 -3.2609,-7.17391 2.6087,0.32608 4.2958,1.43037 5.2174,3.91304 0.6522,-1.95652 0.9391,-4.39684 -0.3261,-8.15217 3.5962,3.60817 3.2609,5.21739 4.5652,9.13043 0.3261,-1.63043 2.2929,-3.28566 5.5435,-4.8913 -2.4649,3.05226 -2.9813,3.65684 -3.587,7.17391"
       id="path9193-21"
       inkscape:connector-curvature="0"
       sodipodi:nodetypes="ccccccc" />
    <path
       style="fill:#00d400;stroke:#008000;stroke-width:1;stroke-linecap:round;stroke-linejoin:round;stroke-miterlimit:4;stroke-opacity:1;stroke-dasharray:none;display:inline"
       d="m 638.2609,1009.5361 c 0,-3.2608 -3.2609,-7.1739 -3.2609,-7.1739 2.6087,0.3261 4.2958,1.4304 5.2174,3.9131 0.6522,-1.9565 0.9391,-4.3969 -0.3261,-8.15222 3.5962,3.60822 3.2609,5.21742 4.5652,9.13042 0.3261,-1.6304 2.2929,-3.2856 5.5435,-4.8913 -2.4649,3.0523 -2.9813,3.6569 -3.587,7.174"
       id="path9193-49"
       inkscape:connector-curvature="0"
       sodipodi:nodetypes="ccccccc" />
    <path
       style="fill:#00d400;stroke:#008000;stroke-width:1;stroke-linecap:round;stroke-linejoin:round;stroke-miterlimit:4;stroke-opacity:1;stroke-dasharray:none;display:inline"
       d="m 543.2609,989.53618 c 0,-3.2609 -3.2609,-7.174 -3.2609,-7.174 2.6087,0.3261 4.2958,1.4304 5.2174,3.9131 0.6522,-1.9565 0.9391,-4.3969 -0.3261,-8.1522 3.5962,3.6082 3.2609,5.2174 4.5652,9.1304 0.3261,-1.6304 2.2929,-3.2856 5.5435,-4.8913 -2.4649,3.0523 -2.9813,3.6569 -3.587,7.174"
       id="path9193-82"
       inkscape:connector-curvature="0"
       sodipodi:nodetypes="ccccccc" />
    <path
       style="fill:#00d400;stroke:#008000;stroke-width:1;stroke-linecap:round;stroke-linejoin:round;stroke-miterlimit:4;stroke-opacity:1;stroke-dasharray:none;display:inline"
       d="m 343.8044,904.64479 c 0,-3.26087 -3.2609,-7.17391 -3.2609,-7.17391 2.6087,0.32608 4.2958,1.43037 5.2174,3.91304 0.6522,-1.95652 0.9391,-4.39684 -0.3261,-8.15217 3.5962,3.60817 3.2609,5.21739 4.5652,9.13043 0.3261,-1.63043 2.2929,-3.28566 5.5435,-4.8913 -2.4649,3.05226 -2.9813,3.65684 -3.587,7.17391"
       id="path9193-452"
       inkscape:connector-curvature="0"
       sodipodi:nodetypes="ccccccc" />
    <path
       style="fill:#00d400;stroke:#008000;stroke-width:1;stroke-linecap:round;stroke-linejoin:round;stroke-miterlimit:4;stroke-opacity:1;stroke-dasharray:none;display:inline"
       d="m 458.8044,924.64474 c 0,-3.2608 -3.2609,-7.1739 -3.2609,-7.1739 2.6087,0.3261 4.2958,1.4304 5.2174,3.9131 0.6522,-1.9565 0.9391,-4.3969 -0.3261,-8.15219 3.5962,3.60819 3.2609,5.21739 4.5652,9.13039 0.3261,-1.6304 2.2929,-3.2856 5.5435,-4.8913 -2.4649,3.0523 -2.9813,3.6569 -3.587,7.174"
       id="path9193-83"
       inkscape:connector-curvature="0"
       sodipodi:nodetypes="ccccccc" />
    <path
       style="fill:#00d400;stroke:#008000;stroke-width:1;stroke-linecap:round;stroke-linejoin:round;stroke-miterlimit:4;stroke-opacity:1;stroke-dasharray:none;display:inline"
       d="m 418.8044,994.64476 c 0,-3.2608 -3.2609,-7.1739 -3.2609,-7.1739 2.6087,0.3261 4.2958,1.4304 5.2174,3.9131 0.6522,-1.9565 0.9391,-4.3969 -0.3261,-8.1522 3.5962,3.6082 3.2609,5.2174 4.5652,9.1304 0.3261,-1.6304 2.2929,-3.2856 5.5435,-4.8913 -2.4649,3.0523 -2.9813,3.6569 -3.587,7.174"
       id="path9193-86"
       inkscape:connector-curvature="0"
       sodipodi:nodetypes="ccccccc" />
    <path
       style="fill:#894d26;fill-opacity:1;stroke:#452713;stroke-width:1;stroke-linecap:butt;stroke-linejoin:miter;stroke-miterlimit:4;stroke-opacity:1;stroke-dasharray:none;display:inline"
       d="m 65.9878,1000.3622 c 0.051,0.8227 6.6034,1.3767 6,-1.00002 -0.8382,-3.3013 -6.1458,-1.3485 -6,1.00002 z"
       id="path10489-4"
       inkscape:connector-curvature="0"
       sodipodi:nodetypes="sss" />
    <path
       style="fill:#894d26;fill-opacity:1;stroke:#452713;stroke-width:1;stroke-linecap:butt;stroke-linejoin:miter;stroke-miterlimit:4;stroke-opacity:1;stroke-dasharray:none;display:inline"
       d="m 70,1002.3622 c 0.034,0.8227 4.3888,1.3767 3.9878,-1 -0.5571,-3.30132 -4.0847,-1.3485 -3.9878,1 z"
       id="path10489-9-8"
       inkscape:connector-curvature="0"
       sodipodi:nodetypes="sss" />
    <path
       style="fill:#894d26;fill-opacity:1;stroke:#452713;stroke-width:1;stroke-linecap:butt;stroke-linejoin:miter;stroke-miterlimit:4;stroke-opacity:1;stroke-dasharray:none;display:inline"
       d="m 63.9878,1002.3622 c 0.051,0.8227 6.6034,1.3767 6,-1 -0.8382,-3.30132 -6.1458,-1.3485 -6,1 z"
       id="path10489-8-68"
       inkscape:connector-curvature="0"
       sodipodi:nodetypes="sss" />
    <path
       style="fill:#894d26;fill-opacity:1;stroke:#452713;stroke-width:1;stroke-linecap:butt;stroke-linejoin:miter;stroke-miterlimit:4;stroke-opacity:1;stroke-dasharray:none;display:inline"
       d="m 189.2174,1022.2753 c 0.051,0.8227 6.6034,1.3767 6,-1 -0.8382,-3.3013 -6.1458,-1.3485 -6,1 z"
       id="path10489-77"
       inkscape:connector-curvature="0"
       sodipodi:nodetypes="sss" />
    <path
       style="fill:#894d26;fill-opacity:1;stroke:#452713;stroke-width:1;stroke-linecap:butt;stroke-linejoin:miter;stroke-miterlimit:4;stroke-opacity:1;stroke-dasharray:none;display:inline"
       d="m 193.2296,1024.2753 c 0.034,0.8227 4.3888,1.3767 3.9878,-1 -0.5571,-3.3013 -4.0847,-1.3485 -3.9878,1 z"
       id="path10489-9-4"
       inkscape:connector-curvature="0"
       sodipodi:nodetypes="sss" />
    <path
       style="fill:#894d26;fill-opacity:1;stroke:#452713;stroke-width:1;stroke-linecap:butt;stroke-linejoin:miter;stroke-miterlimit:4;stroke-opacity:1;stroke-dasharray:none;display:inline"
       d="m 187.2174,1024.2753 c 0.051,0.8227 6.6034,1.3767 6,-1 -0.8382,-3.3013 -6.1458,-1.3485 -6,1 z"
       id="path10489-8-67"
       inkscape:connector-curvature="0"
       sodipodi:nodetypes="sss" />
    <path
       style="fill:#894d26;fill-opacity:1;stroke:#452713;stroke-width:1;stroke-linecap:butt;stroke-linejoin:miter;stroke-miterlimit:4;stroke-opacity:1;stroke-dasharray:none;display:inline"
       d="m 85.9878,935.36216 c 0.051,0.82267 6.6034,1.3767 6,-1 -0.8382,-3.30132 -6.1458,-1.34844 -6,1 z"
       id="path10489-07"
       inkscape:connector-curvature="0"
       sodipodi:nodetypes="sss" />
    <path
       style="fill:#894d26;fill-opacity:1;stroke:#452713;stroke-width:1;stroke-linecap:butt;stroke-linejoin:miter;stroke-miterlimit:4;stroke-opacity:1;stroke-dasharray:none;display:inline"
       d="m 90,937.36216 c 0.034,0.82267 4.3888,1.3767 3.9878,-1 -0.5571,-3.30132 -4.0847,-1.34844 -3.9878,1 z"
       id="path10489-9-41"
       inkscape:connector-curvature="0"
       sodipodi:nodetypes="sss" />
    <path
       style="fill:#894d26;fill-opacity:1;stroke:#452713;stroke-width:1;stroke-linecap:butt;stroke-linejoin:miter;stroke-miterlimit:4;stroke-opacity:1;stroke-dasharray:none;display:inline"
       d="m 83.9878,937.36216 c 0.051,0.82267 6.6034,1.3767 6,-1 -0.8382,-3.30132 -6.1458,-1.34844 -6,1 z"
       id="path10489-8-2"
       inkscape:connector-curvature="0"
       sodipodi:nodetypes="sss" />
    <path
       style="fill:#894d26;fill-opacity:1;stroke:#452713;stroke-width:1;stroke-linecap:butt;stroke-linejoin:miter;stroke-miterlimit:4;stroke-opacity:1;stroke-dasharray:none;display:inline"
       d="m 274.2174,957.27528 c 0.051,0.8226 6.6034,1.3767 6,-1 -0.8382,-3.3013 -6.1458,-1.3485 -6,1 z"
       id="path10489-71"
       inkscape:connector-curvature="0"
       sodipodi:nodetypes="sss" />
    <path
       style="fill:#894d26;fill-opacity:1;stroke:#452713;stroke-width:1;stroke-linecap:butt;stroke-linejoin:miter;stroke-miterlimit:4;stroke-opacity:1;stroke-dasharray:none;display:inline"
       d="m 278.2296,959.27528 c 0.034,0.8226 4.3888,1.3767 3.9878,-1 -0.5571,-3.3013 -4.0847,-1.3485 -3.9878,1 z"
       id="path10489-9-47"
       inkscape:connector-curvature="0"
       sodipodi:nodetypes="sss" />
    <path
       style="fill:#894d26;fill-opacity:1;stroke:#452713;stroke-width:1;stroke-linecap:butt;stroke-linejoin:miter;stroke-miterlimit:4;stroke-opacity:1;stroke-dasharray:none;display:inline"
       d="m 272.2174,959.27528 c 0.051,0.8226 6.6034,1.3767 6,-1 -0.8382,-3.3013 -6.1458,-1.3485 -6,1 z"
       id="path10489-8-682"
       inkscape:connector-curvature="0"
       sodipodi:nodetypes="sss" />
    <path
       style="fill:#894d26;fill-opacity:1;stroke:#452713;stroke-width:1;stroke-linecap:butt;stroke-linejoin:miter;stroke-miterlimit:4;stroke-opacity:1;stroke-dasharray:none;display:inline"
       d="m 379.2174,1022.2753 c 0.051,0.8227 6.6034,1.3767 6,-1 -0.8382,-3.3013 -6.1458,-1.3485 -6,1 z"
       id="path10489-88"
       inkscape:connector-curvature="0"
       sodipodi:nodetypes="sss" />
    <path
       style="fill:#894d26;fill-opacity:1;stroke:#452713;stroke-width:1;stroke-linecap:butt;stroke-linejoin:miter;stroke-miterlimit:4;stroke-opacity:1;stroke-dasharray:none;display:inline"
       d="m 383.2296,1024.2753 c 0.034,0.8227 4.3888,1.3767 3.9878,-1 -0.5571,-3.3013 -4.0847,-1.3485 -3.9878,1 z"
       id="path10489-9-59"
       inkscape:connector-curvature="0"
       sodipodi:nodetypes="sss" />
    <path
       style="fill:#894d26;fill-opacity:1;stroke:#452713;stroke-width:1;stroke-linecap:butt;stroke-linejoin:miter;stroke-miterlimit:4;stroke-opacity:1;stroke-dasharray:none;display:inline"
       d="m 377.2174,1024.2753 c 0.051,0.8227 6.6034,1.3767 6,-1 -0.8382,-3.3013 -6.1458,-1.3485 -6,1 z"
       id="path10489-8-71"
       inkscape:connector-curvature="0"
       sodipodi:nodetypes="sss" />
    <path
       style="fill:#894d26;fill-opacity:1;stroke:#452713;stroke-width:1;stroke-linecap:butt;stroke-linejoin:miter;stroke-miterlimit:4;stroke-opacity:1;stroke-dasharray:none;display:inline"
       d="m 594.2174,1017.2753 c 0.051,0.8227 6.6034,1.3767 6,-1 -0.8382,-3.3013 -6.1458,-1.3485 -6,1 z"
       id="path10489-712"
       inkscape:connector-curvature="0"
       sodipodi:nodetypes="sss" />
    <path
       style="fill:#894d26;fill-opacity:1;stroke:#452713;stroke-width:1;stroke-linecap:butt;stroke-linejoin:miter;stroke-miterlimit:4;stroke-opacity:1;stroke-dasharray:none;display:inline"
       d="m 598.2296,1019.2753 c 0.034,0.8227 4.3888,1.3767 3.9878,-1 -0.5571,-3.3013 -4.0847,-1.3485 -3.9878,1 z"
       id="path10489-9-75"
       inkscape:connector-curvature="0"
       sodipodi:nodetypes="sss" />
    <path
       style="fill:#894d26;fill-opacity:1;stroke:#452713;stroke-width:1;stroke-linecap:butt;stroke-linejoin:miter;stroke-miterlimit:4;stroke-opacity:1;stroke-dasharray:none;display:inline"
       d="m 592.2174,1019.2753 c 0.051,0.8227 6.6034,1.3767 6,-1 -0.8382,-3.3013 -6.1458,-1.3485 -6,1 z"
       id="path10489-8-34"
       inkscape:connector-curvature="0"
       sodipodi:nodetypes="sss" />
    <path
       style="fill:#894d26;fill-opacity:1;stroke:#452713;stroke-width:1;stroke-linecap:butt;stroke-linejoin:miter;stroke-miterlimit:4;stroke-opacity:1;stroke-dasharray:none;display:inline"
       d="m 384.7609,932.38394 c 0.051,0.8226 6.6034,1.3767 6,-1 -0.8382,-3.3013 -6.1458,-1.3485 -6,1 z"
       id="path10489-16"
       inkscape:connector-curvature="0"
       sodipodi:nodetypes="sss" />
    <path
       style="fill:#894d26;fill-opacity:1;stroke:#452713;stroke-width:1;stroke-linecap:butt;stroke-linejoin:miter;stroke-miterlimit:4;stroke-opacity:1;stroke-dasharray:none;display:inline"
       d="m 388.7731,934.38394 c 0.034,0.8226 4.3888,1.3767 3.9878,-1 -0.5571,-3.3013 -4.0847,-1.3485 -3.9878,1 z"
       id="path10489-9-9"
       inkscape:connector-curvature="0"
       sodipodi:nodetypes="sss" />
    <path
       style="fill:#894d26;fill-opacity:1;stroke:#452713;stroke-width:1;stroke-linecap:butt;stroke-linejoin:miter;stroke-miterlimit:4;stroke-opacity:1;stroke-dasharray:none;display:inline"
       d="m 382.7609,934.38394 c 0.051,0.8226 6.6034,1.3767 6,-1 -0.8382,-3.3013 -6.1458,-1.3485 -6,1 z"
       id="path10489-8-8"
       inkscape:connector-curvature="0"
       sodipodi:nodetypes="sss" />
  </g>
</svg>
