<?xml version="1.0" encoding="UTF-8" standalone="no"?>
<!-- Created with Inkscape (http://www.inkscape.org/) -->
<svg
   xmlns:dc="http://purl.org/dc/elements/1.1/"
   xmlns:cc="http://web.resource.org/cc/"
   xmlns:rdf="http://www.w3.org/1999/02/22-rdf-syntax-ns#"
   xmlns:svg="http://www.w3.org/2000/svg"
   xmlns="http://www.w3.org/2000/svg"
   xmlns:sodipodi="http://sodipodi.sourceforge.net/DTD/sodipodi-0.dtd"
   xmlns:inkscape="http://www.inkscape.org/namespaces/inkscape"
   width="2100"
   height="1052.3622"
   id="svg2"
   sodipodi:version="0.32"
   inkscape:version="0.44.1"
   sodipodi:docbase="D:\fenix\garnatron1.7\fpg"
   sodipodi:docname="nave01.svg"
   version="1.0">
  <defs
     id="defs4" />
  <sodipodi:namedview
     id="base"
     pagecolor="#ffffff"
     bordercolor="#666666"
     borderopacity="1.0"
     inkscape:pageopacity="0.0"
     inkscape:pageshadow="2"
     inkscape:zoom="0.54769323"
     inkscape:cx="1126.9939"
     inkscape:cy="389.90995"
     inkscape:document-units="px"
     inkscape:current-layer="layer1"
     inkscape:window-width="1280"
     inkscape:window-height="977"
     inkscape:window-x="-4"
     inkscape:window-y="-4"
     showgrid="true"
     width="2100px"
     height="1052.3622px" />
  <metadata
     id="metadata7">
    <rdf:RDF>
      <cc:Work
         rdf:about="">
        <dc:format>image/svg+xml</dc:format>
        <dc:type
           rdf:resource="http://purl.org/dc/dcmitype/StillImage" />
      </cc:Work>
    </rdf:RDF>
  </metadata>
  <g
     inkscape:label="Capa 1"
     inkscape:groupmode="layer"
     id="layer1">
    <path
       id="path3929"
       d="M 1100.1548,210.33431 L 1153.4067,263.58628 L 1089.0894,263.58628 L 1100.1548,210.33431 z "
       style="opacity:1;fill:#ff0000;fill-opacity:1;fill-rule:nonzero;stroke:#000000;stroke-width:3;stroke-linecap:butt;stroke-linejoin:miter;stroke-miterlimit:4;stroke-dasharray:none;stroke-dashoffset:0;stroke-opacity:1" />
    <path
       style="opacity:1;fill:#ff0000;fill-opacity:1;fill-rule:nonzero;stroke:#000000;stroke-width:3;stroke-linecap:butt;stroke-linejoin:miter;stroke-miterlimit:4;stroke-dasharray:none;stroke-dashoffset:0;stroke-opacity:1"
       d="M 1048.3414,210.33431 L 995.08944,263.58628 L 1059.4067,263.58628 L 1048.3414,210.33431 z "
       id="path3927" />
    <path
       style="opacity:1;fill:#ff0000;fill-opacity:1;fill-rule:nonzero;stroke:#000000;stroke-width:7.27304268;stroke-linecap:round;stroke-linejoin:round;stroke-miterlimit:4;stroke-dasharray:none;stroke-dashoffset:0;stroke-opacity:1"
       d="M 995.90128,742.34557 L 741.40381,819.46601 L 776.67174,925.38819 L 1061.4537,927.3162 L 995.90128,742.34557 z "
       id="path1952"
       sodipodi:nodetypes="ccccc" />
    <path
       sodipodi:nodetypes="ccccc"
       id="path1960"
       d="M 1140.3554,742.34557 L 1394.8529,819.46601 L 1359.5851,925.38819 L 1074.8031,927.3162 L 1140.3554,742.34557 z "
       style="opacity:1;fill:#ff0000;fill-opacity:1;fill-rule:nonzero;stroke:#000000;stroke-width:7.27304268;stroke-linecap:round;stroke-linejoin:round;stroke-miterlimit:4;stroke-dasharray:none;stroke-dashoffset:0;stroke-opacity:1" />
    <path
       style="opacity:1;fill:#cccccc;fill-opacity:1;fill-rule:nonzero;stroke:#000000;stroke-width:7.27304268;stroke-linecap:round;stroke-linejoin:round;stroke-miterlimit:4;stroke-dasharray:none;stroke-dashoffset:0;stroke-opacity:1"
       d="M 992.04527,685.06896 C 916.85282,735.19725 907.21277,1003.191 907.21277,1003.191 C 1080.8375,970.37456 1248.4707,1012.8309 1248.4707,1012.8309 C 1220.0185,708.96358 1146.2862,679.28494 1146.2862,679.28494 L 992.04527,685.06896 z "
       id="path1964"
       sodipodi:nodetypes="ccccc" />
    <path
       style="opacity:1;fill:#ff0000;fill-opacity:1;fill-rule:nonzero;stroke:#000000;stroke-width:7.27304268;stroke-linecap:round;stroke-linejoin:round;stroke-miterlimit:4;stroke-dasharray:none;stroke-dashoffset:0;stroke-opacity:1"
       d="M 1073.0217,476.84374 C 922.63688,750.62135 1013.2534,991.6227 1013.2534,991.6227 C 1069.1657,1045.607 1141.0669,995.8095 1141.0669,995.8095 C 1204.6912,679.61572 1078.8058,478.77176 1073.0217,476.84374 z "
       id="path1948"
       sodipodi:nodetypes="cccc" />
    <path
       sodipodi:nodetypes="cccc"
       id="path3746"
       d="M 1073.0215,476.84361 C 1079.4173,865.13916 1062.3323,1017.5254 1062.3323,1017.5254 C 1120.9713,1015.614 1141.0667,995.8094 1141.0667,995.8094 C 1204.6911,679.61555 1078.8056,478.77163 1073.0215,476.84361 z "
       style="opacity:1;fill:#000000;fill-opacity:0.37837842;fill-rule:nonzero;stroke:none;stroke-width:1;stroke-linecap:round;stroke-linejoin:round;stroke-miterlimit:4;stroke-dasharray:none;stroke-dashoffset:0;stroke-opacity:1" />
    <path
       sodipodi:nodetypes="cccc"
       id="path1950"
       d="M 1071.3959,719.99572 C 958.42857,819.82965 1024.0718,955.88659 1024.0718,955.88659 C 1068.3428,980.6241 1117.1935,961.18747 1117.1935,961.18747 C 1181.3102,810.11131 1075.9757,720.8792 1071.3959,719.99572 z "
       style="opacity:1;fill:#0000ff;fill-opacity:1;fill-rule:nonzero;stroke:#000000;stroke-width:7.27305079;stroke-linecap:round;stroke-linejoin:round;stroke-miterlimit:4;stroke-dasharray:none;stroke-dashoffset:0;stroke-opacity:1" />
    <path
       sodipodi:nodetypes="cccc"
       id="path1956"
       d="M 792.02383,1012.8446 C 696.6394,863.23512 754.11463,731.5366 754.11463,731.5366 C 789.57808,702.03616 836.04742,726.26864 836.04742,726.26864 C 876.40235,899.0571 795.69247,1011.7911 792.02383,1012.8446 z "
       style="opacity:1;fill:#cccccc;fill-opacity:1;fill-rule:nonzero;stroke:#000000;stroke-width:7.27304554;stroke-linecap:round;stroke-linejoin:round;stroke-miterlimit:4;stroke-dasharray:none;stroke-dashoffset:0;stroke-opacity:1" />
    <path
       style="opacity:1;fill:#cccccc;fill-opacity:1;fill-rule:nonzero;stroke:#000000;stroke-width:7.27304792;stroke-linecap:round;stroke-linejoin:round;stroke-miterlimit:4;stroke-dasharray:none;stroke-dashoffset:0;stroke-opacity:1"
       d="M 1358.8026,1016.7014 C 1263.4182,865.14231 1320.8934,731.7277 1320.8934,731.7277 C 1356.3569,701.84285 1402.8263,726.3911 1402.8263,726.3911 C 1443.1812,901.43116 1362.4713,1015.6339 1358.8026,1016.7014 z "
       id="path1962"
       sodipodi:nodetypes="cccc" />
    <path
       style="opacity:1;fill:#ffffff;fill-opacity:0.51351348;fill-rule:nonzero;stroke:none;stroke-width:1.00000048;stroke-linecap:round;stroke-linejoin:round;stroke-miterlimit:4;stroke-dasharray:none;stroke-dashoffset:0;stroke-opacity:1"
       d="M 792.02369,1012.8442 C 696.63927,863.2349 754.1145,731.53642 754.1145,731.53642 C 789.57793,702.03597 836.04728,726.26845 836.04728,726.26845 C 726.43814,717.73676 795.69232,1011.7908 792.02369,1012.8442 z "
       id="path3748"
       sodipodi:nodetypes="cccc" />
    <path
       sodipodi:nodetypes="cccc"
       id="path3750"
       d="M 1358.8023,1012.8442 C 1263.4179,863.2349 1320.8931,731.53642 1320.8931,731.53642 C 1356.3566,702.03597 1402.826,726.26845 1402.826,726.26845 C 1293.2168,717.73676 1362.4711,1011.7908 1358.8023,1012.8442 z "
       style="opacity:1;fill:#ffffff;fill-opacity:0.51351348;fill-rule:nonzero;stroke:none;stroke-width:1.00000048;stroke-linecap:round;stroke-linejoin:round;stroke-miterlimit:4;stroke-dasharray:none;stroke-dashoffset:0;stroke-opacity:1" />
    <path
       style="opacity:1;fill:#ffffff;fill-opacity:0.32882888;fill-rule:nonzero;stroke:none;stroke-width:1.00000143;stroke-linecap:round;stroke-linejoin:round;stroke-miterlimit:4;stroke-dasharray:none;stroke-dashoffset:0;stroke-opacity:1"
       d="M 1071.2724,740.46229 C 988.99861,818.51692 1031.3349,914.21149 1031.3349,914.21149 C 1036.5042,816.0414 1074.7641,741.03361 1071.2724,740.46229 z "
       id="path3752"
       sodipodi:nodetypes="ccc" />
    <path
       style="opacity:1;fill:#ffffff;fill-opacity:0.32882888;fill-rule:nonzero;stroke:none;stroke-width:1;stroke-linecap:round;stroke-linejoin:round;stroke-miterlimit:4;stroke-dasharray:none;stroke-dashoffset:0;stroke-opacity:1"
       d="M 1066.2735,954.99026 C 1104.8337,940.53015 1127.0058,884.61786 1127.0058,884.61786 C 1119.2938,951.13424 1108.6898,952.09836 1108.6898,952.09836 C 1091.3376,957.88231 1067.2375,956.91835 1066.2735,954.99026 z "
       id="path3756"
       sodipodi:nodetypes="cccc" />
    <path
       style="opacity:1;fill:#ffffff;fill-opacity:0.47297297;fill-rule:nonzero;stroke:none;stroke-width:1;stroke-linecap:round;stroke-linejoin:round;stroke-miterlimit:4;stroke-dasharray:none;stroke-dashoffset:0;stroke-opacity:1"
       d="M 991.41792,685.37399 C 915.07257,771.26248 909.61935,1003.0251 909.61935,1003.0251 L 950.51863,996.2084 C 928.70568,820.34163 991.41792,688.10061 991.41792,685.37399 z "
       id="path3758"
       sodipodi:nodetypes="cccc" />
    <path
       id="path3760"
       d="M 1149.4197,682.64737 C 1242.1247,786.25889 1243.7983,1011.5152 1243.7983,1011.5152 L 1201.5357,999.2454 C 1223.3486,823.37849 1149.4197,685.37399 1149.4197,682.64737 z "
       style="opacity:1;fill:#000000;fill-opacity:0.32882888;fill-rule:nonzero;stroke:none;stroke-width:1;stroke-linecap:round;stroke-linejoin:round;stroke-miterlimit:4;stroke-dasharray:none;stroke-dashoffset:0;stroke-opacity:1"
       sodipodi:nodetypes="cccc" />
    <path
       style="opacity:1;fill:#ff0000;fill-opacity:1;fill-rule:nonzero;stroke:#000000;stroke-width:2.99999905;stroke-linecap:butt;stroke-linejoin:miter;stroke-miterlimit:4;stroke-dasharray:none;stroke-dashoffset:0;stroke-opacity:1"
       d="M 873.4811,247.7133 L 825.83667,284.1343 L 921.23492,285.50791 L 873.4811,247.7133 z "
       id="path3898"
       sodipodi:nodetypes="cccc" />
    <path
       style="opacity:1;fill:#d4d2d2;fill-opacity:1;fill-rule:nonzero;stroke:#000000;stroke-width:2.99999905;stroke-linecap:butt;stroke-linejoin:miter;stroke-miterlimit:4;stroke-dasharray:none;stroke-dashoffset:0;stroke-opacity:1"
       d="M 873.34825,284.40734 C 712.88526,68.909895 839.01434,52.347795 869.34528,51.865615 C 902.53306,51.338025 1024.4765,63.288395 873.34825,284.40734 z "
       id="path3011"
       sodipodi:nodetypes="csc" />
    <path
       style="opacity:1;fill:#ff0000;fill-opacity:1;fill-rule:nonzero;stroke:#000000;stroke-width:2.99999905;stroke-linecap:butt;stroke-linejoin:miter;stroke-miterlimit:4;stroke-dasharray:none;stroke-dashoffset:0;stroke-opacity:1"
       d="M 872.69575,51.869355 C 871.49633,51.855465 870.38902,51.835965 869.3519,51.852455 C 852.73428,52.116625 807.34024,57.219585 796.09758,97.20874 C 846.34437,124.7275 910.14094,111.5829 945.78591,100.39542 C 937.13362,57.812195 893.51344,52.110375 872.69575,51.869355 z "
       id="path3900" />
    <path
       style="opacity:1;fill:#ffffff;fill-opacity:1;fill-rule:nonzero;stroke:none;stroke-width:2.99999905;stroke-linecap:butt;stroke-linejoin:miter;stroke-miterlimit:4;stroke-dasharray:none;stroke-dashoffset:0;stroke-opacity:1"
       d="M 808.13455,75.192255 C 805.7327,77.841805 803.54383,80.79418 801.63109,84.0683 C 818.46153,96.32297 868.28685,123.71308 941.53784,87.20789 C 939.81589,83.46265 937.74748,80.09115 935.43291,77.087705 C 912.42098,87.87187 858.24931,106.69897 808.13455,75.192255 z "
       id="path3905" />
    <path
       sodipodi:type="arc"
       style="opacity:1;fill:#ffff00;fill-opacity:1;fill-rule:nonzero;stroke:#000000;stroke-width:3;stroke-linecap:butt;stroke-linejoin:miter;stroke-miterlimit:4;stroke-dasharray:none;stroke-dashoffset:0;stroke-opacity:1"
       id="path3910"
       sodipodi:cx="176.97629"
       sodipodi:cy="831.80438"
       sodipodi:rx="15.606894"
       sodipodi:ry="15.606894"
       d="M 192.58318 831.80438 A 15.606894 15.606894 0 1 1  161.36939,831.80438 A 15.606894 15.606894 0 1 1  192.58318 831.80438 z"
       transform="matrix(0.999896,1.439724e-2,-1.439724e-2,0.999896,709.43024,-663.1705)" />
    <path
       style="opacity:1;fill:#ffff00;fill-opacity:1;fill-rule:nonzero;stroke:#000000;stroke-width:2.99999905;stroke-linecap:butt;stroke-linejoin:miter;stroke-miterlimit:4;stroke-dasharray:none;stroke-dashoffset:0;stroke-opacity:1"
       d="M 864.92907,154.76134 L 847.61885,129.77409 C 870.32691,107.13004 899.47405,128.16473 899.47405,128.16473 L 884.37901,153.86339 C 869.73337,148.35151 864.92907,154.76134 864.92907,154.76134 z "
       id="path3912" />
    <path
       id="path3914"
       d="M 864.74411,187.51159 L 851.95144,215.08612 C 820.92969,206.95832 824.32346,171.17427 824.32346,171.17427 L 854.12752,171.18998 C 856.78442,186.61128 864.74411,187.51159 864.74411,187.51159 z "
       style="opacity:1;fill:#ffff00;fill-opacity:1;fill-rule:nonzero;stroke:#000000;stroke-width:2.99999905;stroke-linecap:butt;stroke-linejoin:miter;stroke-miterlimit:4;stroke-dasharray:none;stroke-dashoffset:0;stroke-opacity:1" />
    <path
       style="opacity:1;fill:#ffff00;fill-opacity:1;fill-rule:nonzero;stroke:#000000;stroke-width:2.99999905;stroke-linecap:butt;stroke-linejoin:miter;stroke-miterlimit:4;stroke-dasharray:none;stroke-dashoffset:0;stroke-opacity:1"
       d="M 882.88896,189.53985 L 894.88241,217.47127 C 926.12531,210.24 923.76322,174.37308 923.76322,174.37308 L 893.97107,173.53068 C 890.87127,188.86909 882.88896,189.53985 882.88896,189.53985 z "
       id="path3916" />
    <path
       style="opacity:1;fill:#d4d2d2;fill-opacity:1;fill-rule:nonzero;stroke:#000000;stroke-width:3;stroke-linecap:butt;stroke-linejoin:miter;stroke-miterlimit:4;stroke-dasharray:none;stroke-dashoffset:0;stroke-opacity:1"
       d="M 1073.93,52.653135 C 990.93993,170.91402 1060.0983,267.0442 1060.0983,267.0442 C 1082.9206,255.97885 1089.1449,267.73578 1089.1449,267.73578 C 1143.78,168.14768 1073.93,52.653135 1073.93,52.653135 z "
       id="path3920"
       sodipodi:nodetypes="cccc" />
    <path
       style="opacity:1;fill:#ff0000;fill-opacity:1;fill-rule:nonzero;stroke:#000000;stroke-width:3;stroke-linecap:butt;stroke-linejoin:miter;stroke-miterlimit:4;stroke-dasharray:none;stroke-dashoffset:0;stroke-opacity:1"
       d="M 1073.9256,52.650805 C 1056.4362,77.573205 1045.722,101.51172 1039.6756,123.77581 C 1064.9127,108.58883 1087.0422,112.29905 1100.6131,117.61956 C 1089.9181,79.12105 1073.9256,52.650805 1073.9256,52.650805 z "
       id="path3922" />
    <path
       style="opacity:1;fill:#ffffff;fill-opacity:0.39545456;fill-rule:nonzero;stroke:none;stroke-width:3;stroke-linecap:butt;stroke-linejoin:miter;stroke-miterlimit:4;stroke-dasharray:none;stroke-dashoffset:0;stroke-opacity:1"
       d="M 1073.9256,52.650805 C 1073.2512,53.611775 1072.6113,54.567795 1071.9569,55.525805 C 1074.5226,78.50634 1088.2072,163.41713 1083.0819,263.21331 C 1087.5613,264.76062 1089.1444,267.74456 1089.1444,267.74456 C 1143.7795,168.15647 1073.9256,52.650805 1073.9256,52.650805 z "
       id="path3933" />
    <path
       style="opacity:1;fill:#ff0000;fill-opacity:1;fill-rule:nonzero;stroke:#000000;stroke-width:3;stroke-linecap:butt;stroke-linejoin:miter;stroke-miterlimit:4;stroke-dasharray:none;stroke-dashoffset:0;stroke-opacity:1"
       d="M 1059.4068,274.17883 L 1072.5468,208.47834 L 1088.4533,272.79566 L 1059.4068,274.17883 z "
       id="path3931"
       sodipodi:nodetypes="cccc" />
    <path
       style="opacity:1;fill:#ffffff;fill-opacity:0.55;fill-rule:nonzero;stroke:none;stroke-width:3;stroke-linecap:butt;stroke-linejoin:miter;stroke-miterlimit:4;stroke-dasharray:none;stroke-dashoffset:0;stroke-opacity:1"
       d="M 878.76937,52.088305 C 890.22077,54.194395 913.33631,62.286525 922.01937,93.40081 C 922.01937,93.40081 929.83987,134.48424 873.11312,280.21331 C 873.11312,280.21331 876.31022,277.52387 881.42562,272.36956 C 1008.7824,79.78467 919.35847,54.513125 878.76937,52.088305 z "
       id="path3938" />
    <path
       style="opacity:1;fill:#ff0000;fill-opacity:1;fill-rule:nonzero;stroke:#000000;stroke-width:2.99999905;stroke-linecap:butt;stroke-linejoin:miter;stroke-miterlimit:4;stroke-dasharray:none;stroke-dashoffset:0;stroke-opacity:1"
       d="M 873.24784,258.27945 L 865.22045,284.31016 L 879.25644,283.87455 L 873.24784,258.27945 z "
       id="path3918" />
    <path
       style="opacity:1;fill:#d4d2d2;fill-opacity:1;fill-rule:nonzero;stroke:#000000;stroke-width:3;stroke-linecap:butt;stroke-linejoin:miter;stroke-miterlimit:4;stroke-dasharray:none;stroke-dashoffset:0;stroke-opacity:1"
       d="M 1249.4628,67.975188 L 1249.5566,75.725188 C 1196.4194,131.40965 1243.8066,171.63144 1243.8066,171.63144 L 1241.9003,228.25644 L 1240.8691,228.10019 L 1240.0566,231.60019 L 1213.4628,250.85019 L 1235.6816,250.85019 L 1230.0878,275.31894 L 1250.6503,254.50644 L 1254.5566,277.97519 L 1268.0566,260.35019 L 1277.0566,272.10019 L 1271.3378,250.85019 L 1293.4941,250.85019 L 1265.1191,230.31894 L 1263.1816,171.63144 C 1263.1816,171.63144 1310.5374,131.40965 1257.4003,75.725188 L 1257.4941,67.975188 C 1256.0963,69.247818 1254.7554,70.498328 1253.4628,71.756438 C 1252.1751,70.503498 1250.8548,69.242518 1249.4628,67.975188 z "
       id="path3945" />
    <path
       style="opacity:1;fill:#ff0000;fill-opacity:1;fill-rule:nonzero;stroke:#000000;stroke-width:3;stroke-linecap:butt;stroke-linejoin:miter;stroke-miterlimit:4;stroke-dasharray:none;stroke-dashoffset:0;stroke-opacity:1"
       d="M 1219.3244,113.93163 C 1255.5121,141.31697 1285.8316,110.01944 1285.8316,110.01944 L 1253.556,59.160978 L 1219.3244,113.93163 z "
       id="path3950"
       sodipodi:nodetypes="cccc" />
    <path
       style="opacity:1;fill:#fdffff;fill-opacity:0.65909095;fill-rule:nonzero;stroke:none;stroke-width:3;stroke-linecap:butt;stroke-linejoin:miter;stroke-miterlimit:4;stroke-dasharray:none;stroke-dashoffset:0;stroke-opacity:1"
       d="M 1251.6188,66.007298 L 1278.0261,109.04139 C 1268.2456,115.88773 1263.3554,115.88773 1263.3554,115.88773 L 1251.6188,66.007298 z "
       id="path3966" />
    <path
       style="opacity:1;fill:#fdffff;fill-opacity:0.65909095;fill-rule:nonzero;stroke:none;stroke-width:3;stroke-linecap:butt;stroke-linejoin:miter;stroke-miterlimit:4;stroke-dasharray:none;stroke-dashoffset:0;stroke-opacity:1"
       d="M 1277.1359,121.75601 C 1286.9163,133.49258 1260.5091,168.70229 1260.5091,168.70229 L 1262.4651,243.03391 L 1252.6847,155.98768 C 1269.3115,146.2072 1278.1139,121.75601 1277.1359,121.75601 z "
       id="path3968" />
    <path
       style="opacity:1;fill:#cccccc;fill-opacity:1;fill-rule:nonzero;stroke:#000000;stroke-width:7.27304935;stroke-linecap:round;stroke-linejoin:round;stroke-miterlimit:4;stroke-dasharray:none;stroke-dashoffset:0;stroke-opacity:1"
       d="M 130.52015,989.9441 C 195.42485,866.18216 156.31555,757.23675 156.31555,757.23675 C 132.18445,732.83301 100.56415,752.87893 100.56415,752.87893 C 73.10445,895.81538 128.02365,989.0723 130.52015,989.9441 z "
       id="path3250"
       sodipodi:nodetypes="cccc"
       inkscape:export-filename="D:\fenix\garnatron1.7\fpg\Nave\nave10.png"
       inkscape:export-xdpi="11.18"
       inkscape:export-ydpi="11.18" />
    <path
       id="path1937"
       d="M 131.88691,747.14018 C 122.34516,747.19134 113.68711,746.2183 104.19137,755.3846 C 104.19137,755.3846 72.081811,861.17514 129.94656,984.13452 C 160.32586,903.02307 149.46533,827.2573 133.52339,744.58067 C 132.97896,744.56518 132.43889,747.13722 131.88691,747.14018 z "
       style="opacity:1;fill:white;fill-opacity:0.37647059;fill-rule:nonzero;stroke:none;stroke-width:7.27299976;stroke-linecap:round;stroke-linejoin:round;stroke-miterlimit:4;stroke-dasharray:none;stroke-dashoffset:0;stroke-opacity:1"
       sodipodi:nodetypes="ccccc"
       inkscape:export-filename="D:\fenix\garnatron1.7\fpg\Nave\nave10.png"
       inkscape:export-xdpi="11.18"
       inkscape:export-ydpi="11.18" />
    <path
       sodipodi:nodetypes="ccccc"
       id="path3254"
       d="M 283.4837,742.34557 L 127.91235,804.93635 L 129.22765,904.63154 L 328.3667,927.3162 L 283.4837,742.34557 z "
       style="opacity:1;fill:#ff0000;fill-opacity:1;fill-rule:nonzero;stroke:#000000;stroke-width:7.27304268;stroke-linecap:round;stroke-linejoin:round;stroke-miterlimit:4;stroke-dasharray:none;stroke-dashoffset:0;stroke-opacity:1"
       inkscape:export-filename="D:\fenix\garnatron1.7\fpg\Nave\nave10.png"
       inkscape:export-xdpi="11.18"
       inkscape:export-ydpi="11.18" />
    <path
       style="opacity:1;fill:#b3b3b3;fill-opacity:1;fill-rule:nonzero;stroke:#000000;stroke-width:7.27299976;stroke-linecap:round;stroke-linejoin:round;stroke-miterlimit:4;stroke-dasharray:none;stroke-dashoffset:0;stroke-opacity:1"
       d="M 261.11025,656.74247 C 317.1532,702.4071 356.5909,995.0759 356.5909,995.0759 C 271.48855,976.3949 227.89955,1003.3785 227.89955,1003.3785 C 192.61325,826.94701 259.03455,658.81814 261.11025,656.74247 z "
       id="path3258"
       sodipodi:nodetypes="cccc"
       inkscape:export-filename="D:\fenix\garnatron1.7\fpg\Nave\nave10.png"
       inkscape:export-xdpi="11.18"
       inkscape:export-ydpi="11.18" />
    <path
       id="path3260"
       d="M 279.67723,986.3139 C 244.04018,989.2855 230.09194,999.50185 230.09194,999.50185 C 198.30264,840.5558 250.3671,694.54162 262.258,664.41561 L 279.67723,986.3139 z "
       style="opacity:1;fill:white;fill-opacity:0.37647059;fill-rule:nonzero;stroke:none;stroke-width:7.27299976;stroke-linecap:round;stroke-linejoin:round;stroke-miterlimit:4;stroke-dasharray:none;stroke-dashoffset:0;stroke-opacity:1"
       sodipodi:nodetypes="cccc"
       inkscape:export-filename="D:\fenix\garnatron1.7\fpg\Nave\nave10.png"
       inkscape:export-xdpi="11.18"
       inkscape:export-ydpi="11.18" />
    <path
       style="opacity:1;fill:#ff0000;fill-opacity:1;fill-rule:nonzero;stroke:#000000;stroke-width:7.27304268;stroke-linecap:round;stroke-linejoin:round;stroke-miterlimit:4;stroke-dasharray:none;stroke-dashoffset:0;stroke-opacity:1"
       d="M 330.1481,476.84374 C 480.5329,750.62135 389.9164,991.6227 389.9164,991.6227 C 334.0041,1045.607 262.10285,995.8095 262.10285,995.8095 C 198.47855,679.61572 324.364,478.77176 330.1481,476.84374 z "
       id="path3262"
       sodipodi:nodetypes="cccc"
       inkscape:export-filename="D:\fenix\garnatron1.7\fpg\Nave\nave10.png"
       inkscape:export-xdpi="11.18"
       inkscape:export-ydpi="11.18" />
    <path
       id="path3264"
       d="M 332.87908,480.03897 C 337.40044,482.31813 333.24296,481.39221 330.0097,482.75772 C 280.86921,699.93153 244.33905,962.41045 291.39276,1007.9429 C 308.73735,1021.127 362.21767,1015.4242 364.8501,1004.9417 C 461.46242,757.23287 380.00612,559.87313 332.87908,480.03897 z "
       style="opacity:1;fill:black;fill-opacity:0.37647059;fill-rule:nonzero;stroke:none;stroke-width:7.27299976;stroke-linecap:round;stroke-linejoin:round;stroke-miterlimit:4;stroke-dasharray:none;stroke-dashoffset:0;stroke-opacity:1"
       sodipodi:nodetypes="ccccc"
       inkscape:export-filename="D:\fenix\garnatron1.7\fpg\Nave\nave10.png"
       inkscape:export-xdpi="11.18"
       inkscape:export-ydpi="11.18" />
    <path
       sodipodi:nodetypes="cccc"
       id="path3266"
       d="M 290.2606,715.84439 C 380.3956,840.5863 320.9794,955.88659 320.9794,955.88659 C 311.56707,963.84027 275.44847,964.13699 275.44847,964.13699 C 189.70518,853.30442 288.60893,715.05343 290.2606,715.84439 z "
       style="opacity:1;fill:#0000ff;fill-opacity:1;fill-rule:nonzero;stroke:#000000;stroke-width:7.27305079;stroke-linecap:round;stroke-linejoin:round;stroke-miterlimit:4;stroke-dasharray:none;stroke-dashoffset:0;stroke-opacity:1"
       inkscape:export-filename="D:\fenix\garnatron1.7\fpg\Nave\nave10.png"
       inkscape:export-xdpi="11.18"
       inkscape:export-ydpi="11.18" />
    <path
       sodipodi:nodetypes="cccc"
       id="path3268"
       d="M 401.186,665.04513 C 475.9098,748.07173 498.7422,1026.2108 498.7422,1026.2108 C 415.7156,984.6975 365.8996,1007.5298 365.8996,1007.5298 C 332.689,839.401 399.1103,667.1208 401.186,665.04513 z "
       style="opacity:1;fill:#b3b3b3;fill-opacity:1;fill-rule:nonzero;stroke:#000000;stroke-width:7.27299976;stroke-linecap:round;stroke-linejoin:round;stroke-miterlimit:4;stroke-dasharray:none;stroke-dashoffset:0;stroke-opacity:1"
       inkscape:export-filename="D:\fenix\garnatron1.7\fpg\Nave\nave10.png"
       inkscape:export-xdpi="11.18"
       inkscape:export-ydpi="11.18" />
    <path
       id="path3270"
       d="M 407.826,673.0625 C 477.284,764.58497 498.7323,1026.2187 498.7323,1026.2188 C 480.6207,1017.163 464.1045,1011.1494 449.326,1007.3125 C 451.1812,983.9867 457.4583,861.39252 405.326,673.34375 L 407.826,673.0625 z "
       style="opacity:1;fill:black;fill-opacity:0.3764706;fill-rule:nonzero;stroke:none;stroke-width:7.27299976;stroke-linecap:round;stroke-linejoin:round;stroke-miterlimit:4;stroke-dasharray:none;stroke-dashoffset:0;stroke-opacity:1"
       inkscape:export-filename="D:\fenix\garnatron1.7\fpg\Nave\nave10.png"
       inkscape:export-xdpi="11.18"
       inkscape:export-ydpi="11.18" />
    <path
       style="opacity:1;fill:#ff0000;fill-opacity:1;fill-rule:nonzero;stroke:#000000;stroke-width:7.27304268;stroke-linecap:round;stroke-linejoin:round;stroke-miterlimit:4;stroke-dasharray:none;stroke-dashoffset:0;stroke-opacity:1"
       d="M 422.7954,746.34557 L 578.3667,808.93635 L 577.0514,908.63154 L 419.4257,931.3162 C 408.0949,865.50799 413.3695,803.85112 422.7954,746.34557 z "
       id="path3272"
       sodipodi:nodetypes="ccccc"
       inkscape:export-filename="D:\fenix\garnatron1.7\fpg\Nave\nave10.png"
       inkscape:export-xdpi="11.18"
       inkscape:export-ydpi="11.18" />
    <path
       id="path3256"
       d="M 423.50326,749.66646 C 416.49815,809.93191 410.45462,870.19736 420.33981,930.46281 L 514.76239,916.38959 L 510.91064,783.77997 L 423.50326,749.66646 z "
       style="opacity:1;fill:black;fill-opacity:0.37647059;fill-rule:nonzero;stroke:none;stroke-width:7.27299976;stroke-linecap:round;stroke-linejoin:round;stroke-miterlimit:4;stroke-dasharray:none;stroke-dashoffset:0;stroke-opacity:1"
       sodipodi:nodetypes="ccccc"
       inkscape:export-filename="D:\fenix\garnatron1.7\fpg\Nave\nave10.png"
       inkscape:export-xdpi="11.18"
       inkscape:export-ydpi="11.18" />
    <path
       sodipodi:nodetypes="cccc"
       id="path3274"
       d="M 567.1946,1040.9548 C 676.4416,869.60207 610.6133,718.76334 610.6133,718.76334 C 569.9957,684.9755 516.7728,712.72978 516.7728,712.72978 C 470.553,910.63024 562.9927,1039.7483 567.1946,1040.9548 z "
       style="opacity:1;fill:#cccccc;fill-opacity:1;fill-rule:nonzero;stroke:#000000;stroke-width:7.27299976;stroke-linecap:round;stroke-linejoin:round;stroke-miterlimit:4;stroke-dasharray:none;stroke-dashoffset:0;stroke-opacity:1"
       inkscape:export-filename="D:\fenix\garnatron1.7\fpg\Nave\nave10.png"
       inkscape:export-xdpi="11.18"
       inkscape:export-ydpi="11.18" />
    <path
       style="opacity:1;fill:#ffffff;fill-opacity:0.32882888;fill-rule:nonzero;stroke:none;stroke-width:1.00000143;stroke-linecap:round;stroke-linejoin:round;stroke-miterlimit:4;stroke-dasharray:none;stroke-dashoffset:0;stroke-opacity:1"
       d="M 284.2757,738.38662 C 358.2469,822.66825 313.8349,914.21149 313.8349,914.21149 C 308.6656,816.0414 280.784,738.95794 284.2757,738.38662 z "
       id="path3276"
       sodipodi:nodetypes="ccc"
       inkscape:export-filename="D:\fenix\garnatron1.7\fpg\Nave\nave10.png"
       inkscape:export-xdpi="11.18"
       inkscape:export-ydpi="11.18" />
    <path
       style="opacity:1;fill:white;fill-opacity:0.32882888;fill-rule:nonzero;stroke:none;stroke-width:1;stroke-linecap:round;stroke-linejoin:round;stroke-miterlimit:4;stroke-dasharray:none;stroke-dashoffset:0;stroke-opacity:1"
       d="M 314.26226,950.04158 C 278.33781,937.66971 246.79638,858.92528 246.79638,858.92528 C 253.98128,915.83577 281.20052,953.3771 281.20052,953.3771 C 297.36662,958.32576 313.36416,951.69122 314.26226,950.04158 z "
       id="path3278"
       sodipodi:nodetypes="cccc"
       inkscape:export-filename="D:\fenix\garnatron1.7\fpg\Nave\nave10.png"
       inkscape:export-xdpi="11.18"
       inkscape:export-ydpi="11.18" />
    <path
       id="path3280"
       d="M 559.24383,699.63938 C 574.54923,699.71009 591.54353,703.71893 606.77513,716.38938 C 606.77513,716.38938 671.74133,865.29921 565.46263,1035.2643 L 557.18133,1030.0768 C 557.18133,1030.0768 497.38213,875.40467 556.61883,699.67063 C 557.49213,699.64923 558.35843,699.63529 559.24383,699.63938 z "
       style="opacity:1;fill:black;fill-opacity:0.37647059;fill-rule:nonzero;stroke:none;stroke-width:7.27299976;stroke-linecap:round;stroke-linejoin:round;stroke-miterlimit:4;stroke-dasharray:none;stroke-dashoffset:0;stroke-opacity:1"
       inkscape:export-filename="D:\fenix\garnatron1.7\fpg\Nave\nave10.png"
       inkscape:export-xdpi="11.18"
       inkscape:export-ydpi="11.18" />
    <path
       style="fill:#ccc;fill-opacity:1;fill-rule:nonzero;stroke:black;stroke-width:7.27304935;stroke-linecap:round;stroke-linejoin:round;stroke-miterlimit:4;stroke-dasharray:none;stroke-dashoffset:0;stroke-opacity:1"
       d="M 2015.3149,991.62665 C 1950.4102,867.86472 1989.5195,758.91931 1989.5195,758.91931 C 2013.6506,734.51557 2045.2709,754.56149 2045.2709,754.56149 C 2072.7306,897.49794 2017.8114,990.75485 2015.3149,991.62665 z "
       id="path1951"
       sodipodi:nodetypes="cccc"
       inkscape:export-filename="D:\fenix\garnatron1.7\fpg\Nave\nave20.png"
       inkscape:export-xdpi="11.18"
       inkscape:export-ydpi="11.18" />
    <path
       id="path1953"
       d="M 2017.7591,746.80756 C 2008.666,746.85863 1998.5582,749.78116 1989.5091,758.93256 C 1989.5091,758.93256 1950.4168,867.85813 2015.3215,991.62005 C 2017.8181,990.74825 2072.7188,897.49403 2045.2591,754.55756 C 2045.2591,754.55756 2032.9142,746.72244 2017.7591,746.80756 z "
       style="fill:black;fill-opacity:0.37647059;fill-rule:nonzero;stroke:none;stroke-width:7.27299976;stroke-linecap:round;stroke-linejoin:round;stroke-miterlimit:4;stroke-dasharray:none;stroke-dashoffset:0;stroke-opacity:1"
       inkscape:export-filename="D:\fenix\garnatron1.7\fpg\Nave\nave20.png"
       inkscape:export-xdpi="11.18"
       inkscape:export-ydpi="11.18" />
    <path
       id="path1983"
       d="M 2007.322,750.70219 C 1973.2735,866.45971 2021.947,985.57718 2021.947,985.57718 L 2017.1346,988.29588 C 2004.5468,965.7533 1967.5167,879.75294 1991.072,757.13969 C 1991.072,757.13969 1997.761,752.91067 2007.322,750.70219 z "
       style="fill:white;fill-opacity:0.37647059;fill-rule:nonzero;stroke:none;stroke-width:7.27299976;stroke-linecap:round;stroke-linejoin:round;stroke-miterlimit:4;stroke-dasharray:none;stroke-dashoffset:0;stroke-opacity:1"
       inkscape:export-filename="D:\fenix\garnatron1.7\fpg\Nave\nave20.png"
       inkscape:export-xdpi="11.18"
       inkscape:export-ydpi="11.18" />
    <path
       sodipodi:nodetypes="ccccc"
       id="path1955"
       d="M 1862.3513,744.02813 L 2017.9227,806.61891 L 2016.6074,906.3141 L 1817.4683,928.99876 L 1862.3513,744.02813 z "
       style="fill:red;fill-opacity:1;fill-rule:nonzero;stroke:black;stroke-width:7.27304268;stroke-linecap:round;stroke-linejoin:round;stroke-miterlimit:4;stroke-dasharray:none;stroke-dashoffset:0;stroke-opacity:1"
       inkscape:export-filename="D:\fenix\garnatron1.7\fpg\Nave\nave20.png"
       inkscape:export-xdpi="11.18"
       inkscape:export-ydpi="11.18" />
    <path
       id="path1957"
       d="M 1883.3841,752.49506 L 1887.3215,921.02631 L 2016.6028,906.30756 L 2017.9153,806.62006 L 1883.3841,752.49506 z "
       style="fill:black;fill-opacity:0.37647059;fill-rule:nonzero;stroke:none;stroke-width:7.27299976;stroke-linecap:round;stroke-linejoin:round;stroke-miterlimit:4;stroke-dasharray:none;stroke-dashoffset:0;stroke-opacity:1"
       inkscape:export-filename="D:\fenix\garnatron1.7\fpg\Nave\nave20.png"
       inkscape:export-xdpi="11.18"
       inkscape:export-ydpi="11.18" />
    <path
       style="fill:#b3b3b3;fill-opacity:1;fill-rule:nonzero;stroke:black;stroke-width:7.27299976;stroke-linecap:round;stroke-linejoin:round;stroke-miterlimit:4;stroke-dasharray:none;stroke-dashoffset:0;stroke-opacity:1"
       d="M 1884.7248,658.42503 C 1828.6818,704.08966 1789.2441,996.75845 1789.2441,996.75845 C 1874.3465,978.07745 1917.9355,1005.061 1917.9355,1005.061 C 1953.2218,828.62957 1886.8005,660.5007 1884.7248,658.42503 z "
       id="path1959"
       sodipodi:nodetypes="cccc"
       inkscape:export-filename="D:\fenix\garnatron1.7\fpg\Nave\nave20.png"
       inkscape:export-xdpi="11.18"
       inkscape:export-ydpi="11.18" />
    <path
       id="path1961"
       d="M 1881.5091,661.33881 C 1880.8192,662.02335 1880.1311,662.73818 1879.4465,663.49506 L 1864.1652,990.90135 C 1899.8023,993.87295 1917.9465,1005.0575 1917.9465,1005.0575 C 1949.7358,846.11155 1898.9624,693.96482 1887.0715,663.83881 L 1886.6028,663.62006 L 1881.5091,661.33881 z "
       style="fill:black;fill-opacity:0.37647059;fill-rule:nonzero;stroke:none;stroke-width:7.27299976;stroke-linecap:round;stroke-linejoin:round;stroke-miterlimit:4;stroke-dasharray:none;stroke-dashoffset:0;stroke-opacity:1"
       inkscape:export-filename="D:\fenix\garnatron1.7\fpg\Nave\nave20.png"
       inkscape:export-xdpi="11.18"
       inkscape:export-ydpi="11.18" />
    <path
       style="fill:red;fill-opacity:1;fill-rule:nonzero;stroke:black;stroke-width:7.27304268;stroke-linecap:round;stroke-linejoin:round;stroke-miterlimit:4;stroke-dasharray:none;stroke-dashoffset:0;stroke-opacity:1"
       d="M 1815.6869,478.5263 C 1665.3021,752.30391 1755.9186,993.30525 1755.9186,993.30525 C 1811.8309,1047.2895 1883.7322,997.49205 1883.7322,997.49205 C 1947.3565,681.29828 1821.471,480.45432 1815.6869,478.5263 z "
       id="path1963"
       sodipodi:nodetypes="cccc"
       inkscape:export-filename="D:\fenix\garnatron1.7\fpg\Nave\nave20.png"
       inkscape:export-xdpi="11.18"
       inkscape:export-ydpi="11.18" />
    <path
       id="path1965"
       d="M 1815.6964,478.52631 C 1815.1967,479.43609 1814.6909,480.33601 1814.1964,481.24506 C 1857.9549,692.79345 1904.9346,990.11925 1842.509,1015.2137 C 1866.5639,1009.3477 1883.7278,997.49505 1883.7278,997.49505 C 1947.3521,681.30127 1821.4806,480.45433 1815.6964,478.52631 z "
       style="fill:black;fill-opacity:0.37647059;fill-rule:nonzero;stroke:none;stroke-width:7.27299976;stroke-linecap:round;stroke-linejoin:round;stroke-miterlimit:4;stroke-dasharray:none;stroke-dashoffset:0;stroke-opacity:1"
       sodipodi:nodetypes="ccccc"
       inkscape:export-filename="D:\fenix\garnatron1.7\fpg\Nave\nave20.png"
       inkscape:export-xdpi="11.18"
       inkscape:export-ydpi="11.18" />
    <path
       sodipodi:nodetypes="cccc"
       id="path1967"
       d="M 1855.5744,717.52695 C 1765.4394,842.26886 1824.8556,957.56915 1824.8556,957.56915 C 1834.268,965.52283 1870.3866,965.81955 1870.3866,965.81955 C 1956.1299,854.98698 1857.2261,716.73599 1855.5744,717.52695 z "
       style="fill:blue;fill-opacity:1;fill-rule:nonzero;stroke:black;stroke-width:7.27305079;stroke-linecap:round;stroke-linejoin:round;stroke-miterlimit:4;stroke-dasharray:none;stroke-dashoffset:0;stroke-opacity:1"
       inkscape:export-filename="D:\fenix\garnatron1.7\fpg\Nave\nave20.png"
       inkscape:export-xdpi="11.18"
       inkscape:export-ydpi="11.18" />
    <path
       sodipodi:nodetypes="cccc"
       id="path1969"
       d="M 1744.649,666.72769 C 1669.9252,749.75429 1647.0928,1027.8933 1647.0928,1027.8933 C 1730.1194,986.38005 1779.9354,1009.2123 1779.9354,1009.2123 C 1813.146,841.08356 1746.7247,668.80336 1744.649,666.72769 z "
       style="fill:#b3b3b3;fill-opacity:1;fill-rule:nonzero;stroke:black;stroke-width:7.27299976;stroke-linecap:round;stroke-linejoin:round;stroke-miterlimit:4;stroke-dasharray:none;stroke-dashoffset:0;stroke-opacity:1"
       inkscape:export-filename="D:\fenix\garnatron1.7\fpg\Nave\nave20.png"
       inkscape:export-xdpi="11.18"
       inkscape:export-ydpi="11.18" />
    <path
       id="path1971"
       d="M 1738.009,674.74506 C 1668.551,766.26753 1647.1027,1027.9012 1647.1027,1027.9013 C 1665.2143,1018.8455 1681.7305,1012.8319 1696.509,1008.995 C 1694.6538,985.66925 1688.3767,863.07508 1740.509,675.02631 L 1738.009,674.74506 z "
       style="fill:white;fill-opacity:0.37647059;fill-rule:nonzero;stroke:none;stroke-width:7.27299976;stroke-linecap:round;stroke-linejoin:round;stroke-miterlimit:4;stroke-dasharray:none;stroke-dashoffset:0;stroke-opacity:1"
       inkscape:export-filename="D:\fenix\garnatron1.7\fpg\Nave\nave20.png"
       inkscape:export-xdpi="11.18"
       inkscape:export-ydpi="11.18" />
    <path
       style="fill:red;fill-opacity:1;fill-rule:nonzero;stroke:black;stroke-width:7.27304268;stroke-linecap:round;stroke-linejoin:round;stroke-miterlimit:4;stroke-dasharray:none;stroke-dashoffset:0;stroke-opacity:1"
       d="M 1723.0396,748.02813 L 1567.4683,810.61891 L 1568.7836,910.3141 L 1726.4093,932.99876 C 1737.7401,867.19055 1732.4655,805.53368 1723.0396,748.02813 z "
       id="path1973"
       sodipodi:nodetypes="ccccc"
       inkscape:export-filename="D:\fenix\garnatron1.7\fpg\Nave\nave20.png"
       inkscape:export-xdpi="11.18"
       inkscape:export-ydpi="11.18" />
    <path
       sodipodi:nodetypes="cccc"
       id="path1975"
       d="M 1578.6404,1042.6373 C 1469.3934,871.28463 1535.2217,720.4459 1535.2217,720.4459 C 1575.8393,686.65806 1629.0622,714.41234 1629.0622,714.41234 C 1675.282,912.3128 1582.8423,1041.4308 1578.6404,1042.6373 z "
       style="fill:#ccc;fill-opacity:1;fill-rule:nonzero;stroke:black;stroke-width:7.27299976;stroke-linecap:round;stroke-linejoin:round;stroke-miterlimit:4;stroke-dasharray:none;stroke-dashoffset:0;stroke-opacity:1"
       inkscape:export-filename="D:\fenix\garnatron1.7\fpg\Nave\nave20.png"
       inkscape:export-xdpi="11.18"
       inkscape:export-ydpi="11.18" />
    <path
       style="fill:white;fill-opacity:0.32882888;fill-rule:nonzero;stroke:none;stroke-width:1.00000143;stroke-linecap:round;stroke-linejoin:round;stroke-miterlimit:4;stroke-dasharray:none;stroke-dashoffset:0;stroke-opacity:1"
       d="M 1861.5593,740.06918 C 1787.5881,824.35081 1832.0001,915.89405 1832.0001,915.89405 C 1837.1694,817.72396 1865.051,740.6405 1861.5593,740.06918 z "
       id="path1977"
       sodipodi:nodetypes="ccc"
       inkscape:export-filename="D:\fenix\garnatron1.7\fpg\Nave\nave20.png"
       inkscape:export-xdpi="11.18"
       inkscape:export-ydpi="11.18" />
    <path
       style="fill:white;fill-opacity:0.32882888;fill-rule:nonzero;stroke:none;stroke-width:1;stroke-linecap:round;stroke-linejoin:round;stroke-miterlimit:4;stroke-dasharray:none;stroke-dashoffset:0;stroke-opacity:1"
       d="M 1831.5728,951.72414 C 1867.4972,939.35227 1899.0387,860.60784 1899.0387,860.60784 C 1891.8538,917.51833 1864.6345,955.05966 1864.6345,955.05966 C 1848.4684,960.00832 1832.4709,953.37378 1831.5728,951.72414 z "
       id="path1979"
       sodipodi:nodetypes="cccc"
       inkscape:export-filename="D:\fenix\garnatron1.7\fpg\Nave\nave20.png"
       inkscape:export-xdpi="11.18"
       inkscape:export-ydpi="11.18" />
    <path
       id="path1981"
       d="M 1582.759,703.68256 C 1567.4536,703.75327 1550.4593,707.76211 1535.2277,720.43256 C 1535.2277,720.43256 1470.2615,869.34239 1576.5402,1039.3075 L 1584.8215,1034.12 C 1584.8215,1034.12 1644.6207,879.44785 1585.384,703.71381 C 1584.5107,703.69241 1583.6444,703.67847 1582.759,703.68256 z "
       style="fill:white;fill-opacity:0.37647059;fill-rule:nonzero;stroke:none;stroke-width:7.27299976;stroke-linecap:round;stroke-linejoin:round;stroke-miterlimit:4;stroke-dasharray:none;stroke-dashoffset:0;stroke-opacity:1"
       inkscape:export-filename="D:\fenix\garnatron1.7\fpg\Nave\nave20.png"
       inkscape:export-xdpi="11.18"
       inkscape:export-ydpi="11.18" />
  </g>
</svg>
