<?xml version="1.0" encoding="UTF-8" standalone="no"?>
<!-- Created with Inkscape (http://www.inkscape.org/) -->

<svg
   xmlns:dc="http://purl.org/dc/elements/1.1/"
   xmlns:cc="http://creativecommons.org/ns#"
   xmlns:rdf="http://www.w3.org/1999/02/22-rdf-syntax-ns#"
   xmlns:svg="http://www.w3.org/2000/svg"
   xmlns="http://www.w3.org/2000/svg"
   xmlns:sodipodi="http://sodipodi.sourceforge.net/DTD/sodipodi-0.dtd"
   xmlns:inkscape="http://www.inkscape.org/namespaces/inkscape"
   width="640"
   height="360"
   id="svg5513"
   version="1.1"
   inkscape:version="0.48.1 "
   sodipodi:docname="salon.svg"
   inkscape:export-filename="C:\Users\cgines\Documents\personal\4.png"
   inkscape:export-xdpi="90"
   inkscape:export-ydpi="90">
  <defs
     id="defs5515" />
  <sodipodi:namedview
     id="base"
     pagecolor="#ffffff"
     bordercolor="#666666"
     borderopacity="1.0"
     inkscape:pageopacity="0.0"
     inkscape:pageshadow="2"
     inkscape:zoom="0.7"
     inkscape:cx="459.52733"
     inkscape:cy="333.76104"
     inkscape:document-units="px"
     inkscape:current-layer="layer1"
     showgrid="true"
     inkscape:window-width="1280"
     inkscape:window-height="962"
     inkscape:window-x="-8"
     inkscape:window-y="-8"
     inkscape:window-maximized="1">
    <inkscape:grid
       type="xygrid"
       id="grid5521"
       empspacing="5"
       visible="true"
       enabled="true"
       snapvisiblegridlinesonly="true" />
  </sodipodi:namedview>
  <metadata
     id="metadata5518">
    <rdf:RDF>
      <cc:Work
         rdf:about="">
        <dc:format>image/svg+xml</dc:format>
        <dc:type
           rdf:resource="http://purl.org/dc/dcmitype/StillImage" />
        <dc:title></dc:title>
      </cc:Work>
    </rdf:RDF>
  </metadata>
  <g
     inkscape:label="Capa 1"
     inkscape:groupmode="layer"
     id="layer1"
     transform="translate(0,-692.36218)">
    <path
       style="fill:#ffdd55;stroke:#000000;stroke-width:1px;stroke-linecap:round;stroke-linejoin:round;stroke-opacity:1;fill-opacity:1"
       d="m 0,0 0,180 640,0 0,-180 z"
       id="path5789"
       inkscape:connector-curvature="0"
       transform="translate(0,692.36218)" />
    <path
       style="fill:#dfdfdf;fill-opacity:1;stroke:#000000;stroke-width:1px;stroke-linecap:round;stroke-linejoin:round;stroke-opacity:1"
       d="m 0,1052.3622 0,-180.00002 460,2e-5 180,180 z"
       id="path2989"
       inkscape:connector-curvature="0"
       sodipodi:nodetypes="ccccc" />
    <path
       style="fill:#ffdd55;stroke:#000000;stroke-width:1px;stroke-linecap:round;stroke-linejoin:round;stroke-opacity:1"
       d="m 0,1052.3622 80,-80 0,-120 40,-40.00002 0,120.00002 60,-60 0,-180.00002 -180,0 z"
       id="path2991-1"
       inkscape:connector-curvature="0" />
    <path
       style="fill:#ffdd55;stroke:#000000;stroke-width:1px;stroke-linecap:round;stroke-linejoin:round;stroke-opacity:1"
       d="m 180,692.36218 280,0 0,180.00002 -280,0 z"
       id="path2993"
       inkscape:connector-curvature="0" />
    <path
       style="fill:#ffdd55;stroke:#000000;stroke-width:1px;stroke-linecap:round;stroke-linejoin:round;stroke-opacity:1"
       d="m 460,692.36218 180,0 0,360.00002 -180,-180 z"
       id="path2995"
       inkscape:connector-curvature="0" />
    <path
       style="fill:#d7f4ee;stroke:#000000;stroke-width:1px;stroke-linecap:round;stroke-linejoin:round;stroke-opacity:1"
       d="m 260,752.36218 0,60 120,0 0,-60 z"
       id="path5324"
       inkscape:connector-curvature="0" />
    <path
       style="fill:#aa4400;stroke:#000000;stroke-width:1px;stroke-linecap:round;stroke-linejoin:round;stroke-opacity:1"
       d="m 500,862.36218 -60,0 50,50 60,0 z"
       id="path5332"
       inkscape:connector-curvature="0"
       sodipodi:nodetypes="ccccc" />
    <path
       style="fill:#aa4400;stroke:#000000;stroke-width:1px;stroke-linecap:round;stroke-linejoin:round;stroke-opacity:1"
       d="m 550,912.36218 0,60.00002 -60,0 0,-60.00002 z"
       id="path5326-5"
       inkscape:connector-curvature="0"
       sodipodi:nodetypes="ccccc" />
    <path
       style="fill:#aa4400;stroke:#000000;stroke-width:1px;stroke-linecap:round;stroke-linejoin:round;stroke-opacity:1"
       d="m 465,887.36216 -25,-24.99998 0,60 25,25 z"
       id="path5328-6"
       inkscape:connector-curvature="0"
       sodipodi:nodetypes="ccccc" />
    <g
       id="g5618"
       transform="translate(10,0)"
       style="fill:#008000;stroke-linejoin:round;stroke-linecap:round">
      <path
         inkscape:connector-curvature="0"
         id="path5574-1"
         d="m 370,942.36218 -80,0 0,-80 20,0 20,40 40,0 z"
         style="fill:#008000;stroke:#000000;stroke-width:1px;stroke-linecap:round;stroke-linejoin:round;stroke-opacity:1" />
      <path
         transform="translate(0,692.36218)"
         inkscape:connector-curvature="0"
         id="path5580"
         d="m 320,200 20,0 -40,-40 -20,0 z"
         style="fill:#008000;stroke:#000000;stroke-width:1px;stroke-linecap:round;stroke-linejoin:round;stroke-opacity:1" />
      <path
         sodipodi:nodetypes="ccccc"
         inkscape:connector-curvature="0"
         id="path5578-6"
         d="m 370,902.36218 -10,-10 -35,0 5,10 z"
         style="fill:#008000;stroke:#000000;stroke-width:1px;stroke-linecap:round;stroke-linejoin:round;stroke-opacity:1" />
      <path
         transform="translate(0,692.36218)"
         inkscape:connector-curvature="0"
         id="path5574"
         d="m 400,280 -80,0 0,-80 20,0 20,40 40,0 z"
         style="fill:#008000;stroke:#000000;stroke-width:1px;stroke-linecap:round;stroke-linejoin:round;stroke-opacity:1" />
      <path
         transform="translate(0,692.36218)"
         inkscape:connector-curvature="0"
         id="path5576"
         d="m 320,200 -40,-40 0,80 40,40 z"
         style="fill:#008000;stroke:#000000;stroke-width:1px;stroke-linecap:round;stroke-linejoin:round;stroke-opacity:1" />
      <path
         sodipodi:nodetypes="ccccc"
         transform="translate(0,692.36218)"
         inkscape:connector-curvature="0"
         id="path5578"
         d="m 400,240 -10,-10 -35,0 5,10 z"
         style="fill:#008000;stroke:#000000;stroke-width:1px;stroke-linecap:round;stroke-linejoin:round;stroke-opacity:1" />
    </g>
    <path
       style="fill:#aa4400;stroke:#000000;stroke-width:1px;stroke-linecap:round;stroke-linejoin:round;stroke-opacity:1"
       d="m 490,912.36216 -25,-24.99998 0,60 25,25 z"
       id="path5328-6-5"
       inkscape:connector-curvature="0"
       sodipodi:nodetypes="ccccc" />
    <path
       style="fill:#d45500;stroke:#000000;stroke-width:1px;stroke-linecap:round;stroke-linejoin:round;stroke-opacity:1"
       d="m 495,812.36218 -25,0 25,25 25,0 z"
       id="path5332-6"
       inkscape:connector-curvature="0"
       sodipodi:nodetypes="ccccc" />
    <path
       style="fill:#d45500;stroke:#000000;stroke-width:1px;stroke-linecap:round;stroke-linejoin:round;stroke-opacity:1"
       d="m 520,837.36218 0,60.00002 -25,-2e-5 0,-60.00002 z"
       id="path5326-5-9"
       inkscape:connector-curvature="0"
       sodipodi:nodetypes="ccccc" />
    <path
       style="fill:#d45500;stroke:#000000;stroke-width:1px;stroke-linecap:round;stroke-linejoin:round;stroke-opacity:1"
       d="m 495,837.36218 -25,-24.99998 0,60 25,25 z"
       id="path5328-6-5-8"
       inkscape:connector-curvature="0"
       sodipodi:nodetypes="ccccc" />
    <path
       style="fill:#ffdd55;fill-opacity:1;stroke:#000000;stroke-width:1px;stroke-linecap:round;stroke-linejoin:round;stroke-opacity:1"
       d="m 120,240 -10,0 0,-110 10,-10 z"
       id="path5791"
       inkscape:connector-curvature="0"
       transform="translate(0,692.36218)"
       sodipodi:nodetypes="ccccc" />
    <path
       style="fill:#00ffff;stroke:#000000;stroke-width:1px;stroke-linecap:round;stroke-linejoin:round;stroke-opacity:1"
       d="m 490,842.36218 -15,-15 0,40 15,15 z"
       id="path5328-6-5-8-9"
       inkscape:connector-curvature="0"
       sodipodi:nodetypes="ccccc" />
    <path
       style="fill:#333333;stroke:#000000;stroke-width:1px;stroke-linecap:butt;stroke-linejoin:miter;stroke-opacity:1"
       d="m 520,145 15,15 0,30 -15,5 z"
       id="path7893"
       inkscape:connector-curvature="0"
       transform="translate(0,692.36218)"
       sodipodi:nodetypes="ccccc" />
    <path
       style="fill:none;stroke:#000000;stroke-width:1px;stroke-linecap:butt;stroke-linejoin:miter;stroke-opacity:1"
       d="m 535,160 -15,-5 0,40 15,-5 z"
       id="path7895"
       inkscape:connector-curvature="0"
       transform="translate(0,692.36218)" />
  </g>
</svg>
