<?xml version="1.0" encoding="UTF-8" standalone="no"?>
<!-- Created with Inkscape (http://www.inkscape.org/) -->

<svg
   xmlns:dc="http://purl.org/dc/elements/1.1/"
   xmlns:cc="http://creativecommons.org/ns#"
   xmlns:rdf="http://www.w3.org/1999/02/22-rdf-syntax-ns#"
   xmlns:svg="http://www.w3.org/2000/svg"
   xmlns="http://www.w3.org/2000/svg"
   xmlns:sodipodi="http://sodipodi.sourceforge.net/DTD/sodipodi-0.dtd"
   xmlns:inkscape="http://www.inkscape.org/namespaces/inkscape"
   width="512"
   height="512"
   id="svg2"
   version="1.1"
   inkscape:version="0.48.2 r9819"
   inkscape:export-filename="G:\inforgames\recursos\graficos\logo_google_play.png"
   inkscape:export-xdpi="90"
   inkscape:export-ydpi="90"
   sodipodi:docname="logo_google_play.svg"
   style="enable-background:new">
  <defs
     id="defs4" />
  <sodipodi:namedview
     id="base"
     pagecolor="#ffffff"
     bordercolor="#666666"
     borderopacity="1.0"
     inkscape:pageopacity="0.0"
     inkscape:pageshadow="2"
     inkscape:zoom="0.35"
     inkscape:cx="670.5221"
     inkscape:cy="338.00174"
     inkscape:document-units="px"
     inkscape:current-layer="layer1"
     showgrid="false"
     inkscape:window-width="1366"
     inkscape:window-height="706"
     inkscape:window-x="-8"
     inkscape:window-y="-8"
     inkscape:window-maximized="1"
     showguides="true"
     inkscape:guide-bbox="true" />
  <metadata
     id="metadata7">
    <rdf:RDF>
      <cc:Work
         rdf:about="">
        <dc:format>image/svg+xml</dc:format>
        <dc:type
           rdf:resource="http://purl.org/dc/dcmitype/StillImage" />
        <dc:title />
      </cc:Work>
    </rdf:RDF>
  </metadata>
  <g
     inkscape:label="Capa 1"
     inkscape:groupmode="layer"
     id="layer1"
     transform="translate(0,-540.36218)"
     style="display:inline">
    <path
       inkscape:connector-curvature="0"
       id="path3009-7-9"
       d="m 260.96648,1045.4833 c -11.7424,-0.5709 -22.8501,-5.1398 -32.8649,-13.5183 -1.917,-1.6043 -5.2426,-4.8308 -7.0201,-6.8118 -7.9437,-8.852 -14.2063,-19.9208 -18.3741,-32.47626 -7.5781,-22.8282 -7.6377,-49.1188 -0.1642,-72.036 6.7249,-20.6199 18.9925,-37.0515 34.3763,-46.0453 2.1798,-1.2746 5.2538,-2.7692 7.5704,-3.6814 1.0737,-0.423 1.9771,-0.8328 2.0076,-0.9118 0.031,-0.081 -0.3674,-0.5843 -0.8851,-1.1237 -2.3111,-2.4084 -4.5953,-5.4422 -6.5754,-8.7334 -1.0794,-1.7941 -1.4801,-2.5263 -2.7918,-5.1016 l -1.236,-2.4269 -0.4491,0.027 c -6.4573,0.3929 -70.86329,4.7764 -71.03369,4.834 -0.1402,0.045 -2.6367,3.1763 -5.893,7.3864 -9.5975,12.4082 -10.8785,14.0633 -29.8153,38.5235 l -15.3839,19.8703 -7.2989,3.6504 c -6.019295,3.0097 -7.324299,3.6228 -7.443399,3.5013 -0.081,-0.081 -0.8257,-1.6912 -1.6586,-3.5759 -1.1284,-2.5541 -1.4811,-3.4582 -1.3846,-3.5494 0.07,-0.07 3.626204,-0.4128 8.500599,-0.8217 7.1091,-0.594 8.3983,-0.729 8.5502,-0.8901 0.1009,-0.1047 4.1388,-7.2428 8.9783,-15.8642 7.8869,-14.0497 24.7896,-44.1362 31.769,-56.5478 2.3229,-4.131 2.67,-4.6912 2.906,-4.6912 0.1479,0 17.88709,1.4916 39.42169,3.3147 21.5345,1.8231 39.2327,3.3148 39.3293,3.3148 0.1009,0 0.1752,-0.06 0.1752,-0.1265 0,-0.067 -0.3756,-1.0682 -0.8348,-2.2192 -3.8098,-9.556 -6.3558,-20.6036 -7.5832,-32.9067 -0.1681,-1.6829 -0.3293,-3.0838 -0.3585,-3.1131 -0.1008,-0.096 -69.03259,-16.922 -69.14889,-16.8775 -0.06,0.019 -3.4757,2.3671 -7.5853,5.2071 -4.1095,2.8399 -9.7724,6.7527 -12.5844,8.6952 -2.812,1.9424 -14.0744,9.7254 -25.0277,17.2955 -10.9532,7.5702 -20.661499,14.2721 -21.573999,14.8933 l -1.6591,1.1294 -1.1798,0.1794 c -0.6485,0.098 -4.2764,0.6738 -8.0609,1.2783 -3.7846,0.6047 -6.9141,1.0659 -6.9546,1.0254 -0.091,-0.091 -0.9324,-7.632 -0.865,-7.7479 0.031,-0.045 0.1612,-0.082 0.2962,-0.079 0.1351,0 3.8616,0.8304 8.2804,1.8384 7.7122,1.7594 8.046,1.8256 8.3335,1.6518 0.1643,-0.1 14.744199,-13.6816 32.398999,-30.1825 17.6547,-16.5008 32.1915,-30.0169 32.304,-30.0359 0.1129,-0.019 3.989,1.5303 8.6143,3.4429 4.6253,1.9125 20.36809,8.4187 34.98399,14.4582 14.6159,6.0395 27.1558,11.2238 27.8665,11.5208 0.71,0.297 1.3364,0.4974 1.3905,0.4449 0.05,-0.053 0.041,-1.155 -0.031,-2.5588 -0.1549,-3.0383 -0.1631,-11.1155 -0.019,-14.0709 0.4189,-8.2507 1.3364,-15.5052 2.9052,-22.9834 0.2538,-1.2089 0.2981,-1.6003 0.1962,-1.7083 -0.1168,-0.1238 -6.2973,-3.2628 -30.8011,-15.6447 -3.5844,-1.8112 -13.2552,-6.6994 -21.4906,-10.8627 l -14.97339,-7.5694 -1.2633,0.489 c -0.6948,0.269 -9.3536,3.6881 -19.2417,7.5984 -9.8882,3.9101 -19.2931,7.6287 -20.8999,8.2636 -1.6068,0.6347 -10.1775,4.0227 -19.0459,7.529 -8.868399,3.506 -16.311799,6.4415 -16.540799,6.5232 -0.3616,0.1288 -1.4793,0.075 -8.4835,-0.4171 -5.2609,-0.369 -8.1112,-0.6107 -8.1938,-0.6955 -0.091,-0.098 -0.019,-1.0565 0.3064,-3.7258 0.2374,-1.9776 0.447,-3.6967 0.4642,-3.8204 0.019,-0.1506 0.1066,-0.2176 0.2619,-0.202 0.1269,0.016 3.581,1.6432 7.6764,3.6238 4.0953,1.9805 7.5386,3.601 7.6517,3.601 0.113,0 2.9794,-1.5999 6.3691,-3.5553 42.953299,-24.778 69.831099,-40.2707 70.134899,-40.4267 0.2355,-0.1222 0.422,-0.1542 0.5055,-0.09 1.6526,1.2801 67.77269,48.3446 67.86739,48.3082 0.07,-0.027 0.2811,-0.6525 0.4592,-1.3863 1.8502,-7.6598 5.0753,-16.2495 8.2876,-22.0732 2.7139,-4.9202 5.2303,-8.4488 8.2243,-11.5325 0.7935,-0.8177 1.4239,-1.5444 1.4003,-1.6151 -0.019,-0.067 -0.6726,-0.3669 -1.4432,-0.6572 -4.8894,-1.8462 -9.7113,-4.5648 -13.5359,-7.6313 -3.7857,-3.0356 -7.452,-6.93 -10.0921,-10.7202 -10.5534,-15.1503 -11.9585,-34.9183 -3.6541,-51.4119 5.7446,-11.4101 16.0313,-20.5148 27.8944,-24.6897 1.0254,-0.3612 1.366,-0.5297 1.3903,-0.6872 0.031,-0.1803 -23.4679,-67.6174 -23.6063,-67.7558 -0.031,-0.028 -5.9975,-0.52 -13.2657,-1.0929 -7.2683,-0.5731 -13.2496,-1.0766 -13.2918,-1.1188 -0.041,-0.045 -0.05,-0.099 -0.031,-0.1255 0.031,-0.028 7.3549,-1.464 16.2834,-3.1924 12.2977,-2.3806 16.265,-3.111 16.3623,-3.0122 0.07,0.076 4.3071,17.1932 9.4141,38.0477 5.1071,20.8545 9.3107,37.9425 9.3414,37.973 0.031,0.028 0.4964,-0.06 1.0358,-0.206 4.6815,-1.2499 8.4954,-1.7474 13.3965,-1.7474 4.0721,0 7.4069,0.3456 10.8413,1.1241 0.6787,0.1542 1.2728,0.2801 1.3202,0.2801 0.041,0 0.091,-12.6032 0.091,-28.007 0,-15.4039 0.041,-28.0883 0.081,-28.1876 0.1308,-0.3095 27.1186,-24.5005 27.2687,-24.4429 0.081,0.028 2.1832,1.4063 4.6779,3.0587 2.4949,1.6522 5.8633,3.882 7.4856,4.955 1.6222,1.0728 2.9496,1.9977 2.9496,2.0548 0,0.1428 -0.1079,0.1077 -8.4275,-2.7368 -4.0478,-1.384 -7.4174,-2.4838 -7.488,-2.4441 -0.07,0.036 -4.7836,5.2494 -10.4736,11.5773 -9.5064,10.5723 -10.3505,11.5428 -10.4087,11.9669 -0.041,0.2541 -1.1232,11.9143 -2.4184,25.9122 -1.2951,13.9979 -2.3857,25.6906 -2.4235,25.984 -0.05,0.3953 -0.031,0.5446 0.081,0.5784 4.9266,1.4818 8.2178,2.8476 11.7598,4.8798 13.2466,7.6002 22.3408,20.7035 24.7354,35.6395 0.4581,2.8576 0.6072,4.787 0.6132,7.9218 0,3.0732 -0.1016,4.6637 -0.5065,7.4657 -1.2753,8.8372 -4.8692,17.053 -10.62,24.2774 -1.5615,1.9616 -5.5978,6.0006 -7.5459,7.5508 -4.4046,3.5052 -8.8189,6.0242 -13.9551,7.9637 -0.7703,0.2911 -1.4206,0.5897 -1.4452,0.6631 -0.019,0.076 0.5579,0.7495 1.2957,1.5014 6.8126,6.9444 12.4526,18.0709 16.1568,31.8737 0.2899,1.0816 0.5669,2.0082 0.6162,2.0595 0.04,0.053 14.9726,-10.5387 33.1651,-23.5327 18.1925,-12.9941 33.1569,-23.6274 33.2544,-23.6294 0.1008,0 6.1903,3.4649 13.5399,7.7046 53.9954,31.1482 63.1077,36.3868 63.2924,36.3868 0.1148,0 1.2648,-0.5116 2.5562,-1.1369 1.2917,-0.625 3.0563,-1.4783 3.9215,-1.8955 0.865,-0.417 3.2073,-1.5492 5.2045,-2.5151 1.9973,-0.966 3.6777,-1.7563 3.734,-1.7563 0.1479,0 0.1732,0.16 0.6102,3.8496 0.439,3.71 0.4572,4.0022 0.2546,4.0705 -0.081,0.027 -3.7651,0.3009 -8.1953,0.61 l -8.0546,0.5626 -11.6654,-4.6127 c -6.4159,-2.537 -12.4744,-4.9313 -13.4631,-5.3208 -0.9889,-0.3893 -9.1803,-3.6265 -18.2033,-7.1937 -18.0646,-7.1414 -19.089,-7.5463 -27.8971,-11.0258 l -6.0983,-2.409 -5.7562,2.9058 c -27.093,13.677 -59.7109,30.1845 -59.7959,30.2619 -0.1148,0.104 -0.091,0.2343 0.6052,3.5829 1.6179,7.7622 2.6004,16.6502 2.7976,25.3065 0.081,3.5996 -0.01,10.2983 -0.1549,11.802 -0.07,0.6617 -0.05,0.7586 0.1109,0.7586 0.1028,0 2.5222,-0.9663 5.3769,-2.147 2.8548,-1.1808 7.0613,-2.92 9.348,-3.8648 14.7598,-6.0986 24.2752,-10.0308 33.0353,-13.6518 5.5003,-2.2734 12.8975,-5.3305 16.4382,-6.7936 3.5407,-1.4628 6.5276,-2.6439 6.6376,-2.6245 0.1108,0.019 14.7029,13.5864 32.4288,30.1491 17.726,16.5625 32.2847,30.1466 32.3531,30.1868 0.07,0.041 3.7648,-0.7542 8.2144,-1.7651 4.4497,-1.011 8.2041,-1.8404 8.343,-1.8429 0.2196,0 0.2519,0.052 0.2499,0.4171 -0.01,0.865 -0.7683,7.2495 -0.8791,7.3597 -0.1358,0.1367 -15.7231,-2.3025 -16.2537,-2.5437 -0.1853,-0.084 -4.0536,-2.7218 -8.5959,-5.8611 -9.6941,-6.6998 -15.7786,-10.9038 -39.7772,-27.4839 -9.7954,-6.7674 -18.3041,-12.6466 -18.9079,-13.0647 l -1.0977,-0.7604 -33.5462,8.2017 c -18.4505,4.511 -33.569,8.2245 -33.5969,8.2524 -0.031,0.027 -0.125,0.8798 -0.2176,1.8933 -0.9918,10.9639 -2.9178,20.6013 -5.9045,29.5407 -0.6877,2.0593 -1.9084,5.3335 -2.4261,6.5089 -0.1479,0.3352 -0.2296,0.6452 -0.1814,0.6887 0.04,0.045 3.2219,-0.1888 7.0536,-0.5162 3.8316,-0.3277 21.1414,-1.7948 38.4662,-3.2608 30.8332,-2.6087 31.5039,-2.6607 31.6986,-2.4529 0.1098,0.1159 1.2617,2.1085 2.5605,4.4259 2.4299,4.3361 13.0133,23.1762 21.4926,38.2606 11.4274,20.3285 15.5897,27.7378 17.3719,30.9232 1.0444,1.8666 1.9569,3.4178 2.0278,3.4471 0.07,0.041 3.8126,0.3616 8.315,0.7401 4.5023,0.3818 8.2999,0.7119 8.4389,0.7411 0.1389,0.041 0.2526,0.1249 0.2526,0.2005 0,0.2125 -2.9139,6.8309 -3.0903,7.0175 -0.1187,0.125 -1.3766,-0.4682 -7.4767,-3.5377 l -7.3332,-3.6894 -2.6573,-3.4293 c -3.2584,-4.2044 -10.1977,-13.168 -23.8806,-30.8462 -20.4834,-26.4643 -24.1991,-31.2512 -24.3476,-31.3666 -0.1288,-0.1 -68.262,-4.7727 -69.4233,-4.7612 l -0.3937,0 -0.996,2.0179 c -2.7906,5.6546 -5.9712,10.3769 -9.4382,14.0139 -0.5478,0.5746 -0.9707,1.108 -0.9405,1.1859 0.031,0.077 0.7563,0.4129 1.6136,0.7465 18.5431,7.1966 33.894,24.9899 41.8958,48.5604 4.2065,12.391 6.1859,25.2596 5.9792,38.8725 -0.07,4.4397 -0.2436,7.2968 -0.7048,11.4608 -2.3458,21.1824 -10.2114,40.27136 -22.4558,54.49676 -1.415,1.6444 -4.6688,4.9449 -6.4303,6.5234 -3.989,3.5725 -7.5591,6.0673 -12.737,8.9003 -0.9466,0.5176 -3.4577,1.6687 -4.8879,2.2396 -6.8419,2.7331 -14.3146,4.0206 -21.3495,3.6784 z"
       style="fill:#ffffff;fill-opacity:1;stroke:#b6b6b6;stroke-width:3;stroke-linecap:round;stroke-linejoin:round;stroke-miterlimit:4;stroke-opacity:1;stroke-dasharray:none;enable-background:new" />
    <path
       inkscape:connector-curvature="0"
       style="fill:#000000;fill-opacity:1;fill-rule:evenodd;stroke:#fefe00;stroke-width:6.32405233;stroke-linecap:round;stroke-miterlimit:4;stroke-opacity:1;stroke-dasharray:none;enable-background:new"
       d="m 313.1875,592.73718 c -32.01805,0 -57.90625,23.34001 -57.90625,52.15625 0,28.81624 25.8882,52.15625 57.90625,52.15625 32.01802,0 58.03125,-23.34001 58.03125,-52.15625 0,-28.81624 -26.01323,-52.15625 -58.03125,-52.15625 z m -287.65625,1.4375 0,102.96875 25.15625,0 0,-102.96875 -25.15625,0 z m 142.625,2.59375 0.25,99.3125 26.125,0 0,-40.15625 39.21875,0 0,-19.625 -38.34375,0 0,-12.875 54.5625,0 0,-26.65625 -81.8125,0 z m 212.84375,0 0,99.375 30.5,0 0,-32.90625 9.09375,0.1875 31.34375,32.625 30.5,0 0,-25.8125 -22.75,0 -9.03125,-7.75 c 30.63843,0 30.47841,-65.71875 -1.96875,-65.71875 l -67.6875,0 z m -317.0625,0.3125 0,99 29.125,0.3125 0,-38.5625 36.46875,38.34375 26.625,0 0,-98.5 -26.78125,0 0.59375,43.1875 -34.40625,-43.78125 -31.625,0 z m 363.21875,17.84375 c 19.54303,0.0316 22.7479,28.71052 -0.46875,28.6875 -23.55748,-0.023 -19.41588,-28.71973 0.46875,-28.6875 z m -113.875,3.34375 c 15.69847,0 28.4375,11.74814 28.4375,26.15625 0,14.40813 -12.73903,26.09375 -28.4375,26.09375 -15.69847,0 -28.40625,-11.68562 -28.40625,-26.09375 0,-14.40811 12.70778,-26.15625 28.40625,-26.15625 z m -250.21875,89 -38.90625,146.875 46.3125,0 9.625,-28.3125 53.875,-0.53125 10.34375,28.3125 86.6875,0 0,-47.9375 49.28125,47.59375 52.625,0 1.8125,-103.625 52.96875,0 0,104.40625 50.53125,0 0,-106.8125 43.875,0 0.8125,-39.28125 -188.84375,-0.375 0.90625,57.8125 -61.71875,-57.9375 -40.8125,0 0.4375,144.625 -40.1875,-144.4375 -89.625,-0.375 z m 44.78125,37.09375 18.9375,52.5 -43.875,0 24.9375,-52.5 z m -34.78125,120.375 c -65.339137,0 -61.057158,109.39354 -1.125,109.375 l 93.78125,0 5.9375,-22.125 34.75,0.28125 9.40625,21.84375 66.71875,0 0,-41.4375 27.875,42.625 22.6875,-45.0625 0,42.1875 38.03125,0 0,-107 -33.71875,0 -25.375,39.8125 -27.625,-39.71875 -32.8125,0.0312 -0.53125,92.03125 -34.8125,-92.7187 -54.65625,0 -19.71875,82.8125 -11.78125,-0.0937 0,-28.9375 -32.28125,0 0,24.8125 -24.625,0 c -26.219078,0 -29.639203,-48.03125 2.25,-48.03125 l 54.65625,0 0,-30.6875 -57.03125,0 z m 310.46875,0.0625 0,107.65625 99.40625,0 0,-28.96875 -67.9375,0 0,-18.25 38.9375,0 0,-13.25 -37.28125,0 0,-21.53125 55.5,0 0,-24.84375 -88.625,-0.8125 z M 187.75,895.14343 l 14.53125,36.15625 -28.3125,0.28125 13.78125,-36.4375 z"
       id="rect3015-1-0" />
    <path
       style="fill:#ffff00;fill-opacity:1;fill-rule:evenodd;stroke:#fefe00;stroke-width:6.32405233;stroke-linecap:round;stroke-miterlimit:4;stroke-opacity:1;stroke-dasharray:none"
       d="m 234,56.40625 c 3.33266,9.556027 6.619,18.980641 9.28125,26.65625 l 2.5,0 c -1.61999,-6.563217 -2.8695,-11.534473 -6.3125,-25.59375 -0.10094,-0.412183 -0.14977,-0.65334 -0.25,-1.0625 l -5.21875,0 z m 45.34375,5.78125 c -1.33044,0.863988 -2.60158,1.789719 -3.84375,2.75 -1.9e-4,0.737889 0,1.1855 0,1.9375 0,15.4038 -0.0528,28 -0.0937,28 -0.0474,0 -0.6338,-0.12705 -1.3125,-0.28125 -3.4344,-0.7785 -6.77165,-1.125 -10.84375,-1.125 -2.43892,0 -4.60864,0.128444 -6.75,0.40625 -0.79351,3.444101 -1.21875,6.99924 -1.21875,10.65625 0,28.4181 25.18885,51.49232 56.59375,52.125 0.48515,-1.83432 0.85151,-3.69863 1.125,-5.59375 0.4049,-2.802 0.53125,-4.39555 0.53125,-7.46875 -0.006,-3.1348 -0.1669,-5.0799 -0.625,-7.9375 -0.30094,-1.87704 -0.71125,-3.71938 -1.21875,-5.53125 -14.95838,-0.75666 -26.8125,-12.14361 -26.8125,-26.0625 0,-1.87822 0.21463,-3.70106 0.625,-5.46875 -2.63978,-1.302445 -5.41586,-2.331281 -9.09375,-3.4375 -0.112,-0.0338 -0.1125,-0.19845 -0.0625,-0.59375 0.0378,-0.2934 1.11115,-11.97085 2.40625,-25.96875 0.32024,-3.461029 0.31207,-3.368123 0.59375,-6.40625 z M 233.75,103 c -4.7188,3.43977 -8.85698,7.71018 -12.15625,12.5625 l 12.15625,0 0,-12.5625 z m -15.03125,64.09375 c 0.97198,1.85555 2.06566,3.66117 3.28125,5.40625 2.6401,3.7902 6.30805,7.68315 10.09375,10.71875 3.8246,3.0665 8.64185,5.7788 13.53125,7.625 0.7706,0.2903 1.4185,0.58925 1.4375,0.65625 0.0236,0.0707 -0.61275,0.8073 -1.40625,1.625 -2.994,3.0837 -5.50485,6.61105 -8.21875,11.53125 -3.2123,5.8237 -6.43105,14.4027 -8.28125,22.0625 -0.1781,0.7338 -0.39875,1.37925 -0.46875,1.40625 -0.0502,0.0193 -18.43364,-13.03792 -36.15625,-25.65625 L 192.5625,211 c 1.40805,0.71164 4.19288,2.10762 5.03125,2.53125 24.5038,12.3819 30.66445,15.53245 30.78125,15.65625 0.1019,0.108 0.0663,0.50985 -0.1875,1.71875 -1.5688,7.4782 -2.48735,14.71805 -2.90625,22.96875 -0.1441,2.9554 -0.12365,11.0242 0.0312,14.0625 0.072,1.4038 0.0813,2.5095 0.0312,2.5625 -0.0541,0.0525 -0.69625,-0.1405 -1.40625,-0.4375 -0.7107,-0.297 -13.2591,-5.49175 -27.875,-11.53125 -1.39677,-0.57717 -1.93708,-0.79373 -3.34375,-1.375 l 0,7.15625 c 16.5884,4.05029 32.73274,8.0163 32.78125,8.0625 0.0292,0.0293 0.2069,1.41085 0.375,3.09375 0.94322,9.45459 2.64925,18.16667 5.125,26.03125 l 0,-36.1875 49.28125,47.59375 10.875,0 0.25,-0.5 0.375,0 c 0.2021,-0.002 4.32755,0.26705 7.875,0.5 l 33.25,0 0.0937,-5.75 c -14.95362,1.26586 -30.27583,2.55731 -33.625,2.84375 -3.8317,0.3274 -7.0225,0.57625 -7.0625,0.53125 -0.0482,-0.0435 0.0396,-0.3523 0.1875,-0.6875 0.5177,-1.1754 1.7498,-4.47195 2.4375,-6.53125 2.9867,-8.9394 4.91445,-18.56735 5.90625,-29.53125 0.0926,-1.0135 0.18775,-1.87925 0.21875,-1.90625 0.0272,-0.0272 14.91732,-3.68569 32.6875,-8.03125 l 0.15625,-7.53125 c -5.63432,2.32841 -9.90445,4.09999 -17.90625,7.40625 -2.2867,0.9448 -6.48895,2.66295 -9.34375,3.84375 -2.8547,1.1807 -5.2722,2.15625 -5.375,2.15625 -0.1609,0 -0.195,-0.0883 -0.125,-0.75 0.1449,-1.5037 0.23725,-8.2129 0.15625,-11.8125 -0.1972,-8.6563 -1.16335,-17.5503 -2.78125,-25.3125 -0.6962,-3.3486 -0.7398,-3.4585 -0.625,-3.5625 0.0523,-0.0476 20.9891,-10.62187 36.8125,-18.625 l 0,-0.375 0.71875,0 C 345.09612,204.39634 347.62579,203.09502 357.7186,198 l 5.75,-2.90625 6.09375,2.40625 c 8.8081,3.4795 9.84165,3.88985 27.90625,11.03125 9.023,3.5672 17.1986,6.7982 18.1875,7.1875 0.9887,0.3895 7.05285,2.80675 13.46875,5.34375 l 9.09375,3.5625 0,-2.15625 c -5.27143,-2.99177 -20.52334,-11.76329 -60.75,-34.96875 -7.3496,-4.2397 -13.43045,-7.71875 -13.53125,-7.71875 -0.0975,0.002 -15.0575,10.6309 -33.25,23.625 -18.1925,12.994 -33.11625,23.58425 -33.15625,23.53125 -0.0493,-0.0513 -0.3351,-0.9809 -0.625,-2.0625 -0.62597,-2.33254 -1.29839,-4.57758 -2.03125,-6.75 l 0.0937,6.90625 -61.71875,-57.9375 -14.53125,0 z m 75.34375,0.125 0.25,16.0625 c 0.17592,-0.13682 0.35541,-0.26632 0.53125,-0.40625 1.9481,-1.5502 6.001,-5.56965 7.5625,-7.53125 2.0509,-2.57643 3.81758,-5.28192 5.3125,-8.09375 L 294.0625,167.2188 z M 156.78125,181.9375 c -1.98312,1.13155 -24.78998,14.29435 -47.09375,27.15625 l 2,5.5625 c 2.65321,-1.0488 7.35387,-2.91993 8.03125,-3.1875 1.6068,-0.6349 11.01805,-4.37115 20.90625,-8.28125 9.8881,-3.9103 18.52395,-7.32475 19.21875,-7.59375 l 0.65625,-0.25 -3.71875,-13.40625 z m -52.9375,30.5 c -7.069075,4.07698 -5.289809,3.04874 -13.65625,7.875 -3.3897,1.9554 -6.262,3.5625 -6.375,3.5625 -0.1131,0 -3.56095,-1.61325 -7.65625,-3.59375 -4.0954,-1.9806 -7.5606,-3.609 -7.6875,-3.625 -0.1553,-0.0156 -0.231,0.0369 -0.25,0.1875 -0.0172,0.1237 -0.23135,1.86615 -0.46875,3.84375 -0.3254,2.6693 -0.4035,3.62075 -0.3125,3.71875 0.0826,0.0848 2.95785,0.3185 8.21875,0.6875 7.0042,0.4921 8.10715,0.53505 8.46875,0.40625 0.229,-0.0817 7.662851,-2.994 16.53125,-6.5 0.0301,-0.0119 0.0324,-0.0193 0.0625,-0.0312 l 3.125,-6.53125 z m 48.625,28.21875 c -0.1125,0.019 -14.62655,13.53045 -32.28125,30.03125 -6.05019,5.65476 -10.75345,9.98726 -15.625,14.53125 l 8.84375,-0.0937 c 9.95288,-6.87857 20.22249,-13.95128 22.78125,-15.71875 2.812,-1.9425 8.48425,-5.87885 12.59375,-8.71875 4.1096,-2.84 7.5025,-5.1685 7.5625,-5.1875 0.0432,-0.0165 10.4163,2.48658 22.40625,5.40625 l -3,-10.75 c -4.94492,-2.0437 -12.71714,-5.26071 -14.65625,-6.0625 -4.6253,-1.9126 -8.5121,-3.4565 -8.625,-3.4375 z m 235.21875,14.40625 0,13.84375 c 0.25672,0.17736 0.24136,0.16506 0.5,0.34375 23.9986,16.5801 30.08715,20.8002 39.78125,27.5 4.5423,3.1393 8.40845,5.75975 8.59375,5.84375 0.0947,0.043 0.77649,0.18793 1.65625,0.34375 l 0,-2.21875 c -0.47707,0.0956 -1.29389,0.2609 -1.3125,0.25 -0.0684,-0.0402 -14.649,-13.625 -32.375,-30.1875 -6.5451,-6.1156 -11.72441,-10.95115 -16.84375,-15.71875 z M 71.15625,297.375 c -0.135,-0.003 -0.25025,0.0175 -0.28125,0.0625 -0.0674,0.1159 0.75275,7.659 0.84375,7.75 0.01694,0.0169 0.830655,-0.0864 1.75,-0.21875 L 75.6875,298.375 c -1.748264,-0.39001 -4.457358,-1 -4.53125,-1 z m 84.1875,6.71875 c -0.236,0 -0.58335,0.58775 -2.90625,4.71875 -0.54827,0.97499 -1.83844,3.26071 -2.5,4.4375 l 70.125,0 c 3.48895,-0.23331 9.25711,-0.61048 10.9375,-0.71875 L 231,310.5 c -2.56217,-0.20963 -16.37845,-1.38283 -36.21875,-3.0625 -1.04065,-0.0881 -0.88488,-0.0698 -1.90625,-0.15625 l 0,4.4375 -1.28125,-4.5625 c -19.14661,-1.61947 -36.11406,-3.0625 -36.25,-3.0625 z M 367.375,325.0625 c 0.74543,0.96091 2.80128,3.61958 3.75,4.84375 l 0,-4.84375 -3.75,0 z m -83.59375,0.0937 -32.1875,0.0312 -0.53125,92.03125 -27.3125,-72.75 c -9.2058,9.19203 -16.54782,21.49048 -21.21875,35.8125 -0.70531,2.16279 -1.30387,4.37661 -1.875,6.59375 l 1.625,4.0625 -2.59375,0.0312 c -1.48644,6.82534 -2.37839,13.82702 -2.625,20.875 l 9.34375,0.0625 9.40625,21.84375 66.71875,0 0,-41.4375 27.875,42.625 L 328.375,399.25 c -0.98214,-6.9359 -2.59559,-13.69015 -4.84375,-20.3125 -2.28464,-6.72974 -5.17643,-12.98059 -8.5625,-18.65625 l -2.9375,4.59375 -20.5,-29.46875 c -3.17802,-2.01916 -6.48475,-3.70336 -9.90625,-5.03125 -0.8573,-0.3336 -1.56275,-0.673 -1.59375,-0.75 -0.0302,-0.0779 0.3897,-0.6129 0.9375,-1.1875 0.96583,-1.01319 1.89336,-2.10292 2.8125,-3.28125 z m 99.75,3.90625 0,16.84375 c 0.96456,1.24612 0.98017,1.26702 2.03125,2.625 13.6829,17.6782 20.6166,26.63935 23.875,30.84375 l 2.65625,3.4375 4.09375,2.0625 13.0625,0 c 0.4173,-0.97208 0.75,-1.77514 0.75,-1.84375 0,-0.0756 -0.1111,-0.17775 -0.25,-0.21875 -0.139,-0.0292 -3.9352,-0.33695 -8.4375,-0.71875 -4.5024,-0.3785 -8.2425,-0.709 -8.3125,-0.75 -0.0709,-0.0293 -0.98685,-1.5709 -2.03125,-3.4375 -1.7822,-3.1854 -5.9476,-10.609 -17.375,-30.9375 -3.96924,-7.06116 -6.2233,-11.07214 -10.0625,-17.90625 z m -253.4375,19.53125 c -1.32286,2.35519 -2.41952,4.32222 -3.625,6.46875 l 3.625,0 0,-6.46875 z M 113.375,378.2812 c -0.69249,1.21525 -1.65627,2.9051 -1.6875,2.9375 -0.1519,0.1611 -1.42215,0.281 -8.53125,0.875 -2.14827,0.18021 -3.893163,0.33191 -5.34375,0.46875 l 0,7.5 c 0.411869,-0.0771 2.045617,-0.89776 7.3125,-3.53125 l 7.3125,-3.625 3.5625,-4.625 -2.625,0 z"
       transform="translate(0,540.36218)"
       id="rect3015-1"
       inkscape:connector-curvature="0" />
    <path
       inkscape:connector-curvature="0"
       id="path3009-7"
       d="m 1265.4058,1117.9692 c -11.7424,-0.5709 -22.8501,-5.1398 -32.8649,-13.5183 -1.917,-1.6043 -5.2426,-4.8308 -7.0201,-6.8118 -7.9437,-8.852 -14.2063,-19.9209 -18.3741,-32.4763 -7.5781,-22.8281 -7.6377,-49.1188 -0.1642,-72.03595 6.7249,-20.6199 18.9925,-37.05154 34.3763,-46.04531 2.1798,-1.27463 5.2538,-2.76918 7.5704,-3.68139 1.0737,-0.42303 1.9771,-0.83278 2.0076,-0.91183 0.031,-0.0806 -0.3674,-0.58432 -0.8851,-1.12368 -2.3111,-2.40836 -4.5953,-5.44215 -6.5754,-8.73337 -1.0794,-1.79415 -1.4801,-2.5263 -2.7918,-5.1016 l -1.236,-2.42693 -0.4491,0.0273 c -6.4573,0.39293 -70.8633,4.77639 -71.0337,4.834 -0.1402,0.0451 -2.6367,3.17635 -5.893,7.38637 -9.5975,12.40827 -10.8785,14.06334 -29.8153,38.52352 l -15.3839,19.87027 -7.2989,3.65049 c -6.0193,3.00961 -7.3243,3.62281 -7.4434,3.50121 -0.081,-0.081 -0.8257,-1.6912 -1.6586,-3.57583 -1.1284,-2.55409 -1.4811,-3.45825 -1.3846,-3.54941 0.07,-0.0704 3.6262,-0.41282 8.5006,-0.82167 7.1091,-0.59409 8.3983,-0.72904 8.5502,-0.89015 0.1009,-0.10471 4.1388,-7.24275 8.9783,-15.86417 7.8869,-14.04971 24.7896,-44.13618 31.769,-56.54779 2.3229,-4.13104 2.67,-4.69127 2.906,-4.69127 0.1479,0 17.8871,1.49167 39.4217,3.31474 21.5345,1.8231 39.2327,3.31481 39.3293,3.31481 0.1009,0 0.1752,-0.0603 0.1752,-0.12651 0,-0.0673 -0.3756,-1.06821 -0.8348,-2.21919 -3.8098,-9.55598 -6.3558,-20.60366 -7.5832,-32.90672 -0.1681,-1.68286 -0.3293,-3.08376 -0.3585,-3.11307 -0.1008,-0.0958 -69.0326,-16.92207 -69.1489,-16.87754 -0.06,0.0194 -3.4757,2.36714 -7.5853,5.20708 -4.1095,2.83991 -9.7724,6.75274 -12.5844,8.69522 -2.812,1.94237 -14.0744,9.72538 -25.0277,17.29551 -10.9532,7.57018 -20.6615,14.27209 -21.574,14.89335 l -1.6591,1.12936 -1.1798,0.17944 c -0.6485,0.0984 -4.2764,0.67376 -8.0609,1.27829 -3.7846,0.60468 -6.9141,1.06585 -6.9546,1.02536 -0.091,-0.0907 -0.9324,-7.63201 -0.865,-7.7479 0.031,-0.0451 0.1612,-0.0825 0.2962,-0.0786 0.1351,0.002 3.8616,0.83037 8.2804,1.83841 7.7122,1.75939 8.046,1.8256 8.3335,1.6518 0.1643,-0.0996 14.7442,-13.68164 32.399,-30.18249 17.6547,-16.50077 32.1915,-30.01695 32.304,-30.03595 0.1129,-0.0194 3.989,1.53033 8.6143,3.44292 4.6253,1.91251 20.3681,8.4187 34.984,14.45825 14.6159,6.03946 27.1558,11.2238 27.8665,11.52076 0.71,0.29698 1.3364,0.49737 1.3905,0.44489 0.05,-0.0526 0.041,-1.15497 -0.031,-2.55879 -0.1549,-3.03834 -0.1631,-11.11545 -0.019,-14.07093 0.4189,-8.25067 1.3364,-15.50521 2.9052,-22.98333 0.2538,-1.20897 0.2981,-1.60038 0.1962,-1.70833 -0.1168,-0.12377 -6.2973,-3.26277 -30.8011,-15.64468 -3.5844,-1.81119 -13.2552,-6.69941 -21.4906,-10.86268 l -14.9734,-7.56947 -1.2633,0.48907 c -0.6948,0.26896 -9.3536,3.68809 -19.2417,7.59832 -9.8882,3.91018 -19.2931,7.62875 -20.8999,8.26359 -1.6068,0.6347 -10.1775,4.02276 -19.0459,7.529 -8.8684,3.50604 -16.3118,6.44154 -16.5408,6.52325 -0.3616,0.12884 -1.4793,0.0755 -8.4835,-0.41711 -5.2609,-0.369 -8.1112,-0.6107 -8.1938,-0.69552 -0.091,-0.0977 -0.019,-1.05646 0.3064,-3.72574 0.2374,-1.97759 0.447,-3.69676 0.4642,-3.82043 0.019,-0.15063 0.1066,-0.21757 0.2619,-0.20201 0.1269,0.0156 3.581,1.64324 7.6764,3.62383 4.0953,1.98043 7.5386,3.60094 7.6517,3.60094 0.113,0 2.9794,-1.59985 6.3691,-3.55525 42.9533,-24.77803 69.8311,-40.27073 70.1349,-40.42672 0.2355,-0.12214 0.422,-0.15417 0.5055,-0.0896 1.6526,1.28007 67.7727,48.34465 67.8674,48.30818 0.07,-0.0273 0.2811,-0.65251 0.4592,-1.38627 1.8502,-7.65982 5.0753,-16.24954 8.2876,-22.07321 2.7139,-4.92018 5.2303,-8.44876 8.2243,-11.53254 0.7935,-0.81766 1.4239,-1.54438 1.4003,-1.61506 -0.019,-0.0674 -0.6726,-0.36687 -1.4432,-0.65716 -4.8894,-1.84624 -9.7113,-4.56479 -13.5359,-7.63137 -3.7857,-3.0356 -7.452,-6.92994 -10.0921,-10.72013 -10.5534,-15.15037 -11.9585,-34.91835 -3.6541,-51.41197 5.7446,-11.41003 16.0313,-20.51476 27.8944,-24.68966 1.0254,-0.36121 1.366,-0.52966 1.3903,-0.68715 0.031,-0.18034 -23.4679,-67.61743 -23.6063,-67.75589 -0.031,-0.028 -5.9975,-0.51991 -13.2657,-1.09283 -7.2683,-0.57316 -13.2496,-1.07664 -13.2918,-1.11879 -0.041,-0.0452 -0.05,-0.0987 -0.031,-0.12557 0.031,-0.028 7.3549,-1.46396 16.2834,-3.19236 12.2977,-2.38057 16.265,-3.11096 16.3623,-3.01218 0.07,0.0755 4.3071,17.19321 9.4141,38.04767 5.1071,20.85452 9.3107,37.94247 9.3414,37.97305 0.031,0.028 0.4964,-0.0604 1.0358,-0.20602 4.6815,-1.24997 8.4954,-1.74743 13.3965,-1.74743 4.0721,0 7.4069,0.3456 10.8413,1.12409 0.6787,0.15418 1.2728,0.28013 1.3202,0.28013 0.041,0 0.091,-12.60319 0.091,-28.00702 0,-15.4039 0.041,-28.08832 0.081,-28.18762 0.1308,-0.30945 27.1186,-24.50047 27.2687,-24.44289 0.081,0.028 2.1832,1.4063 4.6779,3.05867 2.4949,1.65229 5.8633,3.882 7.4856,4.95502 1.6222,1.07285 2.9496,1.99769 2.9496,2.05478 0,0.14289 -0.1079,0.10773 -8.4275,-2.7368 -4.0478,-1.38397 -7.4174,-2.48376 -7.488,-2.44403 -0.07,0.0362 -4.7836,5.24936 -10.4736,11.57725 -9.5064,10.57235 -10.3505,11.54285 -10.4087,11.96696 -0.041,0.25405 -1.1232,11.91425 -2.4184,25.91217 -1.2951,13.99788 -2.3857,25.69063 -2.4235,25.98398 -0.05,0.39533 -0.031,0.54457 0.081,0.57841 4.9266,1.48177 8.2178,2.8476 11.7598,4.87976 13.2466,7.60027 22.3408,20.70355 24.7354,35.63959 0.4581,2.85759 0.6072,4.78692 0.6132,7.92174 0,3.07322 -0.1016,4.66371 -0.5065,7.4657 -1.2753,8.83719 -4.8692,17.05301 -10.62,24.27746 -1.5615,1.96157 -5.5978,6.00052 -7.5459,7.55071 -4.4046,3.5052 -8.8189,6.02424 -13.9551,7.96377 -0.7703,0.29102 -1.4206,0.58968 -1.4452,0.66309 -0.019,0.0755 0.5579,0.74949 1.2957,1.50139 6.8126,6.94438 12.4526,18.07085 16.1568,31.87373 0.2899,1.08158 0.5669,2.00815 0.6162,2.05945 0.04,0.0526 14.9726,-10.53868 33.1651,-23.53273 18.1925,-12.9941 33.1569,-23.62732 33.2544,-23.62935 0.1008,-0.002 6.1903,3.46493 13.5399,7.70463 53.9954,31.14812 63.1077,36.38676 63.2924,36.38676 0.1148,0 1.2648,-0.51164 2.5562,-1.13691 1.2917,-0.62496 3.0563,-1.47829 3.9215,-1.89554 0.865,-0.41699 3.2073,-1.54913 5.2045,-2.51505 1.9973,-0.96598 3.6777,-1.75628 3.734,-1.75628 0.1479,0 0.1732,0.15999 0.6102,3.84962 0.439,3.70994 0.4572,4.00217 0.2546,4.07049 -0.081,0.0273 -3.7651,0.30088 -8.1953,0.60993 l -8.0546,0.56268 -11.6654,-4.61273 c -6.4159,-2.53699 -12.4744,-4.93135 -13.4631,-5.32085 -0.9889,-0.38928 -9.1803,-3.62646 -18.2033,-7.19362 -18.0646,-7.14143 -19.089,-7.54634 -27.8971,-11.02581 l -6.0983,-2.40904 -5.7562,2.90583 c -27.093,13.67701 -59.7109,30.1845 -59.7959,30.26188 -0.1148,0.10399 -0.091,0.23432 0.6052,3.58292 1.6179,7.76215 2.6004,16.65019 2.7976,25.30645 0.081,3.59962 -0.01,10.29829 -0.1549,11.80202 -0.07,0.66168 -0.05,0.75856 0.1109,0.75856 0.1028,0 2.5222,-0.96621 5.3769,-2.14699 2.8548,-1.18079 7.0613,-2.91994 9.348,-3.8648 14.7598,-6.09855 24.2752,-10.03078 33.0353,-13.65172 5.5003,-2.27341 12.8975,-5.33054 16.4382,-6.79361 3.5407,-1.46287 6.5276,-2.64397 6.6376,-2.62458 0.1108,0.0194 14.7029,13.58648 32.4288,30.14914 17.726,16.56254 32.2847,30.14656 32.3531,30.18677 0.07,0.0405 3.7648,-0.75414 8.2144,-1.76511 4.4497,-1.011 8.2041,-1.84039 8.343,-1.84284 0.2196,-0.002 0.2519,0.0521 0.2499,0.41706 -0.01,0.86501 -0.7683,7.24957 -0.8791,7.35976 -0.1358,0.13662 -15.7231,-2.30253 -16.2537,-2.54374 -0.1853,-0.0844 -4.0536,-2.72184 -8.5959,-5.86107 -9.6941,-6.69981 -15.7786,-10.90383 -39.7772,-27.48392 -9.7954,-6.76745 -18.3041,-12.64663 -18.9079,-13.06475 l -1.0977,-0.76036 -33.5462,8.20174 c -18.4505,4.51093 -33.569,8.22451 -33.5969,8.25234 -0.031,0.0273 -0.125,0.87979 -0.2176,1.89337 -0.9918,10.96388 -2.9178,20.60121 -5.9045,29.54069 -0.6877,2.05929 -1.9084,5.3335 -2.4261,6.50891 -0.1479,0.33514 -0.2296,0.64516 -0.1814,0.68864 0.04,0.0451 3.2219,-0.18877 7.0536,-0.51617 3.8316,-0.32774 21.1414,-1.79484 38.4662,-3.26079 30.8332,-2.60877 31.5039,-2.66074 31.6986,-2.45292 0.1098,0.11593 1.2617,2.10853 2.5605,4.42589 2.4299,4.33609 13.0133,23.1762 21.4926,38.26058 11.4274,20.32848 15.5897,27.73786 17.3719,30.92321 1.0444,1.86662 1.9569,3.41777 2.0278,3.44708 0.07,0.0405 3.8126,0.3616 8.315,0.74013 4.5023,0.38184 8.2999,0.71191 8.4389,0.7411 0.1389,0.0405 0.2526,0.12495 0.2526,0.20046 0,0.21252 -2.9139,6.831 -3.0903,7.0176 -0.1187,0.1249 -1.3766,-0.4683 -7.4767,-3.53771 l -7.3332,-3.68945 -2.6573,-3.42933 c -3.2584,-4.20436 -10.1977,-13.168 -23.8806,-30.84621 -20.4834,-26.46424 -24.1991,-31.25114 -24.3476,-31.36656 -0.1288,-0.0996 -68.262,-4.77265 -69.4233,-4.7612 l -0.3937,0.002 -0.996,2.01795 c -2.7906,5.65455 -5.9712,10.37688 -9.4382,14.01382 -0.5478,0.57467 -0.9707,1.10808 -0.9405,1.18593 0.031,0.0767 0.7563,0.41294 1.6136,0.74648 18.5431,7.19662 33.894,24.98997 41.8958,48.56043 4.2065,12.39105 6.1859,25.25955 5.9792,38.87245 -0.07,4.4398 -0.2436,7.2968 -0.7048,11.4609 -2.3458,21.1823 -10.2114,40.2713 -22.4558,54.4967 -1.415,1.6444 -4.6688,4.9449 -6.4303,6.5234 -3.989,3.5725 -7.5591,6.0672 -12.737,8.9003 -0.9466,0.5176 -3.4577,1.6687 -4.8879,2.2396 -6.8419,2.7331 -14.3146,4.0206 -21.3495,3.6783 z"
       style="fill:#000000;fill-opacity:1;display:inline;enable-background:new" />
    <path
       inkscape:connector-curvature="0"
       id="path3009-1"
       d="m -437.25503,916.1361 c -0.50508,-1.54264 -0.46324,-3.20045 0.12381,-4.90507 0.11245,-0.32631 0.36469,-0.91425 0.53259,-1.24114 0.7502,-1.46083 1.86918,-2.81407 3.28313,-3.9704 2.57082,-2.10248 5.95877,-3.40589 9.28288,-3.57144 2.99092,-0.14887 5.71482,0.62353 7.63299,2.16443 0.27183,0.21833 0.61609,0.54114 0.84792,0.79498 0.10747,0.11766 0.20485,0.21396 0.21655,0.21399 0.0119,3.1e-4 0.0572,-0.0762 0.10131,-0.16954 0.19672,-0.41677 0.47543,-0.8609 0.80234,-1.2785 0.1782,-0.22763 0.25289,-0.31539 0.52039,-0.6115 l 0.25211,-0.27902 -0.0257,-0.0565 c -0.36893,-0.81349 -4.10851,-8.90433 -4.12434,-8.92348 -0.0127,-0.0159 -0.53961,-0.18356 -1.2431,-0.39603 -2.07339,-0.62631 -2.34999,-0.70995 -6.43807,-1.94686 l -3.32099,-1.00486 -0.83056,-0.76149 c -0.68482,-0.62802 -0.82822,-0.76612 -0.81841,-0.78746 0.006,-0.0143 0.17743,-0.18986 0.37945,-0.39017 0.27381,-0.27141 0.37304,-0.36146 0.38955,-0.35352 0.0126,0.006 0.23196,0.44736 0.52493,1.0559 0.42699,0.88762 0.50793,1.04725 0.5362,1.0589 0.0185,0.008 1.13813,0.17683 2.4886,0.37614 2.20079,0.3248 6.91429,1.02206 8.85907,1.31054 0.6473,0.096 0.73667,0.11311 0.74826,0.14374 0.007,0.0191 0.68917,2.38054 1.51535,5.24786 0.82618,2.86729 1.50603,5.22348 1.51079,5.23593 0.005,0.013 0.0164,0.0197 0.025,0.0164 0.009,-0.003 0.11927,-0.1011 0.24509,-0.21704 1.04473,-0.96234 2.34415,-1.83519 3.87046,-2.59984 0.20877,-0.10462 0.38151,-0.19446 0.38385,-0.19966 0.007,-0.0177 -1.21968,-9.73761 -1.23115,-9.75041 -0.005,-0.007 -0.47661,-0.33163 -1.04543,-0.7217 -0.56882,-0.39008 -1.35258,-0.92761 -1.7417,-1.19457 -0.38913,-0.26682 -1.94802,-1.33583 -3.46422,-2.37546 -1.5162,-1.03963 -2.85906,-1.96148 -2.98416,-2.04856 l -0.22743,-0.15831 -0.0813,-0.14333 c -0.0447,-0.0787 -0.29766,-0.51834 -0.56214,-0.97666 -0.26452,-0.45834 -0.47823,-0.83924 -0.475,-0.84645 0.007,-0.0162 0.9384,-0.4964 0.95667,-0.49342 0.007,0.002 0.0186,0.0167 0.0247,0.0344 0.006,0.0176 0.0832,0.53898 0.17097,1.15858 0.15318,1.0814 0.16109,1.12772 0.19767,1.15624 0.0209,0.0163 2.49128,1.22737 5.48961,2.69119 2.99832,1.46382 5.45803,2.67259 5.46603,2.68617 0.008,0.0136 -7.8e-4,0.58991 -0.0195,1.28073 -0.0187,0.69081 -0.082,3.04192 -0.14062,5.22469 -0.0586,2.18275 -0.10925,4.05563 -0.11252,4.16193 -0.003,0.1062 0.002,0.19687 0.0112,0.20126 0.009,0.004 0.15096,-0.0517 0.32849,-0.13013 0.38424,-0.16972 1.42559,-0.56885 1.81386,-0.69598 1.08479,-0.35261 2.06568,-0.5918 3.1075,-0.75802 0.16844,-0.0269 0.22111,-0.0404 0.23,-0.0589 0.0102,-0.0211 0.11046,-0.97301 0.49979,-4.74366 0.057,-0.55157 0.2108,-2.0398 0.34189,-3.30715 l 0.23832,-2.30428 -0.12533,-0.13884 c -0.0689,-0.0764 -0.93667,-1.02464 -1.92833,-2.10725 -0.99165,-1.08264 -1.93478,-2.11239 -2.09585,-2.28834 -0.16105,-0.17596 -1.02043,-1.1144 -1.90973,-2.08541 -0.88927,-0.97103 -1.63473,-1.78639 -1.65655,-1.8119 -0.0344,-0.0403 -0.0826,-0.18707 -0.36431,-1.11473 -0.21169,-0.69672 -0.32099,-1.07625 -0.31412,-1.09108 0.008,-0.0165 0.13531,-0.0546 0.49563,-0.14411 0.26677,-0.0668 0.49883,-0.12453 0.51563,-0.12842 0.0204,-0.005 0.0332,0.004 0.039,0.0238 0.004,0.0171 -0.0355,0.54285 -0.0891,1.16868 -0.0536,0.6258 -0.0929,1.14977 -0.0873,1.16436 0.006,0.0146 0.35317,0.30542 0.77243,0.64625 5.31273,4.31882 8.63558,7.02188 8.67068,7.05338 0.0274,0.0244 0.0407,0.0468 0.0365,0.0608 -0.0837,0.27624 -2.89521,11.12375 -2.88583,11.13417 0.007,0.008 0.098,0.004 0.20141,-0.009 1.07913,-0.13888 2.34594,-0.14625 3.25538,-0.0189 0.76834,0.10754 1.3475,0.25804 1.89276,0.49236 0.14458,0.062 0.26937,0.10755 0.27732,0.10106 0.008,-0.006 0.0142,-0.10484 0.0136,-0.21853 -0.003,-0.72161 0.11013,-1.47752 0.31715,-2.12192 0.20496,-0.63789 0.52654,-1.30268 0.88527,-1.83 1.43393,-2.10781 3.91429,-3.2633 6.45086,-3.0051 1.75475,0.17859 3.43602,1.05661 4.55916,2.38092 0.0971,0.11449 0.13564,0.15008 0.15715,0.14545 0.0249,-0.005 7.56448,-6.3593 7.57551,-6.38398 0.002,-0.006 -0.22852,-0.79915 -0.51284,-1.76482 -0.28429,-0.96569 -0.51414,-1.76196 -0.51078,-1.76948 0.004,-0.007 0.0103,-0.0113 0.0147,-0.0103 0.005,0.003 0.5513,0.87646 1.21426,1.94285 0.91312,1.46879 1.20285,1.94449 1.1949,1.96191 -0.006,0.0128 -2.00525,1.40287 -4.44329,3.08935 -2.43805,1.6865 -4.43483,3.07084 -4.43726,3.0763 -0.002,0.006 0.0323,0.061 0.0776,0.12345 0.39194,0.54219 0.64406,1.00958 0.88561,1.64172 0.20069,0.5252 0.32047,0.97234 0.38933,1.45367 0.0136,0.0951 0.0266,0.17797 0.0289,0.18408 0.002,0.005 1.62998,-0.60944 3.61672,-1.3686 1.98688,-0.75885 3.62473,-1.3791 3.63952,-1.37883 0.0463,0.002 4.49652,2.29018 4.49649,2.31238 7.2e-4,0.0119 -0.0734,0.35096 -0.16395,0.75409 -0.0901,0.40321 -0.21176,0.94754 -0.27017,1.20967 -0.0589,0.262 -0.11234,0.47887 -0.11962,0.4817 -0.0184,0.007 -0.0191,-0.009 -0.0624,-1.22183 -0.021,-0.59028 -0.0452,-1.07909 -0.0538,-1.08624 -0.008,-0.008 -0.91281,-0.35826 -2.00939,-0.78028 -1.8321,-0.70504 -1.99888,-0.76609 -2.05644,-0.75269 -0.0348,0.007 -1.59202,0.44232 -3.46126,0.96516 -1.86923,0.52283 -3.43107,0.95844 -3.47077,0.96802 -0.0535,0.013 -0.0718,0.0228 -0.0706,0.0389 0.0517,0.70845 0.0377,1.20025 -0.0498,1.75724 -0.32742,2.08308 -1.56923,3.90181 -3.37762,4.94676 -0.34598,0.19994 -0.58747,0.31424 -0.9915,0.46952 -0.39624,0.1518 -0.60652,0.21675 -0.98786,0.30261 -1.20265,0.27105 -2.43942,0.21243 -3.65464,-0.17323 -0.32995,-0.10473 -1.0498,-0.42626 -1.34576,-0.60111 -0.66916,-0.39534 -1.21162,-0.84054 -1.71491,-1.4074 -0.0755,-0.085 -0.14607,-0.15416 -0.15674,-0.15372 -0.0107,9.5e-4 -0.0692,0.10889 -0.12979,0.24111 -0.55992,1.22092 -1.71701,2.49671 -3.3147,3.65472 -0.1252,0.0907 -0.23106,0.1721 -0.23525,0.18099 -0.005,0.008 2.09716,1.41172 4.6697,3.11774 2.57254,1.70599 4.6815,3.11201 4.68656,3.12448 0.005,0.0128 -0.14181,0.96918 -0.3264,2.12606 -1.35626,8.49927 -1.58283,9.93272 -1.57373,9.95654 0.006,0.0148 0.12833,0.13792 0.27263,0.27367 0.14426,0.13579 0.34129,0.32133 0.43774,0.41236 0.0964,0.091 0.35787,0.33732 0.58089,0.54731 0.22302,0.21 0.40777,0.38777 0.41054,0.39503 0.007,0.0191 -0.0121,0.0302 -0.46644,0.26844 -0.45685,0.23945 -0.49365,0.2562 -0.51245,0.23344 -0.008,-0.009 -0.22436,-0.47078 -0.48256,-1.02694 l -0.46954,-1.01113 0.02,-1.7319 c 0.011,-0.95254 0.0212,-1.85194 0.0227,-1.99867 0.002,-0.14671 0.0153,-1.36276 0.0307,-2.70232 0.0308,-2.68189 0.0325,-2.83397 0.0472,-4.14149 l 0.0102,-0.90527 -0.65848,-0.59919 c -3.09928,-2.82031 -6.83592,-6.21371 -6.85009,-6.22085 -0.019,-0.01 -0.0348,2.6e-4 -0.43228,0.25463 -0.9214,0.59123 -2.01934,1.15599 -3.12607,1.60804 -0.4603,0.18779 -1.32863,0.50654 -1.52983,0.56167 -0.0888,0.0235 -0.10032,0.0309 -0.0924,0.0517 0.005,0.0132 0.24892,0.27769 0.54191,0.58769 0.29299,0.31001 0.72462,0.76683 0.95918,1.01519 1.514,1.60312 2.49013,2.63658 3.38888,3.58798 0.5643,0.59736 1.32317,1.40075 1.68637,1.78533 0.36318,0.38456 0.66272,0.7116 0.66564,0.72673 0.003,0.0153 -1.02772,2.56594 -2.29031,5.66846 -1.26257,3.10251 -2.29707,5.64973 -2.29889,5.66053 -0.002,0.0111 0.28281,0.44841 0.6325,0.97247 0.3497,0.52409 0.6417,0.96744 0.64887,0.98525 0.0112,0.0282 0.006,0.0351 -0.0415,0.0528 -0.11195,0.0416 -0.9729,0.25819 -0.99257,0.24934 -0.0243,-0.0109 -0.47793,-2.1414 -0.47297,-2.22173 0.002,-0.0281 0.15128,-0.65695 0.3323,-1.39752 0.38635,-1.58052 0.6287,-2.57247 1.58439,-6.48487 0.39008,-1.59692 0.72902,-2.98409 0.75319,-3.08256 l 0.0439,-0.17907 -2.71114,-3.92246 c -1.49112,-2.15736 -2.7152,-3.92429 -2.72016,-3.92651 -0.005,-0.003 -0.11963,0.0272 -0.25493,0.0652 -1.46297,0.41242 -2.80088,0.63899 -4.10106,0.69436 -0.2995,0.0128 -0.78196,0.0167 -0.95907,0.008 -0.0505,-0.003 -0.0945,0.002 -0.0978,0.0106 -0.004,0.007 0.18314,0.40624 0.41421,0.88431 0.2311,0.47802 1.27343,2.63829 2.31634,4.80053 1.85607,3.8482 1.89583,3.93214 1.87862,3.96751 -0.01,0.0198 -0.20977,0.26664 -0.44464,0.54836 -0.4395,0.52711 -2.34784,2.82064 -3.87548,4.6577 -2.05871,2.47575 -2.80921,3.37776 -3.13222,3.7646 -0.18927,0.22671 -0.34436,0.42085 -0.34465,0.43144 -0.002,0.0111 0.14127,0.50955 0.31434,1.10891 0.17265,0.59952 0.31724,1.10559 0.32032,1.12495 0.002,0.0199 -0.004,0.0387 -0.0134,0.0424 -0.0274,0.0105 -1.02464,-0.0392 -1.05741,-0.0527 -0.0219,-0.009 -0.007,-0.20063 0.0878,-1.13867 l 0.11444,-1.12764 0.31134,-0.51176 c 0.38168,-0.62744 1.19578,-1.96422 2.80151,-4.60026 2.40376,-3.94615 2.83803,-4.66132 2.8456,-4.68615 0.007,-0.0215 -2.74869,-9.03944 -2.8074,-9.18866 l -0.0197,-0.0507 -0.30935,-0.029 c -0.86684,-0.0812 -1.63267,-0.25872 -2.27262,-0.52663 -0.10112,-0.0423 -0.19075,-0.0706 -0.1993,-0.0629 -0.008,0.008 -0.016,0.1179 -0.0168,0.2449 -0.0143,2.74632 -1.55268,5.60317 -4.19836,7.79686 -1.39084,1.15323 -2.95303,2.04275 -4.71896,2.687 -0.5761,0.20972 -0.95313,0.32819 -1.51293,0.47393 -2.84764,0.7414 -5.69732,0.66771 -8.13553,-0.21044 -0.28182,-0.10144 -0.86788,-0.35846 -1.15827,-0.50786 -0.65737,-0.33842 -1.15509,-0.67592 -1.77567,-1.20413 -0.11341,-0.0966 -0.38564,-0.36371 -0.52976,-0.52005 -0.68971,-0.74775 -1.22405,-1.64809 -1.52662,-2.5723 z"
       style="fill:#000000;fill-opacity:1;display:inline;enable-background:new" />
    <path
       inkscape:connector-curvature="0"
       id="path3009-1-7"
       d="m -445.91792,834.20384 c 0.75488,-1.43701 1.9734,-2.56187 3.6053,-3.32819 0.31244,-0.14665 0.90997,-0.37526 1.26145,-0.48252 1.57066,-0.47943 3.32103,-0.61936 5.13562,-0.41047 3.29929,0.37973 6.59454,1.90236 9.02899,4.17185 2.19037,2.04207 3.53377,4.53436 3.76453,6.98395 0.0327,0.34712 0.041,0.81898 0.0203,1.16213 -0.01,0.15906 -0.0108,0.29601 -0.003,0.30443 0.008,0.009 0.0945,-0.012 0.19221,-0.0454 0.43605,-0.1492 0.94884,-0.25864 1.47617,-0.31502 0.28745,-0.0307 0.40244,-0.0383 0.80123,-0.0526 l 0.3758,-0.0135 0.0227,-0.0578 c 0.32661,-0.83138 3.52614,-9.15058 3.52885,-9.17528 0.002,-0.0202 -0.24422,-0.51501 -0.58186,-1.16773 -0.99505,-1.92381 -1.12773,-2.18052 -3.08821,-5.97511 l -1.59258,-3.0826 -0.0323,-1.12634 c -0.0265,-0.92881 -0.0273,-1.1279 -0.005,-1.13573 0.0147,-0.005 0.25981,-0.005 0.54426,4.3e-4 0.38546,0.007 0.51919,0.0158 0.52499,0.0332 0.005,0.0129 -0.15936,0.47806 -0.39185,1.11217 -0.33936,0.92468 -0.39749,1.09396 -0.38616,1.12235 0.007,0.0186 0.66599,0.93971 1.46378,2.04743 1.30011,1.80517 4.08344,5.67252 5.23127,7.26873 0.38208,0.53125 0.43203,0.60731 0.41813,0.63696 -0.009,0.0185 -1.22778,2.15278 -2.70933,4.74297 -1.48155,2.59017 -2.69835,4.71931 -2.70396,4.73139 -0.006,0.0126 -0.003,0.0255 0.006,0.0293 0.009,0.004 0.1556,0.0151 0.32644,0.0246 1.4182,0.0791 2.94963,0.40332 4.56149,0.96567 0.22049,0.0769 0.40527,0.13824 0.41064,0.13629 0.0178,-0.007 6.1364,-7.65854 6.13759,-7.67568 0.001,-0.009 -0.0941,-0.57295 -0.21051,-1.25278 -0.1164,-0.67983 -0.27675,-1.61658 -0.3563,-2.08172 -0.0796,-0.46505 -0.39868,-2.32815 -0.70904,-4.14016 -0.31038,-1.812 -0.58449,-3.4176 -0.60916,-3.56801 l -0.0448,-0.27346 0.0462,-0.15816 c 0.0254,-0.0869 0.16452,-0.57464 0.30908,-1.08367 0.14456,-0.50906 0.26895,-0.92773 0.27637,-0.93044 0.0167,-0.006 1.00985,0.32743 1.02044,0.34261 0.004,0.007 9.5e-4,0.025 -0.007,0.0417 -0.008,0.0168 -0.32871,0.43517 -0.7121,0.92977 -0.66913,0.86323 -0.69685,0.90117 -0.69181,0.94728 0.003,0.0264 0.85493,2.64235 1.89347,5.81319 1.03853,3.17082 1.88483,5.77756 1.88066,5.79275 -0.004,0.0153 -0.42377,0.41039 -0.93243,0.87821 -0.50864,0.46781 -2.23948,2.06026 -3.84631,3.53879 -1.60681,1.47852 -2.98574,2.74689 -3.06429,2.81859 -0.0785,0.0716 -0.14004,0.13837 -0.13662,0.1482 0.004,0.009 0.14228,0.0723 0.32219,0.14502 0.38945,0.15743 1.40123,0.62649 1.76292,0.81648 1.00867,0.53263 1.86359,1.06972 2.7086,1.70136 0.13661,0.10213 0.18302,0.13047 0.20248,0.12399 0.0222,-0.007 0.77501,-0.59858 3.75141,-2.94601 0.43539,-0.34339 1.61026,-1.26976 2.61082,-2.05859 l 1.81919,-1.43424 0.0123,-0.18664 c 0.007,-0.10268 0.0826,-1.38578 0.16848,-2.85141 0.0859,-1.46564 0.16767,-2.85962 0.1817,-3.09776 0.014,-0.23812 0.0886,-1.50841 0.16576,-2.82285 0.0772,-1.31444 0.14281,-2.41726 0.1459,-2.45069 0.005,-0.0528 0.0766,-0.18961 0.54596,-1.03792 0.35238,-0.63723 0.54853,-0.98003 0.56395,-0.98543 0.0175,-0.006 0.13344,0.059 0.44866,0.25519 0.2338,0.14482 0.43685,0.27112 0.45134,0.28046 0.0179,0.0111 0.0206,0.0263 0.0101,0.0445 -0.009,0.015 -0.41416,0.35273 -0.9005,0.75023 -0.4863,0.3975 -0.8896,0.73432 -0.89618,0.74849 -0.007,0.0142 0.0269,0.46614 0.0745,1.00436 0.60255,6.82013 0.97809,11.08708 0.97994,11.1342 0.002,0.0366 -0.005,0.0618 -0.0182,0.0685 -0.25646,0.13241 -9.99741,5.67202 -9.99835,5.686 -4.6e-4,0.0103 0.0654,0.0732 0.14679,0.13821 0.85139,0.67745 1.73918,1.58117 2.28139,2.3223 0.45809,0.62616 0.75358,1.1465 0.96532,1.70092 0.0562,0.14692 0.11049,0.26818 0.12068,0.26936 0.009,0.002 0.0851,-0.0629 0.16628,-0.14245 0.51572,-0.50475 1.13674,-0.95027 1.74327,-1.25066 0.60042,-0.29733 1.30138,-0.52973 1.9296,-0.63971 2.51113,-0.43962 5.068,0.53492 6.64981,2.5346 1.09429,1.38333 1.63559,3.20118 1.4679,4.9295 -0.0145,0.14944 -0.0132,0.20187 0.005,0.21408 0.0211,0.0142 9.83201,0.99691 9.8574,0.98763 0.006,-0.002 0.41414,-0.72066 0.90887,-1.59735 0.49478,-0.87669 0.90592,-1.59629 0.91366,-1.59912 0.008,-0.002 0.0153,-5.1e-4 0.0176,0.003 10e-4,0.006 -0.24475,1.00609 -0.54797,2.22459 -0.41765,1.6783 -0.5571,2.21755 -0.57513,2.22399 -0.0136,0.004 -2.40339,-0.46135 -5.31173,-1.03563 -2.90836,-0.57427 -5.29255,-1.04245 -5.29816,-1.04039 -0.006,0.002 -0.0213,0.0657 -0.0345,0.14169 -0.11595,0.6589 -0.27562,1.16538 -0.56087,1.77904 -0.23699,0.50986 -0.47434,0.90728 -0.7717,1.29199 -0.0588,0.076 -0.10915,0.14306 -0.1119,0.149 -0.003,0.005 1.57273,0.74485 3.5014,1.64134 1.92853,0.89681 3.5145,1.63978 3.52461,1.65057 0.0308,0.0346 1.48936,4.82134 1.47341,4.83679 -0.008,0.008 -0.30315,0.19149 -0.65521,0.4077 -0.35209,0.21621 -0.8273,0.5082 -1.05606,0.64888 -0.22873,0.14068 -0.42179,0.25304 -0.42894,0.24972 -0.0179,-0.008 -0.007,-0.0199 0.83314,-0.8959 0.40886,-0.42628 0.74268,-0.78417 0.74181,-0.79532 -9e-5,-0.0112 -0.37886,-0.90445 -0.84,-1.98516 -0.77048,-1.80556 -0.84286,-1.96773 -0.89258,-1.9997 -0.0295,-0.0199 -1.42638,-0.83403 -3.10364,-1.81086 -1.67726,-0.97683 -3.07781,-1.79388 -3.11234,-1.81569 -0.0466,-0.0293 -0.0664,-0.0356 -0.0772,-0.0235 -0.47226,0.53061 -0.83481,0.8632 -1.29539,1.18842 -1.72255,1.21624 -3.89245,1.5923 -5.90191,1.02286 -0.38446,-0.10894 -0.6347,-0.20257 -1.02755,-0.38426 -0.38494,-0.17853 -0.57802,-0.28414 -0.90528,-0.49792 -1.03226,-0.67399 -1.85178,-1.60213 -2.42165,-2.74262 -0.15471,-0.30968 -0.42551,-1.05011 -0.50623,-1.38424 -0.18254,-0.75549 -0.24103,-1.45481 -0.18495,-2.21077 0.008,-0.11342 0.009,-0.21219 0.001,-0.21954 -0.008,-0.007 -0.12631,0.0262 -0.2634,0.0748 -1.26598,0.44883 -2.98733,0.50745 -4.93112,0.16792 -0.15231,-0.0266 -0.28444,-0.0459 -0.29373,-0.0427 -0.009,0.002 0.44813,2.48802 1.01628,5.5221 0.56818,3.03407 1.02862,5.52657 1.0232,5.53889 -0.006,0.0127 -0.79411,0.57341 -1.75268,1.2469 -7.04245,4.94782 -8.22869,5.78386 -8.23944,5.80698 -0.007,0.0143 -0.01,0.18815 -0.006,0.38623 0.003,0.1981 0.007,0.46871 0.009,0.60132 0.002,0.13257 0.007,0.49173 0.012,0.79802 0.005,0.3063 0.006,0.56268 0.003,0.56973 -0.009,0.0185 -0.0301,0.0124 -0.51751,-0.14764 -0.49006,-0.16095 -0.52771,-0.17569 -0.52447,-0.20503 9.2e-4,-0.0114 0.18145,-0.48892 0.40059,-1.0616 l 0.39832,-1.04125 1.25646,-1.19213 c 0.69105,-0.65567 1.34343,-1.27488 1.44975,-1.37601 0.10628,-0.10115 0.98834,-0.93838 1.9601,-1.86052 1.9455,-1.8462 2.05582,-1.9509 3.0041,-2.85123 l 0.65655,-0.62335 -0.0288,-0.88982 c -0.13568,-4.18823 -0.30419,-9.23296 -0.30894,-9.2481 -0.006,-0.0205 -0.0244,-0.0248 -0.48383,-0.13274 -1.06604,-0.24918 -2.23607,-0.64344 -3.33137,-1.12254 -0.45538,-0.19941 -1.28896,-0.60033 -1.46868,-0.70627 -0.0788,-0.0473 -0.0921,-0.0504 -0.10142,-0.0303 -0.006,0.0128 -0.0258,0.37203 -0.0441,0.79819 -0.0183,0.42616 -0.0454,1.05406 -0.0601,1.39535 -0.0954,2.20298 -0.15687,3.62322 -0.21333,4.93078 -0.0355,0.82099 -0.0832,1.92509 -0.10608,2.45357 -0.0229,0.52846 -0.0489,0.97118 -0.0577,0.98381 -0.009,0.0128 -2.55682,1.0502 -5.66222,2.30568 -3.10538,1.2555 -5.65351,2.28778 -5.66252,2.294 -0.009,0.006 -0.12468,0.51527 -0.25707,1.13123 -0.13238,0.61597 -0.24704,1.13432 -0.25482,1.15187 -0.0125,0.0276 -0.0212,0.0285 -0.0667,0.007 -0.10782,-0.0513 -0.86298,-0.51812 -0.87034,-0.5384 -0.009,-0.025 1.20337,-1.83465 1.26445,-1.88704 0.0214,-0.0183 0.57671,-0.34913 1.23412,-0.73516 1.40306,-0.82386 2.28354,-1.34101 5.75619,-3.38086 1.41742,-0.8326 2.64873,-1.55578 2.73622,-1.60704 l 0.15907,-0.0932 0.92544,-4.67756 c 0.509,-2.57266 0.92392,-4.68174 0.92205,-4.68686 -0.001,-0.006 -0.10287,-0.0669 -0.22439,-0.13744 -1.31504,-0.76227 -2.40961,-1.56429 -3.35508,-2.45851 -0.21782,-0.20596 -0.55673,-0.54936 -0.67376,-0.68258 -0.0331,-0.0382 -0.0675,-0.0663 -0.0757,-0.0628 -0.008,0.002 -0.16388,0.41439 -0.34589,0.9132 -0.18195,0.49881 -1.00568,2.75151 -1.83041,5.00601 -1.46782,4.01237 -1.50035,4.09937 -1.53771,4.11166 -0.0209,0.007 -0.33743,0.0353 -0.70317,0.063 -0.68433,0.0519 -3.65919,0.28053 -6.04135,0.4643 -3.21034,0.2477 -4.38029,0.33764 -4.88284,0.37539 -0.2945,0.0221 -0.54182,0.0461 -0.54962,0.0533 -0.009,0.006 -0.26716,0.45632 -0.57659,0.99802 -0.30984,0.5415 -0.57218,0.99778 -0.58393,1.01348 -0.0131,0.0151 -0.0303,0.0243 -0.0397,0.0199 -0.0266,-0.0124 -0.6857,-0.7624 -0.6988,-0.79535 -0.009,-0.0223 0.13875,-0.1451 0.87809,-0.73024 l 0.88872,-0.70345 0.58404,-0.13314 c 0.71604,-0.16326 2.24221,-0.51044 5.25198,-1.19478 4.50563,-1.02448 5.32124,-1.21112 5.34433,-1.22299 0.02,-0.0104 4.57035,-8.26914 4.6365,-8.41521 l 0.0226,-0.0495 -0.19469,-0.24214 c -0.54558,-0.67849 -0.95175,-1.35156 -1.20535,-1.99732 -0.0401,-0.10202 -0.0822,-0.18604 -0.0937,-0.18681 -0.0112,-7.2e-4 -0.0957,0.0707 -0.18737,0.15858 -1.98026,1.9029 -5.10153,2.7894 -8.51841,2.41949 -1.79627,-0.19445 -3.52271,-0.69555 -5.21511,-1.51368 -0.55179,-0.26721 -0.89943,-0.45518 -1.39396,-0.75527 -2.51566,-1.5265 -4.44796,-3.62229 -5.51647,-5.98328 -0.12355,-0.27286 -0.34743,-0.87236 -0.44254,-1.18478 -0.21515,-0.70737 -0.31974,-1.29955 -0.3731,-2.11275 -0.01,-0.14866 -0.008,-0.53004 0.004,-0.74234 0.056,-1.01572 0.32968,-2.02628 0.78196,-2.88719 z"
       style="fill:#000000;fill-opacity:1;display:inline;enable-background:new" />
    <path
       inkscape:connector-curvature="0"
       id="path3009-1-4"
       d="m 749.94417,914.41496 c -0.7346,1.44749 -1.9371,2.5894 -3.5581,3.37861 -0.3104,0.15101 -0.9046,0.38804 -1.2545,0.50024 -1.5638,0.5015 -3.312,0.66605 -5.1294,0.48274 -3.3043,-0.33324 -6.6206,-1.80932 -9.0868,-4.04431 -2.2189,-2.01103 -3.5973,-4.48416 -3.8625,-6.93026 -0.038,-0.34662 -0.053,-0.81832 -0.037,-1.16173 0.01,-0.15918 0.01,-0.29613 0,-0.30443 -0.01,-0.009 -0.094,0.0133 -0.1915,0.0481 -0.4339,0.15532 -0.9451,0.27197 -1.4716,0.33577 -0.287,0.0348 -0.4019,0.0439 -0.8004,0.0639 l -0.3756,0.0188 -0.022,0.0581 c -0.3149,0.83589 -3.3969,9.19932 -3.3993,9.22405 0,0.0203 0.2514,0.51152 0.5982,1.15942 1.0221,1.90962 1.1584,2.16443 3.1721,5.93105 l 1.6358,3.05986 0.048,1.12578 c 0.04,0.92835 0.043,1.1274 0.021,1.13554 -0.015,0.005 -0.2597,0.009 -0.5442,0.007 -0.3855,-0.002 -0.5194,-0.009 -0.5254,-0.0258 0,-0.0128 0.1526,-0.48025 0.3761,-1.11757 0.3263,-0.92936 0.3821,-1.09945 0.3704,-1.12768 -0.01,-0.0185 -0.6792,-0.93024 -1.4925,-2.02661 -1.3254,-1.7867 -4.1629,-5.61447 -5.3331,-7.19436 -0.3895,-0.52582 -0.4405,-0.60117 -0.4271,-0.63101 0.01,-0.0186 1.1974,-2.16986 2.6423,-4.78065 1.445,-2.61077 2.6317,-4.75683 2.6371,-4.769 0.01,-0.0124 0,-0.0255 -0.01,-0.0292 -0.01,-0.004 -0.1558,-0.0129 -0.3268,-0.02 -1.4191,-0.0592 -2.955,-0.36175 -4.5746,-0.90135 -0.2215,-0.0738 -0.4072,-0.13252 -0.4125,-0.13049 -0.018,0.007 -6.028,7.74417 -6.0289,7.76134 -10e-4,0.009 0.1021,0.57157 0.2281,1.24969 0.126,0.67812 0.2995,1.61252 0.3856,2.0765 0.086,0.46388 0.4314,2.3223 0.7672,4.12976 0.3359,1.80745 0.6326,3.40903 0.6594,3.55908 l 0.049,0.2728 -0.044,0.15879 c -0.024,0.0873 -0.1564,0.57691 -0.2938,1.08793 -0.1374,0.51103 -0.2559,0.93141 -0.2632,0.93423 -0.017,0.006 -1.0144,-0.31317 -1.0252,-0.32822 0,-0.007 -0.001,-0.025 0.01,-0.0418 0.01,-0.0172 0.3225,-0.43975 0.6989,-0.9397 0.6569,-0.87256 0.6841,-0.9109 0.6784,-0.95692 0,-0.0263 -0.892,-2.63006 -1.9751,-5.78596 -1.0831,-3.15589 -1.966,-5.75045 -1.962,-5.7657 0,-0.0153 0.4179,-0.41632 0.9199,-0.89124 0.502,-0.47493 2.2103,-2.09159 3.7961,-3.5926 1.5859,-1.501 2.9468,-2.78865 3.0243,-2.86146 0.077,-0.0727 0.1381,-0.1403 0.1346,-0.15007 0,-0.009 -0.1433,-0.0703 -0.3242,-0.14048 -0.3916,-0.15192 -1.4099,-0.60669 -1.7743,-0.79157 -1.016,-0.51837 -1.8784,-1.04337 -2.7322,-1.66306 -0.1381,-0.10019 -0.1849,-0.12788 -0.2042,-0.12111 -0.022,0.008 -0.7666,0.60942 -3.7096,2.99852 -0.4305,0.34946 -1.5922,1.29231 -2.5816,2.09514 l -1.7988,1.45973 -0.01,0.18679 c 0,0.10274 -0.063,1.38681 -0.1283,2.8535 -0.065,1.4667 -0.1274,2.8617 -0.1381,3.10001 -0.011,0.23829 -0.067,1.5095 -0.126,2.82491 -0.059,1.31539 -0.1087,2.41903 -0.1114,2.45249 0,0.0529 -0.074,0.19068 -0.5313,1.0455 -0.3433,0.64214 -0.5346,0.98767 -0.55,0.99328 -0.018,0.006 -0.1342,-0.0571 -0.4522,-0.24884 -0.2358,-0.14151 -0.4406,-0.26495 -0.4552,-0.27408 -0.018,-0.0108 -0.021,-0.026 -0.011,-0.0444 0.01,-0.0147 0.4091,-0.3585 0.8898,-0.76284 0.4807,-0.4043 0.8792,-0.74677 0.8856,-0.76102 0.01,-0.014 -0.034,-0.46573 -0.089,-1.00322 -0.6985,-6.81097 -1.1341,-11.07222 -1.1366,-11.1193 0,-0.0366 0,-0.0619 0.017,-0.0688 0.2545,-0.13604 9.9165,-5.81222 9.9173,-5.82621 5e-4,-0.01 -0.066,-0.0722 -0.1488,-0.13613 -0.8608,-0.66538 -1.7612,-1.55651 -2.3138,-2.28995 -0.4669,-0.61964 -0.7697,-1.13578 -0.9892,-1.68715 -0.058,-0.14611 -0.1142,-0.2666 -0.1244,-0.26764 -0.01,-0.001 -0.084,0.0637 -0.1643,0.1448 -0.5086,0.51195 -1.1232,0.96618 -1.7255,1.27508 -0.5961,0.30578 -1.2938,0.54799 -1.9204,0.66682 -2.5047,0.47492 -5.075,-0.46352 -6.6848,-2.44074 -1.1137,-1.36777 -1.6805,-3.17782 -1.5372,-4.90834 0.012,-0.14962 0.01,-0.20202 -0.01,-0.21398 -0.021,-0.0139 -9.845,-0.85838 -9.8703,-0.84874 -0.01,0.003 -0.404,0.72642 -0.8863,1.60998 -0.4824,0.88358 -0.8833,1.60889 -0.891,1.61183 -0.01,0.003 -0.015,6.4e-4 -0.018,-0.003 0,-0.006 0.2305,-1.00944 0.5166,-2.23209 0.3939,-1.68401 0.5258,-2.22517 0.5437,-2.23186 0.014,-0.004 2.4097,0.42746 5.3258,0.96073 2.9162,0.53327 5.3067,0.96784 5.3123,0.9657 0.01,-0.003 0.02,-0.066 0.033,-0.14217 0.1066,-0.66046 0.2592,-1.16914 0.5358,-1.78675 0.2297,-0.51315 0.4615,-0.91387 0.7534,-1.30273 0.058,-0.0768 0.1071,-0.1446 0.1098,-0.15059 0,-0.005 -1.5831,-0.72263 -3.5242,-1.59187 -1.941,-0.86957 -3.5372,-1.59014 -3.5475,-1.60079 -0.031,-0.0342 -1.5571,-4.79989 -1.5414,-4.81557 0.01,-0.009 0.3002,-0.19606 0.6494,-0.41687 0.3491,-0.22115 0.8201,-0.51977 1.0469,-0.66368 0.227,-0.14347 0.4182,-0.25891 0.4253,-0.25575 0.018,0.008 0.01,0.0198 -0.8204,0.90754 -0.4028,0.43198 -0.7316,0.79455 -0.7305,0.80569 0,0.0108 0.3915,0.89902 0.8678,1.97312 0.7958,1.79454 0.8705,1.95568 0.9207,1.98695 0.03,0.0195 1.4379,0.81386 3.1288,1.76697 1.6908,0.95312 3.1028,1.75037 3.1376,1.77169 0.047,0.0286 0.067,0.0347 0.078,0.0225 0.4647,-0.53721 0.8226,-0.87486 1.2785,-1.20654 1.7053,-1.24036 3.8697,-1.64695 5.8869,-1.10585 0.386,0.10352 0.6375,0.19361 1.0329,0.36975 0.3874,0.17309 0.582,0.27598 0.9122,0.48512 1.0416,0.65939 1.8742,1.5759 2.46,2.70826 0.1591,0.30747 0.4403,1.04401 0.5257,1.37698 0.1932,0.75284 0.2615,1.45126 0.2161,2.20794 -0.01,0.11356 -0.01,0.21229 0,0.21953 0.01,0.007 0.1259,-0.028 0.2623,-0.0786 1.2595,-0.46661 2.9799,-0.54946 4.9283,-0.23733 0.1526,0.0245 0.285,0.0419 0.2943,0.0386 0.01,-0.003 -0.4832,-2.48146 -1.094,-5.50725 -0.6108,-3.02576 -1.1063,-5.51153 -1.1011,-5.52393 0,-0.0131 0.786,-0.58454 1.735,-1.27143 6.9721,-5.04649 8.1464,-5.89914 8.1569,-5.92242 0.01,-0.0141 0.01,-0.18825 0,-0.38628 -0.01,-0.19803 -0.014,-0.46856 -0.018,-0.60113 0,-0.13253 -0.014,-0.49159 -0.023,-0.79777 -0.01,-0.3062 -0.014,-0.56254 -0.011,-0.56964 0.01,-0.0187 0.03,-0.0128 0.5195,0.14034 0.4923,0.15404 0.5301,0.16824 0.5273,0.19762 -8e-4,0.0114 -0.1746,0.49144 -0.3856,1.06714 l -0.3836,1.04675 -1.2396,1.20971 c -0.6817,0.66533 -1.3253,1.29366 -1.4302,1.39629 -0.1049,0.10264 -0.975,0.9522 -1.9337,1.88792 -1.9193,1.87342 -2.0282,1.97966 -2.9637,2.89325 l -0.6477,0.63253 0.041,0.88934 c 0.1946,4.1859 0.4342,9.22775 0.4391,9.24282 0.01,0.0205 0.025,0.0245 0.4857,0.12593 1.0694,0.23413 2.2449,0.61189 3.3468,1.07551 0.4582,0.19298 1.2973,0.58212 1.4785,0.68552 0.079,0.0462 0.093,0.0491 0.1018,0.0288 0.01,-0.0125 0.021,-0.37236 0.033,-0.79873 0.012,-0.42638 0.03,-1.0546 0.04,-1.39606 0.064,-2.20411 0.1059,-3.62507 0.1439,-4.93329 0.024,-0.82141 0.056,-1.92608 0.072,-2.45483 0.015,-0.52872 0.035,-0.97176 0.044,-0.98452 0.01,-0.013 2.5418,-1.08609 5.6292,-2.38517 3.0874,-1.2991 5.6207,-2.36716 5.6297,-2.3735 0.01,-0.007 0.1174,-0.51697 0.2411,-1.13474 0.1237,-0.61778 0.231,-1.13769 0.2386,-1.15534 0.012,-0.0278 0.021,-0.0288 0.067,-0.008 0.1085,0.0498 0.8702,0.50592 0.8778,0.52609 0.01,0.0249 -1.1774,1.85141 -1.2378,1.90466 -0.021,0.0188 -0.5717,0.3572 -1.2236,0.75242 -1.3914,0.84354 -2.2645,1.37303 -5.708,3.46157 -1.4056,0.85247 -2.6266,1.59292 -2.7134,1.64541 l -0.1575,0.0958 -0.8595,4.69013 c -0.4727,2.57957 -0.8579,4.69429 -0.856,4.69937 0.001,0.005 0.1038,0.0654 0.2263,0.13427 1.3257,0.74368 2.4314,1.53021 3.3894,2.41103 0.2207,0.20287 0.5644,0.54146 0.6833,0.67303 0.034,0.0377 0.068,0.0653 0.077,0.0617 0.01,-0.003 0.158,-0.41666 0.333,-0.91798 0.1749,-0.50132 0.9668,-2.7654 1.7598,-5.03128 1.4111,-4.03264 1.4424,-4.12009 1.4796,-4.13291 0.02,-0.008 0.3369,-0.04 0.7022,-0.0729 0.6836,-0.0615 3.6549,-0.33202 6.0342,-0.54932 3.2066,-0.29288 4.3751,-0.39927 4.8771,-0.44409 0.2942,-0.0263 0.5411,-0.0538 0.5488,-0.061 0.01,-0.007 0.2607,-0.46003 0.5625,-1.00603 0.3022,-0.54582 0.5581,-1.00574 0.5696,-1.02161 0.013,-0.0148 0.03,-0.0248 0.039,-0.0204 0.027,0.012 0.6964,0.75267 0.7099,0.78543 0.01,0.0222 -0.1367,0.14706 -0.8677,0.74254 l -0.8787,0.71589 -0.5821,0.14135 c -0.7137,0.17333 -2.2348,0.54196 -5.2347,1.26861 -4.4907,1.08782 -5.3036,1.28592 -5.3265,1.29812 -0.02,0.0108 -4.4535,8.33266 -4.5176,8.47965 l -0.022,0.0498 0.1981,0.23937 c 0.5551,0.67074 0.9707,1.33803 1.2333,1.98015 0.041,0.10144 0.085,0.18486 0.096,0.18547 0.011,8.2e-4 0.095,-0.0719 0.1852,-0.16118 1.9533,-1.93059 5.0617,-2.86094 8.4835,-2.53918 1.7988,0.16914 3.5321,0.64588 5.2359,1.44011 0.5555,0.25941 0.9057,0.44247 1.4044,0.73556 2.5369,1.49093 4.4986,3.55931 5.6002,5.90502 0.1274,0.27109 0.3597,0.86738 0.4592,1.17842 0.2251,0.70428 0.338,1.29493 0.4028,2.1073 0.012,0.1485 0.015,0.52988 0.01,0.74233 -0.042,1.01641 -0.3011,2.03071 -0.7412,2.8979 z"
       style="fill:#000000;fill-opacity:1;display:inline;enable-background:new" />
    <path
       inkscape:connector-curvature="0"
       id="path3009-1-0"
       d="m 749.48727,842.0554 c -0.4502,1.55951 -1.4175,2.90656 -2.8618,3.98559 -0.2766,0.2065 -0.8158,0.5507 -1.1386,0.72649 -1.442,0.7857 -3.1284,1.27499 -4.9479,1.43552 -3.3082,0.29196 -6.8425,-0.53642 -9.6838,-2.2696 -2.5565,-1.55953 -4.3739,-3.73051 -5.0929,-6.08355 -0.1019,-0.33343 -0.2049,-0.79399 -0.2538,-1.13426 -0.023,-0.15774 -0.049,-0.29213 -0.059,-0.29875 -0.01,-0.007 -0.09,0.0307 -0.1791,0.0832 -0.3971,0.23389 -0.8774,0.44428 -1.3826,0.60562 -0.2754,0.0879 -0.3865,0.11848 -0.7742,0.2128 l -0.3654,0.0888 -0.011,0.0612 c -0.1527,0.88009 -1.6127,9.67296 -1.6104,9.6977 0,0.0203 0.3429,0.45534 0.805,1.02675 1.3618,1.68424 1.5434,1.909 4.2274,5.23145 l 2.1803,2.69907 0.2583,1.0968 c 0.2129,0.90448 0.2537,1.09933 0.2336,1.11146 -0.014,0.008 -0.2535,0.0571 -0.5332,0.10909 -0.3791,0.0704 -0.5118,0.089 -0.521,0.0731 -0.01,-0.0117 0.06,-0.50035 0.1601,-1.16827 0.1463,-0.97405 0.1692,-1.15157 0.1524,-1.1771 -0.011,-0.0168 -0.8415,-0.78647 -1.8458,-1.71099 -1.6368,-1.50662 -5.1414,-4.73476 -6.587,-6.06735 -0.4812,-0.4435 -0.5454,-0.50795 -0.5378,-0.53979 0.01,-0.0199 0.7695,-2.35581 1.6995,-5.19115 0.93,-2.83531 1.6935,-5.16575 1.6966,-5.17873 0,-0.0133 0,-0.0255 -0.011,-0.0275 -0.01,-0.002 -0.1555,0.0165 -0.3247,0.0416 -1.4052,0.20788 -2.9705,0.19849 -4.6625,-0.028 -0.2315,-0.0309 -0.4248,-0.0539 -0.4297,-0.0509 -0.016,0.0104 -4.4698,8.73671 -4.4675,8.75374 7e-4,0.009 0.2075,0.54229 0.4583,1.1848 0.2508,0.64249 0.5964,1.52782 0.7679,1.96743 0.1717,0.43951 0.8591,2.2003 1.5277,3.91279 0.6687,1.71248 1.2603,3.23007 1.3147,3.37244 l 0.099,0.25883 -0.013,0.16423 c -0.01,0.0902 -0.045,0.59599 -0.085,1.1237 -0.039,0.52773 -0.077,0.96287 -0.083,0.96702 -0.015,0.009 -1.0551,-0.11751 -1.0685,-0.13026 -0.01,-0.006 -0.01,-0.0243 0,-0.0423 0,-0.0184 0.2344,-0.49241 0.5104,-1.05404 0.4818,-0.98022 0.5013,-1.02296 0.4871,-1.06712 -0.01,-0.0252 -1.3692,-2.41626 -3.0246,-5.31325 -1.6553,-2.89697 -3.0088,-5.28009 -3.0078,-5.29581 9e-4,-0.0158 0.3325,-0.48727 0.7366,-1.04787 0.4041,-0.5606 1.7791,-2.46877 3.0555,-4.24039 1.2764,-1.77162 2.3719,-3.29153 2.4344,-3.37757 0.062,-0.0859 0.1094,-0.1637 0.1041,-0.17263 -0.01,-0.009 -0.1539,-0.0422 -0.3448,-0.0772 -0.4132,-0.0758 -1.4986,-0.33171 -1.8912,-0.44503 -1.0952,-0.31876 -2.0407,-0.67282 -2.9955,-1.1215 -0.1544,-0.0725 -0.2055,-0.091 -0.2233,-0.0807 -0.02,0.0117 -0.6387,0.74229 -3.0818,3.64065 -0.3574,0.42395 -1.3219,1.56781 -2.1432,2.54185 l -1.4934,1.77098 0.025,0.18529 c 0.014,0.10193 0.198,1.37406 0.4088,2.82699 0.2108,1.45295 0.4112,2.83486 0.4454,3.07095 0.034,0.23608 0.2167,1.49539 0.4056,2.79847 0.189,1.30307 0.3466,2.39655 0.3503,2.42991 0.01,0.0527 -0.037,0.20116 -0.326,1.12656 -0.2169,0.6951 -0.3401,1.07036 -0.3541,1.07875 -0.016,0.009 -0.1426,-0.031 -0.4908,-0.15968 -0.2582,-0.0948 -0.4825,-0.17767 -0.4985,-0.1839 -0.02,-0.007 -0.025,-0.0216 -0.019,-0.0416 0.01,-0.0169 0.3347,-0.42883 0.7311,-0.91609 0.3963,-0.48722 0.7236,-0.89831 0.7272,-0.91351 0,-0.015 -0.1202,-0.45119 -0.2751,-0.96883 -1.9626,-6.55937 -3.1891,-10.66346 -3.2004,-10.70925 -0.01,-0.0356 -0.01,-0.0616 0,-0.0708 0.2246,-0.18134 8.6515,-7.56777 8.6496,-7.58166 -10e-4,-0.01 -0.079,-0.0585 -0.1716,-0.10583 -0.9703,-0.49227 -2.0217,-1.19885 -2.702,-1.81572 -0.5747,-0.52117 -0.9689,-0.97141 -1.2878,-1.47188 -0.085,-0.13259 -0.1622,-0.24045 -0.1725,-0.23956 -0.01,6.4e-4 -0.071,0.0784 -0.1342,0.17302 -0.4036,0.59819 -0.9222,1.15957 -1.4559,1.57587 -0.5283,0.41209 -1.1682,0.78077 -1.7614,1.01492 -2.3713,0.93594 -5.072,0.49585 -7.0238,-1.14461 -1.3503,-1.13484 -2.2463,-2.80657 -2.4299,-4.53329 -0.016,-0.14929 -0.028,-0.20038 -0.048,-0.20866 -0.024,-0.01 -9.8314,1.00198 -9.8545,1.01617 0,0.004 -0.2606,0.78927 -0.5688,1.74757 -0.3082,0.95832 -0.5662,1.74594 -0.5732,1.75028 -0.01,0.004 -0.015,0.004 -0.018,2.2e-4 0,-0.006 0.037,-1.03477 0.089,-2.28936 0.071,-1.72801 0.1,-2.28429 0.1159,-2.29423 0.013,-0.007 2.447,-0.0317 5.4114,-0.0544 2.9645,-0.0227 5.3941,-0.0439 5.3992,-0.047 0,-0.004 0.01,-0.0686 0,-0.14573 -0.019,-0.66875 0.036,-1.197 0.1914,-1.85551 0.1295,-0.54711 0.282,-0.98417 0.4959,-1.42084 0.042,-0.0863 0.078,-0.16211 0.08,-0.1685 0.001,-0.006 -1.6904,-0.41313 -3.7601,-0.90318 -2.0695,-0.49038 -3.7725,-0.899 -3.7846,-0.90755 -0.037,-0.0277 -2.4291,-4.42301 -2.4166,-4.44136 0.01,-0.0102 0.2581,-0.24885 0.5598,-0.5312 0.3013,-0.28263 0.7081,-0.66425 0.9039,-0.84811 0.196,-0.18347 0.3622,-0.3327 0.3699,-0.33094 0.019,0.005 0.011,0.0181 -0.6359,1.04523 -0.3147,0.49983 -0.5696,0.91757 -0.5665,0.92832 0,0.0106 0.5531,0.80971 1.2222,1.77552 1.1181,1.61358 1.2216,1.75787 1.2768,1.77919 0.033,0.0135 1.565,0.52993 3.4045,1.14926 1.8395,0.61933 3.3758,1.13783 3.4141,1.15226 0.052,0.0193 0.072,0.0215 0.08,0.008 0.3558,-0.6148 0.644,-1.01354 1.0297,-1.42478 1.4426,-1.53798 3.4924,-2.34302 5.5754,-2.18958 0.3985,0.0294 0.6624,0.0707 1.0838,0.16962 0.413,0.0974 0.6234,0.16201 0.987,0.30556 1.1467,0.45249 2.1363,1.19672 2.924,2.19921 0.2138,0.27221 0.6281,0.943 0.7744,1.25406 0.3308,0.70329 0.5289,1.37654 0.6261,2.12832 0.015,0.11282 0.034,0.20963 0.043,0.21527 0.01,0.005 0.1184,-0.0511 0.2429,-0.12632 1.1498,-0.6944 2.8241,-1.09821 4.7965,-1.15678 0.1545,-0.005 0.2878,-0.0123 0.2963,-0.0173 0.01,-0.004 -0.9397,-2.34694 -2.1067,-5.20463 -1.1671,-2.85767 -2.1197,-5.20653 -2.1169,-5.21969 0,-0.0138 0.6625,-0.72148 1.4659,-1.57407 5.9028,-6.26376 6.8965,-7.3214 6.9024,-7.34622 0,-0.0151 -0.028,-0.18621 -0.071,-0.37962 -0.043,-0.19342 -0.1014,-0.45766 -0.1299,-0.58718 -0.028,-0.12948 -0.1061,-0.4802 -0.1724,-0.77927 -0.066,-0.29909 -0.119,-0.55 -0.1172,-0.55757 0.01,-0.0199 0.027,-0.0182 0.5367,0.0405 0.5124,0.0591 0.5522,0.0659 0.555,0.0953 0.001,0.0113 -0.079,0.51544 -0.1788,1.1205 l -0.1806,1.1001 -0.9909,1.42058 c -0.545,0.78132 -1.0594,1.51914 -1.1432,1.6396 -0.084,0.12048 -0.7793,1.11807 -1.5456,2.21689 -1.5342,2.19993 -1.6212,2.32469 -2.3689,3.39743 l -0.5177,0.74271 0.2073,0.86582 c 0.9757,4.07525 2.156,8.98287 2.1636,8.99674 0.01,0.0189 0.029,0.0194 0.5007,0.0327 1.0944,0.0296 2.3198,0.18031 3.4891,0.4292 0.4862,0.1037 1.3834,0.32868 1.5808,0.39628 0.087,0.0305 0.1003,0.0308 0.1054,0.009 0,-0.0134 -0.05,-0.36961 -0.1174,-0.79073 -0.068,-0.42113 -0.1677,-1.04163 -0.2219,-1.37892 -0.3498,-2.17711 -0.5754,-3.58066 -0.7832,-4.87284 -0.1305,-0.81132 -0.3059,-1.90245 -0.3899,-2.42472 -0.084,-0.52226 -0.1475,-0.96114 -0.1414,-0.9753 0.01,-0.0144 2.2932,-1.54322 5.0824,-3.39792 2.7892,-1.85471 5.0775,-3.37864 5.085,-3.38655 0.01,-0.008 0.018,-0.52981 0.024,-1.15981 0.01,-0.63001 0.014,-1.16084 0.018,-1.17959 0.01,-0.0296 0.015,-0.0322 0.064,-0.0203 0.116,0.0286 0.9496,0.33387 0.9609,0.35225 0.014,0.0227 -0.8095,2.03928 -0.8588,2.1029 -0.017,0.0224 -0.4947,0.45802 -1.061,0.96842 -1.2086,1.08935 -1.967,1.77308 -4.9581,4.47001 -1.2209,1.10079 -2.2815,2.05697 -2.3569,2.12479 l -0.1368,0.12361 0.035,4.76809 c 0.019,2.62247 0.037,4.77189 0.04,4.77653 0,0.005 0.1143,0.0448 0.2475,0.0895 1.4415,0.48205 2.6751,1.04742 3.7812,1.73309 0.2548,0.1579 0.6559,0.42608 0.7973,0.53303 0.04,0.0307 0.079,0.0513 0.087,0.0463 0.01,-0.004 0.077,-0.43889 0.1551,-0.96412 0.078,-0.52522 0.4314,-2.89761 0.7856,-5.27195 0.6304,-4.22566 0.6447,-4.31743 0.6788,-4.33699 0.019,-0.0114 0.3235,-0.10243 0.6761,-0.20321 0.6599,-0.18853 3.5279,-1.01113 5.8244,-1.6705 3.0948,-0.88865 4.2227,-1.21218 4.7074,-1.35028 0.284,-0.081 0.5214,-0.15421 0.5276,-0.1628 0.01,-0.008 0.1699,-0.50075 0.364,-1.09363 0.1945,-0.59278 0.3597,-1.09251 0.368,-1.11025 0.01,-0.0177 0.025,-0.03 0.035,-0.0275 0.029,0.007 0.8251,0.60881 0.8446,0.63845 0.013,0.0201 -0.1067,0.17006 -0.7132,0.892 l -0.729,0.8679 -0.5453,0.24794 c -0.6685,0.30402 -2.0936,0.95121 -4.9041,2.22721 -4.2073,1.91018 -4.9687,2.25714 -4.9889,2.2734 -0.017,0.0143 -2.8129,9.01968 -2.8483,9.17608 l -0.012,0.053 0.2395,0.19801 c 0.6709,0.55482 1.2042,1.13239 1.5826,1.7139 0.06,0.0919 0.118,0.16569 0.1294,0.16414 0.011,-0.001 0.08,-0.0884 0.1516,-0.19303 1.5568,-2.26245 4.4359,-3.75891 7.8573,-4.08415 1.7987,-0.17098 3.5906,-0.0275 5.413,0.43328 0.5943,0.15071 0.9726,0.26488 1.5175,0.45931 2.7713,0.98905 5.0858,2.65314 6.6076,4.75081 0.1759,0.24242 0.5159,0.7846 0.6719,1.07149 0.3531,0.64961 0.5747,1.20864 0.7906,1.99446 0.039,0.14366 0.1142,0.51765 0.1454,0.72797 0.1496,1.00621 0.085,2.05117 -0.185,2.98548 z"
       style="fill:#000000;fill-opacity:1;display:inline;enable-background:new" />
    <path
       inkscape:connector-curvature="0"
       id="path3009-1-9"
       d="m 755.56967,752.22278 c 0.7007,1.46415 0.8741,3.11341 0.513,4.87973 -0.069,0.33814 -0.2431,0.95382 -0.3673,1.29971 -0.5545,1.54574 -1.4886,3.03261 -2.7407,4.36246 -2.2766,2.41797 -5.4671,4.14953 -8.7417,4.74456 -2.9464,0.5353 -5.7474,0.12248 -7.8491,-1.15679 -0.2979,-0.18125 -0.6811,-0.45672 -0.9438,-0.67836 -0.1218,-0.10274 -0.2309,-0.1856 -0.2425,-0.18412 -0.012,10e-4 -0.047,0.0829 -0.078,0.18124 -0.141,0.43876 -0.3598,0.91527 -0.6298,1.37172 -0.1472,0.2488 -0.2099,0.3455 -0.4368,0.67379 l -0.2138,0.30934 0.033,0.0527 c 0.4713,0.75881 5.228,8.29667 5.2462,8.3136 0.015,0.0141 0.5589,0.11207 1.2839,0.23156 2.1371,0.35228 2.4222,0.39936 6.6362,1.09594 l 3.4232,0.56592 0.9222,0.6474 c 0.7605,0.53396 0.9206,0.65231 0.9136,0.67474 -0.01,0.015 -0.1513,0.21125 -0.3257,0.43606 -0.2363,0.30461 -0.323,0.40676 -0.3404,0.40103 -0.013,-0.004 -0.288,-0.41352 -0.6574,-0.97895 -0.5384,-0.82478 -0.6394,-0.97258 -0.6689,-0.98047 -0.019,-0.005 -1.1514,-0.0278 -2.5164,-0.0504 -2.2243,-0.0368 -6.9884,-0.1172 -8.9542,-0.15116 -0.6542,-0.0113 -0.7451,-0.0167 -0.7605,-0.0455 -0.01,-0.018 -0.992,-2.27113 -2.1828,-5.00717 -1.1909,-2.73601 -2.1704,-4.98421 -2.1768,-4.99594 -0.01,-0.0122 -0.019,-0.0174 -0.027,-0.013 -0.01,0.005 -0.1051,0.1157 -0.2148,0.24698 -0.9112,1.08964 -2.0866,2.12356 -3.5009,3.0796 -0.1934,0.1308 -0.3531,0.24226 -0.3547,0.24773 -0.01,0.0185 2.4716,9.49736 2.4846,9.50857 0.01,0.006 0.5156,0.26705 1.1302,0.5801 0.6145,0.31306 1.4614,0.74446 1.8818,0.95873 0.4204,0.21413 2.1047,1.07207 3.7429,1.9064 1.6382,0.83432 3.0892,1.57433 3.2245,1.64446 l 0.2461,0.1275 0.099,0.13158 c 0.054,0.0723 0.3623,0.47539 0.684,0.89556 0.3216,0.42018 0.5829,0.77017 0.5807,0.77774 0,0.017 -0.8662,0.61385 -0.8847,0.61325 -0.01,-8.5e-4 -0.021,-0.0142 -0.029,-0.0308 -0.01,-0.0166 -0.1523,-0.52364 -0.3197,-1.12664 -0.292,-1.05243 -0.3059,-1.09733 -0.3459,-1.12086 -0.023,-0.0134 -2.6293,-0.8941 -5.7921,-1.95693 -3.1628,-1.06283 -5.7584,-1.94257 -5.7681,-1.955 -0.01,-0.0125 -0.076,-0.58504 -0.1466,-1.27245 -0.071,-0.68741 -0.313,-3.02689 -0.5378,-5.19884 -0.2249,-2.17194 -0.4174,-4.03558 -0.4279,-4.14141 -0.01,-0.10573 -0.027,-0.19498 -0.037,-0.19811 -0.01,-0.003 -0.143,0.0709 -0.3089,0.1716 -0.359,0.21811 -1.3398,0.74884 -1.7083,0.92523 -1.03,0.49024 -1.9716,0.85456 -2.9831,1.15442 -0.1635,0.0485 -0.214,0.0687 -0.2204,0.0882 -0.01,0.0223 0.017,0.97912 0.1193,4.76842 0.015,0.5543 0.055,2.04992 0.09,3.32357 l 0.062,2.31573 0.1423,0.12142 c 0.078,0.0668 1.0615,0.89458 2.1852,1.83953 1.1236,0.94496 2.1922,1.84378 2.3748,1.99737 0.1825,0.1536 1.1562,0.97272 2.1639,1.82027 1.0076,0.84757 1.8525,1.55943 1.8774,1.58189 0.039,0.0355 0.1062,0.17478 0.5057,1.05811 0.3003,0.66341 0.4578,1.02557 0.4529,1.04116 -0.01,0.0174 -0.1271,0.0717 -0.4727,0.20713 -0.2559,0.10086 -0.4785,0.18815 -0.4947,0.19418 -0.019,0.008 -0.033,8.3e-4 -0.042,-0.0186 -0.01,-0.0164 -0.035,-0.54287 -0.063,-1.17036 -0.028,-0.62747 -0.057,-1.15212 -0.064,-1.16586 -0.01,-0.0137 -0.3898,-0.25707 -0.8497,-0.54067 -5.8277,-3.59375 -9.4729,-5.8433 -9.5117,-5.86999 -0.03,-0.0206 -0.046,-0.0411 -0.044,-0.0556 0.047,-0.28475 1.4289,-11.40518 1.4182,-11.41429 -0.01,-0.006 -0.098,0.009 -0.1985,0.0351 -1.052,0.27758 -2.3072,0.4491 -3.2255,0.44076 -0.7758,-0.007 -1.3695,-0.0812 -1.9406,-0.24288 -0.1514,-0.0427 -0.281,-0.0717 -0.2881,-0.0643 -0.01,0.007 -8e-4,0.10578 0.015,0.21846 0.096,0.71516 0.082,1.47933 -0.039,2.14513 -0.1205,0.65907 -0.3532,1.35994 -0.6405,1.92931 -1.1487,2.27589 -3.4583,3.74314 -6.007,3.8159 -1.7631,0.0504 -3.544,-0.60231 -4.8293,-1.76987 -0.1111,-0.10094 -0.1539,-0.13124 -0.1747,-0.12386 -0.024,0.008 -6.6763,7.28617 -6.6841,7.31207 -10e-4,0.006 0.3302,0.76279 0.7373,1.68345 0.4071,0.9207 0.7382,1.68045 0.7358,1.68835 0,0.008 -0.01,0.0126 -0.013,0.0121 -0.01,-0.002 -0.6602,-0.79761 -1.4558,-1.76907 -1.0958,-1.33804 -1.4448,-1.77217 -1.4391,-1.79047 0.01,-0.0135 1.8064,-1.65097 4.0053,-3.63924 2.1989,-1.98828 3.9994,-3.61976 4.0011,-3.6255 10e-4,-0.006 -0.04,-0.0563 -0.093,-0.11235 -0.4589,-0.48681 -0.7695,-0.91757 -1.0909,-1.51307 -0.2671,-0.49476 -0.4438,-0.9226 -0.5745,-1.39095 -0.026,-0.0926 -0.05,-0.17302 -0.053,-0.17878 0,-0.005 -1.5372,0.81558 -3.4088,1.82586 -1.8718,1.00999 -3.4154,1.8373 -3.4301,1.83895 -0.046,0.004 -4.7554,-1.68802 -4.7583,-1.71004 0,-0.0117 0.027,-0.35751 0.065,-0.76897 0.037,-0.4115 0.087,-0.967 0.1111,-1.23449 0.024,-0.26743 0.049,-0.48939 0.056,-0.49314 0.017,-0.009 0.02,0.006 0.2202,1.20344 0.097,0.58258 0.1847,1.06413 0.1942,1.0701 0.01,0.007 0.9515,0.23692 2.0935,0.51323 1.9081,0.46162 2.0813,0.50054 2.1367,0.47979 0.034,-0.0117 1.5212,-0.64495 3.3069,-1.40566 1.7858,-0.76071 3.2779,-1.39509 3.3161,-1.40974 0.051,-0.0198 0.068,-0.0319 0.065,-0.0478 -0.1431,-0.69577 -0.193,-1.18523 -0.1784,-1.74886 0.055,-2.10795 1.0502,-4.0723 2.7079,-5.34284 0.3172,-0.2431 0.5418,-0.38774 0.9223,-0.59407 0.3732,-0.20189 0.5733,-0.29354 0.9403,-0.42811 1.1573,-0.42465 2.3913,-0.52684 3.6462,-0.30195 0.3408,0.0611 1.0962,0.28659 1.4124,0.42161 0.7147,0.30526 1.3103,0.67639 1.8828,1.17323 0.086,0.0745 0.1649,0.13393 0.1754,0.13211 0.01,-0.002 0.054,-0.11693 0.097,-0.25589 0.3969,-1.2832 1.3789,-2.69821 2.813,-4.05355 0.1124,-0.10617 0.2068,-0.2006 0.2098,-0.20995 0,-0.009 -2.2625,-1.12798 -5.0344,-2.48616 -2.772,-1.35814 -5.0454,-2.47894 -5.052,-2.49064 -0.01,-0.0121 0.015,-0.97939 0.048,-2.15044 0.2431,-8.60336 0.282,-10.05408 0.2698,-10.07653 -0.01,-0.0139 -0.1451,-0.12012 -0.3058,-0.23602 -0.1606,-0.11595 -0.38,-0.27438 -0.4875,-0.35214 -0.1074,-0.0777 -0.3985,-0.28808 -0.6469,-0.4674 -0.2483,-0.17932 -0.4546,-0.33164 -0.4583,-0.33849 -0.01,-0.018 0.01,-0.0315 0.4277,-0.32662 0.422,-0.29666 0.4563,-0.31803 0.4779,-0.2979 0.01,0.008 0.2835,0.43773 0.6116,0.95572 l 0.5967,0.94174 0.2046,1.71989 c 0.1126,0.94592 0.219,1.83906 0.2365,1.98475 0.018,0.14567 0.1615,1.35325 0.3199,2.6835 0.3171,2.66325 0.3351,2.81428 0.49,4.11267 l 0.1073,0.89895 0.7306,0.50879 c 3.4387,2.39478 7.5836,5.27521 7.5986,5.28046 0.02,0.007 0.034,-0.005 0.3956,-0.30852 0.837,-0.70567 1.8525,-1.40798 2.8913,-1.99967 0.4321,-0.24587 1.2518,-0.67448 1.4441,-0.75523 0.085,-0.0349 0.095,-0.0437 0.085,-0.0632 -0.01,-0.0124 -0.2828,-0.24308 -0.6135,-0.51249 -0.3307,-0.26942 -0.8179,-0.66644 -1.0827,-0.8823 -1.709,-1.39335 -2.8108,-2.29157 -3.8253,-3.11844 -0.637,-0.51918 -1.4936,-1.21743 -1.9036,-1.55168 -0.4099,-0.33425 -0.7493,-0.6197 -0.7542,-0.63433 -0.01,-0.0148 0.6865,-2.6775 1.5362,-5.9175 0.8498,-3.24 1.5454,-5.89982 1.5458,-5.91077 3e-4,-0.0112 -0.3385,-0.40796 -0.7532,-0.88228 -0.4147,-0.47433 -0.7617,-0.8761 -0.7711,-0.89283 -0.015,-0.0265 -0.01,-0.034 0.034,-0.0577 0.1056,-0.0557 0.9312,-0.38212 0.9519,-0.37589 0.025,0.008 0.7514,2.06139 0.7569,2.14168 0,0.0281 -0.065,0.67102 -0.1484,1.4288 -0.1782,1.61727 -0.2899,2.63226 -0.7304,6.63553 -0.1798,1.63401 -0.3361,3.05342 -0.3473,3.15419 l -0.02,0.18328 3.1967,3.53795 c 1.7582,1.94588 3.201,3.53924 3.2062,3.5408 0,0.002 0.1151,-0.0425 0.2443,-0.0977 1.3972,-0.59858 2.6944,-0.99665 3.9765,-1.22008 0.2953,-0.0515 0.7731,-0.11794 0.9499,-0.13213 0.05,-0.004 0.093,-0.0145 0.096,-0.0231 0,-0.008 -0.2342,-0.37908 -0.5253,-0.82316 -0.2911,-0.44403 -1.6047,-2.45097 -2.9191,-4.45979 -2.3392,-3.57514 -2.3895,-3.65323 -2.377,-3.69053 0.01,-0.0209 0.1734,-0.29158 0.3698,-0.60137 0.3675,-0.57963 1.9624,-3.10117 3.2391,-5.12074 1.7204,-2.72171 2.3476,-3.71339 2.6178,-4.13884 0.1583,-0.24933 0.2869,-0.46194 0.2858,-0.47247 3e-4,-0.0112 -0.2061,-0.48695 -0.4554,-1.05882 -0.2489,-0.57208 -0.4579,-1.05514 -0.4635,-1.07394 0,-0.0195 -10e-4,-0.0389 0.01,-0.0438 0.026,-0.014 1.0211,-0.094 1.0554,-0.0848 0.023,0.007 0.033,0.19797 0.061,1.14045 l 0.033,1.13296 -0.2424,0.54779 c -0.2972,0.67162 -0.9311,2.10265 -2.1816,4.92458 -1.872,4.22444 -2.2099,4.98986 -2.2142,5.01547 0,0.0222 3.8972,8.60689 3.9748,8.74724 l 0.026,0.0477 0.3105,-0.0113 c 0.87,-0.0318 1.6524,0.0449 2.3217,0.22762 0.1057,0.0288 0.1983,0.0453 0.2057,0.0365 0.01,-0.008 8e-4,-0.11896 -0.015,-0.245 -0.3417,-2.72501 0.8133,-5.75716 3.1524,-8.27528 1.2296,-1.32378 2.6633,-2.40829 4.3308,-3.276 0.5441,-0.28263 0.9026,-0.44897 1.4387,-0.66604 2.7276,-1.10426 5.5628,-1.40056 8.0942,-0.84586 0.2926,0.0641 0.907,0.24294 1.2144,0.35344 0.6956,0.25036 1.2329,0.5205 1.9167,0.96381 0.125,0.0811 0.4296,0.31066 0.5927,0.44699 0.7808,0.65204 1.4274,1.47553 1.8472,2.35272 z"
       style="fill:#000000;fill-opacity:1;display:inline;enable-background:new" />
    <path
       inkscape:connector-curvature="0"
       id="path3009-1-7-4"
       d="m -448.63571,781.10333 c 0.31291,-1.59277 1.1593,-3.01886 2.50428,-4.21943 0.25753,-0.22979 0.76485,-0.61957 1.07104,-0.82278 1.36824,-0.90815 3.00569,-1.54227 4.80433,-1.86048 3.27028,-0.57861 6.86318,-0.0608 9.84451,1.41865 2.68246,1.33124 4.68186,3.3359 5.6028,5.61748 0.13052,0.3233 0.2732,0.77315 0.35148,1.10789 0.0363,0.15514 0.0742,0.28676 0.0844,0.29251 0.0103,0.006 0.0871,-0.0385 0.17123,-0.0984 0.37525,-0.26755 0.83541,-0.51892 1.32466,-0.72359 0.2667,-0.11154 0.37472,-0.15167 0.75281,-0.2793 l 0.35628,-0.1203 0.005,-0.0619 c 0.0755,-0.89004 0.76511,-9.77657 0.76065,-9.80101 -0.003,-0.02 -0.38117,-0.42379 -0.8912,-0.95284 -1.50316,-1.55939 -1.70365,-1.7675 -4.66645,-4.8439 l -2.40683,-2.49917 -0.35269,-1.07019 c -0.29074,-0.88253 -0.3484,-1.07308 -0.32943,-1.08691 0.0126,-0.009 0.24755,-0.079 0.5217,-0.15507 0.37151,-0.10302 0.50207,-0.13315 0.5126,-0.11815 0.008,0.011 -0.0162,0.50366 -0.0578,1.17776 -0.0611,0.98309 -0.0684,1.16192 -0.0494,1.1859 0.0123,0.0158 0.90669,0.71029 1.98768,1.54394 1.76163,1.35854 5.53377,4.26959 7.08976,5.47138 0.51791,0.39996 0.58752,0.45858 0.58267,0.49096 -0.003,0.0202 -0.56162,2.41382 -1.24149,5.31931 -0.67986,2.90547 -1.23771,5.29349 -1.23964,5.30667 -0.002,0.0138 0.005,0.0252 0.0138,0.0265 0.009,0.001 0.15344,-0.03 0.31986,-0.0697 1.3817,-0.32934 2.94193,-0.45612 4.64727,-0.37768 0.23327,0.0107 0.42788,0.0167 0.43246,0.0133 0.0151,-0.0118 3.69283,-9.09239 3.68908,-9.10915 -10e-4,-0.009 -0.25386,-0.5222 -0.55962,-1.14045 -0.30577,-0.61824 -0.72704,-1.47015 -0.93615,-1.89317 -0.20919,-0.42292 -1.04716,-2.11724 -1.86223,-3.76508 -0.81509,-1.64782 -1.53645,-3.1082 -1.60307,-3.24529 l -0.1211,-0.24925 -9e-4,-0.16477 c -5.1e-4,-0.0905 -0.007,-0.5977 -0.0134,-1.12681 -0.007,-0.52914 -0.007,-0.9659 -9.5e-4,-0.97062 0.0142,-0.0106 1.0613,0.0253 1.07578,0.0368 0.006,0.005 0.008,0.0237 0.005,0.0421 -0.003,0.0184 -0.19069,0.51094 -0.41681,1.09445 -0.39464,1.01841 -0.41036,1.06269 -0.39237,1.10544 0.0103,0.0244 1.57416,2.288 3.47525,5.03001 1.90107,2.74201 3.45678,4.99835 3.45712,5.0141 3.4e-4,0.0158 -0.28887,0.51435 -0.64269,1.10798 -0.3538,0.59362 -1.55758,2.61417 -2.67507,4.49011 -1.11748,1.87593 -2.07661,3.48537 -2.1314,3.57652 -0.0548,0.091 -0.0947,0.17261 -0.0886,0.18105 0.006,0.008 0.157,0.0286 0.3502,0.0469 0.41818,0.0396 1.5218,0.20009 1.92269,0.27884 1.11879,0.22228 2.09152,0.49276 3.08176,0.85668 0.1601,0.0589 0.21267,0.0728 0.22946,0.061 0.0193,-0.0131 0.57172,-0.79504 2.75349,-3.89492 0.31914,-0.45346 1.18041,-1.67686 1.91393,-2.71865 l 1.33365,-1.89416 -0.0415,-0.18238 c -0.0228,-0.10034 -0.31668,-1.35163 -0.65307,-2.78072 -0.33638,-1.4291 -0.65624,-2.78835 -0.71083,-3.02056 -0.0546,-0.23221 -0.34597,-1.47087 -0.64756,-2.75257 -0.30157,-1.28171 -0.55369,-2.35733 -0.56027,-2.39024 -0.0103,-0.052 0.0193,-0.20361 0.22669,-1.15063 0.15566,-0.71135 0.2457,-1.0959 0.25894,-1.10548 0.0152,-0.0105 0.14475,0.0185 0.50286,0.11638 0.26543,0.072 0.4961,0.13503 0.51265,0.13984 0.0203,0.005 0.0273,0.0193 0.0224,0.0398 -0.005,0.017 -0.29613,0.45635 -0.64864,0.97622 -0.35249,0.51986 -0.64276,0.95785 -0.64502,0.97331 -0.002,0.0154 0.15897,0.43903 0.35829,0.94123 2.52577,6.36378 4.10462,10.34564 4.11985,10.39026 0.012,0.0346 0.0127,0.0607 0.002,0.0709 -0.20794,0.20016 -7.96043,8.29165 -7.95734,8.30532 0.002,0.01 0.0835,0.0515 0.18016,0.0905 1.00944,0.406 2.1184,1.01844 2.84974,1.57379 0.61788,0.4692 1.0497,0.88344 1.411,1.35427 0.0959,0.12473 0.1825,0.22544 0.1926,0.22366 0.01,-7.7e-4 0.0636,-0.0846 0.11865,-0.18402 0.35004,-0.63104 0.81791,-1.23541 1.31335,-1.69655 0.49045,-0.45646 1.09582,-0.87942 1.66644,-1.16429 2.28089,-1.13866 5.00961,-0.93516 7.09676,0.5293 1.44386,1.01307 2.48192,2.60053 2.81496,4.30473 0.0288,0.14735 0.045,0.19723 0.066,0.2037 0.0243,0.008 9.70706,-1.85338 9.72874,-1.86953 0.005,-0.004 0.19101,-0.80893 0.41468,-1.79042 0.22371,-0.9815 0.41215,-1.78857 0.41875,-1.79349 0.007,-0.004 0.0145,-0.005 0.0177,-0.002 0.003,0.005 0.0529,1.03408 0.11037,2.28843 0.0792,1.72767 0.0996,2.28428 0.0842,2.2956 -0.0119,0.008 -2.43502,0.24446 -5.38622,0.52496 -2.95122,0.2805 -5.36979,0.51293 -5.37458,0.51651 -0.005,0.004 -0.002,0.069 0.007,0.14564 0.0771,0.66456 0.0688,1.19555 -0.0293,1.86513 -0.0815,0.55631 -0.19539,1.00497 -0.37045,1.4586 -0.0346,0.0896 -0.0637,0.16828 -0.0647,0.17476 -0.001,0.006 1.71997,0.26452 3.82437,0.57268 2.10436,0.3085 3.83649,0.56744 3.84926,0.57489 0.0394,0.0244 2.80462,4.19495 2.79375,4.21431 -0.006,0.01 -0.23581,0.27011 -0.51144,0.57789 -0.27564,0.30778 -0.64764,0.72336 -0.82668,0.92353 -0.179,0.20016 -0.33192,0.36299 -0.33972,0.36185 -0.0194,-0.003 -0.0124,-0.0171 0.54248,-1.09657 0.27005,-0.52532 0.48771,-0.96366 0.48369,-0.9741 -0.003,-0.0107 -0.62145,-0.75852 -1.3721,-1.66246 -1.25417,-1.51021 -1.36987,-1.64495 -1.42664,-1.66138 -0.0339,-0.0106 -1.6052,-0.39179 -3.49162,-0.84877 -1.88642,-0.45697 -3.46202,-0.83987 -3.50134,-0.85091 -0.053,-0.0148 -0.0738,-0.0152 -0.0806,-4.8e-4 -0.30099,0.64341 -0.55342,1.06571 -0.9019,1.50896 -1.30332,1.65764 -3.27536,2.63791 -5.36375,2.66625 -0.39957,0.005 -0.66612,-0.0128 -1.09451,-0.0747 -0.4199,-0.0611 -0.6351,-0.10717 -1.00979,-0.21855 -1.18178,-0.35102 -2.2323,-1.00636 -3.10423,-1.93653 -0.23673,-0.25257 -0.70777,-0.88479 -0.88058,-1.18193 -0.39075,-0.67186 -0.64658,-1.32533 -0.8088,-2.06581 -0.0244,-0.11109 -0.0522,-0.20586 -0.0617,-0.2107 -0.01,-0.004 -0.11356,0.0612 -0.23105,0.14692 -1.08501,0.79179 -2.71788,1.33971 -4.67766,1.56962 -0.15356,0.018 -0.2857,0.0373 -0.29369,0.043 -0.008,0.005 1.14022,2.25632 2.55145,5.00165 1.41126,2.74532 2.56455,5.00241 2.56288,5.01577 -0.002,0.0138 -0.59721,0.77637 -1.32344,1.69563 -5.3355,6.75348 -6.23346,7.89355 -6.23716,7.91878 -0.002,0.0156 0.0446,0.18302 0.1042,0.37196 0.0596,0.18896 0.1408,0.44712 0.1805,0.57366 0.0397,0.12651 0.14747,0.46916 0.23948,0.76134 0.092,0.29219 0.1664,0.53754 0.16525,0.54524 -0.003,0.0202 -0.0253,0.0205 -0.53812,0.006 -0.51561,-0.0142 -0.5559,-0.0176 -0.56118,-0.0467 -0.002,-0.0112 0.0342,-0.52038 0.0806,-1.13179 l 0.0843,-1.11165 0.86354,-1.50139 c 0.47494,-0.82576 0.92324,-1.60554 0.99624,-1.73282 0.073,-0.1273 0.67908,-1.18162 1.34691,-2.34294 1.33702,-2.32504 1.41284,-2.4569 2.06439,-3.5906 l 0.45112,-0.78494 -0.28184,-0.8445 c -1.32649,-3.97493 -2.92914,-8.76129 -2.93801,-8.77444 -0.0118,-0.0179 -0.0305,-0.0168 -0.50159,0.011 -1.09279,0.0657 -2.3267,0.0222 -3.51322,-0.12408 -0.49337,-0.061 -1.40674,-0.20708 -1.60923,-0.25727 -0.089,-0.0228 -0.10265,-0.022 -0.10585,-6e-5 -0.002,0.014 0.0815,0.3639 0.18574,0.77753 0.10419,0.41363 0.25764,1.02309 0.34098,1.35438 0.53788,2.13843 0.88473,3.51704 1.20415,4.78624 0.20056,0.79691 0.47023,1.86863 0.59927,2.38163 0.12902,0.51298 0.23062,0.94466 0.22577,0.95928 -0.005,0.0148 -2.15026,1.73686 -4.76759,3.82715 -2.6173,2.09031 -4.76434,3.8075 -4.7712,3.81604 -0.007,0.008 0.0277,0.52941 0.0768,1.15752 0.0491,0.62812 0.0873,1.15763 0.0849,1.17667 -0.004,0.03 -0.0122,0.0334 -0.062,0.0258 -0.11799,-0.0184 -0.97504,-0.25 -0.98788,-0.26733 -0.0159,-0.0214 0.62911,-2.10197 0.67268,-2.16962 0.0153,-0.0237 0.45294,-0.49934 0.97267,-1.05708 1.10924,-1.19035 1.80529,-1.93748 4.55048,-4.88437 1.1205,-1.20282 2.09391,-2.24762 2.16311,-2.32173 l 0.12582,-0.13476 -0.44939,-4.74701 c -0.24715,-2.61085 -0.45203,-4.75057 -0.45528,-4.75495 -0.003,-0.005 -0.1177,-0.0347 -0.25431,-0.0676 -1.47799,-0.35483 -2.75607,-0.81074 -3.91759,-1.39759 -0.26758,-0.13516 -0.69047,-0.36743 -0.84069,-0.46166 -0.0426,-0.0272 -0.0836,-0.0443 -0.0905,-0.0386 -0.007,0.004 -0.0387,0.44393 -0.0706,0.97395 -0.0319,0.53001 -0.17773,2.92415 -0.32404,5.3203 -0.26042,4.26448 -0.26674,4.35715 -0.29904,4.3796 -0.018,0.0127 -0.31328,0.13022 -0.65586,0.26125 -0.64099,0.24523 -3.42657,1.31417 -5.65695,2.17081 -3.00579,1.15448 -4.10129,1.5749 -4.57212,1.75464 -0.27591,0.10531 -0.50607,0.19897 -0.51148,0.20809 -0.007,0.008 -0.12568,0.51363 -0.26746,1.12115 -0.14224,0.60745 -0.2633,1.11966 -0.27007,1.13806 -0.008,0.0182 -0.0221,0.0319 -0.0324,0.0304 -0.029,-0.004 -0.87492,-0.53474 -0.89689,-0.56258 -0.0145,-0.0189 0.0915,-0.17869 0.63288,-0.95065 l 0.65073,-0.92802 0.52167,-0.29444 c 0.63956,-0.36101 2.00295,-1.12971 4.6918,-2.64534 4.02519,-2.26893 4.75349,-2.68079 4.77223,-2.69876 0.0162,-0.0157 2.01761,-9.23017 2.03928,-9.38905 l 0.007,-0.0539 -0.25576,-0.17643 c -0.71667,-0.49436 -1.29818,-1.02335 -1.7257,-1.56975 -0.0676,-0.0863 -0.13195,-0.1548 -0.14316,-0.15226 -0.0109,0.002 -0.0715,0.0951 -0.13425,0.2055 -1.35414,2.38931 -4.09208,4.13053 -7.47224,4.75215 -1.77696,0.3268 -3.57461,0.33978 -5.4302,0.0392 -0.60513,-0.0984 -0.99198,-0.17927 -1.55163,-0.32558 -2.8469,-0.74422 -5.2974,-2.20067 -6.99585,-4.15802 -0.19635,-0.22619 -0.58216,-0.73675 -0.76256,-1.00898 -0.40826,-0.61643 -0.67766,-1.15406 -0.96111,-1.91812 -0.0518,-0.13969 -0.1588,-0.50576 -0.20814,-0.71258 -0.23651,-0.98939 -0.26291,-2.03602 -0.0754,-2.99025 z"
       style="fill:#000000;fill-opacity:1;display:inline;enable-background:new" />
  </g>
</svg>
