<?xml version="1.0" encoding="UTF-8" standalone="no"?>
<!-- Created with Inkscape (http://www.inkscape.org/) -->

<svg
   xmlns:dc="http://purl.org/dc/elements/1.1/"
   xmlns:cc="http://creativecommons.org/ns#"
   xmlns:rdf="http://www.w3.org/1999/02/22-rdf-syntax-ns#"
   xmlns:svg="http://www.w3.org/2000/svg"
   xmlns="http://www.w3.org/2000/svg"
   xmlns:sodipodi="http://sodipodi.sourceforge.net/DTD/sodipodi-0.dtd"
   xmlns:inkscape="http://www.inkscape.org/namespaces/inkscape"
   width="432"
   height="200"
   id="svg2"
   version="1.1"
   inkscape:version="0.48.2 r9819"
   enable-background="new"
   inkscape:export-filename="G:\inforgames\fpg-sources\inforgames\2.png"
   inkscape:export-xdpi="90"
   inkscape:export-ydpi="90"
   sodipodi:docname="logo.svg">
  <defs
     id="defs4" />
  <sodipodi:namedview
     id="base"
     pagecolor="#ffffff"
     bordercolor="#666666"
     borderopacity="1.0"
     inkscape:pageopacity="0.0"
     inkscape:pageshadow="2"
     inkscape:zoom="0.7"
     inkscape:cx="491.8777"
     inkscape:cy="205.93601"
     inkscape:document-units="px"
     inkscape:current-layer="layer1"
     showgrid="false"
     inkscape:window-width="1366"
     inkscape:window-height="706"
     inkscape:window-x="-8"
     inkscape:window-y="-8"
     inkscape:window-maximized="1"
     showguides="true"
     inkscape:guide-bbox="true"
     inkscape:snap-grids="false"
     inkscape:snap-to-guides="false">
    <sodipodi:guide
       orientation="1,0"
       position="115,140.35714"
       id="guide3000" />
    <sodipodi:guide
       orientation="0,1"
       position="336.78572,9.2857143"
       id="guide3002" />
    <sodipodi:guide
       orientation="0,1"
       position="283.34779,65.407378"
       id="guide3004" />
    <sodipodi:guide
       orientation="0,1"
       position="338.57143,140.35714"
       id="guide3006" />
    <sodipodi:guide
       orientation="1,0"
       position="335,115.35714"
       id="guide3008" />
    <sodipodi:guide
       orientation="0,1"
       position="334.86557,138.13836"
       id="guide3010" />
    <sodipodi:guide
       orientation="0,1"
       position="284.73675,63.260803"
       id="guide3014" />
  </sodipodi:namedview>
  <metadata
     id="metadata7">
    <rdf:RDF>
      <cc:Work
         rdf:about="">
        <dc:format>image/svg+xml</dc:format>
        <dc:type
           rdf:resource="http://purl.org/dc/dcmitype/StillImage" />
        <dc:title />
      </cc:Work>
    </rdf:RDF>
  </metadata>
  <g
     inkscape:label="Capa 1"
     inkscape:groupmode="layer"
     id="layer1"
     transform="translate(0,-852.36218)">
    <rect
       style="fill:#000000;fill-opacity:1;fill-rule:evenodd;stroke:#fefe00;stroke-width:3;stroke-linecap:round;stroke-miterlimit:4;stroke-opacity:1;stroke-dasharray:none"
       id="rect3015"
       width="11.935266"
       height="48.840435"
       x="116.73781"
       y="862.07159" />
    <path
       style="fill:#000000;stroke:#fefe00;stroke-width:3;stroke-linecap:round;stroke-linejoin:miter;stroke-miterlimit:4;stroke-opacity:1;stroke-dasharray:none"
       d="m 134.95637,910.41188 0,-46.9693 15.00163,0 16.32122,20.76613 -0.27784,-20.48833 12.7097,0 0,46.73116 -12.64026,0 -17.29355,-18.1864 0,18.28563 z"
       id="path3785"
       inkscape:connector-curvature="0"
       sodipodi:nodetypes="ccccccccccc" />
    <path
       style="fill:#000000;stroke:#fefe00;stroke-width:3;stroke-linecap:round;stroke-linejoin:miter;stroke-miterlimit:4;stroke-opacity:1;stroke-dasharray:none"
       d="m 184.51536,910.41188 12.39214,0 0,-19.04962 18.61311,0 0,-9.30655 -18.19639,0 0,-6.11178 25.88673,0 0,-12.64026 -38.80481,0 z"
       id="path3787"
       inkscape:connector-curvature="0"
       sodipodi:nodetypes="ccccccccccc" />
    <path
       style="fill:#000000;stroke:#fefe00;stroke-width:3;stroke-linecap:round;stroke-linejoin:miter;stroke-miterlimit:4;stroke-opacity:1;stroke-dasharray:none"
       d="m 285.37176,863.29734 0,47.13817 14.46233,0 0,-15.61115 4.32256,0.0853 14.86317,15.48824 14.46232,0 0,-12.24391 -10.79341,0 -4.28158,-3.67806 c 14.53424,0 14.45565,-31.17861 -0.93661,-31.17861 l -32.09878,0 z m 21.88547,8.61767 c 9.27081,0.015 10.80019,13.62001 -0.21331,13.60909 -11.17518,-0.0109 -9.21955,-13.62438 0.21331,-13.60909 z"
       id="path3789"
       inkscape:connector-curvature="0"
       sodipodi:nodetypes="cccccccccccccscs" />
    <path
       sodipodi:nodetypes="cccccccccccccccccccccccccccc"
       style="fill:#000000;stroke:#fefe00;stroke-width:3;stroke-linecap:round;stroke-linejoin:miter;stroke-miterlimit:4;stroke-opacity:1;stroke-dasharray:none"
       d="m 195.91218,915.80784 0.21634,68.60615 -19.06979,-68.5257 -42.50693,-0.17858 -18.45668,69.6855 21.97079,0 4.56481,-13.43845 25.55437,-0.25597 4.9061,13.43845 41.12591,0 0,-22.73871 23.37863,22.56806 24.95711,0 0.85323,-49.14631 25.12776,0 0,49.53026 23.97589,0 0,-50.68213 20.81893,0 0.38395,-18.62244 -89.58963,-0.17857 0.42662,27.41868 -29.26595,-27.48024 z m -40.12487,17.50136 8.98484,24.91048 -20.81892,0 z"
       id="path3791"
       inkscape:connector-curvature="0" />
    <path
       style="fill:#000000;fill-opacity:1;fill-rule:evenodd;stroke:#fefe00;stroke-width:3;stroke-linecap:round;stroke-linejoin:round;stroke-miterlimit:4;stroke-opacity:1;stroke-dasharray:none"
       d="m 253.20482,861.37756 c -15.1887,0 -27.47416,11.07397 -27.47416,24.7438 0,13.66983 12.28546,24.74381 27.47416,24.74381 15.18869,0 27.51681,-11.07398 27.51681,-24.74381 0,-13.66983 -12.32812,-24.7438 -27.51681,-24.7438 z m 0.0426,12.11593 c 7.44703,0 13.48111,5.57965 13.48111,12.41456 0,6.83492 -6.03408,12.37191 -13.48111,12.37191 -7.44703,0 -13.48111,-5.53699 -13.48111,-12.37191 0,-6.83491 6.03408,-12.41456 13.48111,-12.41456 z"
       id="path3795"
       inkscape:connector-curvature="0" />
    <path
       sodipodi:nodetypes="cccccccccccccccccccccccccccccccccc"
       style="fill:#000000;stroke:#fefe00;stroke-width:3;stroke-linecap:round;stroke-linejoin:miter;stroke-miterlimit:4;stroke-opacity:1;stroke-dasharray:none"
       d="m 264.68421,990.74484 -12.02889,18.88216 -13.1023,-18.83607 -15.56982,0.005 -0.25254,43.66002 -16.51009,-43.97385 -25.93833,0 -9.34292,39.28105 -5.58868,-0.043 0,-13.7371 -15.31556,0 0,11.7746 -11.68866,0 c -12.43779,0 -14.06169,-22.7814 1.06589,-22.7814 l 25.93833,0 0,-14.56299 -27.05969,0 c -30.99554,0 -28.9663,51.90089 -0.53572,51.89209 l 44.48945,0 2.81568,-10.4948 16.48778,0.1263 4.45913,10.3685 31.655,0 0,-19.6671 13.22513,20.2217 10.75076,-21.3736 0,20.0084 18.04591,0 0,-50.7505 z m -70.99598,14.10056 6.89771,17.1518 -13.42668,0.1211 z"
       id="path3797"
       inkscape:connector-curvature="0" />
    <path
       style="fill:#000000;stroke:#fefe00;stroke-width:3;stroke-linecap:round;stroke-linejoin:miter;stroke-opacity:1;stroke-miterlimit:4;stroke-dasharray:none"
       d="m 286.57508,990.44212 0,51.07428 47.14555,0 0,-13.7508 -32.21615,0 0,-8.6434 18.46535,0 0,-6.286 -17.67958,0 0,-10.2148 26.32294,0 0,-11.78639 z"
       id="path3799"
       inkscape:connector-curvature="0" />
  </g>
  <g
     inkscape:groupmode="layer"
     id="layer2"
     inkscape:label="Capa">
    <path
       inkscape:connector-curvature="0"
       id="path3009"
       d="m -93.979866,52.395003 c -3.01678,-0.14668 -5.8705,-1.32048 -8.443454,-3.47303 -0.4925,-0.41217 -1.34689,-1.24111 -1.80356,-1.75006 -2.04084,-2.27419 -3.64978,-5.11792 -4.72053,-8.34358 -1.94694,-5.86486 -1.96225,-12.61928 -0.0422,-18.50701 1.72773,-5.29753 4.87943,-9.51904 8.83174,-11.8296603 0.560024,-0.32747 1.349764,-0.71144 1.944944,-0.9458 0.27583,-0.10868 0.50794,-0.21395 0.51578,-0.23426 0.008,-0.0207 -0.0944,-0.15012 -0.2274,-0.28869 -0.59376,-0.61874 -1.1806,-1.39816 -1.68932,-2.24372 -0.2773,-0.46094 -0.38024,-0.64904 -0.717234,-1.31067 l -0.31754,-0.62351 -0.11538,0.007 c -1.65899,0.10095 -18.20574,1.22712 -18.24954,1.24192 -0.036,0.0116 -0.6774,0.81605 -1.51399,1.89766 -2.46572,3.18785 -2.79482,3.61306 -7.65994,9.8972103 l -3.95233,5.10494 -1.8752,0.93786 c -1.54643,0.77321 -1.88171,0.93074 -1.91229,0.89951 -0.0207,-0.0207 -0.21214,-0.43449 -0.42614,-0.91868 -0.28988,-0.65618 -0.3805,-0.88847 -0.35572,-0.91189 0.0181,-0.0181 0.93162,-0.10606 2.18393,-0.2111 1.82641,-0.15263 2.15763,-0.1873 2.19666,-0.22869 0.0259,-0.0269 1.06331,-1.86076 2.30664,-4.07572 2.02625,-3.60956 6.36879,-11.3391803 8.16188,-14.5278903 0.5968,-1.06131997 0.68598,-1.20524997 0.74659,-1.20524997 0.038,0 4.59545,0.38322997 10.12798,0.85159997 5.5325,0.46838 10.07942,0.85162 10.10423,0.85162 0.0259,0 0.045,-0.0155 0.045,-0.0325 0,-0.0173 -0.0965,-0.27444 -0.21446,-0.57014 -0.97879,-2.45505997 -1.6329,-5.29336 -1.94823,-8.45418 -0.0432,-0.43235 -0.0846,-0.79226 -0.0921,-0.79979 -0.0259,-0.0246 -17.73542,-4.3475097 -17.76528,-4.3360697 -0.0155,0.005 -0.89297,0.60815 -1.94877,1.33777 -1.0558,0.7296097 -2.51067,1.7348697 -3.23311,2.2339197 -0.72243,0.49902 -3.61589,2.49858 -6.42995,4.44345 -2.81403,1.94488 -5.30823,3.66669003 -5.54267,3.82630003 l -0.42624,0.29015 -0.3031,0.0461 c -0.1666,0.0253 -1.09866,0.1731 -2.07095,0.32841 -0.97232,0.15535 -1.77632,0.27382997 -1.78672,0.26342997 -0.0233,-0.0233 -0.23956,-1.96076997 -0.22223,-1.99053997 0.008,-0.0116 0.0414,-0.0212 0.0761,-0.0202 0.0347,6.7e-4 0.99208,0.21333 2.12733,0.47231 1.98137,0.45201 2.06713,0.46902 2.14099,0.42437 0.0422,-0.0256 3.788,-3.51500003 8.32374,-7.75429003 4.53574,-4.2392697 8.27043,-7.7117597 8.29933,-7.7166397 0.029,-0.005 1.02483,0.39316 2.21314,0.88453 1.18831,0.49135 5.23284,2.16288 8.98786,3.71452 3.75502,1.5516197 6.9767,2.8835497 7.15929,2.9598397 0.18239,0.0763 0.34333,0.12778 0.35722,0.1143 0.0129,-0.0135 0.0104,-0.29673 -0.008,-0.65739 -0.0398,-0.78059 -0.0419,-2.8557097 -0.005,-3.6150097 0.10762,-2.11971 0.34335,-3.9835 0.74639,-5.90473 0.0652,-0.3106 0.0766,-0.41116 0.0504,-0.43889 -0.03,-0.0318 -1.61786,-0.83825 -7.9132,-4.01933 -0.92089,-0.46532 -3.40546,-1.72117 -5.52123,-2.79077 l -3.84688,-1.944699 -0.32455,0.125649 c -0.17851,0.0691 -2.40308,0.94752 -4.94346,1.95211 -2.5404,1.00458 -4.95665,1.95993 -5.36946,2.12303 -0.41282,0.16306 -2.61473,1.0335 -4.89314,1.9343 -2.27842,0.90075 -4.19074,1.65492 -4.24957,1.67591 -0.0929,0.0331 -0.38006,0.0194 -2.17953,-0.10716 -1.3516,-0.0948 -2.08387,-0.1569 -2.10508,-0.17869 -0.0233,-0.0251 -0.005,-0.27142 0.0787,-0.95719 0.061,-0.50807 0.11486,-0.94975 0.11926,-0.98152 0.005,-0.0387 0.0274,-0.0559 0.0673,-0.0519 0.0326,0.004 0.92001,0.42217 1.97216,0.93101 1.05213,0.5088 1.93677,0.92513 1.96584,0.92513 0.029,0 0.76543,-0.41102 1.63629,-0.91339 11.0353,-6.36581 17.94057,-10.346095 18.01862,-10.386171 0.0605,-0.03138 0.1084,-0.03961 0.12987,-0.02303 0.42456,0.328868 17.41171,12.420391 17.43605,12.411021 0.0181,-0.007 0.0722,-0.16764 0.11797,-0.35615 0.47534,-1.96791 1.3039,-4.174725 2.12919,-5.670905 0.697234,-1.26406 1.343744,-2.1706 2.112924,-2.962866 0.20386,-0.210068 0.36583,-0.39677 0.35978,-0.414931 -0.005,-0.01733 -0.17282,-0.09425 -0.37078,-0.168831 -1.25616,-0.474324 -2.494974,-1.172757 -3.477564,-1.960601 -0.9726,-0.779888 -1.91451,-1.780398 -2.59281,-2.754147 -2.7113,-3.892336 -3.0723,-8.970996 -0.93879,-13.208428 1.47588,-2.931393 4.11866,-5.270521 7.166464,-6.343108 0.26343,-0.0928 0.35095,-0.136078 0.35719,-0.17654 0.008,-0.04633 -6.029224,-17.371827 -6.064794,-17.407402 -0.008,-0.0072 -1.54082,-0.133569 -3.40812,-0.280759 -1.86733,-0.147255 -3.40401,-0.276605 -3.41485,-0.287434 -0.0104,-0.01164 -0.0129,-0.02535 -0.008,-0.03226 0.008,-0.0072 1.88958,-0.37611 4.18343,-0.820159 3.15943,-0.611601 4.1787,-0.799245 4.20369,-0.773868 0.0181,0.0194 1.10656,4.417162 2.418614,9.774954 1.31207,5.357808 2.39203,9.747933 2.39992,9.755792 0.008,0.0072 0.12755,-0.01552 0.26613,-0.05293 1.20272,-0.321135 2.18257,-0.44894 3.44173,-0.44894 1.04618,0 1.90293,0.08879 2.78527,0.288794 0.17437,0.03961 0.327,0.07197 0.33919,0.07197 0.0104,0 0.0233,-3.23793 0.0233,-7.195382 6.7e-4,-3.95747 0.0104,-7.216267 0.0207,-7.24178 0.0336,-0.0795 6.96712,-6.294497 7.00569,-6.279707 0.0207,0.0072 0.56088,0.361299 1.20182,0.785813 0.64096,0.424498 1.50636,0.997338 1.92316,1.273011 0.41674,0.275629 0.75777,0.513234 0.75777,0.527902 0,0.03671 -0.0277,0.02766 -2.16513,-0.703123 -1.03994,-0.355558 -1.90564,-0.638108 -1.92378,-0.627902 -0.0181,0.0093 -1.22897,1.34863 -2.69081,2.974353 -2.4423,2.716177 -2.65917,2.965514 -2.67413,3.07447 -0.0104,0.06527 -0.28856,3.060932 -0.6213,6.657188 -0.33275,3.596243 -0.61293,6.600268 -0.62265,6.675634 -0.0129,0.101567 -0.008,0.139907 0.0207,0.1486 1.26572,0.380689 2.11127,0.731588 3.02126,1.253677 3.40323,1.952613 5.73965,5.31902 6.35485,9.156291 0.11771,0.734155 0.156,1.229825 0.15755,2.035204 6.7e-4,0.789551 -0.0261,1.19817 -0.13013,1.918039 -0.32765,2.270392 -1.25097,4.381148 -2.72843,6.237207 -0.40117,0.503954 -1.43814,1.541613 -1.93863,1.939879 -1.1316,0.900533 -2.26571,1.547708 -3.58526,2.045999 -0.19791,0.07477 -0.36498,0.151498 -0.37129,0.170357 -0.005,0.0194 0.14332,0.192554 0.33288,0.385726 1.75024,1.784107 3.19924,4.642647 4.15089,8.188793 0.0745,0.27787 0.14565,0.51592 0.15832,0.5291 0.0103,0.0135 3.84666,-2.70753 8.52057,-6.045876 4.67389,-3.338357 8.51845,-6.070178 8.54349,-6.070698 0.0259,-5.51e-4 1.59039,0.890188 3.4786,1.979422 13.87213,8.002372 16.2132,9.348252 16.26065,9.348252 0.0295,0 0.32495,-0.13145 0.65674,-0.29209 0.33184,-0.16056 0.7852,-0.37979 1.00748,-0.48699 0.22222,-0.10713 0.824,-0.39799 1.33711,-0.64615 0.51314,-0.24817 0.94484,-0.45121 0.9593,-0.45121 0.038,0 0.0445,0.0411 0.15678,0.98902 0.11279,0.95313 0.11745,1.02821 0.0654,1.04576 -0.0207,0.007 -0.9673,0.0773 -2.10547,0.1567 l -2.06935,0.14456 -2.99699,-1.18507 c -1.64834,-0.65179 -3.20483,-1.26693 -3.45886,-1.367 -0.25404,-0.10001 -2.35853,-0.931686 -4.67665,-1.848136 -4.64106,-1.83473 -4.90424,-1.93876 -7.16716,-2.83268 l -1.56674,-0.618915 -1.47883,0.746545 c -6.96055,3.51381 -15.34054,7.754806 -15.36238,7.774686 -0.0295,0.0267 -0.0233,0.0602 0.15549,0.9205 0.41566,1.9942 0.66807,4.27766 0.71873,6.50157 0.0207,0.92479 -0.002,2.6457697 -0.0398,3.0320997 -0.0181,0.16999 -0.0129,0.19488 0.0285,0.19488 0.0264,0 0.64797,-0.24823 1.3814,-0.55159 0.73343,-0.30336 1.81414,-0.75017 2.40161,-0.99292 3.79201,-1.5667997 6.23664,-2.5770397 8.48722,-3.5073097 1.4131,-0.58407 3.31354,-1.36949 4.2232,-1.74537 0.90966,-0.37583 1.67703,-0.67927 1.70528,-0.67429 0.0285,0.005 3.77737,3.49055 8.3314,7.7457197 4.55405,4.25514 8.29438,7.74506003 8.31195,7.75539003 0.0181,0.0104 0.96722,-0.19375 2.11038,-0.45348 1.14319,-0.25974 2.10775,-0.47282 2.14345,-0.47345 0.0564,-6.8e-4 0.0647,0.0134 0.0642,0.10715 -0.002,0.22223 -0.1974,1.86251 -0.22585,1.89081997 -0.0349,0.0351 -4.0395,-0.59154997 -4.17581,-0.65351997 -0.0476,-0.0217 -1.04141,-0.69928 -2.2084,-1.50579003 -2.49055,-1.72127 -4.05373,-2.80134 -10.2193,-7.06099 -2.51658,-1.73865 -4.70256,-3.2490897 -4.85768,-3.3565097 l -0.28204,-0.19535 -8.61846,2.1071397 c -4.74017,1.15892 -8.62433,2.11299 -8.6315,2.12014 -0.008,0.007 -0.0321,0.22603 -0.0559,0.48643 -0.25482,2.81677 -0.74962,5.29273 -1.51694,7.58940003 -0.17669,0.52905997 -0.4903,1.37024997 -0.6233,1.67222997 -0.038,0.0861 -0.059,0.16575 -0.0466,0.17692 0.0103,0.0116 0.82775,-0.0485 1.81217,-0.13261 0.98437,-0.0842 5.43151,-0.46112 9.88247,-0.83774 7.92146,-0.67022997 8.09378,-0.68357997 8.14381,-0.63018997 0.0282,0.0298 0.32414,0.54170997 0.65781,1.13706997 0.62428,1.114 3.34329,5.95428 5.52174,9.8296603 2.93586,5.22266 4.00522,7.12623 4.46307,7.94459 0.26833,0.47956 0.50277,0.87807 0.52098,0.8856 0.0181,0.0104 0.97951,0.0929 2.13623,0.19015 1.15672,0.0981 2.13237,0.1829 2.16807,0.1904 0.0357,0.0104 0.0649,0.0321 0.0649,0.0515 0,0.0546 -0.74861,1.75497 -0.79394,1.80291 -0.0305,0.0321 -0.35367,-0.1203 -1.92086,-0.90888 l -1.88401,-0.94787 -0.6827,-0.88104 c -0.83709,-1.08015 -2.6199,-3.38303 -6.13521,-7.9248 -5.26246,-6.7990203 -6.21708,-8.0288403 -6.25522,-8.0584903 -0.0331,-0.0256 -17.53743,-1.22616 -17.83579,-1.22322 l -0.10116,6.7e-4 -0.25586,0.51844 c -0.71695,1.45273 -1.53409,2.66596 -2.42481,3.60034 -0.14074,0.14764 -0.24939,0.28468 -0.24163,0.30468 0.008,0.0197 0.19429,0.10609 0.41455,0.19178 4.76397,1.84891 8.70784,6.4202603 10.76359,12.4758303 1.08071,3.18342 1.58925,6.48953 1.53616,9.98686 -0.0181,1.14063 -0.0626,1.87465 -0.18109,2.94445 -0.60266,5.44203 -2.62345,10.34624 -5.7692,14.00093 -0.36353,0.42246 -1.19948,1.27042 -1.65203,1.67594 -1.02483,0.91783 -1.94202,1.55877 -3.27231,2.28661 -0.24318,0.13298 -0.88831,0.42873 -1.25577,0.57539 -1.75777,0.70218 -3.67759,1.03295 -5.48496,0.94502 z"
       style="fill:#000000;fill-opacity:1" />
    <path
       inkscape:connector-curvature="0"
       id="path3009-1"
       d="m 29.435445,170.85009 c -0.50508,-1.54264 -0.463239,-3.20045 0.123816,-4.90507 0.112444,-0.32631 0.364689,-0.91425 0.53259,-1.24114 0.7502,-1.46083 1.869174,-2.81407 3.283129,-3.9704 2.570816,-2.10248 5.958764,-3.40589 9.282877,-3.57144 2.990924,-0.14887 5.714825,0.62353 7.632995,2.16443 0.271828,0.21833 0.616088,0.54114 0.847918,0.79498 0.107468,0.11766 0.204848,0.21396 0.216548,0.21399 0.01188,3.1e-4 0.05724,-0.0762 0.101309,-0.16954 0.19672,-0.41677 0.475433,-0.8609 0.802336,-1.2785 0.178207,-0.22763 0.25289,-0.31539 0.520399,-0.6115 l 0.252102,-0.27902 -0.02566,-0.0565 c -0.368929,-0.81349 -4.108502,-8.90433 -4.124334,-8.92348 -0.01273,-0.0159 -0.539617,-0.18356 -1.243103,-0.39603 -2.073386,-0.62631 -2.349985,-0.70995 -6.43807,-1.94686 l -3.320992,-1.00486 -0.830554,-0.76149 c -0.684826,-0.62802 -0.828227,-0.76612 -0.818415,-0.78746 0.0064,-0.0143 0.17743,-0.18986 0.379453,-0.39017 0.273811,-0.27141 0.37304,-0.36146 0.389553,-0.35352 0.01257,0.006 0.231958,0.44736 0.524926,1.0559 0.426989,0.88762 0.507932,1.04725 0.536198,1.0589 0.01849,0.008 1.13813,0.17683 2.4886,0.37614 2.200789,0.3248 6.91429,1.02206 8.859072,1.31054 0.647303,0.096 0.736669,0.11311 0.748257,0.14374 0.0073,0.0191 0.689168,2.38054 1.515354,5.24786 0.826179,2.86729 1.50603,5.22348 1.51079,5.23593 0.005,0.013 0.01641,0.0197 0.02495,0.0164 0.0087,-0.003 0.119264,-0.1011 0.245084,-0.21704 1.044737,-0.96234 2.344152,-1.83519 3.870469,-2.59984 0.208763,-0.10462 0.381506,-0.19446 0.383847,-0.19966 0.0074,-0.0177 -1.219679,-9.73761 -1.23115,-9.75041 -0.0054,-0.007 -0.476608,-0.33163 -1.04543,-0.7217 -0.568818,-0.39008 -1.352577,-0.92761 -1.741699,-1.19457 -0.389131,-0.26682 -1.948019,-1.33583 -3.464221,-2.37546 -1.5162,-1.03963 -2.859059,-1.96148 -2.98416,-2.04856 l -0.22743,-0.15831 -0.08129,-0.14333 c -0.04467,-0.0787 -0.29766,-0.51834 -0.562146,-0.97666 -0.264511,-0.45834 -0.478224,-0.83924 -0.474999,-0.84645 0.0073,-0.0162 0.938399,-0.4964 0.956669,-0.49342 0.0074,0.002 0.01858,0.0167 0.02473,0.0344 0.0063,0.0176 0.08322,0.53898 0.170978,1.15858 0.153173,1.0814 0.161085,1.12772 0.19767,1.15624 0.02094,0.0163 2.491277,1.22737 5.489608,2.69119 2.99832,1.46382 5.458032,2.67259 5.466024,2.68617 0.0081,0.0136 -7.8e-4,0.58991 -0.0195,1.28073 -0.01871,0.69081 -0.08199,3.04192 -0.140614,5.22469 -0.05861,2.18275 -0.109253,4.05563 -0.112526,4.16193 -0.0033,0.1062 0.0017,0.19687 0.01115,0.20126 0.0092,0.004 0.150964,-0.0517 0.328491,-0.13013 0.384241,-0.16972 1.425598,-0.56885 1.813864,-0.69598 1.084792,-0.35261 2.06568,-0.5918 3.107502,-0.75802 0.168438,-0.0269 0.221105,-0.0404 0.230001,-0.0589 0.01019,-0.0211 0.11046,-0.97301 0.499791,-4.74366 0.05695,-0.55157 0.210791,-2.0398 0.341882,-3.30715 l 0.238328,-2.30428 -0.125337,-0.13884 c -0.06893,-0.0764 -0.936668,-1.02464 -1.928325,-2.10725 -0.991655,-1.08264 -1.93478,-2.11239 -2.095851,-2.28834 -0.161054,-0.17596 -1.020434,-1.1144 -1.909731,-2.08541 -0.889274,-0.97103 -1.63473,-1.78639 -1.656555,-1.8119 -0.03443,-0.0403 -0.08265,-0.18707 -0.364309,-1.11473 -0.211688,-0.69672 -0.320986,-1.07625 -0.314115,-1.09108 0.0082,-0.0165 0.135307,-0.0546 0.495629,-0.14411 0.266766,-0.0668 0.498832,-0.12453 0.515626,-0.12842 0.02043,-0.005 0.03323,0.004 0.03896,0.0238 0.0043,0.0171 -0.03545,0.54285 -0.08907,1.16868 -0.0536,0.6258 -0.0929,1.14977 -0.08732,1.16436 0.0056,0.0146 0.353178,0.30542 0.772437,0.64625 5.312725,4.31882 8.63558,7.02188 8.670674,7.05338 0.02737,0.0244 0.04069,0.0468 0.03645,0.0608 -0.08366,0.27624 -2.895205,11.12375 -2.885829,11.13417 0.0071,0.008 0.09801,0.004 0.201414,-0.009 1.079126,-0.13888 2.345941,-0.14625 3.255377,-0.0189 0.76834,0.10754 1.347499,0.25804 1.892761,0.49236 0.144577,0.062 0.269367,0.10755 0.277316,0.10106 0.0076,-0.006 0.01419,-0.10484 0.01363,-0.21853 -0.0029,-0.72161 0.110138,-1.47752 0.317157,-2.12192 0.204952,-0.63789 0.526539,-1.30268 0.885267,-1.83 1.433926,-2.10781 3.914289,-3.2633 6.45086,-3.0051 1.754754,0.17859 3.436024,1.05661 4.559159,2.38092 0.09711,0.11449 0.135637,0.15008 0.157147,0.14545 0.02487,-0.005 7.56448,-6.3593 7.575515,-6.38398 0.0021,-0.006 -0.228525,-0.79915 -0.512842,-1.76482 -0.284288,-0.96569 -0.514138,-1.76196 -0.51078,-1.76948 0.0038,-0.007 0.01029,-0.0113 0.01467,-0.0103 0.0051,0.003 0.551301,0.87646 1.214259,1.94285 0.91312,1.46879 1.202852,1.94449 1.194905,1.96191 -0.0063,0.0128 -2.00525,1.40287 -4.443295,3.08935 -2.438053,1.6865 -4.434831,3.07084 -4.437262,3.0763 -0.0021,0.006 0.03227,0.061 0.07762,0.12345 0.391939,0.54219 0.644068,1.00958 0.885615,1.64172 0.200693,0.5252 0.320471,0.97234 0.389324,1.45367 0.01357,0.0951 0.0266,0.17797 0.02894,0.18408 0.002,0.005 1.629989,-0.60944 3.616725,-1.3686 1.986877,-0.75885 3.624734,-1.3791 3.639522,-1.37883 0.04629,0.002 4.496514,2.29018 4.496489,2.31238 7.15e-4,0.0119 -0.07341,0.35096 -0.163954,0.75409 -0.09015,0.40321 -0.211756,0.94754 -0.270166,1.20967 -0.0589,0.262 -0.112338,0.47887 -0.119625,0.4817 -0.01842,0.007 -0.01914,-0.009 -0.06236,-1.22183 -0.021,-0.59028 -0.04521,-1.07909 -0.05382,-1.08624 -0.0077,-0.008 -0.912804,-0.35826 -2.009386,-0.78028 -1.832096,-0.70504 -1.998876,-0.76609 -2.056444,-0.75269 -0.03477,0.007 -1.592015,0.44232 -3.461253,0.96516 -1.869234,0.52283 -3.431077,0.95844 -3.470777,0.96802 -0.05346,0.013 -0.07177,0.0228 -0.07064,0.0389 0.05169,0.70845 0.03774,1.20025 -0.0498,1.75724 -0.327413,2.08308 -1.569226,3.90181 -3.377613,4.94676 -0.345986,0.19994 -0.587478,0.31424 -0.9915,0.46952 -0.396246,0.1518 -0.606519,0.21675 -0.987865,0.30261 -1.202645,0.27105 -2.43942,0.21243 -3.654636,-0.17323 -0.32995,-0.10473 -1.049805,-0.42626 -1.345758,-0.60111 -0.669167,-0.39534 -1.211625,-0.84054 -1.714912,-1.4074 -0.07551,-0.085 -0.146073,-0.15416 -0.156744,-0.15372 -0.01065,9.5e-4 -0.06918,0.10889 -0.12979,0.24111 -0.559916,1.22092 -1.717005,2.49671 -3.314695,3.65472 -0.125208,0.0907 -0.231066,0.1721 -0.235252,0.18099 -0.0049,0.008 2.097162,1.41172 4.669697,3.11774 2.572546,1.70599 4.681498,3.11201 4.686562,3.12448 0.0052,0.0128 -0.141812,0.96918 -0.326403,2.12606 -1.356257,8.49927 -1.582825,9.93272 -1.573723,9.95654 0.0056,0.0148 0.128327,0.13792 0.272621,0.27367 0.144262,0.13579 0.34129,0.32133 0.437746,0.41236 0.09641,0.091 0.357873,0.33732 0.580885,0.54731 0.223024,0.21 0.407771,0.38777 0.410544,0.39503 0.0073,0.0191 -0.01209,0.0302 -0.466437,0.26844 -0.456857,0.23945 -0.493655,0.2562 -0.51245,0.23344 -0.0076,-0.009 -0.224366,-0.47078 -0.482565,-1.02694 l -0.469543,-1.01113 0.02001,-1.7319 c 0.01101,-0.95254 0.02124,-1.85194 0.02275,-1.99867 0.0015,-0.14671 0.01528,-1.36276 0.03067,-2.70232 0.03077,-2.68189 0.03251,-2.83397 0.04718,-4.14149 l 0.01016,-0.90527 -0.658476,-0.59919 c -3.09928,-2.82031 -6.835916,-6.21371 -6.850087,-6.22085 -0.01903,-0.01 -0.03477,2.6e-4 -0.432285,0.25463 -0.921401,0.59123 -2.019333,1.15599 -3.126071,1.60804 -0.460296,0.18779 -1.328625,0.50654 -1.529822,0.56167 -0.08881,0.0235 -0.10032,0.0309 -0.09237,0.0517 0.005,0.0132 0.248918,0.27769 0.541909,0.58769 0.292989,0.31001 0.724615,0.76683 0.959177,1.01519 1.514003,1.60312 2.490129,2.63658 3.388881,3.58798 0.564298,0.59736 1.323165,1.40075 1.686367,1.78533 0.36318,0.38456 0.662719,0.7116 0.66564,0.72673 0.003,0.0153 -1.02772,2.56594 -2.290307,5.66846 -1.262567,3.10251 -2.297075,5.64973 -2.29889,5.66053 -0.0017,0.0111 0.282811,0.44841 0.632498,0.97247 0.349697,0.52409 0.641703,0.96744 0.648867,0.98525 0.01116,0.0282 0.0057,0.0351 -0.04147,0.0528 -0.111943,0.0416 -0.972894,0.25819 -0.992564,0.24934 -0.02429,-0.0109 -0.477935,-2.1414 -0.472973,-2.22173 0.0018,-0.0281 0.151281,-0.65695 0.3323,-1.39752 0.38635,-1.58052 0.628704,-2.57247 1.584393,-6.48487 0.390079,-1.59692 0.729019,-2.98409 0.753188,-3.08256 l 0.04394,-0.17907 -2.71114,-3.92246 c -1.491125,-2.15736 -2.7152,-3.92429 -2.720165,-3.92651 -0.005,-0.003 -0.119628,0.0272 -0.254922,0.0652 -1.462971,0.41242 -2.800882,0.63899 -4.101064,0.69436 -0.299498,0.0128 -0.781955,0.0167 -0.959069,0.008 -0.05046,-0.003 -0.09453,0.002 -0.09776,0.0106 -0.0039,0.007 0.183138,0.40624 0.414207,0.88431 0.231105,0.47802 1.273434,2.63829 2.316347,4.80053 1.856068,3.8482 1.895828,3.93214 1.87862,3.96751 -0.0095,0.0198 -0.209771,0.26664 -0.444646,0.54836 -0.439499,0.52711 -2.347843,2.82064 -3.875479,4.6577 -2.05871,2.47575 -2.809209,3.37776 -3.132216,3.7646 -0.189276,0.22671 -0.344365,0.42085 -0.344652,0.43144 -0.0017,0.0111 0.141264,0.50955 0.314339,1.10891 0.172649,0.59952 0.317238,1.10559 0.320322,1.12495 0.0017,0.0199 -0.0037,0.0387 -0.01337,0.0424 -0.02741,0.0105 -1.024644,-0.0392 -1.057408,-0.0527 -0.02191,-0.009 -0.0074,-0.20063 0.0878,-1.13867 l 0.114437,-1.12764 0.31134,-0.51176 c 0.38168,-0.62744 1.19578,-1.96422 2.801509,-4.60026 2.403762,-3.94615 2.838034,-4.66132 2.845603,-4.68615 0.0065,-0.0215 -2.748691,-9.03944 -2.807403,-9.18866 l -0.01974,-0.0507 -0.30935,-0.029 c -0.866841,-0.0812 -1.632666,-0.25872 -2.27262,-0.52663 -0.101124,-0.0423 -0.190754,-0.0706 -0.199297,-0.0629 -0.0083,0.008 -0.01595,0.1179 -0.01675,0.2449 -0.01431,2.74632 -1.552679,5.60317 -4.198362,7.79686 -1.39084,1.15323 -2.953033,2.04275 -4.718962,2.687 -0.576097,0.20972 -0.953129,0.32819 -1.512926,0.47393 -2.847641,0.7414 -5.697328,0.66771 -8.135531,-0.21044 -0.281825,-0.10144 -0.867881,-0.35846 -1.158276,-0.50786 -0.657369,-0.33842 -1.155083,-0.67592 -1.775671,-1.20413 -0.113402,-0.0966 -0.385639,-0.36371 -0.529757,-0.52005 -0.689708,-0.74775 -1.224048,-1.64809 -1.526617,-2.5723 z"
       style="fill:#000000;fill-opacity:1" />
    <path
       inkscape:connector-curvature="0"
       id="path3009-1-7"
       d="m 20.772558,88.917825 c 0.754884,-1.437008 1.973398,-2.561872 3.605302,-3.328185 0.31244,-0.14665 0.909968,-0.375258 1.261452,-0.48252 1.570652,-0.479436 3.321021,-0.619359 5.135611,-0.410477 3.299292,0.379731 6.594541,1.90236 9.02899,4.171852 2.190371,2.042074 3.533773,4.534365 3.764537,6.983951 0.03273,0.34712 0.04095,0.81898 0.02034,1.16213 -0.0095,0.15906 -0.0108,0.29601 -0.0027,0.30443 0.0081,0.009 0.09451,-0.012 0.192208,-0.0454 0.436049,-0.1492 0.948838,-0.25864 1.476168,-0.31502 0.287452,-0.0307 0.40244,-0.0383 0.801233,-0.0526 l 0.3758,-0.0135 0.02269,-0.0578 c 0.326613,-0.83138 3.526135,-9.150577 3.528846,-9.175278 0.0025,-0.02018 -0.24422,-0.515012 -0.581858,-1.167727 -0.995047,-1.923818 -1.127726,-2.180527 -3.088208,-5.975114 l -1.592582,-3.0826 -0.03227,-1.126338 c -0.02651,-0.928813 -0.02733,-1.127899 -0.0052,-1.135728 0.01474,-0.0054 0.25981,-0.005 0.544257,4.3e-4 0.385462,0.0074 0.51919,0.01583 0.524996,0.03321 0.0048,0.01288 -0.159359,0.478056 -0.391852,1.112166 -0.339356,0.924679 -0.397494,1.093956 -0.386161,1.12235 0.0073,0.01865 0.665992,0.939715 1.463778,2.047428 1.300116,1.805177 4.083446,5.672519 5.231273,7.268731 0.382077,0.531252 0.432032,0.60731 0.418133,0.636959 -0.0086,0.01852 -1.22778,2.152786 -2.709335,4.742973 -1.481545,2.590171 -2.698348,4.719308 -2.703963,4.731388 -0.0059,0.0126 -0.0027,0.0255 0.0057,0.0293 0.0085,0.004 0.155609,0.0151 0.326441,0.0246 1.418206,0.0791 2.94963,0.40332 4.561489,0.96567 0.220491,0.0769 0.405279,0.13824 0.410644,0.13629 0.01784,-0.007 6.1364,-7.658534 6.137589,-7.675677 0.0014,-0.0089 -0.0941,-0.572955 -0.210504,-1.252786 -0.116403,-0.679827 -0.276752,-1.616578 -0.356303,-2.081716 -0.07965,-0.465053 -0.398677,-2.328152 -0.709044,-4.140161 -0.310374,-1.811999 -0.584483,-3.417599 -0.60916,-3.56801 l -0.04485,-0.273455 0.0462,-0.15816 c 0.02538,-0.0869 0.16452,-0.574646 0.309083,-1.083675 0.144557,-0.509058 0.268948,-0.927729 0.276369,-0.930439 0.01669,-0.0061 1.009852,0.327426 1.020436,0.342615 0.0039,0.0066 9.51e-4,0.02498 -0.0074,0.04167 -0.0082,0.01676 -0.328709,0.435168 -0.712096,0.929769 -0.669125,0.863226 -0.696846,0.901171 -0.691814,0.947279 0.0029,0.02636 0.854938,2.642348 1.893474,5.813184 1.03853,3.170827 1.88483,5.777563 1.880658,5.792755 -0.0042,0.01527 -0.423766,0.410392 -0.932424,0.878205 -0.508645,0.467814 -2.23948,2.060265 -3.84631,3.538795 -1.606809,1.478517 -2.985745,2.746887 -3.064289,2.818587 -0.0785,0.0716 -0.140046,0.13837 -0.136623,0.1482 0.0037,0.009 0.142274,0.0723 0.322192,0.14502 0.389443,0.15743 1.401228,0.62649 1.762914,0.81648 1.008668,0.53263 1.863588,1.069724 2.708603,1.701364 0.136612,0.10213 0.183023,0.13047 0.202475,0.12399 0.02225,-0.007 0.775018,-0.59858 3.751417,-2.946014 0.435386,-0.34339 1.610261,-1.26976 2.610821,-2.05859 l 1.819188,-1.434237 0.01229,-0.18664 c 0.0068,-0.10268 0.0826,-1.385786 0.168483,-2.851415 0.0859,-1.46564 0.167666,-2.85962 0.181693,-3.097752 0.01404,-0.238123 0.08864,-1.508411 0.165762,-2.822857 0.07715,-1.31444 0.142811,-2.41726 0.145905,-2.450683 0.005,-0.0528 0.07664,-0.189616 0.545954,-1.037921 0.352385,-0.637233 0.548531,-0.980037 0.563956,-0.985438 0.01754,-0.0057 0.13344,0.05903 0.448656,0.255191 0.233795,0.144819 0.436846,0.271123 0.451335,0.280462 0.01792,0.01108 0.02063,0.02628 0.01007,0.04454 -0.0093,0.015 -0.414155,0.352734 -0.900491,0.750236 -0.486306,0.397495 -0.889603,0.734317 -0.896183,0.748481 -0.0066,0.01415 0.02692,0.466144 0.07447,1.004364 0.602548,6.82013 0.978085,11.087082 0.979935,11.134202 0.0016,0.0366 -0.0052,0.0618 -0.01824,0.0685 -0.25646,0.13241 -9.997407,5.672021 -9.998348,5.686001 -4.6e-4,0.0103 0.06535,0.0732 0.146794,0.13821 0.851388,0.67745 1.739178,1.58117 2.281391,2.3223 0.458089,0.62616 0.753577,1.1465 0.965315,1.70092 0.05624,0.14692 0.110493,0.26818 0.120681,0.26936 0.0094,0.002 0.08511,-0.0629 0.166278,-0.14245 0.515722,-0.50475 1.136743,-0.95027 1.743276,-1.25066 0.600413,-0.29733 1.30138,-0.52973 1.929599,-0.63971 2.511124,-0.43962 5.068,0.53492 6.64981,2.5346 1.094288,1.38333 1.635592,3.20118 1.4679,4.9295 -0.01449,0.14944 -0.01319,0.20187 0.0051,0.21408 0.02112,0.0142 9.832004,0.99691 9.857397,0.98763 0.0056,-0.002 0.414139,-0.72066 0.908871,-1.59735 0.494777,-0.87669 0.905922,-1.59629 0.913657,-1.59912 0.008,-0.002 0.01529,-5.1e-4 0.01757,0.003 0.0014,0.006 -0.24475,1.00609 -0.547972,2.22459 -0.417647,1.6783 -0.557094,2.21755 -0.575128,2.22399 -0.01359,0.004 -2.403384,-0.46135 -5.311729,-1.03563 -2.908363,-0.57427 -5.292546,-1.04245 -5.298158,-1.04039 -0.0056,0.002 -0.02129,0.0657 -0.03449,0.14169 -0.115948,0.6589 -0.275625,1.16538 -0.560872,1.77904 -0.23699,0.50986 -0.474342,0.90728 -0.771698,1.29199 -0.0588,0.076 -0.109149,0.14306 -0.111902,0.149 -0.0026,0.005 1.572731,0.74485 3.501397,1.64134 1.928537,0.89681 3.514508,1.63978 3.524613,1.65057 0.0308,0.0346 1.48936,4.82134 1.47341,4.83679 -0.0082,0.008 -0.303145,0.19149 -0.655212,0.4077 -0.352082,0.21621 -0.827293,0.5082 -1.056059,0.64888 -0.228725,0.14068 -0.421785,0.25304 -0.428937,0.24972 -0.0179,-0.008 -0.007,-0.0199 0.83314,-0.8959 0.40886,-0.42628 0.742675,-0.78417 0.741806,-0.79532 -8.4e-5,-0.0112 -0.378858,-0.90445 -0.840001,-1.98516 -0.770477,-1.80556 -0.842859,-1.96773 -0.892574,-1.9997 -0.02946,-0.0199 -1.426383,-0.83403 -3.103645,-1.81086 -1.677261,-0.97683 -3.07781,-1.79388 -3.112337,-1.81569 -0.04656,-0.0293 -0.06637,-0.0356 -0.07715,-0.0235 -0.472255,0.53061 -0.834809,0.8632 -1.295387,1.18842 -1.722552,1.21624 -3.892451,1.5923 -5.90191,1.02286 -0.384465,-0.10894 -0.634701,-0.20257 -1.027551,-0.38426 -0.384945,-0.17853 -0.578024,-0.28414 -0.90528,-0.49792 -1.032257,-0.67399 -1.851777,-1.60213 -2.421648,-2.74262 -0.154715,-0.30968 -0.425513,-1.05011 -0.506237,-1.38424 -0.182536,-0.75549 -0.241026,-1.45481 -0.184949,-2.21077 0.0084,-0.11342 0.0088,-0.21219 0.0011,-0.21954 -0.0081,-0.007 -0.126309,0.0262 -0.263393,0.0748 -1.265983,0.44883 -2.987335,0.50745 -4.931128,0.16792 -0.152304,-0.0266 -0.284438,-0.0459 -0.29373,-0.0427 -0.0093,0.002 0.448133,2.48802 1.016284,5.5221 0.568179,3.03407 1.028617,5.52657 1.0232,5.53889 -0.0056,0.0127 -0.794112,0.57341 -1.752685,1.2469 -7.042446,4.94782 -8.228682,5.78386 -8.239435,5.80698 -0.0067,0.0143 -0.0095,0.18815 -0.0064,0.38623 0.0031,0.1981 0.0072,0.46871 0.0091,0.60132 0.0019,0.13257 0.0073,0.49173 0.01201,0.79802 0.0047,0.3063 0.0059,0.56268 0.0026,0.56973 -0.0086,0.0185 -0.03011,0.0124 -0.517515,-0.14764 -0.490054,-0.16095 -0.527703,-0.17569 -0.524465,-0.20503 9.18e-4,-0.0114 0.181452,-0.48892 0.400587,-1.0616 l 0.39832,-1.04125 1.256461,-1.19213 c 0.691048,-0.65567 1.343432,-1.27488 1.449751,-1.37601 0.106285,-0.10115 0.988337,-0.93838 1.960097,-1.86052 1.945504,-1.8462 2.055828,-1.9509 3.004099,-2.85123 l 0.656552,-0.62335 -0.02884,-0.88982 c -0.135675,-4.18823 -0.304192,-9.23296 -0.308941,-9.2481 -0.0062,-0.0205 -0.02441,-0.0248 -0.483828,-0.13274 -1.066038,-0.24918 -2.236068,-0.64344 -3.331367,-1.12254 -0.455384,-0.19941 -1.288965,-0.60033 -1.468679,-0.70627 -0.07876,-0.0473 -0.09209,-0.0504 -0.101421,-0.0303 -0.006,0.0128 -0.02582,0.37203 -0.04412,0.79819 -0.01831,0.42616 -0.04536,1.05406 -0.06014,1.39535 -0.09543,2.20298 -0.156869,3.62322 -0.213331,4.93078 -0.03546,0.82099 -0.08319,1.92509 -0.106078,2.45357 -0.0229,0.52846 -0.04886,0.97118 -0.05768,0.98381 -0.0089,0.0128 -2.556826,1.0502 -5.662226,2.30568 -3.105378,1.2555 -5.653503,2.28778 -5.662518,2.294 -0.0092,0.006 -0.124683,0.51527 -0.257064,1.13123 -0.132382,0.61597 -0.247042,1.13432 -0.254826,1.15187 -0.01246,0.0276 -0.0212,0.0285 -0.06674,0.007 -0.107823,-0.0513 -0.862981,-0.51812 -0.870335,-0.5384 -0.0091,-0.025 1.203369,-1.83465 1.264451,-1.88704 0.02139,-0.0183 0.576708,-0.34913 1.234118,-0.73516 1.403058,-0.82386 2.283542,-1.34101 5.756183,-3.38086 1.41742,-0.8326 2.648736,-1.55578 2.73622,-1.60704 l 0.159079,-0.0932 0.925433,-4.67756 c 0.508998,-2.57266 0.923919,-4.68174 0.922056,-4.68686 -0.0013,-0.006 -0.102873,-0.0669 -0.224393,-0.13744 -1.315036,-0.76227 -2.409612,-1.56429 -3.355079,-2.45851 -0.21782,-0.20596 -0.556727,-0.54936 -0.673766,-0.68258 -0.03312,-0.0382 -0.06745,-0.0663 -0.07567,-0.0628 -0.008,0.002 -0.163874,0.41439 -0.345885,0.9132 -0.181953,0.49881 -1.005681,2.75151 -1.830415,5.00601 -1.46782,4.01237 -1.500349,4.09937 -1.537709,4.11166 -0.02086,0.007 -0.337428,0.0353 -0.703165,0.063 -0.68433,0.0519 -3.659195,0.28053 -6.041352,0.4643 -3.210337,0.2477 -4.380287,0.33764 -4.882837,0.37539 -0.294501,0.0221 -0.541825,0.0461 -0.549619,0.0533 -0.0092,0.006 -0.267165,0.45632 -0.576594,0.99802 -0.30984,0.5415 -0.572183,0.99778 -0.583928,1.01348 -0.01311,0.0151 -0.03034,0.0243 -0.03974,0.0199 -0.02662,-0.0124 -0.685699,-0.7624 -0.698797,-0.79535 -0.0085,-0.0223 0.138748,-0.1451 0.878082,-0.73024 l 0.888726,-0.70345 0.584036,-0.13314 c 0.716038,-0.16326 2.242209,-0.51044 5.251984,-1.19478 4.505627,-1.02448 5.321236,-1.21112 5.344325,-1.22299 0.01999,-0.0104 4.570352,-8.26914 4.636505,-8.41521 l 0.02261,-0.0495 -0.194694,-0.24214 c -0.545582,-0.67849 -0.951744,-1.35156 -1.20535,-1.99732 -0.0401,-0.10202 -0.08223,-0.18604 -0.0937,-0.18681 -0.0112,-7.2e-4 -0.09569,0.0707 -0.187365,0.15858 -1.980265,1.9029 -5.101529,2.7894 -8.518413,2.41949 -1.796266,-0.19445 -3.522707,-0.69555 -5.215107,-1.51368 -0.55179,-0.26721 -0.899432,-0.45518 -1.393961,-0.75527 -2.515659,-1.5265 -4.447963,-3.622294 -5.516475,-5.983284 -0.123549,-0.272857 -0.347423,-0.872357 -0.442534,-1.184777 -0.215151,-0.70737 -0.319741,-1.299553 -0.373107,-2.112748 -0.0097,-0.148659 -0.0077,-0.530044 0.0041,-0.742347 0.05599,-1.015721 0.329681,-2.026276 0.781962,-2.887183 z"
       style="fill:#000000;fill-opacity:1" />
    <path
       inkscape:connector-curvature="0"
       id="path3009-1-4"
       d="m 416.59382,179.23047 c -0.73457,1.44749 -1.93713,2.5894 -3.55808,3.37861 -0.31036,0.15101 -0.90459,0.38804 -1.25454,0.50024 -1.56374,0.5015 -3.31197,0.66605 -5.12932,0.48274 -3.30431,-0.33324 -6.62067,-1.80932 -9.08683,-4.04431 -2.2189,-2.01103 -3.59727,-4.48416 -3.86249,-6.93026 -0.0376,-0.34662 -0.0525,-0.81832 -0.0367,-1.16173 0.007,-0.15918 0.007,-0.29613 -0.002,-0.30443 -0.008,-0.009 -0.0943,0.0133 -0.19154,0.0481 -0.4339,0.15532 -0.9451,0.27197 -1.47158,0.33577 -0.287,0.0348 -0.40187,0.0439 -0.80041,0.0639 l -0.37558,0.0188 -0.0219,0.0581 c -0.31488,0.83589 -3.39695,9.19932 -3.39932,9.22405 -0.002,0.0203 0.25145,0.51152 0.59825,1.15942 1.02203,1.90962 1.15831,2.16443 3.17203,5.93105 l 1.63582,3.05986 0.0481,1.12578 c 0.0396,0.92835 0.0432,1.1274 0.0212,1.13554 -0.0149,0.005 -0.25971,0.009 -0.5442,0.007 -0.38553,-0.002 -0.51936,-0.009 -0.52541,-0.0258 -0.005,-0.0128 0.15261,-0.48025 0.37615,-1.11757 0.3263,-0.92936 0.38205,-1.09945 0.37032,-1.12768 -0.008,-0.0185 -0.67916,-0.93024 -1.49246,-2.02661 -1.3254,-1.7867 -4.16291,-5.61447 -5.33309,-7.19436 -0.38952,-0.52582 -0.44055,-0.60117 -0.42706,-0.63101 0.008,-0.0186 1.19734,-2.16986 2.64228,-4.78065 1.44493,-2.61077 2.63163,-4.75683 2.63708,-4.769 0.006,-0.0124 0.002,-0.0255 -0.006,-0.0292 -0.009,-0.004 -0.1558,-0.0129 -0.32676,-0.02 -1.41918,-0.0592 -2.95502,-0.36175 -4.57463,-0.90135 -0.22155,-0.0738 -0.40719,-0.13252 -0.41252,-0.13049 -0.0179,0.007 -6.02797,7.74417 -6.02891,7.76134 -0.001,0.009 0.10215,0.57157 0.22812,1.24969 0.12596,0.67812 0.29948,1.61252 0.38558,2.0765 0.0862,0.46388 0.43141,2.3223 0.76726,4.12976 0.33585,1.80745 0.63254,3.40903 0.65934,3.55908 l 0.0487,0.2728 -0.044,0.15879 c -0.0242,0.0873 -0.15641,0.57691 -0.29379,1.08793 -0.13738,0.51103 -0.25586,0.93141 -0.26324,0.93423 -0.0166,0.006 -1.01436,-0.31317 -1.02517,-0.32822 -0.004,-0.007 -0.001,-0.025 0.007,-0.0418 0.008,-0.0172 0.32255,-0.43975 0.69893,-0.9397 0.65691,-0.87256 0.68409,-0.9109 0.67841,-0.95692 -0.003,-0.0263 -0.89206,-2.63006 -1.97513,-5.78596 -1.08307,-3.15589 -1.96599,-5.75045 -1.96203,-5.7657 0.004,-0.0153 0.41794,-0.41632 0.91997,-0.89124 0.502,-0.47493 2.21025,-2.09159 3.7961,-3.5926 1.58583,-1.501 2.94677,-2.78865 3.0243,-2.86146 0.0775,-0.0727 0.1381,-0.1403 0.13454,-0.15007 -0.004,-0.009 -0.14327,-0.0703 -0.3242,-0.14048 -0.39162,-0.15192 -1.40991,-0.60669 -1.77423,-0.79157 -1.01607,-0.51837 -1.87847,-1.04337 -2.73229,-1.66306 -0.13804,-0.10019 -0.18485,-0.12788 -0.2042,-0.12111 -0.0222,0.008 -0.76652,0.60942 -3.70957,2.99852 -0.43053,0.34946 -1.59222,1.29231 -2.58158,2.09514 l -1.79881,1.45973 -0.01,0.18679 c -0.005,0.10274 -0.0631,1.38681 -0.12832,2.8535 -0.0653,1.4667 -0.12739,2.8617 -0.13806,3.10001 -0.0107,0.23829 -0.0674,1.5095 -0.126,2.82491 -0.0586,1.31539 -0.10876,2.41903 -0.11139,2.45249 -0.004,0.0529 -0.074,0.19068 -0.53129,1.0455 -0.34337,0.64214 -0.53467,0.98767 -0.55002,0.99328 -0.0176,0.006 -0.13426,-0.0571 -0.4522,-0.24884 -0.23581,-0.14151 -0.44063,-0.26495 -0.45524,-0.27408 -0.0181,-0.0108 -0.021,-0.026 -0.0107,-0.0444 0.009,-0.0147 0.40917,-0.3585 0.88984,-0.76284 0.48066,-0.4043 0.87918,-0.74677 0.88556,-0.76102 0.007,-0.014 -0.0335,-0.46573 -0.0886,-1.00322 -0.69851,-6.81097 -1.13409,-11.07222 -1.1366,-11.1193 -0.002,-0.0366 0.004,-0.0619 0.0172,-0.0688 0.25455,-0.13604 9.91655,-5.81222 9.9173,-5.82621 5.4e-4,-0.01 -0.0663,-0.0722 -0.14873,-0.13613 -0.86083,-0.66538 -1.76126,-1.55651 -2.31386,-2.28995 -0.46686,-0.61964 -0.76964,-1.13578 -0.98916,-1.68715 -0.0583,-0.14611 -0.11427,-0.2666 -0.12447,-0.26764 -0.009,-0.001 -0.0844,0.0637 -0.16424,0.1448 -0.50857,0.51195 -1.12325,0.96618 -1.7255,1.27508 -0.59614,0.30578 -1.29379,0.54799 -1.92039,0.66682 -2.50469,0.47492 -5.07504,-0.46352 -6.68485,-2.44074 -1.11365,-1.36777 -1.68049,-3.17782 -1.53715,-4.90834 0.0124,-0.14962 0.0103,-0.20202 -0.008,-0.21398 -0.0213,-0.0139 -9.84506,-0.85838 -9.87032,-0.84874 -0.006,0.003 -0.40396,0.72642 -0.88629,1.60998 -0.48239,0.88358 -0.88336,1.60889 -0.89106,1.61183 -0.008,0.003 -0.0153,6.4e-4 -0.0176,-0.003 -0.002,-0.006 0.23057,-1.00944 0.5166,-2.23209 0.39398,-1.68401 0.52582,-2.22517 0.54376,-2.23186 0.0137,-0.004 2.40964,0.42746 5.32578,0.96073 2.91616,0.53327 5.3067,0.96784 5.31229,0.9657 0.006,-0.003 0.0203,-0.066 0.0325,-0.14217 0.10666,-0.66046 0.25919,-1.16914 0.53577,-1.78675 0.22979,-0.51315 0.46152,-0.91387 0.75343,-1.30273 0.0577,-0.0768 0.10712,-0.1446 0.10978,-0.15059 0.002,-0.005 -1.58307,-0.72263 -3.52416,-1.59187 -1.94098,-0.86957 -3.53725,-1.59014 -3.5475,-1.60079 -0.0313,-0.0342 -1.5571,-4.79989 -1.54137,-4.81557 0.008,-0.009 0.3002,-0.19606 0.64941,-0.41687 0.34901,-0.22115 0.82008,-0.51977 1.04683,-0.66368 0.227,-0.14347 0.41821,-0.25891 0.42536,-0.25575 0.018,0.008 0.007,0.0198 -0.82044,0.90754 -0.40282,0.43198 -0.73157,0.79455 -0.73054,0.80569 2e-5,0.0108 0.39156,0.89902 0.86787,1.97312 0.79582,1.79454 0.87048,1.95568 0.92064,1.98695 0.0297,0.0195 1.43798,0.81386 3.12883,1.76697 1.69085,0.95312 3.10276,1.75037 3.1376,1.77169 0.0469,0.0286 0.0669,0.0347 0.0775,0.0225 0.46474,-0.53721 0.82257,-0.87486 1.27852,-1.20654 1.70527,-1.24036 3.86965,-1.64695 5.88693,-1.10585 0.38596,0.10352 0.63749,0.19361 1.03286,0.36975 0.38742,0.17309 0.58197,0.27598 0.9122,0.48512 1.04164,0.65939 1.87415,1.5759 2.46002,2.70826 0.15906,0.30747 0.44026,1.04401 0.52568,1.37698 0.19316,0.75284 0.26148,1.45126 0.21606,2.20794 -0.007,0.11356 -0.006,0.21229 0.002,0.21953 0.008,0.007 0.12595,-0.028 0.26232,-0.0786 1.25954,-0.46661 2.97989,-0.54946 4.92827,-0.23733 0.15266,0.0245 0.28506,0.0419 0.29431,0.0386 0.009,-0.003 -0.48312,-2.48146 -1.09394,-5.50725 -0.61084,-3.02576 -1.10632,-5.51153 -1.10108,-5.52393 0.005,-0.0131 0.78596,-0.58454 1.73497,-1.27143 6.97209,-5.04649 8.14643,-5.89914 8.15685,-5.92242 0.007,-0.0141 0.007,-0.18825 9.9e-4,-0.38628 -0.006,-0.19803 -0.0138,-0.46856 -0.0176,-0.60113 -0.004,-0.13253 -0.0142,-0.49159 -0.0232,-0.79777 -0.009,-0.3062 -0.0138,-0.56254 -0.0106,-0.56964 0.008,-0.0187 0.0299,-0.0128 0.51954,0.14034 0.49228,0.15404 0.53013,0.16824 0.5273,0.19762 -8.1e-4,0.0114 -0.17455,0.49144 -0.3856,1.06714 l -0.38362,1.04675 -1.23955,1.20971 c -0.68175,0.66533 -1.32535,1.29366 -1.43023,1.39629 -0.10485,0.10264 -0.97503,0.9522 -1.93371,1.88792 -1.91932,1.87342 -2.02815,1.97966 -2.96366,2.89325 l -0.64771,0.63253 0.0414,0.88934 c 0.19463,4.1859 0.43415,9.22775 0.43912,9.24282 0.006,0.0205 0.0248,0.0245 0.48565,0.12593 1.06944,0.23413 2.2449,0.61189 3.34684,1.07551 0.45814,0.19298 1.29729,0.58212 1.47848,0.68552 0.0794,0.0462 0.0928,0.0491 0.10183,0.0288 0.006,-0.0125 0.0206,-0.37236 0.0329,-0.79873 0.0123,-0.42638 0.0305,-1.0546 0.0405,-1.39606 0.0644,-2.20411 0.10583,-3.62507 0.14388,-4.93329 0.0239,-0.82141 0.0561,-1.92608 0.0715,-2.45483 0.0155,-0.52872 0.0352,-0.97176 0.0438,-0.98452 0.009,-0.013 2.54179,-1.08609 5.6292,-2.38517 3.0874,-1.2991 5.62073,-2.36716 5.62966,-2.3735 0.009,-0.007 0.11742,-0.51697 0.24111,-1.13474 0.1237,-0.61778 0.23105,-1.13769 0.23858,-1.15534 0.0121,-0.0278 0.0208,-0.0288 0.0667,-0.008 0.10853,0.0498 0.87019,0.50592 0.87782,0.52609 0.009,0.0249 -1.17742,1.85141 -1.23775,1.90466 -0.021,0.0188 -0.57174,0.3572 -1.22368,0.75242 -1.39131,0.84354 -2.26443,1.37303 -5.708,3.46157 -1.40557,0.85247 -2.62657,1.59292 -2.71333,1.64541 l -0.15753,0.0958 -0.85948,4.69013 c -0.47272,2.57957 -0.85791,4.69429 -0.85597,4.69937 10e-4,0.005 0.1038,0.0654 0.2263,0.13427 1.32564,0.74368 2.4314,1.53021 3.38936,2.41103 0.2207,0.20287 0.56441,0.54146 0.68331,0.67303 0.0336,0.0377 0.0684,0.0653 0.0766,0.0617 0.008,-0.003 0.15802,-0.41666 0.33299,-0.91798 0.17491,-0.50132 0.96684,-2.7654 1.75975,-5.03128 1.41118,-4.03264 1.44248,-4.12009 1.47967,-4.13291 0.0205,-0.008 0.3369,-0.04 0.70221,-0.0729 0.68353,-0.0615 3.65488,-0.33202 6.03421,-0.54932 3.20653,-0.29288 4.3751,-0.39927 4.87707,-0.44409 0.29416,-0.0263 0.54112,-0.0538 0.54881,-0.061 0.009,-0.007 0.26072,-0.46003 0.56249,-1.00603 0.30218,-0.54582 0.55807,-1.00574 0.56959,-1.02161 0.0132,-0.0148 0.0299,-0.0248 0.0395,-0.0204 0.0268,0.012 0.69637,0.75267 0.70993,0.78543 0.009,0.0222 -0.13669,0.14706 -0.86772,0.74254 l -0.87873,0.71589 -0.58211,0.14135 c -0.71366,0.17333 -2.2348,0.54196 -5.23464,1.26861 -4.49075,1.08782 -5.30365,1.28592 -5.32657,1.29812 -0.0197,0.0108 -4.45347,8.33266 -4.51756,8.47965 l -0.0219,0.0498 0.19808,0.23937 c 0.55508,0.67074 0.97069,1.33803 1.23336,1.98015 0.0415,0.10144 0.0848,0.18486 0.0963,0.18547 0.0114,8.2e-4 0.0948,-0.0719 0.18514,-0.16118 1.95327,-1.93059 5.06175,-2.86094 8.4835,-2.53918 1.79882,0.16914 3.53215,0.64588 5.2359,1.44011 0.5555,0.25941 0.90575,0.44247 1.40446,0.73556 2.5369,1.49093 4.49852,3.55931 5.60017,5.90502 0.12737,0.27109 0.35967,0.86738 0.45917,1.17842 0.22509,0.70428 0.338,1.29493 0.40282,2.1073 0.0118,0.1485 0.0152,0.52988 0.006,0.74233 -0.0417,1.01641 -0.30112,2.03071 -0.74123,2.8979 z"
       style="fill:#000000;fill-opacity:1" />
    <path
       inkscape:connector-curvature="0"
       id="path3009-1-0"
       d="m 416.13696,106.87091 c -0.45027,1.55951 -1.41751,2.90656 -2.86183,3.98559 -0.27656,0.2065 -0.81583,0.5507 -1.13855,0.72649 -1.44204,0.7857 -3.12844,1.27499 -4.94795,1.43552 -3.30821,0.29196 -6.84246,-0.53642 -9.6838,-2.2696 -2.55649,-1.55953 -4.37393,-3.73051 -5.09291,-6.08355 -0.1019,-0.33343 -0.20492,-0.79399 -0.25378,-1.13426 -0.0227,-0.15774 -0.049,-0.29213 -0.0586,-0.29875 -0.01,-0.007 -0.0902,0.0307 -0.17912,0.0832 -0.39711,0.23389 -0.87738,0.44428 -1.38258,0.60562 -0.27539,0.0879 -0.3865,0.11848 -0.77425,0.2128 l -0.36539,0.0888 -0.0106,0.0612 c -0.15264,0.88009 -1.61263,9.67296 -1.61032,9.6977 0.002,0.0203 0.34286,0.45534 0.80494,1.02675 1.36182,1.68424 1.54345,1.909 4.22741,5.23145 l 2.18032,2.69907 0.25826,1.0968 c 0.21288,0.90448 0.25374,1.09933 0.23362,1.11146 -0.0137,0.008 -0.2535,0.0571 -0.53321,0.10909 -0.37906,0.0704 -0.51175,0.089 -0.52094,0.0731 -0.007,-0.0117 0.0599,-0.50035 0.16004,-1.16827 0.14634,-0.97405 0.16922,-1.15157 0.1524,-1.1771 -0.0109,-0.0168 -0.84146,-0.78647 -1.84583,-1.71099 -1.63678,-1.50662 -5.1414,-4.73476 -6.58695,-6.06735 -0.48117,-0.4435 -0.54541,-0.50795 -0.53776,-0.53979 0.005,-0.0199 0.76946,-2.35581 1.69949,-5.19115 0.93001,-2.83531 1.69348,-5.16575 1.69654,-5.17873 0.003,-0.0133 -0.002,-0.0255 -0.0114,-0.0275 -0.009,-0.002 -0.15546,0.0165 -0.32471,0.0416 -1.40512,0.20788 -2.97045,0.19849 -4.66251,-0.028 -0.23145,-0.0309 -0.4248,-0.0539 -0.42967,-0.0509 -0.0162,0.0104 -4.46974,8.73671 -4.46745,8.75374 6.4e-4,0.009 0.20746,0.54229 0.45829,1.1848 0.25082,0.64249 0.5964,1.52782 0.76792,1.96743 0.17161,0.43951 0.85902,2.2003 1.52767,3.91279 0.66865,1.71248 1.26025,3.23007 1.31469,3.37244 l 0.099,0.25883 -0.0134,0.16423 c -0.007,0.0902 -0.0455,0.59599 -0.0847,1.1237 -0.0392,0.52773 -0.0768,0.96287 -0.0835,0.96702 -0.0151,0.009 -1.05508,-0.11751 -1.0685,-0.13026 -0.005,-0.006 -0.006,-0.0243 -0.001,-0.0423 0.004,-0.0184 0.23441,-0.49241 0.51043,-1.05404 0.48173,-0.98022 0.50125,-1.02296 0.48704,-1.06712 -0.008,-0.0252 -1.36917,-2.41626 -3.02453,-5.31325 -1.65535,-2.89697 -3.00889,-5.28009 -3.00786,-5.29581 9.6e-4,-0.0158 0.33251,-0.48727 0.73663,-1.04787 0.4041,-0.5606 1.77908,-2.46877 3.05552,-4.24039 1.27641,-1.77162 2.37191,-3.29153 2.43441,-3.37757 0.0625,-0.0859 0.10936,-0.1637 0.10404,-0.17263 -0.006,-0.009 -0.15391,-0.0422 -0.34478,-0.0772 -0.41316,-0.0758 -1.49864,-0.33171 -1.89116,-0.44503 -1.09521,-0.31876 -2.04072,-0.67282 -2.99555,-1.1215 -0.15438,-0.0725 -0.20554,-0.091 -0.22329,-0.0807 -0.0204,0.0117 -0.63872,0.74229 -3.08185,3.64065 -0.3574,0.42395 -1.32181,1.56781 -2.14316,2.54185 l -1.49337,1.77098 0.0255,0.18529 c 0.014,0.10193 0.19795,1.37406 0.40875,2.82699 0.21079,1.45295 0.41121,2.83486 0.44539,3.07095 0.0342,0.23608 0.21671,1.49539 0.40567,2.79847 0.18893,1.30307 0.34654,2.39655 0.35023,2.42991 0.006,0.0527 -0.0369,0.20116 -0.32592,1.12656 -0.21695,0.6951 -0.3401,1.07036 -0.35412,1.07875 -0.0162,0.009 -0.14259,-0.031 -0.49083,-0.15968 -0.25816,-0.0948 -0.48247,-0.17767 -0.49854,-0.1839 -0.0197,-0.007 -0.0255,-0.0216 -0.0188,-0.0416 0.006,-0.0169 0.33472,-0.42883 0.7311,-0.91609 0.39637,-0.48722 0.72364,-0.89831 0.72724,-0.91351 0.004,-0.015 -0.12017,-0.45119 -0.27505,-0.96883 -1.96264,-6.55937 -3.18913,-10.66346 -3.20043,-10.70925 -0.009,-0.0356 -0.007,-0.0616 0.004,-0.0708 0.22454,-0.18134 8.65152,-7.56777 8.64962,-7.58166 -0.001,-0.01 -0.0787,-0.0585 -0.17159,-0.10583 -0.9703,-0.49227 -2.02179,-1.19885 -2.70204,-1.81572 -0.57473,-0.521163 -0.96888,-0.971402 -1.28785,-1.471876 -0.0846,-0.132589 -0.1622,-0.240449 -0.17241,-0.23956 -0.009,6.42e-4 -0.071,0.07842 -0.1342,0.173016 -0.4036,0.598197 -0.92227,1.15957 -1.45595,1.57587 -0.52827,0.41209 -1.16816,0.78077 -1.7614,1.01492 -2.37129,0.93594 -5.07197,0.49585 -7.02382,-1.14461 -1.35027,-1.134832 -2.24631,-2.806569 -2.42984,-4.533285 -0.0159,-0.149288 -0.0277,-0.200384 -0.0481,-0.208662 -0.0236,-0.0096 -9.83148,1.001984 -9.8545,1.016174 -0.005,0.0035 -0.26064,0.789264 -0.56884,1.747567 -0.30824,0.958323 -0.56617,1.745936 -0.57317,1.750276 -0.007,0.004 -0.015,0.004 -0.0179,2.2e-4 -0.003,-0.006 0.0373,-1.034765 0.0891,-2.289358 0.0714,-1.728008 0.0995,-2.284293 0.11583,-2.294225 0.0126,-0.0068 2.44706,-0.03172 5.41147,-0.05444 2.96444,-0.02272 5.39405,-0.04389 5.39914,-0.04704 0.005,-0.0035 0.008,-0.06861 0.005,-0.145736 -0.019,-0.66875 0.0355,-1.197001 0.1914,-1.855508 0.12955,-0.547112 0.28207,-0.984172 0.49593,-1.420844 0.0423,-0.08625 0.0781,-0.162109 0.0796,-0.168491 0.001,-0.0056 -1.69044,-0.413131 -3.76006,-0.903182 -2.06955,-0.490382 -3.77258,-0.899007 -3.78466,-0.90755 -0.0371,-0.0277 -2.42909,-4.423013 -2.41658,-4.441359 0.006,-0.01021 0.25813,-0.248854 0.55978,-0.531199 0.30137,-0.282637 0.70813,-0.664254 0.90389,-0.84811 0.19608,-0.183478 0.36227,-0.332704 0.36989,-0.330946 0.0192,0.0045 0.0108,0.01811 -0.63581,1.045232 -0.31472,0.499826 -0.56969,0.917572 -0.56659,0.928321 0.002,0.01062 0.55311,0.809709 1.22229,1.775517 1.11805,1.613577 1.22158,1.757876 1.27672,1.779187 0.0328,0.01353 1.56503,0.529937 3.40455,1.149262 1.83952,0.619332 3.37583,1.137835 3.41405,1.152258 0.0515,0.01932 0.0722,0.02152 0.0803,0.0076 0.35582,-0.614795 0.64403,-1.013536 1.02975,-1.424777 1.44257,-1.537983 3.4924,-2.343017 5.57534,-2.189583 0.39853,0.02935 0.66248,0.0707 1.08386,0.169624 0.41299,0.09741 0.62338,0.16201 0.98695,0.305556 1.14678,0.452492 2.1363,1.196725 2.92402,2.199216 0.21386,0.272207 0.62812,0.943 0.77443,1.254055 0.33083,0.703298 0.52885,1.376544 0.62604,2.128324 0.0146,0.11282 0.034,0.20963 0.0431,0.215274 0.009,0.0052 0.11847,-0.05108 0.24294,-0.12632 1.14976,-0.694408 2.82411,-1.098212 4.79646,-1.156786 0.15455,-0.0046 0.28786,-0.01229 0.29632,-0.01728 0.009,-0.0042 -0.93963,-2.346942 -2.10671,-5.204631 -1.16711,-2.857666 -2.11969,-5.206526 -2.11687,-5.219686 0.003,-0.01384 0.66249,-0.721482 1.46594,-1.574071 5.90274,-6.263757 6.89647,-7.321397 6.90235,-7.346218 0.004,-0.0151 -0.0285,-0.186212 -0.0714,-0.37962 -0.0429,-0.193422 -0.10138,-0.457661 -0.12991,-0.587183 -0.0285,-0.12948 -0.10611,-0.480202 -0.17234,-0.779273 -0.0663,-0.299091 -0.11899,-0.549995 -0.11719,-0.557563 0.005,-0.01991 0.027,-0.01819 0.53664,0.04048 0.51242,0.05905 0.55226,0.06591 0.555,0.0953 0.001,0.01132 -0.0794,0.515437 -0.17877,1.120493 l -0.18065,1.1001 -0.99086,1.420585 c -0.54497,0.781316 -1.05941,1.519136 -1.1432,1.639597 -0.0838,0.120477 -0.77929,1.118067 -1.54561,2.216887 -1.53419,2.199933 -1.62119,2.324692 -2.36889,3.397431 l -0.51769,0.742711 0.20731,0.865819 c 0.9757,4.075251 2.15593,8.982874 2.16362,8.996746 0.0102,0.01888 0.0289,0.01937 0.50064,0.03267 1.09438,0.02956 2.31981,0.180312 3.48911,0.429201 0.4862,0.103697 1.38341,0.328673 1.58076,0.396275 0.0867,0.03053 0.10033,0.03084 0.10544,0.0092 0.004,-0.01341 -0.0496,-0.369607 -0.11741,-0.790731 -0.0678,-0.421125 -0.16767,-1.041625 -0.22187,-1.378914 -0.34983,-2.177111 -0.57544,-3.580667 -0.78326,-4.872843 -0.13047,-0.811325 -0.3059,-1.902454 -0.38982,-2.42472 -0.0839,-0.522259 -0.14758,-0.961145 -0.14148,-0.975301 0.006,-0.01438 2.2932,-1.543219 5.08243,-3.397921 2.78921,-1.854711 5.07748,-3.378639 5.08506,-3.386547 0.008,-0.0082 0.0184,-0.529816 0.0242,-1.159816 0.006,-0.630008 0.0137,-1.160831 0.0178,-1.179583 0.007,-0.02958 0.015,-0.03221 0.064,-0.02026 0.11594,0.02859 0.94959,0.333864 0.96087,0.352245 0.014,0.02273 -0.80956,2.039284 -0.85885,2.102899 -0.0171,0.02244 -0.49466,0.458024 -1.06097,0.968423 -1.20857,1.089348 -1.96699,1.773085 -4.95811,4.470011 -1.22089,1.100794 -2.28148,2.056965 -2.35686,2.124785 l -0.13678,0.123612 0.0348,4.768093 c 0.0191,2.622466 0.0371,4.771893 0.0399,4.776531 0.002,0.005 0.11422,0.04479 0.24745,0.08947 1.44153,0.482053 2.67511,1.047414 3.78118,1.733087 0.2548,0.157902 0.65588,0.426078 0.79733,0.533028 0.0401,0.03069 0.0794,0.05134 0.0868,0.0463 0.007,-0.0042 0.0771,-0.438885 0.15505,-0.964119 0.0779,-0.52522 0.43142,-2.897603 0.78561,-5.271948 0.63039,-4.225656 0.64474,-4.31743 0.67886,-4.336986 0.0187,-0.01139 0.32344,-0.102431 0.67611,-0.203211 0.65989,-0.188534 3.52789,-1.011128 5.82434,-1.670502 3.09482,-0.888648 4.22274,-1.212176 4.70741,-1.350283 0.28402,-0.08095 0.52146,-0.154208 0.52765,-0.162798 0.008,-0.0082 0.16988,-0.500747 0.36397,-1.093629 0.19453,-0.592781 0.3597,-1.092508 0.36804,-1.110254 0.009,-0.01775 0.0247,-0.03002 0.035,-0.02747 0.0286,0.0068 0.82508,0.608811 0.84454,0.638451 0.0128,0.0201 -0.1067,0.170066 -0.71317,0.892004 l -0.72899,0.867899 -0.54529,0.247943 c -0.66854,0.304017 -2.09363,0.951203 -4.90412,2.227206 -4.20731,1.910182 -4.96867,2.257137 -4.98891,2.273405 -0.0173,0.0143 -2.81286,9.019674 -2.84826,9.176071 l -0.0122,0.05302 0.23944,0.198014 c 0.67096,0.554825 1.20425,1.132393 1.58261,1.713903 0.0598,0.09186 0.11798,0.165687 0.12937,0.164134 0.0113,-0.0013 0.0797,-0.08835 0.15164,-0.193023 1.55684,-2.262458 4.43587,-3.758913 7.85729,-4.084154 1.79866,-0.17098 3.59061,-0.02755 5.41303,0.433285 0.59427,0.150708 0.97262,0.264872 1.51743,0.459309 2.77137,0.989049 5.08589,2.653133 6.60764,4.750803 0.17593,0.24242 0.51586,0.7846 0.6719,1.07149 0.35309,0.64961 0.57471,1.20864 0.79062,1.99446 0.0394,0.14366 0.11421,0.51765 0.14541,0.72797 0.14955,1.00621 0.0848,2.05117 -0.18498,2.98548 z"
       style="fill:#000000;fill-opacity:1" />
    <path
       inkscape:connector-curvature="0"
       id="path3009-1-9"
       d="m 422.21929,17.038294 c 0.70077,1.464154 0.87417,3.113405 0.51301,4.879733 -0.0692,0.338135 -0.2431,0.953814 -0.36722,1.299707 -0.55452,1.545741 -1.48864,3.032609 -2.74078,4.362461 -2.27661,2.417973 -5.46703,4.149529 -8.74164,4.744557 -2.94639,0.535298 -5.74744,0.12248 -7.84915,-1.156787 -0.29784,-0.181256 -0.68104,-0.45672 -0.94382,-0.678362 -0.1218,-0.102736 -0.23085,-0.1856 -0.24245,-0.184121 -0.0118,0.0012 -0.0469,0.08293 -0.0784,0.181243 -0.14104,0.438759 -0.35983,0.915264 -0.62984,1.371716 -0.14721,0.248806 -0.20989,0.345506 -0.43675,0.673792 l -0.21381,0.309345 0.0327,0.05274 c 0.47125,0.758801 5.22801,8.296661 5.24619,8.313599 0.0147,0.01409 0.55886,0.112068 1.28395,0.231559 2.13708,0.352275 2.42218,0.399359 6.63611,1.095938 l 3.42323,0.56592 0.92225,0.647404 c 0.76046,0.533957 0.92054,0.652304 0.91358,0.674739 -0.005,0.01501 -0.15133,0.211249 -0.32568,0.43606 -0.23632,0.304611 -0.32304,0.40676 -0.34044,0.401027 -0.0132,-0.0039 -0.28799,-0.413517 -0.65736,-0.978946 -0.53844,-0.824788 -0.6394,-0.972584 -0.66894,-0.980471 -0.0193,-0.0053 -1.15144,-0.02781 -2.51635,-0.05039 -2.22433,-0.03679 -6.98845,-0.117203 -8.95421,-0.151168 -0.65428,-0.01126 -0.74512,-0.01667 -0.76057,-0.04554 -0.01,-0.01797 -0.99193,-2.271129 -2.18281,-5.007165 -1.19086,-2.736015 -2.17039,-4.98421 -2.17672,-4.995936 -0.006,-0.01223 -0.0188,-0.01736 -0.0268,-0.01297 -0.008,0.0045 -0.10515,0.1157 -0.21488,0.246973 -0.91119,1.08964 -2.08651,2.12356 -3.50083,3.079598 -0.19344,0.130801 -0.35309,0.242268 -0.35473,0.247733 -0.005,0.0185 2.47157,9.497366 2.48461,9.508567 0.007,0.0064 0.51557,0.267052 1.13016,0.580109 0.61458,0.313055 1.46139,0.744459 1.88184,0.958726 0.42043,0.214134 2.10473,1.072065 3.74291,1.906397 1.63815,0.834319 3.08918,1.574335 3.22451,1.644461 l 0.24603,0.127505 0.0992,0.131575 c 0.0545,0.0723 0.36234,0.475392 0.68401,0.895562 0.32168,0.420181 0.58296,0.770167 0.58071,0.777736 -0.005,0.017 -0.86614,0.613852 -0.88465,0.613257 -0.008,-8.49e-4 -0.0206,-0.01417 -0.029,-0.03085 -0.009,-0.01662 -0.15237,-0.523643 -0.31971,-1.126647 -0.29205,-1.052423 -0.3059,-1.097328 -0.34587,-1.120856 -0.0229,-0.01342 -2.62936,-0.894104 -5.79213,-1.956932 -3.16277,-1.062828 -5.75841,-1.942571 -5.76809,-1.954996 -0.01,-0.01246 -0.0757,-0.585039 -0.14667,-1.272457 -0.071,-0.687409 -0.31299,-3.026881 -0.5378,-5.19884 -0.22481,-2.171939 -0.41735,-4.035578 -0.42789,-4.141407 -0.0104,-0.105733 -0.0272,-0.194979 -0.0371,-0.198111 -0.01,-0.0026 -0.14298,0.07085 -0.30885,0.171604 -0.359,0.218104 -1.33984,0.748842 -1.70835,0.925229 -1.02994,0.490241 -1.97154,0.854559 -2.98304,1.154416 -0.16353,0.04847 -0.214,0.06873 -0.22042,0.08821 -0.007,0.02226 0.0166,0.97912 0.11929,4.768422 0.015,0.554298 0.0554,2.049918 0.0897,3.323571 l 0.0624,2.315732 0.14227,0.121416 c 0.0782,0.06683 1.06158,0.894585 2.1852,1.83953 1.12362,0.944964 2.19226,1.843778 2.37479,1.997368 0.1825,0.1536 1.15627,0.972727 2.16393,1.820277 1.00763,0.847569 1.85249,1.559429 1.87743,1.581888 0.0394,0.03553 0.1062,0.174783 0.50572,1.058105 0.30022,0.66341 0.45779,1.02557 0.4529,1.041164 -0.006,0.01744 -0.12709,0.07169 -0.47277,0.207134 -0.25585,0.100861 -0.47848,0.188142 -0.49463,0.194175 -0.0195,0.0077 -0.0334,8.29e-4 -0.0417,-0.01855 -0.006,-0.01642 -0.0352,-0.542866 -0.0632,-1.170363 -0.028,-0.627465 -0.0569,-1.152118 -0.0643,-1.165858 -0.007,-0.01369 -0.3898,-0.257064 -0.84969,-0.540672 -5.82771,-3.593749 -9.47291,-5.8433 -9.51179,-5.869984 -0.0303,-0.02061 -0.0464,-0.04111 -0.0441,-0.05558 0.0471,-0.28475 1.42892,-11.405182 1.41828,-11.414293 -0.008,-0.0065 -0.0977,0.0087 -0.19855,0.03507 -1.05201,0.277586 -2.30719,0.449101 -3.22546,0.440757 -0.77579,-0.007 -1.36957,-0.08121 -1.9406,-0.242872 -0.15139,-0.04273 -0.28104,-0.07172 -0.28808,-0.06426 -0.006,0.0066 -8.8e-4,0.105777 0.0148,0.218456 0.0964,0.715158 0.0823,1.479331 -0.0394,2.145134 -0.1205,0.659071 -0.35325,1.359933 -0.64059,1.929307 -1.14862,2.275893 -3.45829,3.743137 -6.00693,3.815904 -1.76309,0.05037 -3.54399,-0.602317 -4.8293,-1.769874 -0.11114,-0.100939 -0.15395,-0.131236 -0.17468,-0.123858 -0.024,0.0085 -6.67637,7.286164 -6.68412,7.312065 -0.001,0.0059 0.33018,0.762789 0.73727,1.683451 0.40707,0.920701 0.73819,1.680454 0.73583,1.688347 -0.003,0.0079 -0.009,0.01255 -0.0132,0.01207 -0.006,-0.0024 -0.66025,-0.79761 -1.45584,-1.769066 -1.09581,-1.338038 -1.44475,-1.772171 -1.43913,-1.790474 0.005,-0.01351 1.80649,-1.650964 4.00537,-3.639232 2.19888,-1.988286 3.99938,-3.619768 4.00108,-3.625499 0.001,-0.0059 -0.0399,-0.05631 -0.093,-0.112352 -0.45891,-0.486813 -0.7695,-0.917575 -1.09094,-1.513072 -0.26708,-0.49476 -0.4438,-0.922603 -0.57447,-1.390949 -0.0257,-0.09257 -0.0495,-0.173021 -0.0526,-0.178777 -0.003,-0.0052 -1.53724,0.81558 -3.40881,1.825858 -1.87176,1.009984 -3.41541,1.837302 -3.4301,1.838951 -0.0461,0.004 -4.75543,-1.688019 -4.75828,-1.710042 -0.002,-0.01167 0.0273,-0.357511 0.0648,-0.768972 0.0371,-0.411496 0.0872,-0.967 0.11109,-1.234489 0.0244,-0.267427 0.0493,-0.489389 0.0562,-0.493141 0.0174,-0.0094 0.0201,0.0063 0.22021,1.203441 0.0973,0.582579 0.1847,1.064128 0.19417,1.070096 0.009,0.0066 0.95154,0.236921 2.09356,0.513237 1.90804,0.461618 2.08131,0.500534 2.13667,0.479789 0.0335,-0.01174 1.52124,-0.644949 3.30694,-1.40566 1.78571,-0.760712 3.2779,-1.395097 3.31603,-1.409739 0.0513,-0.01981 0.0682,-0.03193 0.065,-0.04777 -0.14308,-0.695773 -0.19299,-1.185233 -0.1784,-1.748867 0.0547,-2.107946 1.05024,-4.072299 2.70793,-5.342841 0.31715,-0.243096 0.54179,-0.387738 0.92227,-0.59407 0.37323,-0.201883 0.57332,-0.29354 0.94031,-0.428107 1.15736,-0.424648 2.39131,-0.526836 3.64626,-0.301947 0.34074,0.06108 1.0962,0.28659 1.41232,0.421607 0.71477,0.305262 1.31035,0.676396 1.88287,1.173236 0.0859,0.07454 0.16482,0.133928 0.17535,0.132108 0.0105,-0.0023 0.0545,-0.116933 0.0974,-0.255896 0.39694,-1.2832 1.37889,-2.698207 2.81301,-4.053543 0.11239,-0.106178 0.2068,-0.200599 0.20981,-0.209954 0.004,-0.0088 -2.26246,-1.127977 -5.03443,-2.486155 -2.77197,-1.358147 -5.04537,-2.478941 -5.05202,-2.490648 -0.007,-0.01209 0.015,-0.979386 0.0481,-2.150432 0.24315,-8.603362 0.282,-10.054085 0.26988,-10.07653 -0.007,-0.01389 -0.14511,-0.120119 -0.30579,-0.236019 -0.16064,-0.115949 -0.38007,-0.274388 -0.4875,-0.352147 -0.1074,-0.07775 -0.39858,-0.288081 -0.64693,-0.467396 -0.24836,-0.179325 -0.45459,-0.331644 -0.45829,-0.338488 -0.01,-0.01797 0.008,-0.03154 0.42771,-0.326626 0.42197,-0.296656 0.45628,-0.31803 0.47787,-0.297895 0.009,0.0076 0.2835,0.437727 0.61161,0.955723 l 0.59664,0.941739 0.20465,1.719882 c 0.11255,0.945928 0.21898,1.839067 0.23651,1.984754 0.0176,0.14567 0.16149,1.353251 0.31986,2.683501 0.31712,2.663249 0.33511,2.814278 0.49004,4.112667 l 0.10726,0.898955 0.73059,0.508781 c 3.4387,2.394784 7.58367,5.275219 7.59865,5.280464 0.0202,0.0073 0.0345,-0.0048 0.39563,-0.308522 0.83699,-0.705671 1.85246,-1.407981 2.89126,-1.999671 0.43207,-0.245871 1.25176,-0.67448 1.44412,-0.755226 0.085,-0.03485 0.0954,-0.04369 0.0849,-0.06321 -0.006,-0.01243 -0.28281,-0.24308 -0.61351,-0.512488 -0.3307,-0.269419 -0.8179,-0.666442 -1.08267,-0.882301 -1.70903,-1.393351 -2.81088,-2.291571 -3.82536,-3.118442 -0.63698,-0.519177 -1.49358,-1.217431 -1.90356,-1.551682 -0.40996,-0.334248 -0.74936,-0.619696 -0.75422,-0.634323 -0.005,-0.01476 0.68645,-2.677508 1.53624,-5.917507 0.84977,-3.239991 1.54537,-5.8998162 1.54578,-5.9107631 3e-4,-0.011204 -0.33855,-0.4079617 -0.75322,-0.8822826 -0.41468,-0.4743316 -0.76169,-0.8761002 -0.7711,-0.8928275 -0.0147,-0.026512 -0.0102,-0.034036 0.0343,-0.057691 0.10561,-0.055752 0.93123,-0.38212 0.95187,-0.3758945 0.0255,0.00767 0.75147,2.0613933 0.75697,2.1416801 0.002,0.028101 -0.0649,0.671023 -0.1484,1.4288053 -0.17822,1.617265 -0.28996,2.632258 -0.73046,6.63553 -0.17981,1.634007 -0.33607,3.053411 -0.34728,3.154185 l -0.02,0.183281 3.19671,3.53795 c 1.75817,1.945884 3.20095,3.539239 3.20616,3.540801 0.005,0.0023 0.1151,-0.04251 0.24432,-0.09773 1.39717,-0.598577 2.69442,-0.996655 3.97646,-1.220083 0.29532,-0.05151 0.77319,-0.117935 0.94996,-0.132124 0.0503,-0.0037 0.0934,-0.01446 0.0956,-0.02313 0.003,-0.0079 -0.23425,-0.379081 -0.52534,-0.823163 -0.29112,-0.444035 -1.60467,-2.450974 -2.91905,-4.45979 -2.33921,-3.575144 -2.38952,-3.65323 -2.37704,-3.690527 0.006,-0.02093 0.17345,-0.291582 0.36982,-0.601371 0.36747,-0.579627 1.96243,-3.101173 3.23905,-5.120743 1.72044,-2.7217125 2.34769,-3.7133927 2.61783,-4.138841 0.1583,-0.2493268 0.28691,-0.4619355 0.28582,-0.4724685 3e-4,-0.011204 -0.20612,-0.4869498 -0.45542,-1.0588164 -0.2489,-0.5720814 -0.45787,-1.0551382 -0.46344,-1.07394 -0.004,-0.019484 -0.001,-0.038878 0.008,-0.043781 0.0259,-0.013948 1.02108,-0.093979 1.05532,-0.084783 0.0229,0.0065 0.0334,0.1979701 0.0605,1.140448 l 0.0327,1.1329622 -0.24239,0.5477914 c -0.29713,0.6716245 -0.93109,2.1026481 -2.18159,4.924583 -1.87197,4.22444 -2.20989,4.989861 -2.21417,5.015467 -0.003,0.02222 3.89719,8.606891 3.97475,8.747241 l 0.0262,0.0477 0.31049,-0.01134 c 0.87006,-0.0318 1.65243,0.04492 2.32171,0.227615 0.10575,0.02884 0.1983,0.04529 0.20577,0.03655 0.008,-0.0085 7.4e-4,-0.118954 -0.0151,-0.245 -0.34178,-2.725004 0.8133,-5.757156 3.15232,-8.275274 1.22962,-1.323784 2.66333,-2.408293 4.33086,-3.276003 0.54405,-0.282629 0.90255,-0.448966 1.43873,-0.666038 2.72752,-1.104261 5.56272,-1.400563 8.09417,-0.845861 0.2926,0.06406 0.90703,0.24294 1.21434,0.353441 0.69569,0.250357 1.23295,0.520495 1.91677,0.963808 0.12497,0.0811 0.42953,0.31066 0.5927,0.446996 0.78081,0.65204 1.42734,1.475523 1.84716,2.35272 z"
       style="fill:#000000;fill-opacity:1" />
    <path
       inkscape:connector-curvature="0"
       id="path3009-1-7-4"
       d="m 18.054767,35.817319 c 0.312909,-1.592774 1.159299,-3.018859 2.504281,-4.219431 0.257525,-0.229794 0.764845,-0.619574 1.07104,-0.822776 1.368235,-0.908151 3.005688,-1.542278 4.804331,-1.860482 3.270279,-0.578616 6.86318,-0.06081 9.844513,1.418648 2.682459,1.331242 4.68186,3.335896 5.602791,5.617477 0.130529,0.323304 0.273205,0.773152 0.351483,1.10789 0.03633,0.155145 0.07421,0.286759 0.08438,0.292514 0.01033,0.0063 0.08714,-0.0385 0.171229,-0.09842 0.375255,-0.267551 0.83541,-0.518921 1.324658,-0.723596 0.266703,-0.111538 0.374728,-0.15167 0.752817,-0.279299 l 0.356282,-0.120294 0.0052,-0.06187 c 0.0755,-0.890039 0.765106,-9.776569 0.760648,-9.801015 -0.0034,-0.02005 -0.381168,-0.423783 -0.8912,-0.952842 -1.503165,-1.559388 -1.70365,-1.767496 -4.666448,-4.843891 l -2.406833,-2.499179 -0.352691,-1.070181 c -0.290743,-0.882533 -0.348403,-1.073088 -0.329432,-1.086913 0.01258,-0.0094 0.247555,-0.07901 0.521699,-0.155068 0.371513,-0.103025 0.502076,-0.133149 0.512605,-0.118152 0.0083,0.01097 -0.01615,0.503659 -0.0578,1.17776 -0.06106,0.98309 -0.06841,1.161922 -0.04944,1.185895 0.01232,0.01579 0.90669,0.710297 1.987675,1.543941 1.761629,1.35854 5.533768,4.269592 7.089758,5.471381 0.517919,0.399963 0.587521,0.458581 0.582671,0.490965 -0.003,0.02021 -0.561619,2.413817 -1.241484,5.319305 -0.679859,2.905469 -1.237715,5.293488 -1.239645,5.306668 -0.0021,0.01376 0.0047,0.02521 0.01383,0.02645 0.0093,0.0014 0.153438,-0.02998 0.319865,-0.06968 1.381701,-0.329341 2.941927,-0.456121 4.647264,-0.377672 0.233271,0.01071 0.427881,0.0167 0.432465,0.0133 0.0151,-0.01181 3.692832,-9.09239 3.689074,-9.109158 -0.0012,-0.0089 -0.253857,-0.522196 -0.55962,-1.140443 -0.305761,-0.618243 -0.727034,-1.470149 -0.936147,-1.893177 -0.209185,-0.422919 -1.047156,-2.117239 -1.862233,-3.765072 -0.815081,-1.647821 -1.536446,-3.108205 -1.603063,-3.245298 l -0.1211,-0.249247 -9.07e-4,-0.164767 c -5.03e-4,-0.09053 -0.0065,-0.597698 -0.01338,-1.126812 -0.0069,-0.52914 -0.0073,-0.965899 -9.5e-4,-0.970616 0.01425,-0.01061 1.061305,0.02529 1.075787,0.03683 0.0056,0.0052 0.008,0.02367 0.0048,0.04205 -0.0031,0.0184 -0.190694,0.510937 -0.416809,1.09445 -0.394639,1.018404 -0.410365,1.062687 -0.392371,1.105436 0.01031,0.02443 1.574161,2.288 3.475243,5.030014 1.901075,2.742007 3.456784,4.998346 3.457126,5.014097 3.37e-4,0.01583 -0.288868,0.514349 -0.642687,1.107977 -0.353805,0.593625 -1.557589,2.614168 -2.675079,4.490113 -1.117474,1.875927 -2.076605,3.485366 -2.131393,3.576516 -0.05477,0.09104 -0.09468,0.172611 -0.08859,0.181054 0.0061,0.0076 0.156999,0.02864 0.350194,0.04693 0.418187,0.03962 1.521806,0.200088 1.922695,0.278836 1.118792,0.222283 2.091518,0.492762 3.081761,0.856681 0.160095,0.05885 0.212668,0.07275 0.229458,0.06098 0.01932,-0.01307 0.571722,-0.795038 2.753485,-3.894923 0.319144,-0.453459 1.180419,-1.676855 1.913934,-2.718646 l 1.333652,-1.894163 -0.04154,-0.182373 C 62.339844,28.095675 62.045935,26.844386 61.709547,25.4153 61.373171,23.986199 61.053306,22.626952 60.99872,22.394736 60.94415,22.162526 60.652752,20.923863 60.351157,19.642163 60.04959,18.36046 59.797468,17.28484 59.790885,17.251926 c -0.01029,-0.05203 0.01928,-0.203608 0.226695,-1.150632 0.155659,-0.711345 0.245701,-1.095897 0.25894,-1.105479 0.01518,-0.01047 0.144743,0.01845 0.502861,0.116387 0.265423,0.07199 0.496094,0.135028 0.512647,0.139839 0.02034,0.0055 0.02728,0.01929 0.02237,0.03981 -0.0046,0.01703 -0.296129,0.456348 -0.648642,0.976218 -0.352486,0.519856 -0.642755,0.957853 -0.645014,0.973306 -0.0023,0.01545 0.158963,0.439028 0.358287,0.941235 2.525773,6.363781 4.104618,10.345634 4.119852,10.390262 0.01199,0.03462 0.01267,0.06071 0.0021,0.07086 -0.207946,0.200156 -7.960435,8.291647 -7.957343,8.305313 0.0025,0.01 0.08354,0.05148 0.18016,0.09051 1.009438,0.405999 2.1184,1.01844 2.849739,1.573788 0.617877,0.469202 1.049699,0.883444 1.410996,1.354272 0.09587,0.124731 0.182501,0.225439 0.192601,0.223659 0.0096,-7.68e-4 0.06359,-0.08459 0.118655,-0.184015 0.350036,-0.631043 0.817904,-1.235407 1.313347,-1.696549 0.490452,-0.456462 1.095817,-0.879426 1.666438,-1.164288 2.280889,-1.138663 5.009613,-0.935169 7.096761,0.529296 1.443867,1.013072 2.481926,2.60053 2.814958,4.304731 0.02881,0.147352 0.04503,0.197225 0.06605,0.203702 0.0243,0.0076 9.707064,-1.853384 9.728748,-1.869532 0.0048,-0.0035 0.191007,-0.808936 0.414674,-1.790424 0.22371,-0.981501 0.41215,-1.788566 0.418755,-1.793488 0.0071,-0.0042 0.01451,-0.0049 0.01769,-0.0021 0.0031,0.0053 0.05286,1.034082 0.110372,2.288426 0.07921,1.72767 0.09962,2.284285 0.08418,2.295608 -0.01188,0.0077 -2.435023,0.244461 -5.386225,0.524952 -2.951216,0.280506 -5.36979,0.512936 -5.37458,0.516513 -0.0048,0.0035 -0.0016,0.06904 0.0074,0.145638 0.07711,0.664565 0.06878,1.195554 -0.02927,1.865129 -0.08146,0.556314 -0.195388,1.004978 -0.370451,1.458602 -0.03464,0.08963 -0.06373,0.16828 -0.06467,0.174759 -0.0011,0.0055 1.719975,0.264521 3.824371,0.572681 2.104364,0.308504 3.83649,0.567441 3.849256,0.574895 0.0394,0.02436 2.804626,4.194947 2.793755,4.21431 -0.0056,0.01001 -0.235809,0.270111 -0.511438,0.577887 -0.275644,0.307781 -0.647638,0.723358 -0.826682,0.923528 -0.179004,0.200158 -0.331921,0.362988 -0.339723,0.361849 -0.01944,-0.0026 -0.01239,-0.01707 0.542485,-1.096571 0.270044,-0.525316 0.487708,-0.963654 0.48369,-0.974091 -0.0033,-0.01071 -0.621448,-0.758529 -1.372104,-1.662466 -1.254171,-1.510211 -1.369864,-1.644945 -1.42664,-1.661381 -0.03392,-0.01065 -1.605202,-0.391792 -3.491622,-0.848764 -1.88642,-0.456972 -3.462013,-0.839873 -3.501332,-0.85091 -0.05299,-0.01478 -0.07377,-0.01516 -0.08065,-4.81e-4 -0.300994,0.643409 -0.553426,1.065711 -0.901904,1.508953 -1.303319,1.657644 -3.275361,2.637917 -5.363754,2.666257 -0.399564,0.0054 -0.66612,-0.01281 -1.094502,-0.0747 -0.419905,-0.06112 -0.635108,-0.107173 -1.009797,-0.218555 -1.181781,-0.351014 -2.232295,-1.00636 -3.104226,-1.936524 -0.236735,-0.252577 -0.70777,-0.884791 -0.880582,-1.181936 -0.390753,-0.67186 -0.646584,-1.325328 -0.808802,-2.065805 -0.02435,-0.111093 -0.05218,-0.205861 -0.06166,-0.210705 -0.0098,-0.0044 -0.11356,0.06119 -0.231048,0.146927 -1.085006,0.791785 -2.717878,1.339708 -4.677661,1.569618 -0.153556,0.01802 -0.285697,0.03727 -0.293688,0.04299 -0.0083,0.0046 1.140221,2.256316 2.551453,5.00165 1.411257,2.745317 2.56455,5.002411 2.562878,5.015765 -0.0017,0.01377 -0.59721,0.776372 -1.323438,1.695635 -5.3355,6.753473 -6.233467,7.89355 -6.237167,7.918778 -0.0023,0.01562 0.04464,0.183023 0.104203,0.371963 0.05956,0.188959 0.140798,0.44712 0.180502,0.573661 0.03969,0.126503 0.14747,0.469153 0.239483,0.761333 0.09201,0.292193 0.166397,0.537546 0.165249,0.545245 -0.003,0.02019 -0.02531,0.02048 -0.538126,0.0064 -0.515611,-0.01425 -0.555902,-0.01762 -0.56118,-0.04666 -0.0024,-0.01119 0.03422,-0.520382 0.08062,-1.131797 l 0.08426,-1.111648 0.863539,-1.501388 c 0.474942,-0.825761 0.923247,-1.605536 0.996245,-1.732824 0.07296,-0.127298 0.679079,-1.181617 1.346911,-2.342935 1.337017,-2.325044 1.412834,-2.456897 2.064386,-3.590604 l 0.451117,-0.784933 -0.281837,-0.844499 c -1.32649,-3.974935 -2.929134,-8.761294 -2.93801,-8.774446 -0.0118,-0.01787 -0.03048,-0.01679 -0.501586,0.01101 -1.092797,0.06574 -2.326698,0.02216 -3.513219,-0.124075 -0.493373,-0.06101 -1.406748,-0.207088 -1.609237,-0.257274 -0.08899,-0.02283 -0.10265,-0.02199 -0.105851,-6.4e-5 -0.0021,0.01398 0.08154,0.363903 0.185741,0.777531 0.104196,0.413631 0.257648,1.023092 0.340982,1.354382 0.537881,2.138436 0.884729,3.517042 1.204156,4.786242 0.200553,0.796906 0.470225,1.86863 0.599264,2.381625 0.129021,0.51298 0.230617,0.944666 0.225773,0.959289 -0.0049,0.01481 -2.15026,1.736854 -4.76759,3.827147 -2.617303,2.090306 -4.764344,3.807501 -4.771206,3.816037 -0.0071,0.0084 0.02771,0.529416 0.07681,1.157524 0.0491,0.628119 0.0873,1.157623 0.08485,1.176666 -0.0041,0.03001 -0.01218,0.03337 -0.06196,0.02577 -0.117984,-0.01836 -0.975031,-0.249997 -0.987872,-0.267331 -0.01586,-0.02136 0.629109,-2.101966 0.672679,-2.169622 0.01527,-0.02365 0.452937,-0.499331 0.972672,-1.057079 1.109232,-1.190345 1.805287,-1.937475 4.55048,-4.884362 1.120499,-1.202823 2.093909,-2.247621 2.163103,-2.321737 l 0.125825,-0.134761 -0.449391,-4.747003 c -0.247156,-2.610857 -0.452036,-4.750577 -0.455284,-4.754951 -0.003,-0.0054 -0.117697,-0.03472 -0.254304,-0.06761 -1.477996,-0.354832 -2.756073,-0.810738 -3.917595,-1.397597 -0.267581,-0.135151 -0.690465,-0.367424 -0.840684,-0.461657 -0.04265,-0.02715 -0.08358,-0.04427 -0.09046,-0.03857 -0.0071,0.0042 -0.03866,0.443935 -0.07059,0.973954 -0.03187,0.530003 -0.177736,2.924143 -0.324048,5.320296 -0.260421,4.26448 -0.266741,4.357147 -0.299033,4.379598 -0.01799,0.01267 -0.313282,0.130223 -0.655864,0.261251 -0.640986,0.245232 -3.426565,1.314176 -5.656951,2.170809 -3.005791,1.154488 -4.101292,1.574904 -4.572115,1.754646 -0.275915,0.105311 -0.506076,0.198965 -0.511488,0.208091 -0.0071,0.0084 -0.125672,0.513626 -0.267457,1.121148 -0.142235,0.607447 -0.263298,1.119657 -0.270069,1.138058 -0.0083,0.01822 -0.02213,0.03195 -0.0324,0.03042 -0.02905,-0.0043 -0.874921,-0.534742 -0.896887,-0.562577 -0.01452,-0.01894 0.09152,-0.17869 0.632879,-0.950654 l 0.650733,-0.928021 0.521662,-0.294435 c 0.63956,-0.36101 2.00295,-1.12971 4.6918,-2.645346 4.025195,-2.268928 4.753497,-2.680789 4.772233,-2.69876 0.01619,-0.01568 2.017611,-9.23017 2.039279,-9.389051 l 0.0075,-0.0539 -0.255754,-0.17643 c -0.716673,-0.494357 -1.298187,-1.023348 -1.725702,-1.569748 -0.06757,-0.08631 -0.13195,-0.154796 -0.143162,-0.152258 -0.01094,0.0025 -0.0715,0.09509 -0.134254,0.205497 -1.354132,2.389311 -4.092073,4.130532 -7.472238,4.752153 -1.776959,0.3268 -3.574605,0.339782 -5.430196,0.03922 -0.60513,-0.09844 -0.991983,-0.179267 -1.551632,-0.325577 -2.846905,-0.744227 -5.297396,-2.200669 -6.995854,-4.158023 -0.196348,-0.226192 -0.582155,-0.736754 -0.762552,-1.008983 -0.408263,-0.616429 -0.677665,-1.154055 -0.961116,-1.918116 -0.05176,-0.139693 -0.158799,-0.505756 -0.20814,-0.712583 -0.236509,-0.989387 -0.262913,-2.036016 -0.07542,-2.990251 z"
       style="fill:#000000;fill-opacity:1" />
  </g>
</svg>
