<?xml version="1.0" encoding="UTF-8" standalone="no"?>
<!-- Created with Inkscape (http://www.inkscape.org/) -->

<svg
   xmlns:dc="http://purl.org/dc/elements/1.1/"
   xmlns:cc="http://creativecommons.org/ns#"
   xmlns:rdf="http://www.w3.org/1999/02/22-rdf-syntax-ns#"
   xmlns:svg="http://www.w3.org/2000/svg"
   xmlns="http://www.w3.org/2000/svg"
   xmlns:sodipodi="http://sodipodi.sourceforge.net/DTD/sodipodi-0.dtd"
   xmlns:inkscape="http://www.inkscape.org/namespaces/inkscape"
   width="210mm"
   height="297mm"
   id="svg2"
   version="1.1"
   inkscape:version="0.48.2 r9819"
   sodipodi:docname="superhormiga.svg">
  <defs
     id="defs4" />
  <sodipodi:namedview
     id="base"
     pagecolor="#ffffff"
     bordercolor="#666666"
     borderopacity="1.0"
     inkscape:pageopacity="0.0"
     inkscape:pageshadow="2"
     inkscape:zoom="2.8"
     inkscape:cx="254.47314"
     inkscape:cy="990.38118"
     inkscape:document-units="px"
     inkscape:current-layer="layer1"
     showgrid="false"
     inkscape:window-width="1366"
     inkscape:window-height="706"
     inkscape:window-x="-8"
     inkscape:window-y="-8"
     inkscape:window-maximized="1" />
  <metadata
     id="metadata7">
    <rdf:RDF>
      <cc:Work
         rdf:about="">
        <dc:format>image/svg+xml</dc:format>
        <dc:type
           rdf:resource="http://purl.org/dc/dcmitype/StillImage" />
        <dc:title></dc:title>
      </cc:Work>
    </rdf:RDF>
  </metadata>
  <g
     inkscape:label="Capa 1"
     inkscape:groupmode="layer"
     id="layer1">
    <g
       id="g4161"
       inkscape:export-filename="G:\inforgames\fpg-sources\inforgames\111.png"
       inkscape:export-xdpi="81.016045"
       inkscape:export-ydpi="81.016045">
      <path
         sodipodi:nodetypes="ccccccccc"
         inkscape:connector-curvature="0"
         id="path2998-7-4-9"
         d="m 70.233473,57.075816 c 0.471677,0.655326 0.05629,3.051395 -0.337338,4.099483 -0.247768,1.618304 -1.795982,3.621281 -3.28125,4.241072 -0.09059,0.01523 -0.625019,-0.187999 -0.513393,-0.558036 0.02954,-0.634438 2.14197,-3.600527 3.248754,-3.868609 -0.615572,-1.933826 -0.2865,-2.972116 0.176601,-3.7953 -0.457223,-0.398176 -2.085582,-4.544608 -2.120205,-5.224905 l 0.480424,-0.478308 c 0.686795,0.358149 2.380077,3.328515 2.346407,5.584603 z"
         style="fill:#000000;fill-opacity:1;stroke:none" />
      <path
         sodipodi:nodetypes="ccccccccc"
         inkscape:connector-curvature="0"
         id="path2998-7-0-4"
         d="m 64.474544,55.602601 c 0.471677,0.655326 0.05629,3.051395 -0.337338,4.099483 -0.247768,1.618304 -1.795982,3.621281 -3.28125,4.241072 -0.09059,0.01523 -0.625019,-0.187999 -0.513393,-0.558036 0.02954,-0.634438 2.14197,-3.600527 3.248754,-3.868609 -0.615572,-1.933826 -0.2865,-2.972116 0.176601,-3.7953 -0.457223,-0.398176 -2.085582,-4.544607 -2.120205,-5.224904 l 0.480424,-0.478308 c 0.686795,0.358149 2.380077,3.328515 2.346407,5.584602 z"
         style="fill:#000000;fill-opacity:1;stroke:none" />
      <path
         sodipodi:nodetypes="ccccccccc"
         inkscape:connector-curvature="0"
         id="path2998-7-8"
         d="m 75.580657,55.143818 c 0.471677,0.655326 0.05629,3.051395 -0.337338,4.099483 -0.247768,1.618304 -1.795982,3.621281 -3.28125,4.241072 -0.09059,0.01523 -0.625019,-0.187999 -0.513393,-0.558036 0.02954,-0.634438 2.14197,-3.600527 3.248754,-3.868609 -0.615572,-1.933826 -0.2865,-2.972116 0.176601,-3.7953 -0.457223,-0.398176 -2.085582,-4.544607 -2.120205,-5.224904 l 0.480424,-0.478308 c 0.686795,0.358149 2.380077,3.328515 2.346407,5.584602 z"
         style="fill:#000000;fill-opacity:1;stroke:none" />
      <path
         sodipodi:nodetypes="ccccccccc"
         inkscape:connector-curvature="0"
         id="path2998-7-4"
         d="m 69.959644,39.320912 c 0.471677,-0.655326 0.05629,-3.051395 -0.337338,-4.099483 -0.247768,-1.618304 -1.795982,-3.621281 -3.28125,-4.241072 -0.09059,-0.01523 -0.625019,0.187999 -0.513393,0.558036 0.02954,0.634438 2.14197,3.600527 3.248754,3.868609 -0.615572,1.933826 -0.2865,2.972116 0.176601,3.7953 -0.457223,0.398176 -2.085582,4.544608 -2.120205,5.224905 l 0.480424,0.478308 c 0.686795,-0.358149 2.380077,-3.328515 2.346407,-5.584603 z"
         style="fill:#000000;fill-opacity:1;stroke:none" />
      <path
         sodipodi:nodetypes="ccccccccc"
         inkscape:connector-curvature="0"
         id="path2998-7-0"
         d="m 64.200715,40.794127 c 0.471677,-0.655326 0.05629,-3.051395 -0.337338,-4.099483 -0.247768,-1.618304 -1.795982,-3.621281 -3.28125,-4.241072 -0.09059,-0.01523 -0.625019,0.187999 -0.513393,0.558036 0.02954,0.634438 2.14197,3.600527 3.248754,3.868609 -0.615572,1.933826 -0.2865,2.972116 0.176601,3.7953 -0.457223,0.398176 -2.085582,4.544607 -2.120205,5.224904 l 0.480424,0.478308 c 0.686795,-0.358149 2.380077,-3.328515 2.346407,-5.584602 z"
         style="fill:#000000;fill-opacity:1;stroke:none" />
      <path
         sodipodi:nodetypes="ccccccccc"
         inkscape:connector-curvature="0"
         id="path2998-7"
         d="m 75.306828,41.25291 c 0.471677,-0.655326 0.05629,-3.051395 -0.337338,-4.099483 -0.247768,-1.618304 -1.795982,-3.621281 -3.28125,-4.241072 -0.09059,-0.01523 -0.625019,0.187999 -0.513393,0.558036 0.02954,0.634438 2.14197,3.600527 3.248754,3.868609 -0.615572,1.933826 -0.2865,2.972116 0.176601,3.7953 -0.457223,0.398176 -2.085582,4.544607 -2.120205,5.224904 l 0.480424,0.478308 c 0.686795,-0.358149 2.380077,-3.328515 2.346407,-5.584602 z"
         style="fill:#000000;fill-opacity:1;stroke:none" />
      <path
         sodipodi:nodetypes="csc"
         inkscape:connector-curvature="0"
         id="path2996"
         d="M 45.535714,47.897894 C 48.392857,45.755037 61.420609,38.649747 61.25,47.98718 61.07365,57.638811 47.710306,49.67917 45.535714,47.897894 z"
         style="fill:#000000;stroke:#000000;stroke-width:1px;stroke-linecap:round;stroke-linejoin:round;stroke-opacity:1" />
      <path
         sodipodi:nodetypes="cczzccc"
         inkscape:connector-curvature="0"
         id="path3768"
         d="m 75.178572,45.48718 c -5.892857,0.178567 -18.571429,-3.660714 -18.571429,-3.660714 0,0 2.019641,2.716232 1.875,4.107143 -0.144641,1.390911 -2.224457,1.871876 -2.142857,3.303571 0.0816,1.431695 2.986911,2.562619 0,5.570069 1.010996,0.928253 18.652652,-4.42938 18.839286,-4.945069 -1.224232,-1.983004 -0.33018,-3.058172 0,-4.375 z"
         style="fill:#ff0000;stroke:#000000;stroke-width:1px;stroke-linecap:round;stroke-linejoin:round;stroke-opacity:1" />
      <path
         transform="translate(0.31567267,0.50507627)"
         d="m 86.49431,47.27618 a 5.9188628,5.1928153 0 1 1 -11.837726,0 5.9188628,5.1928153 0 1 1 11.837726,0 z"
         sodipodi:ry="5.1928153"
         sodipodi:rx="5.9188628"
         sodipodi:cy="47.27618"
         sodipodi:cx="80.575447"
         id="path3813"
         style="fill:#ffffff;fill-opacity:1;fill-rule:evenodd;stroke:#000000;stroke-opacity:1;stroke-linejoin:round;stroke-linecap:round"
         sodipodi:type="arc" />
      <path
         inkscape:connector-curvature="0"
         id="path3815"
         d="m 83.794643,44.951465 c 1.160715,-1.696429 6.026786,-2.678571 6.026786,-2.678571"
         style="fill:none;stroke:#000000;stroke-width:1px;stroke-linecap:round;stroke-linejoin:round;stroke-opacity:1" />
      <path
         inkscape:connector-curvature="0"
         id="path3817"
         d="m 84.241072,50.085394 c 2.544643,1.741071 6.160714,1.651786 6.160714,1.651786"
         style="fill:none;stroke:#000000;stroke-width:1px;stroke-linecap:round;stroke-linejoin:round;stroke-opacity:1" />
      <path
         sodipodi:nodetypes="ccccc"
         inkscape:connector-curvature="0"
         id="path3819"
         d="m 75.691965,46.346554 c 3.516813,-0.557862 6.931118,-0.193148 10.368631,-0.03731 0.173201,0.173201 0.389661,2.358432 0.141588,2.333575 -0.121218,0.417434 -10.447228,1.003801 -10.554862,0.304183 -0.329307,-0.976629 -0.122225,-1.930261 0.04464,-2.600447 z"
         style="fill:#ab37c8;stroke:none" />
    </g>
    <g
       id="g4175"
       inkscape:export-filename="G:\inforgames\fpg-sources\inforgames\112.png"
       inkscape:export-xdpi="81.016045"
       inkscape:export-ydpi="81.016045">
      <path
         sodipodi:nodetypes="ccccccccc"
         inkscape:connector-curvature="0"
         id="path2998-7-4-9-8"
         d="m 125.63422,58.209009 c 0.12837,0.797148 -1.31576,2.753718 -2.13697,3.514671 -0.94606,1.33614 -3.22718,2.434043 -4.83277,2.3233 -0.0878,-0.02694 -0.47471,-0.447925 -0.20923,-0.72883 0.31042,-0.554097 3.52726,-2.260586 4.63695,-2.004798 0.31534,-2.004789 1.07442,-2.785889 1.85705,-3.31464 -0.23057,-0.560739 0.16972,-4.99743 0.44333,-5.62124 l 0.64372,-0.212614 c 0.45378,0.627726 0.63807,4.041864 -0.40208,6.044151 z"
         style="fill:#000000;fill-opacity:1;stroke:none" />
      <path
         sodipodi:nodetypes="ccccccccc"
         inkscape:connector-curvature="0"
         id="path2998-7-0-4-2"
         d="m 119.97354,57.751952 c 0.0591,0.805256 -1.54862,2.629828 -2.43246,3.317036 -1.0579,1.249461 -3.42528,2.146309 -5.01531,1.89735 -0.0852,-0.03442 -0.43427,-0.487241 -0.14553,-0.744174 0.3571,-0.525228 3.70928,-1.947592 4.79273,-1.596949 0.48725,-1.970073 1.31095,-2.682714 2.13632,-3.141916 -0.1813,-0.578554 0.60057,-4.964113 0.92701,-5.561971 l 0.65968,-0.156237 c 0.39789,0.664565 0.2867,4.081861 -0.92244,5.986861 z"
         style="fill:#000000;fill-opacity:1;stroke:none" />
      <path
         sodipodi:nodetypes="ccccccccc"
         inkscape:connector-curvature="0"
         id="path2998-7-8-4"
         d="m 131.44994,56.704576 c 0.26753,0.761815 -0.80727,2.943211 -1.48074,3.837574 -0.69448,1.482566 -2.74509,2.967103 -4.34491,3.142462 -0.0912,-0.01096 -0.54654,-0.356772 -0.335,-0.680254 0.20737,-0.600314 3.07115,-2.849534 4.2086,-2.794317 -0.0447,-2.028944 0.56405,-2.932132 1.24067,-3.59113 -0.32624,-0.51104 -0.71802,-4.948489 -0.55921,-5.610896 l 0.59589,-0.323256 c 0.55778,0.537441 1.3438,3.86497 0.6747,6.019817 z"
         style="fill:#000000;fill-opacity:1;stroke:none" />
      <path
         sodipodi:nodetypes="ccccccccc"
         inkscape:connector-curvature="0"
         id="path2998-7-4-5"
         d="m 128.23063,40.806774 c 0.5746,-0.567238 0.5657,-2.999028 0.35284,-4.098178 0.0263,-1.636951 -1.16522,-3.870591 -2.52596,-4.729993 -0.0868,-0.03016 -0.64765,0.08085 -0.59946,0.464343 -0.077,0.630439 1.50981,3.907978 2.55619,4.357338 -0.93024,1.803681 -0.77941,2.882376 -0.46046,3.771402 -0.51736,0.316124 -2.81607,4.131928 -2.96395,4.79686 l 0.39368,0.5519 c 0.73702,-0.238275 2.9031,-2.883713 3.24712,-5.113672 z"
         style="fill:#000000;fill-opacity:1;stroke:none" />
      <path
         sodipodi:nodetypes="ccccccccc"
         inkscape:connector-curvature="0"
         id="path2998-7-0-5"
         d="m 122.30645,41.296364 c 0.57461,-0.567237 0.5657,-2.999028 0.35284,-4.098178 0.0263,-1.63695 -1.16523,-3.870591 -2.52596,-4.729993 -0.0868,-0.03016 -0.64766,0.08085 -0.59947,0.464343 -0.077,0.630439 1.50982,3.907978 2.55619,4.357338 -0.93023,1.803682 -0.7794,2.882376 -0.46045,3.771402 -0.51736,0.316124 -2.81608,4.131927 -2.96395,4.796859 l 0.39368,0.551901 c 0.73701,-0.238276 2.9031,-2.883714 3.24712,-5.113672 z"
         style="fill:#000000;fill-opacity:1;stroke:none" />
      <path
         sodipodi:nodetypes="ccccccccc"
         inkscape:connector-curvature="0"
         id="path2998-7-1"
         d="m 133.17951,43.605618 c 0.57461,-0.567237 0.5657,-2.999028 0.35284,-4.098178 0.0263,-1.636949 -1.16522,-3.870591 -2.52596,-4.729993 -0.0868,-0.03016 -0.64765,0.08085 -0.59946,0.464343 -0.077,0.630439 1.50981,3.907978 2.55619,4.357338 -0.93024,1.803682 -0.7794,2.882376 -0.46045,3.771404 -0.51737,0.316122 -2.81608,4.131925 -2.96396,4.796857 l 0.39368,0.551901 c 0.73702,-0.238276 2.9031,-2.883714 3.24712,-5.113672 z"
         style="fill:#000000;fill-opacity:1;stroke:none" />
      <path
         sodipodi:nodetypes="csc"
         inkscape:connector-curvature="0"
         id="path2996-7"
         d="m 103.81697,48.668853 c 2.85714,-2.142857 15.88489,-9.248147 15.71428,0.08929 -0.17635,9.651631 -13.53969,1.69199 -15.71428,-0.08929 z"
         style="fill:#000000;stroke:#000000;stroke-width:1px;stroke-linecap:round;stroke-linejoin:round;stroke-opacity:1" />
      <path
         sodipodi:nodetypes="cczzccc"
         inkscape:connector-curvature="0"
         id="path3768-1"
         d="m 133.45983,46.258139 c -5.89286,0.178567 -18.57143,-3.660714 -18.57143,-3.660714 0,0 2.01964,2.716232 1.875,4.107143 -0.14464,1.390911 -2.22446,1.871876 -2.14286,3.303571 0.0816,1.431695 3.11318,1.805004 0.12627,4.812454 1.011,0.928253 18.52638,-3.671765 18.71302,-4.187454 -1.22424,-1.983004 -0.33018,-3.058172 0,-4.375 z"
         style="fill:#ff0000;stroke:#000000;stroke-width:1px;stroke-linecap:round;stroke-linejoin:round;stroke-opacity:1" />
      <path
         transform="translate(58.596923,1.2760356)"
         d="m 86.49431,47.27618 a 5.9188628,5.1928153 0 1 1 -11.837726,0 5.9188628,5.1928153 0 1 1 11.837726,0 z"
         sodipodi:ry="5.1928153"
         sodipodi:rx="5.9188628"
         sodipodi:cy="47.27618"
         sodipodi:cx="80.575447"
         id="path3813-1"
         style="fill:#ffffff;fill-opacity:1;fill-rule:evenodd;stroke:#000000;stroke-linecap:round;stroke-linejoin:round;stroke-opacity:1"
         sodipodi:type="arc" />
      <path
         inkscape:connector-curvature="0"
         id="path3815-5"
         d="m 142.0759,45.722424 c 1.16071,-1.696429 6.02678,-2.678571 6.02678,-2.678571"
         style="fill:none;stroke:#000000;stroke-width:1px;stroke-linecap:round;stroke-linejoin:round;stroke-opacity:1" />
      <path
         inkscape:connector-curvature="0"
         id="path3817-2"
         d="m 142.52233,50.856353 c 2.54464,1.741071 6.16071,1.651786 6.16071,1.651786"
         style="fill:none;stroke:#000000;stroke-width:1px;stroke-linecap:round;stroke-linejoin:round;stroke-opacity:1" />
      <path
         sodipodi:nodetypes="ccccc"
         inkscape:connector-curvature="0"
         id="path3819-7"
         d="m 133.97322,47.117513 c 3.51681,-0.557862 6.93112,-0.193148 10.36863,-0.03731 0.1732,0.173201 0.38966,2.358432 0.14159,2.333575 -0.12122,0.417434 -10.44723,1.003801 -10.55486,0.304183 -0.32931,-0.976629 -0.12223,-1.930261 0.0446,-2.600447 z"
         style="fill:#ab37c8;stroke:none" />
    </g>
    <g
       id="g4232"
       inkscape:export-filename="G:\inforgames\fpg-sources\inforgames\115.png"
       inkscape:export-xdpi="81.016045"
       inkscape:export-ydpi="81.016045">
      <path
         sodipodi:nodetypes="zzzzzzzzzzzzzzzzzzzzzzzzz"
         inkscape:connector-curvature="0"
         id="path4228"
         d="m 296.70354,54.581165 c -0.79653,1.937226 -0.72307,6.145994 -0.24102,6.507522 0.48204,0.361529 1.66376,3.778028 4.69988,3.374271 3.03612,-0.403756 7.23058,-9.761284 7.95363,-9.761284 0.72305,0 3.21097,-1.428997 3.85632,0.843569 0.64535,2.272565 -6.95127,4.473944 -7.3511,7.11007 -0.39983,2.636126 -0.30472,4.631377 2.77173,5.061405 3.07644,0.430029 6.60219,-8.337753 9.03822,-9.158733 2.43603,-0.820981 1.14549,-0.673619 2.5307,0.361528 1.38522,1.035146 1.21812,6.647503 3.25377,7.110071 2.03565,0.462568 3.7358,-2.169174 3.61529,-3.012742 -0.12051,-0.843567 -6.70248,-7.174274 -5.66396,-11.448418 1.03852,-4.274144 10.86182,-9.117541 10.96638,-8.074149 0.10457,1.043393 0.96193,-2.607205 -1.08458,-3.37427 -2.04651,-0.767066 -5.6814,5.381271 -8.19466,4.940895 -2.51327,-0.440375 -2.08079,-3.727519 -3.61529,-4.458857 -1.5345,-0.731338 -2.06675,0.827346 -4.45886,0 -2.39212,-0.827346 -6.09073,-7.870494 -8.43568,-6.628032 -2.34494,1.242462 0.72306,5.663955 0.36153,5.181916 -0.36153,-0.48204 -6.25454,-4.881341 -8.31516,-4.217838 -2.06063,0.663503 -2.16488,1.399959 -1.68714,3.253761 0.47773,1.853802 5.64624,2.660134 6.50752,4.338348 0.86128,1.678213 0.24627,2.179886 -0.12051,3.49478 -0.36678,1.314894 -1.23946,2.645907 -2.28969,4.097329 -1.05023,1.451421 -3.3008,2.521632 -4.09732,4.458858 z"
         style="fill:#b92e22;fill-opacity:1;stroke:none" />
      <path
         sodipodi:nodetypes="zzzzzz"
         inkscape:connector-curvature="0"
         id="path4230"
         d="m 322.25158,34.938089 c 0.30414,-1.182134 3.36987,-1.960889 4.57938,-1.325607 1.2095,0.635282 1.54356,1.691054 1.08458,3.253761 -0.45897,1.562707 -3.46188,4.937244 -4.94089,3.976819 -1.47902,-0.960424 1.37935,-3.003888 1.08458,-4.097328 -0.29476,-1.093441 -2.11178,-0.625512 -1.80765,-1.807645 z"
         style="fill:#b92e22;fill-opacity:1;stroke:none" />
      <path
         sodipodi:nodetypes="ccccccccc"
         inkscape:connector-curvature="0"
         id="path2998-7-4-9-87"
         d="m 316.28431,59.1169 c 0.47167,0.655326 0.0563,3.051395 -0.33734,4.099483 -0.24777,1.618304 -1.79598,3.621281 -3.28125,4.241072 -0.0906,0.01523 -0.62502,-0.187999 -0.51339,-0.558036 0.0295,-0.634438 2.14197,-3.600527 3.24875,-3.868609 -0.61557,-1.933826 -0.2865,-2.972116 0.1766,-3.7953 -0.45722,-0.398176 -2.08558,-4.544608 -2.1202,-5.224905 l 0.48042,-0.478308 c 0.68679,0.358149 2.38008,3.328515 2.34641,5.584603 z"
         style="fill:#000000;fill-opacity:1;stroke:none" />
      <path
         sodipodi:nodetypes="ccccccccc"
         inkscape:connector-curvature="0"
         id="path2998-7-0-4-4"
         d="m 310.52538,57.643685 c 0.47167,0.655326 0.0563,3.051395 -0.33734,4.099483 -0.24777,1.618304 -1.79598,3.621281 -3.28125,4.241072 -0.0906,0.01523 -0.62502,-0.187999 -0.51339,-0.558036 0.0295,-0.634438 2.14197,-3.600527 3.24875,-3.868609 -0.61557,-1.933826 -0.2865,-2.972116 0.1766,-3.7953 -0.45722,-0.398176 -2.08558,-4.544607 -2.1202,-5.224904 l 0.48042,-0.478308 c 0.6868,0.358149 2.38008,3.328515 2.34641,5.584602 z"
         style="fill:#000000;fill-opacity:1;stroke:none" />
      <path
         sodipodi:nodetypes="ccccccccc"
         inkscape:connector-curvature="0"
         id="path2998-7-8-2"
         d="m 321.63149,57.184902 c 0.47168,0.655326 0.0563,3.051395 -0.33734,4.099483 -0.24777,1.618304 -1.79598,3.621281 -3.28125,4.241072 -0.0906,0.01523 -0.62502,-0.187999 -0.51339,-0.558036 0.0295,-0.634438 2.14197,-3.600527 3.24875,-3.868609 -0.61557,-1.933826 -0.2865,-2.972116 0.1766,-3.7953 -0.45722,-0.398176 -2.08558,-4.544607 -2.1202,-5.224904 l 0.48042,-0.478308 c 0.6868,0.358149 2.38008,3.328515 2.34641,5.584602 z"
         style="fill:#000000;fill-opacity:1;stroke:none" />
      <path
         sodipodi:nodetypes="ccccccccc"
         inkscape:connector-curvature="0"
         id="path2998-7-4-7"
         d="m 316.01048,41.361996 c 0.47167,-0.655326 0.0563,-3.051395 -0.33734,-4.099483 -0.24777,-1.618304 -1.79598,-3.621281 -3.28125,-4.241072 -0.0906,-0.01523 -0.62502,0.187999 -0.51339,0.558036 0.0295,0.634438 2.14197,3.600527 3.24875,3.868609 -0.61557,1.933826 -0.2865,2.972116 0.1766,3.7953 -0.45722,0.398176 -2.08558,4.544608 -2.1202,5.224905 l 0.48042,0.478308 c 0.6868,-0.358149 2.38008,-3.328515 2.34641,-5.584603 z"
         style="fill:#000000;fill-opacity:1;stroke:none" />
      <path
         sodipodi:nodetypes="ccccccccc"
         inkscape:connector-curvature="0"
         id="path2998-7-0-7"
         d="m 310.25155,42.835211 c 0.47168,-0.655326 0.0563,-3.051395 -0.33734,-4.099483 -0.24777,-1.618304 -1.79598,-3.621281 -3.28125,-4.241072 -0.0906,-0.01523 -0.62502,0.187999 -0.51339,0.558036 0.0295,0.634438 2.14197,3.600527 3.24875,3.868609 -0.61557,1.933826 -0.2865,2.972116 0.1766,3.7953 -0.45722,0.398176 -2.08558,4.544607 -2.1202,5.224904 l 0.48042,0.478308 c 0.6868,-0.358149 2.38008,-3.328515 2.34641,-5.584602 z"
         style="fill:#000000;fill-opacity:1;stroke:none" />
      <path
         sodipodi:nodetypes="ccccccccc"
         inkscape:connector-curvature="0"
         id="path2998-7-9"
         d="m 321.35766,43.293994 c 0.47168,-0.655326 0.0563,-3.051395 -0.33734,-4.099483 -0.24776,-1.618304 -1.79598,-3.621281 -3.28125,-4.241072 -0.0906,-0.01523 -0.62502,0.187999 -0.51339,0.558036 0.0295,0.634438 2.14197,3.600527 3.24875,3.868609 -0.61557,1.933826 -0.2865,2.972116 0.17661,3.7953 -0.45723,0.398176 -2.08559,4.544607 -2.12021,5.224904 l 0.48042,0.478308 c 0.6868,-0.358149 2.38008,-3.328515 2.34641,-5.584602 z"
         style="fill:#000000;fill-opacity:1;stroke:none" />
      <path
         sodipodi:nodetypes="csc"
         inkscape:connector-curvature="0"
         id="path2996-31"
         d="m 291.58655,49.938978 c 2.85714,-2.142857 15.88489,-9.248147 15.71428,0.08929 -0.17635,9.651631 -13.53969,1.69199 -15.71428,-0.08929 z"
         style="fill:#000000;stroke:#000000;stroke-width:1px;stroke-linecap:round;stroke-linejoin:round;stroke-opacity:1" />
      <path
         sodipodi:nodetypes="cczzccc"
         inkscape:connector-curvature="0"
         id="path3768-9"
         d="m 321.22941,47.528264 c -5.89286,0.178567 -18.57143,-3.660714 -18.57143,-3.660714 0,0 2.01964,2.716232 1.875,4.107143 -0.14464,1.390911 -2.22446,1.871876 -2.14286,3.303571 0.0816,1.431695 2.98691,0.921121 0,3.928571 1.011,0.928253 18.65265,-2.787882 18.83929,-3.303571 -1.22424,-1.983004 -0.33018,-3.058172 0,-4.375 z"
         style="fill:#ff0000;stroke:#000000;stroke-width:1px;stroke-linecap:round;stroke-linejoin:round;stroke-opacity:1" />
      <path
         transform="translate(246.36651,2.5461603)"
         d="m 86.49431,47.27618 a 5.9188628,5.1928153 0 1 1 -11.837726,0 5.9188628,5.1928153 0 1 1 11.837726,0 z"
         sodipodi:ry="5.1928153"
         sodipodi:rx="5.9188628"
         sodipodi:cy="47.27618"
         sodipodi:cx="80.575447"
         id="path3813-86"
         style="fill:#ffffff;fill-opacity:1;fill-rule:evenodd;stroke:#000000;stroke-linecap:round;stroke-linejoin:round;stroke-opacity:1"
         sodipodi:type="arc" />
      <path
         inkscape:connector-curvature="0"
         id="path3815-50"
         d="m 329.84548,46.992549 c 1.16071,-1.696429 6.02678,-2.678571 6.02678,-2.678571"
         style="fill:none;stroke:#000000;stroke-width:1px;stroke-linecap:round;stroke-linejoin:round;stroke-opacity:1" />
      <path
         inkscape:connector-curvature="0"
         id="path3817-28"
         d="m 330.29191,52.126478 c 2.54464,1.741071 6.16071,1.651786 6.16071,1.651786"
         style="fill:none;stroke:#000000;stroke-width:1px;stroke-linecap:round;stroke-linejoin:round;stroke-opacity:1" />
      <path
         sodipodi:nodetypes="ccccc"
         inkscape:connector-curvature="0"
         id="path3819-6"
         d="m 321.7428,48.387638 c 3.51681,-0.557862 6.93112,-0.193148 10.36863,-0.03731 0.1732,0.173201 0.38966,2.358432 0.14159,2.333575 -0.12122,0.417434 -10.44723,1.003801 -10.55486,0.304183 -0.32931,-0.976629 -0.12223,-1.930261 0.0446,-2.600447 z"
         style="fill:#ab37c8;stroke:none" />
    </g>
    <g
       id="g4203"
       inkscape:export-filename="G:\inforgames\fpg-sources\inforgames\114.png"
       inkscape:export-xdpi="81.016045"
       inkscape:export-ydpi="81.016045">
      <path
         sodipodi:nodetypes="ccccccccc"
         inkscape:connector-curvature="0"
         id="path2998-7-4-9-8-3"
         d="m 245.0985,38.953187 c 0.12837,-0.79715 -1.31576,-2.75372 -2.13697,-3.51467 -0.94606,-1.33614 -3.22718,-2.43404 -4.83277,-2.3233 -0.0878,0.0269 -0.47471,0.44793 -0.20923,0.72883 0.31042,0.5541 3.52726,2.26059 4.63695,2.0048 0.31534,2.00479 1.07442,2.78589 1.85705,3.31464 -0.23057,0.56074 0.16972,4.99743 0.44333,5.621237 l 0.64372,0.21261 c 0.45378,-0.62772 0.63807,-4.041857 -0.40208,-6.044147 z"
         style="fill:#000000;fill-opacity:1;stroke:none" />
      <path
         sodipodi:nodetypes="ccccccccc"
         inkscape:connector-curvature="0"
         id="path2998-7-0-4-2-8"
         d="m 239.43782,39.410247 c 0.0591,-0.80526 -1.54862,-2.62983 -2.43246,-3.31704 -1.0579,-1.24946 -3.42528,-2.14631 -5.01531,-1.89735 -0.0852,0.0344 -0.43427,0.48724 -0.14553,0.74418 0.3571,0.52523 3.70928,1.94759 4.79273,1.59695 0.48725,1.97007 1.31095,2.68271 2.13632,3.14191 -0.1813,0.57856 0.60057,4.964117 0.92701,5.561967 l 0.65968,0.15624 c 0.39789,-0.66456 0.2867,-4.081857 -0.92244,-5.986857 z"
         style="fill:#000000;fill-opacity:1;stroke:none" />
      <path
         sodipodi:nodetypes="ccccccccc"
         inkscape:connector-curvature="0"
         id="path2998-7-8-4-9"
         d="m 250.91422,40.457627 c 0.26753,-0.76182 -0.80727,-2.94322 -1.48074,-3.83758 -0.69448,-1.48256 -2.74509,-2.9671 -4.34491,-3.14246 -0.0912,0.011 -0.54654,0.35677 -0.335,0.68025 0.20737,0.60032 3.07115,2.84954 4.2086,2.79432 -0.0447,2.02894 0.56405,2.93213 1.24067,3.59113 -0.32624,0.51104 -0.71802,4.948487 -0.55921,5.610897 l 0.59589,0.32325 c 0.55778,-0.53744 1.3438,-3.864967 0.6747,-6.019807 z"
         style="fill:#000000;fill-opacity:1;stroke:none" />
      <path
         sodipodi:nodetypes="ccccccccc"
         inkscape:connector-curvature="0"
         id="path2998-7-4-5-3"
         d="m 247.69491,56.355424 c 0.5746,0.56724 0.5657,2.99903 0.35284,4.09818 0.0263,1.63695 -1.16522,3.87059 -2.52596,4.72999 -0.0868,0.0302 -0.64765,-0.0808 -0.59946,-0.46434 -0.077,-0.63044 1.50981,-3.90798 2.55619,-4.35734 -0.93024,-1.80368 -0.77941,-2.88237 -0.46046,-3.7714 -0.51736,-0.31612 -2.81607,-4.13193 -2.96395,-4.79686 l 0.39368,-0.5519 c 0.73702,0.23827 2.9031,2.88371 3.24712,5.11367 z"
         style="fill:#000000;fill-opacity:1;stroke:none" />
      <path
         sodipodi:nodetypes="ccccccccc"
         inkscape:connector-curvature="0"
         id="path2998-7-0-5-4"
         d="m 241.77073,55.865834 c 0.57461,0.56724 0.5657,2.99903 0.35284,4.09818 0.0263,1.63695 -1.16523,3.87059 -2.52596,4.72999 -0.0868,0.0302 -0.64766,-0.0808 -0.59947,-0.46434 -0.077,-0.63044 1.50982,-3.90798 2.55619,-4.35734 -0.93023,-1.80368 -0.7794,-2.88237 -0.46045,-3.7714 -0.51736,-0.31612 -2.81608,-4.13193 -2.96395,-4.79686 l 0.39368,-0.5519 c 0.73701,0.23827 2.9031,2.88371 3.24712,5.11367 z"
         style="fill:#000000;fill-opacity:1;stroke:none" />
      <path
         sodipodi:nodetypes="ccccccccc"
         inkscape:connector-curvature="0"
         id="path2998-7-1-4"
         d="m 252.64379,53.556574 c 0.57461,0.56724 0.5657,2.99904 0.35284,4.09819 0.0263,1.63694 -1.16522,3.87059 -2.52596,4.72999 -0.0868,0.0302 -0.64765,-0.0808 -0.59946,-0.46434 -0.077,-0.63044 1.50981,-3.90798 2.55619,-4.35734 -0.93024,-1.80368 -0.7794,-2.88238 -0.46045,-3.77141 -0.51737,-0.31612 -2.81608,-4.13193 -2.96396,-4.79686 l 0.39368,-0.5519 c 0.73702,0.23828 2.9031,2.88372 3.24712,5.11367 z"
         style="fill:#000000;fill-opacity:1;stroke:none" />
      <path
         sodipodi:nodetypes="csc"
         inkscape:connector-curvature="0"
         id="path2996-7-6"
         d="m 223.28125,48.493344 c 2.85714,2.14286 15.88489,9.24815 15.71428,-0.0893 -0.17635,-9.651627 -13.53969,-1.69199 -15.71428,0.0893 z"
         style="fill:#000000;stroke:#000000;stroke-width:1px;stroke-linecap:round;stroke-linejoin:round;stroke-opacity:1" />
      <path
         sodipodi:nodetypes="cczzccc"
         inkscape:connector-curvature="0"
         id="path3768-1-0"
         d="m 252.92411,50.904054 c -5.89286,-0.17856 -18.57143,3.66072 -18.57143,3.66072 0,0 2.01964,-2.71624 1.875,-4.10715 -0.14464,-1.39091 -2.22446,-1.87187 -2.14286,-3.30357 0.0816,-1.43169 3.17631,-2.815156 0.1894,-5.822603 1.011,-0.92825 18.46325,4.681913 18.64989,5.197603 -1.22424,1.98301 -0.33018,3.05817 0,4.375 z"
         style="fill:#ff0000;stroke:#000000;stroke-width:1px;stroke-linecap:round;stroke-linejoin:round;stroke-opacity:1" />
      <path
         transform="matrix(1,0,0,-1,178.0612,95.886164)"
         d="m 86.49431,47.27618 a 5.9188628,5.1928153 0 1 1 -11.837726,0 5.9188628,5.1928153 0 1 1 11.837726,0 z"
         sodipodi:ry="5.1928153"
         sodipodi:rx="5.9188628"
         sodipodi:cy="47.27618"
         sodipodi:cx="80.575447"
         id="path3813-1-6"
         style="fill:#ffffff;fill-opacity:1;fill-rule:evenodd;stroke:#000000;stroke-linecap:round;stroke-linejoin:round;stroke-opacity:1"
         sodipodi:type="arc" />
      <path
         inkscape:connector-curvature="0"
         id="path3815-5-6"
         d="m 261.54018,51.439774 c 1.16071,1.69643 6.02678,2.67857 6.02678,2.67857"
         style="fill:none;stroke:#000000;stroke-width:1px;stroke-linecap:round;stroke-linejoin:round;stroke-opacity:1" />
      <path
         inkscape:connector-curvature="0"
         id="path3817-2-1"
         d="m 261.98661,46.305844 c 2.54464,-1.74107 6.16071,-1.65179 6.16071,-1.65179"
         style="fill:none;stroke:#000000;stroke-width:1px;stroke-linecap:round;stroke-linejoin:round;stroke-opacity:1" />
      <path
         sodipodi:nodetypes="ccccc"
         inkscape:connector-curvature="0"
         id="path3819-7-8"
         d="m 253.4375,50.044684 c 3.51681,0.55786 6.93112,0.19315 10.36863,0.0373 0.1732,-0.1732 0.38966,-2.35843 0.14159,-2.33358 -0.12122,-0.41743 -10.44723,-1.0038 -10.55486,-0.30418 -0.32931,0.97663 -0.12223,1.93026 0.0446,2.60045 z"
         style="fill:#ab37c8;stroke:none" />
    </g>
    <g
       id="g4189"
       inkscape:export-filename="G:\inforgames\fpg-sources\inforgames\113.png"
       inkscape:export-xdpi="81.016045"
       inkscape:export-ydpi="81.016045">
      <path
         sodipodi:nodetypes="ccccccccc"
         inkscape:connector-curvature="0"
         id="path2998-7-4-9-4"
         d="m 187.97901,40.270443 c 0.47168,-0.655326 0.0563,-3.051395 -0.33734,-4.099483 -0.24777,-1.618304 -1.79598,-3.621281 -3.28125,-4.241072 -0.0906,-0.01523 -0.62502,0.187999 -0.51339,0.558036 0.0295,0.634438 2.14197,3.600527 3.24875,3.868609 -0.61557,1.933826 -0.2865,2.972116 0.1766,3.7953 -0.45722,0.398176 -2.08558,4.544608 -2.1202,5.224905 l 0.48042,0.478308 c 0.6868,-0.358149 2.38008,-3.328515 2.34641,-5.584603 z"
         style="fill:#000000;fill-opacity:1;stroke:none" />
      <path
         sodipodi:nodetypes="ccccccccc"
         inkscape:connector-curvature="0"
         id="path2998-7-0-4-9"
         d="m 182.22008,41.743658 c 0.47168,-0.655326 0.0563,-3.051395 -0.33734,-4.099483 -0.24777,-1.618304 -1.79598,-3.621281 -3.28125,-4.241072 -0.0906,-0.01523 -0.62502,0.187999 -0.51339,0.558036 0.0295,0.634438 2.14197,3.600527 3.24875,3.868609 -0.61557,1.933826 -0.2865,2.972116 0.1766,3.7953 -0.45722,0.398176 -2.08558,4.544607 -2.1202,5.224904 l 0.48042,0.478308 c 0.6868,-0.358149 2.38008,-3.328515 2.34641,-5.584602 z"
         style="fill:#000000;fill-opacity:1;stroke:none" />
      <path
         sodipodi:nodetypes="ccccccccc"
         inkscape:connector-curvature="0"
         id="path2998-7-8-6"
         d="m 193.32619,42.202441 c 0.47168,-0.655326 0.0563,-3.051395 -0.33733,-4.099483 -0.24777,-1.618304 -1.79599,-3.621281 -3.28125,-4.241072 -0.0906,-0.01523 -0.62502,0.187999 -0.5134,0.558036 0.0295,0.634438 2.14197,3.600527 3.24876,3.868609 -0.61558,1.933826 -0.2865,2.972116 0.1766,3.7953 -0.45723,0.398176 -2.08558,4.544607 -2.12021,5.224904 l 0.48043,0.478308 c 0.68679,-0.358149 2.38007,-3.328515 2.3464,-5.584602 z"
         style="fill:#000000;fill-opacity:1;stroke:none" />
      <path
         sodipodi:nodetypes="ccccccccc"
         inkscape:connector-curvature="0"
         id="path2998-7-4-3"
         d="m 187.70518,58.025348 c 0.47168,0.655326 0.0563,3.051395 -0.33734,4.099483 -0.24777,1.618304 -1.79598,3.621281 -3.28125,4.241072 -0.0906,0.01523 -0.62502,-0.187999 -0.51339,-0.558036 0.0295,-0.634438 2.14197,-3.600527 3.24875,-3.868609 -0.61557,-1.933826 -0.2865,-2.972116 0.1766,-3.7953 -0.45722,-0.398176 -2.08558,-4.544609 -2.1202,-5.224906 l 0.48042,-0.478308 c 0.6868,0.358149 2.38008,3.328515 2.34641,5.584604 z"
         style="fill:#000000;fill-opacity:1;stroke:none" />
      <path
         sodipodi:nodetypes="ccccccccc"
         inkscape:connector-curvature="0"
         id="path2998-7-0-78"
         d="m 181.94625,56.552133 c 0.47168,0.655326 0.0563,3.051395 -0.33734,4.099483 -0.24776,1.618304 -1.79598,3.621281 -3.28125,4.241072 -0.0906,0.01523 -0.62502,-0.187999 -0.51339,-0.558036 0.0295,-0.634438 2.14197,-3.600527 3.24875,-3.868609 -0.61557,-1.933826 -0.2865,-2.972116 0.17661,-3.7953 -0.45723,-0.398177 -2.08559,-4.544608 -2.12021,-5.224905 l 0.48042,-0.478308 c 0.6868,0.358149 2.38008,3.328515 2.34641,5.584603 z"
         style="fill:#000000;fill-opacity:1;stroke:none" />
      <path
         sodipodi:nodetypes="ccccccccc"
         inkscape:connector-curvature="0"
         id="path2998-7-82"
         d="m 193.05236,56.093349 c 0.47168,0.655327 0.0563,3.051396 -0.33733,4.099484 -0.24777,1.618304 -1.79599,3.621281 -3.28125,4.241072 -0.0906,0.01523 -0.62502,-0.187999 -0.5134,-0.558036 0.0295,-0.634438 2.14197,-3.600527 3.24876,-3.868609 -0.61557,-1.933826 -0.2865,-2.972116 0.1766,-3.795301 -0.45722,-0.398176 -2.08558,-4.544607 -2.12021,-5.224904 l 0.48043,-0.478308 c 0.68679,0.358149 2.38007,3.328515 2.3464,5.584602 z"
         style="fill:#000000;fill-opacity:1;stroke:none" />
      <path
         sodipodi:nodetypes="csc"
         inkscape:connector-curvature="0"
         id="path2996-9"
         d="m 163.28125,49.448365 c 2.85714,2.142857 15.8849,9.248148 15.71429,-0.08929 -0.17635,-9.651631 -13.5397,-1.69199 -15.71429,0.08929 z"
         style="fill:#000000;stroke:#000000;stroke-width:1px;stroke-linecap:round;stroke-linejoin:round;stroke-opacity:1" />
      <path
         sodipodi:nodetypes="cczzccc"
         inkscape:connector-curvature="0"
         id="path3768-13"
         d="m 192.92411,51.859079 c -5.89286,-0.178567 -18.19262,4.418328 -18.19262,4.418328 0,0 1.64083,-3.473846 1.49619,-4.864757 -0.14464,-1.390911 -2.22446,-1.871876 -2.14286,-3.303571 0.0816,-1.431695 2.98691,-2.310081 0,-5.317531 1.011,-0.928253 18.65265,4.176842 18.83929,4.692531 -1.22423,1.983004 -0.33018,3.058172 0,4.375 z"
         style="fill:#ff0000;stroke:#000000;stroke-width:1px;stroke-linecap:round;stroke-linejoin:round;stroke-opacity:1" />
      <path
         transform="matrix(1,0,0,-1,118.06121,96.841183)"
         d="m 86.49431,47.27618 a 5.9188628,5.1928153 0 1 1 -11.837726,0 5.9188628,5.1928153 0 1 1 11.837726,0 z"
         sodipodi:ry="5.1928153"
         sodipodi:rx="5.9188628"
         sodipodi:cy="47.27618"
         sodipodi:cx="80.575447"
         id="path3813-5"
         style="fill:#ffffff;fill-opacity:1;fill-rule:evenodd;stroke:#000000;stroke-linecap:round;stroke-linejoin:round;stroke-opacity:1"
         sodipodi:type="arc" />
      <path
         inkscape:connector-curvature="0"
         id="path3815-9"
         d="m 201.54018,52.394794 c 1.16071,1.696429 6.02679,2.678571 6.02679,2.678571"
         style="fill:none;stroke:#000000;stroke-width:1px;stroke-linecap:round;stroke-linejoin:round;stroke-opacity:1" />
      <path
         inkscape:connector-curvature="0"
         id="path3817-8"
         d="m 201.98661,47.260865 c 2.54464,-1.741071 6.16071,-1.651786 6.16071,-1.651786"
         style="fill:none;stroke:#000000;stroke-width:1px;stroke-linecap:round;stroke-linejoin:round;stroke-opacity:1" />
      <path
         sodipodi:nodetypes="ccccc"
         inkscape:connector-curvature="0"
         id="path3819-4"
         d="m 193.4375,50.999705 c 3.51681,0.557862 6.93112,0.193148 10.36863,0.03731 0.1732,-0.173201 0.38966,-2.358432 0.14159,-2.333575 -0.12122,-0.417434 -10.44723,-1.003801 -10.55486,-0.304183 -0.32931,0.976629 -0.12223,1.930261 0.0446,2.600447 z"
         style="fill:#ab37c8;stroke:none" />
    </g>
  </g>
</svg>
