<?xml version="1.0" encoding="UTF-8" standalone="no"?>
<!-- Created with Inkscape (http://www.inkscape.org/) -->

<svg
   xmlns:dc="http://purl.org/dc/elements/1.1/"
   xmlns:cc="http://creativecommons.org/ns#"
   xmlns:rdf="http://www.w3.org/1999/02/22-rdf-syntax-ns#"
   xmlns:svg="http://www.w3.org/2000/svg"
   xmlns="http://www.w3.org/2000/svg"
   xmlns:xlink="http://www.w3.org/1999/xlink"
   xmlns:sodipodi="http://sodipodi.sourceforge.net/DTD/sodipodi-0.dtd"
   xmlns:inkscape="http://www.inkscape.org/namespaces/inkscape"
   width="300"
   height="300"
   id="svg2"
   version="1.1"
   inkscape:version="0.48.2 r9819"
   sodipodi:docname="nuvols.svg"
   inkscape:export-filename="\\panreyes-pc\SVN\ripolles\fpg-sources\menu\3.png"
   inkscape:export-xdpi="90"
   inkscape:export-ydpi="90">
  <defs
     id="defs4">
    <linearGradient
       id="linearGradient3808">
      <stop
         style="stop-color:#dfdfdf;stop-opacity:1;"
         offset="0"
         id="stop3810" />
      <stop
         style="stop-color:#d3d3d3;stop-opacity:0;"
         offset="1"
         id="stop3812" />
    </linearGradient>
    <linearGradient
       inkscape:collect="always"
       xlink:href="#linearGradient3808-4"
       id="linearGradient3814-3"
       x1="75"
       y1="165"
       x2="75"
       y2="155"
       gradientUnits="userSpaceOnUse" />
    <linearGradient
       id="linearGradient3808-4">
      <stop
         style="stop-color:#dfdfdf;stop-opacity:1;"
         offset="0"
         id="stop3810-7" />
      <stop
         style="stop-color:#d3d3d3;stop-opacity:0;"
         offset="1"
         id="stop3812-8" />
    </linearGradient>
    <linearGradient
       id="linearGradient3808-4-8">
      <stop
         style="stop-color:#dfdfdf;stop-opacity:1;"
         offset="0"
         id="stop3810-7-9" />
      <stop
         style="stop-color:#d3d3d3;stop-opacity:0;"
         offset="1"
         id="stop3812-8-1" />
    </linearGradient>
    <linearGradient
       gradientTransform="translate(-0.66071372,859.83745)"
       y2="155"
       x2="75"
       y1="165"
       x1="75"
       gradientUnits="userSpaceOnUse"
       id="linearGradient3789-7"
       xlink:href="#linearGradient3808-4-5"
       inkscape:collect="always" />
    <linearGradient
       id="linearGradient3808-4-5">
      <stop
         style="stop-color:#dfdfdf;stop-opacity:1;"
         offset="0"
         id="stop3810-7-8" />
      <stop
         style="stop-color:#d3d3d3;stop-opacity:0;"
         offset="1"
         id="stop3812-8-9" />
    </linearGradient>
    <linearGradient
       gradientTransform="translate(-0.66071372,859.83745)"
       y2="155"
       x2="75"
       y1="165"
       x1="75"
       gradientUnits="userSpaceOnUse"
       id="linearGradient3789-9"
       xlink:href="#linearGradient3808-4-85"
       inkscape:collect="always" />
    <linearGradient
       id="linearGradient3808-4-85">
      <stop
         style="stop-color:#dfdfdf;stop-opacity:1;"
         offset="0"
         id="stop3810-7-1" />
      <stop
         style="stop-color:#d3d3d3;stop-opacity:0;"
         offset="1"
         id="stop3812-8-0" />
    </linearGradient>
    <linearGradient
       id="linearGradient3808-4-85-1">
      <stop
         style="stop-color:#dfdfdf;stop-opacity:1;"
         offset="0"
         id="stop3810-7-1-6" />
      <stop
         style="stop-color:#d3d3d3;stop-opacity:0;"
         offset="1"
         id="stop3812-8-0-0" />
    </linearGradient>
    <linearGradient
       id="linearGradient3808-4-5-8">
      <stop
         style="stop-color:#dfdfdf;stop-opacity:1;"
         offset="0"
         id="stop3810-7-8-2" />
      <stop
         style="stop-color:#d3d3d3;stop-opacity:0;"
         offset="1"
         id="stop3812-8-9-8" />
    </linearGradient>
    <linearGradient
       id="linearGradient3808-4-85-3">
      <stop
         style="stop-color:#dfdfdf;stop-opacity:1;"
         offset="0"
         id="stop3810-7-1-0" />
      <stop
         style="stop-color:#d3d3d3;stop-opacity:0;"
         offset="1"
         id="stop3812-8-0-5" />
    </linearGradient>
    <linearGradient
       y2="155"
       x2="75"
       y1="165"
       x1="75"
       gradientTransform="translate(36.459821,867.46469)"
       gradientUnits="userSpaceOnUse"
       id="linearGradient3858-7"
       xlink:href="#linearGradient3808-4-5-4"
       inkscape:collect="always" />
    <linearGradient
       id="linearGradient3808-4-5-4">
      <stop
         style="stop-color:#dfdfdf;stop-opacity:1;"
         offset="0"
         id="stop3810-7-8-9" />
      <stop
         style="stop-color:#d3d3d3;stop-opacity:0;"
         offset="1"
         id="stop3812-8-9-4" />
    </linearGradient>
    <linearGradient
       id="linearGradient3808-4-85-9">
      <stop
         style="stop-color:#dfdfdf;stop-opacity:1;"
         offset="0"
         id="stop3810-7-1-2" />
      <stop
         style="stop-color:#d3d3d3;stop-opacity:0;"
         offset="1"
         id="stop3812-8-0-08" />
    </linearGradient>
    <linearGradient
       y2="155"
       x2="75"
       y1="165"
       x1="75"
       gradientTransform="translate(36.459821,867.46469)"
       gradientUnits="userSpaceOnUse"
       id="linearGradient3858-5"
       xlink:href="#linearGradient3808-4-5-7"
       inkscape:collect="always" />
    <linearGradient
       id="linearGradient3808-4-5-7">
      <stop
         style="stop-color:#dfdfdf;stop-opacity:1;"
         offset="0"
         id="stop3810-7-8-97" />
      <stop
         style="stop-color:#d3d3d3;stop-opacity:0;"
         offset="1"
         id="stop3812-8-9-81" />
    </linearGradient>
    <linearGradient
       id="linearGradient3808-4-5-7-6">
      <stop
         style="stop-color:#dfdfdf;stop-opacity:1;"
         offset="0"
         id="stop3810-7-8-97-2" />
      <stop
         style="stop-color:#d3d3d3;stop-opacity:0;"
         offset="1"
         id="stop3812-8-9-81-4" />
    </linearGradient>
    <linearGradient
       y2="155"
       x2="75"
       y1="165"
       x1="75"
       gradientTransform="translate(26.524215,655.35282)"
       gradientUnits="userSpaceOnUse"
       id="linearGradient3962-0-8-8"
       xlink:href="#linearGradient3808-4-5-7-6-2"
       inkscape:collect="always" />
    <linearGradient
       id="linearGradient3808-4-5-7-6-2">
      <stop
         style="stop-color:#dfdfdf;stop-opacity:1;"
         offset="0"
         id="stop3810-7-8-97-2-0" />
      <stop
         style="stop-color:#d3d3d3;stop-opacity:0;"
         offset="1"
         id="stop3812-8-9-81-4-3" />
    </linearGradient>
    <linearGradient
       y2="155"
       x2="75"
       y1="165"
       x1="75"
       gradientTransform="translate(26.524215,655.35282)"
       gradientUnits="userSpaceOnUse"
       id="linearGradient3962-0-8-5"
       xlink:href="#linearGradient3808-4-5-7-6-6"
       inkscape:collect="always" />
    <linearGradient
       id="linearGradient3808-4-5-7-6-6">
      <stop
         style="stop-color:#dfdfdf;stop-opacity:1;"
         offset="0"
         id="stop3810-7-8-97-2-00" />
      <stop
         style="stop-color:#d3d3d3;stop-opacity:0;"
         offset="1"
         id="stop3812-8-9-81-4-0" />
    </linearGradient>
    <linearGradient
       y2="155"
       x2="75"
       y1="165"
       x1="75"
       gradientTransform="translate(26.524215,655.35282)"
       gradientUnits="userSpaceOnUse"
       id="linearGradient3962-0-8-1"
       xlink:href="#linearGradient3808-4-5-7-6-3"
       inkscape:collect="always" />
    <linearGradient
       id="linearGradient3808-4-5-7-6-3">
      <stop
         style="stop-color:#dfdfdf;stop-opacity:1;"
         offset="0"
         id="stop3810-7-8-97-2-004" />
      <stop
         style="stop-color:#d3d3d3;stop-opacity:0;"
         offset="1"
         id="stop3812-8-9-81-4-2" />
    </linearGradient>
    <linearGradient
       id="linearGradient3808-4-5-7-6-3-4">
      <stop
         style="stop-color:#dfdfdf;stop-opacity:1;"
         offset="0"
         id="stop3810-7-8-97-2-004-0" />
      <stop
         style="stop-color:#d3d3d3;stop-opacity:0;"
         offset="1"
         id="stop3812-8-9-81-4-2-4" />
    </linearGradient>
    <linearGradient
       id="linearGradient3808-3">
      <stop
         style="stop-color:#dfdfdf;stop-opacity:1;"
         offset="0"
         id="stop3810-9" />
      <stop
         style="stop-color:#d3d3d3;stop-opacity:0;"
         offset="1"
         id="stop3812-86" />
    </linearGradient>
    <linearGradient
       id="linearGradient4190">
      <stop
         style="stop-color:#dfdfdf;stop-opacity:1;"
         offset="0"
         id="stop4192" />
      <stop
         style="stop-color:#d3d3d3;stop-opacity:0;"
         offset="1"
         id="stop4194" />
    </linearGradient>
    <linearGradient
       id="linearGradient4197">
      <stop
         style="stop-color:#dfdfdf;stop-opacity:1;"
         offset="0"
         id="stop4199" />
      <stop
         style="stop-color:#d3d3d3;stop-opacity:0;"
         offset="1"
         id="stop4201" />
    </linearGradient>
    <linearGradient
       id="linearGradient4204">
      <stop
         style="stop-color:#dfdfdf;stop-opacity:1;"
         offset="0"
         id="stop4206" />
      <stop
         style="stop-color:#d3d3d3;stop-opacity:0;"
         offset="1"
         id="stop4208" />
    </linearGradient>
    <linearGradient
       id="linearGradient3808-2">
      <stop
         style="stop-color:#dfdfdf;stop-opacity:1;"
         offset="0"
         id="stop3810-1" />
      <stop
         style="stop-color:#d3d3d3;stop-opacity:0;"
         offset="1"
         id="stop3812-3" />
    </linearGradient>
    <linearGradient
       id="linearGradient4190-2">
      <stop
         style="stop-color:#dfdfdf;stop-opacity:1;"
         offset="0"
         id="stop4192-0" />
      <stop
         style="stop-color:#d3d3d3;stop-opacity:0;"
         offset="1"
         id="stop4194-5" />
    </linearGradient>
    <linearGradient
       id="linearGradient4197-6">
      <stop
         style="stop-color:#dfdfdf;stop-opacity:1;"
         offset="0"
         id="stop4199-1" />
      <stop
         style="stop-color:#d3d3d3;stop-opacity:0;"
         offset="1"
         id="stop4201-6" />
    </linearGradient>
    <linearGradient
       id="linearGradient4204-6">
      <stop
         style="stop-color:#dfdfdf;stop-opacity:1;"
         offset="0"
         id="stop4206-4" />
      <stop
         style="stop-color:#d3d3d3;stop-opacity:0;"
         offset="1"
         id="stop4208-4" />
    </linearGradient>
    <linearGradient
       id="linearGradient3808-26">
      <stop
         style="stop-color:#dfdfdf;stop-opacity:1;"
         offset="0"
         id="stop3810-10" />
      <stop
         style="stop-color:#d3d3d3;stop-opacity:0;"
         offset="1"
         id="stop3812-33" />
    </linearGradient>
    <linearGradient
       id="linearGradient4190-0">
      <stop
         style="stop-color:#dfdfdf;stop-opacity:1;"
         offset="0"
         id="stop4192-6" />
      <stop
         style="stop-color:#d3d3d3;stop-opacity:0;"
         offset="1"
         id="stop4194-9" />
    </linearGradient>
    <linearGradient
       id="linearGradient4197-4">
      <stop
         style="stop-color:#dfdfdf;stop-opacity:1;"
         offset="0"
         id="stop4199-9" />
      <stop
         style="stop-color:#d3d3d3;stop-opacity:0;"
         offset="1"
         id="stop4201-9" />
    </linearGradient>
    <linearGradient
       id="linearGradient4204-4">
      <stop
         style="stop-color:#dfdfdf;stop-opacity:1;"
         offset="0"
         id="stop4206-47" />
      <stop
         style="stop-color:#d3d3d3;stop-opacity:0;"
         offset="1"
         id="stop4208-3" />
    </linearGradient>
    <linearGradient
       id="linearGradient3808-38">
      <stop
         style="stop-color:#dfdfdf;stop-opacity:1;"
         offset="0"
         id="stop3810-72" />
      <stop
         style="stop-color:#d3d3d3;stop-opacity:0;"
         offset="1"
         id="stop3812-7" />
    </linearGradient>
    <linearGradient
       id="linearGradient4190-8">
      <stop
         style="stop-color:#dfdfdf;stop-opacity:1;"
         offset="0"
         id="stop4192-5" />
      <stop
         style="stop-color:#d3d3d3;stop-opacity:0;"
         offset="1"
         id="stop4194-4" />
    </linearGradient>
    <linearGradient
       id="linearGradient4197-8">
      <stop
         style="stop-color:#dfdfdf;stop-opacity:1;"
         offset="0"
         id="stop4199-5" />
      <stop
         style="stop-color:#d3d3d3;stop-opacity:0;"
         offset="1"
         id="stop4201-4" />
    </linearGradient>
    <linearGradient
       id="linearGradient4204-8">
      <stop
         style="stop-color:#dfdfdf;stop-opacity:1;"
         offset="0"
         id="stop4206-8" />
      <stop
         style="stop-color:#d3d3d3;stop-opacity:0;"
         offset="1"
         id="stop4208-9" />
    </linearGradient>
    <linearGradient
       id="linearGradient3808-4-85-5">
      <stop
         style="stop-color:#dfdfdf;stop-opacity:1;"
         offset="0"
         id="stop3810-7-1-29" />
      <stop
         style="stop-color:#d3d3d3;stop-opacity:0;"
         offset="1"
         id="stop3812-8-0-7" />
    </linearGradient>
    <linearGradient
       y2="155"
       x2="75"
       y1="165"
       x1="75"
       gradientTransform="translate(36.459821,867.46469)"
       gradientUnits="userSpaceOnUse"
       id="linearGradient3858-2"
       xlink:href="#linearGradient3808-4-5-3"
       inkscape:collect="always" />
    <linearGradient
       id="linearGradient3808-4-5-3">
      <stop
         style="stop-color:#dfdfdf;stop-opacity:1;"
         offset="0"
         id="stop3810-7-8-3" />
      <stop
         style="stop-color:#d3d3d3;stop-opacity:0;"
         offset="1"
         id="stop3812-8-9-83" />
    </linearGradient>
    <linearGradient
       id="linearGradient3808-4-85-8">
      <stop
         style="stop-color:#dfdfdf;stop-opacity:1;"
         offset="0"
         id="stop3810-7-1-9" />
      <stop
         style="stop-color:#d3d3d3;stop-opacity:0;"
         offset="1"
         id="stop3812-8-0-1" />
    </linearGradient>
    <linearGradient
       y2="155"
       x2="75"
       y1="165"
       x1="75"
       gradientTransform="translate(36.459821,867.46469)"
       gradientUnits="userSpaceOnUse"
       id="linearGradient3858-53"
       xlink:href="#linearGradient3808-4-5-83"
       inkscape:collect="always" />
    <linearGradient
       id="linearGradient3808-4-5-83">
      <stop
         style="stop-color:#dfdfdf;stop-opacity:1;"
         offset="0"
         id="stop3810-7-8-8" />
      <stop
         style="stop-color:#d3d3d3;stop-opacity:0;"
         offset="1"
         id="stop3812-8-9-3" />
    </linearGradient>
  </defs>
  <sodipodi:namedview
     id="base"
     pagecolor="#ffffff"
     bordercolor="#666666"
     borderopacity="1.0"
     inkscape:pageopacity="0.0"
     inkscape:pageshadow="2"
     inkscape:zoom="0.98994949"
     inkscape:cx="248.6518"
     inkscape:cy="74.31114"
     inkscape:document-units="px"
     inkscape:current-layer="layer1"
     showgrid="true"
     showguides="true"
     inkscape:guide-bbox="true"
     inkscape:snap-grids="true"
     inkscape:window-width="1366"
     inkscape:window-height="706"
     inkscape:window-x="-8"
     inkscape:window-y="-8"
     inkscape:window-maximized="1"
     inkscape:snap-to-guides="true">
    <sodipodi:guide
       orientation="0,1"
       position="-40,300"
       id="guide3018" />
    <sodipodi:guide
       orientation="1,0"
       position="0,340"
       id="guide3020" />
    <sodipodi:guide
       orientation="1,0"
       position="300,340"
       id="guide3022" />
    <inkscape:grid
       type="xygrid"
       id="grid3024"
       empspacing="5"
       visible="true"
       enabled="true"
       snapvisiblegridlinesonly="true" />
    <sodipodi:guide
       orientation="0,1"
       position="300,0"
       id="guide3026" />
    <sodipodi:guide
       orientation="1,0"
       position="189.90868,221.22341"
       id="guide4403" />
    <sodipodi:guide
       orientation="0,1"
       position="306.96429,28.035714"
       id="guide4405" />
    <sodipodi:guide
       orientation="1,0"
       position="47.142857,10"
       id="guide4407" />
    <sodipodi:guide
       orientation="0,1"
       position="300.26786,234.55357"
       id="guide4409" />
  </sodipodi:namedview>
  <metadata
     id="metadata7">
    <rdf:RDF>
      <cc:Work
         rdf:about="">
        <dc:format>image/svg+xml</dc:format>
        <dc:type
           rdf:resource="http://purl.org/dc/dcmitype/StillImage" />
        <dc:title></dc:title>
      </cc:Work>
    </rdf:RDF>
  </metadata>
  <g
     inkscape:label="Capa 1"
     inkscape:groupmode="layer"
     id="layer1"
     transform="translate(0,-752.36215)">
    <rect
       style="fill:#70abe5;fill-opacity:1;fill-rule:nonzero;stroke:none"
       id="rect3028"
       width="300"
       height="300"
       x="0"
       y="752.36212"
       inkscape:export-filename="\\panreyes-pc\SVN\ripolles\fpg-sources\menu\4.png"
       inkscape:export-xdpi="45"
       inkscape:export-ydpi="45" />
    <path
       style="fill:#ffffff;fill-opacity:1;stroke:none"
       d="M 105,100 C 90.592126,82.162521 56.200621,106.91949 58.571321,114.28556 33.532587,115.62245 33.571429,133.75 33.571429,133.75 c 7.022503,27.6086 38.361504,39.74918 60.714285,28.21429 10.623616,12.11206 41.107476,5.24141 46.471896,-4.18637 10.37723,4.36595 15.59084,4.97676 28.09995,4.1365 -2.95884,10.58708 32.50379,17.0839 47.21387,-2.27156 C 231.10946,154.20558 262.47575,131.92198 225,120 238.02137,113.10206 223.21429,85.892857 175,105 206.23499,73.665257 155.26605,63.767981 140.35714,78.928571 133.06983,67.273892 94.576229,77.800427 105,100 z"
       id="path3798"
       inkscape:connector-curvature="0"
       transform="translate(0,752.36215)"
       sodipodi:nodetypes="ccccccccccc" />
    <path
       style="fill:#cccccc;fill-opacity:1;stroke:none"
       d="m 49,157 c 19.656059,6.97143 23.517035,5.5815 43.142858,1.83929 l 2.142856,3.30357 C 76,171 55,163 49,157 z"
       id="path3800"
       inkscape:connector-curvature="0"
       transform="translate(0,752.36215)"
       sodipodi:nodetypes="cccc" />
    <path
       style="fill:#cccccc;fill-opacity:1;stroke:none"
       d="M 90.396754,155.23087 C 94,174 134,172 143,155 c -22,10 -37,11 -52.603246,0.23087 z"
       id="path3802"
       inkscape:connector-curvature="0"
       transform="translate(0,752.36215)"
       sodipodi:nodetypes="ccc" />
    <path
       style="fill:#cccccc;fill-opacity:1;stroke:none"
       d="m 143,155 c 9.059,5.50346 19.25359,5.29299 28,4 l -2,3 c -10.22418,0.97295 -20.29056,-0.43811 -28,-4 z"
       id="path3804"
       inkscape:connector-curvature="0"
       transform="translate(0,752.36215)"
       sodipodi:nodetypes="ccccc" />
    <path
       style="fill:#cccccc;fill-opacity:1;stroke:none"
       d="m 213,158 c -16.26731,15.84791 -40,9 -44,4 -4,10 31,17 47,-2 8.17204,-4.04514 16.13708,-7.62898 20,-13 -9,6 -18,10 -23,11 z"
       id="path3806"
       inkscape:connector-curvature="0"
       transform="translate(0,752.36215)"
       sodipodi:nodetypes="ccccc" />
    <path
       style="fill:#ffffff;stroke:none;stroke-width:1px;stroke-linecap:butt;stroke-linejoin:miter;stroke-opacity:1"
       d="m 55.892857,195.53571 c 5.039056,-3.78474 11.036363,-4.47843 17.500001,-4.46429 8.356228,-7.50459 16.211403,-5.0228 24.107142,-2.85713 15.64213,-7.87326 46.03466,9.90424 20.35714,13.75 -5.768,6.19884 -29.110648,11.28775 -38.035711,5 -5.591083,12.50682 -33.636459,10.77475 -39.285715,1.07142 -30.8896056,-4.52498 -2.480732,-21.29915 15.357143,-12.5 z"
       id="path3002"
       inkscape:connector-curvature="0"
       sodipodi:nodetypes="ccccccc"
       transform="translate(0,752.36215)" />
    <path
       style="fill:#ffffff;stroke:none;stroke-width:1px;stroke-linecap:butt;stroke-linejoin:miter;stroke-opacity:1"
       d="m 68.482143,266.60714 c -13.773637,-2.87485 -8.343419,8.14413 -1.071428,8.21429 7.554863,0.0729 11.616817,-2.41535 12.022506,-6.91476 6.149781,-3.02985 5.217557,-8.68756 -3.062027,-5.69003 -3.047785,-0.37923 -7.158517,0.59074 -7.889051,4.3905 z"
       id="path3772"
       inkscape:connector-curvature="0"
       transform="translate(0,752.36215)"
       sodipodi:nodetypes="csccc" />
    <path
       style="fill:#cccccc;fill-opacity:1;stroke:none"
       d="m 60.169644,1022.15 c 3.279929,4.5672 15.190444,4.6315 19.169644,-1.6876 -0.849131,8.5444 -18.129401,8.8543 -19.169644,1.6876 z"
       id="path3800-4"
       inkscape:connector-curvature="0"
       sodipodi:nodetypes="ccc" />
    <path
       style="fill:#ffffff;stroke:none;stroke-width:1px;stroke-linecap:butt;stroke-linejoin:miter;stroke-opacity:1"
       d="m 101.6466,269.31662 c -18.405648,-3.90467 -22.208151,5.45547 -5.808373,9.97526 4.424013,5.89988 21.020563,2.79502 22.728433,-2.39912 6.73563,3.73461 16.97533,1.15763 20.20305,-2.27284 17.45522,-3.36069 5.51881,-14.65266 -10.2278,-9.59645 -5.73741,-1.94291 -11.04094,-2.51182 -14.77348,1.89403 -4.61241,-0.3439 -8.51558,0.73069 -12.12183,2.39912 z"
       id="path3808"
       inkscape:connector-curvature="0"
       transform="translate(0,752.36215)"
       sodipodi:nodetypes="ccccccc" />
    <path
       style="fill:#ffffff;stroke:none"
       d="m 203.74269,840.74455 c -13.77363,-2.87485 -8.34342,8.14413 -1.07143,8.21429 7.55487,0.0729 11.61682,-2.41535 12.02251,-6.91476 6.14978,-3.02985 5.21756,-8.68756 -3.06203,-5.69003 -3.04778,-0.37923 -7.15851,0.59074 -7.88905,4.3905 z"
       id="path3772-5"
       inkscape:connector-curvature="0"
       sodipodi:nodetypes="csccc" />
    <path
       style="fill:#cccccc;fill-opacity:1;stroke:none"
       d="m 195.43019,843.92526 c 3.27993,4.5672 15.19045,4.6315 19.16965,-1.6876 -0.84913,8.5444 -18.1294,8.8543 -19.16965,1.6876 z"
       id="path3800-4-6"
       inkscape:connector-curvature="0"
       sodipodi:nodetypes="ccc" />
    <path
       style="fill:#cccccc;fill-opacity:1;stroke:none"
       d="m 96.308036,1031.5629 c 3.068844,3.0052 19.003184,0.7788 22.830354,-4.634 0.24357,7.924 -20.215221,10.4883 -22.830354,4.634 z"
       id="path3800-4-8"
       inkscape:connector-curvature="0"
       sodipodi:nodetypes="ccc" />
    <path
       style="fill:#cccccc;fill-opacity:1;stroke:none"
       d="m 119.04241,1028.025 c 3.4027,3.2056 14.91142,2.1427 19.82812,-2.2121 -1.17179,4.5522 -14.22566,6.9879 -20.16672,3.4021 z"
       id="path3800-4-7"
       inkscape:connector-curvature="0"
       sodipodi:nodetypes="cccc" />
    <path
       style="fill:#ffffff;stroke:none"
       d="m 238.01904,843.84037 c -18.40565,-3.90467 -22.20815,5.45546 -5.80838,9.97525 4.42402,5.89988 21.02057,2.79502 22.72844,-2.39912 6.73563,3.73461 16.97533,1.15763 20.20305,-2.27284 17.45522,-3.36068 5.51881,-14.65265 -10.2278,-9.59644 -5.73741,-1.94291 -11.04094,-2.51182 -14.77348,1.89403 -4.61241,-0.3439 -8.51558,0.73069 -12.12183,2.39912 z"
       id="path3808-5"
       inkscape:connector-curvature="0"
       sodipodi:nodetypes="ccccccc" />
    <path
       style="fill:#cccccc;fill-opacity:1;stroke:none"
       d="m 232.68047,853.72449 c 3.06885,3.0052 19.00319,0.7788 22.83036,-4.634 0.24357,7.924 -20.21522,10.4883 -22.83036,4.634 z"
       id="path3800-4-8-9"
       inkscape:connector-curvature="0"
       sodipodi:nodetypes="ccc" />
    <path
       style="fill:#cccccc;fill-opacity:1;stroke:none"
       d="m 255.41485,850.18659 c 3.4027,3.2056 14.91142,2.1427 19.82812,-2.21209 -1.17179,4.55219 -14.22566,6.98789 -20.16672,3.40209 z"
       id="path3800-4-7-3"
       inkscape:connector-curvature="0"
       sodipodi:nodetypes="cccc" />
    <path
       style="fill:#cccccc;fill-opacity:1;stroke:none"
       d="m 41.853287,960.70517 c 3.549009,4.12558 31.528234,6.55996 39.497871,-4.88654 -5.21016,18.40679 -36.222557,12.93712 -39.497871,4.88654 z"
       id="path3800-4-8-5"
       inkscape:connector-curvature="0"
       sodipodi:nodetypes="ccc" />
    <path
       style="fill:#cccccc;fill-opacity:1;stroke:none"
       d="m 80.623833,958.42996 c 3.4027,3.2056 31.073857,0.75374 35.990557,-3.60106 -6.22255,7.58266 -29.630483,9.00821 -36.329157,4.79106 z"
       id="path3800-4-7-9"
       inkscape:connector-curvature="0"
       sodipodi:nodetypes="cccc" />
    <path
       style="fill:#ffffff;stroke:none;stroke-width:1px;stroke-linecap:butt;stroke-linejoin:miter;stroke-opacity:1"
       d="m 288.27228,226.25886 c -4.85266,-8.78498 -13.70676,-3.10909 -6.94479,2.27285 2.01772,14.59724 21.41179,0.11846 6.94479,-2.27285 z"
       id="path3991"
       inkscape:connector-curvature="0"
       transform="translate(0,752.36215)"
       sodipodi:nodetypes="ccc" />
    <path
       style="fill:#cccccc;fill-opacity:1;stroke:none"
       d="m 282.03282,983.49859 c 3.1135,2.73734 8.19962,2.87702 11.22322,-1.06257 -1.32652,5.95894 -9.76871,6.21384 -11.22322,1.06257 z"
       id="path3800-4-8-3"
       inkscape:connector-curvature="0"
       sodipodi:nodetypes="ccc" />
    <path
       style="fill:#ffffff;stroke:none"
       d="m 101.71902,813.50202 c -4.852655,-8.78498 -13.706755,-3.10909 -6.944785,2.27285 2.01772,14.59724 21.411785,0.11846 6.944785,-2.27285 z"
       id="path3991-4"
       inkscape:connector-curvature="0"
       sodipodi:nodetypes="ccc" />
    <path
       style="fill:#cccccc;fill-opacity:1;stroke:none"
       d="m 95.479565,818.3796 c 3.1135,2.73734 8.199615,2.87702 11.223215,-1.06257 -1.32652,5.95894 -9.768705,6.21384 -11.223215,1.06257 z"
       id="path3800-4-8-3-3"
       inkscape:connector-curvature="0"
       sodipodi:nodetypes="ccc" />
    <path
       style="fill:#ffffff;stroke:none;stroke-width:1px;stroke-linecap:butt;stroke-linejoin:miter;stroke-opacity:1"
       d="m 78.66563,64.003111 c 12.745925,-1.917115 15.514856,5.585964 7.576144,8.965103 -3.63419,4.600652 -14.233331,6.874607 -16.28871,-0.378807 -5.181292,1.400804 -10.282767,2.382565 -14.142136,-3.156727 -10.714906,-4.030595 -0.431276,-13.271716 7.449875,-9.343911 5.662831,-2.631232 9.920142,1.862313 15.404827,3.914342 z"
       id="path4053"
       inkscape:connector-curvature="0"
       transform="translate(0,752.36215)"
       sodipodi:nodetypes="cccccc" />
    <path
       style="fill:#cccccc;fill-opacity:1;stroke:none"
       d="m 70.149834,825.04696 c 3.1135,2.73734 12.492763,3.82403 15.516363,-0.11556 -2.73787,5.99051 -14.950895,6.05601 -15.516363,0.11556 z"
       id="path3800-4-8-3-3-6"
       inkscape:connector-curvature="0"
       sodipodi:nodetypes="ccc" />
    <path
       style="fill:#cccccc;fill-opacity:1;stroke:none"
       d="m 56.386505,821.89022 c 3.1135,2.73734 10.251488,3.3821 14.316808,1.46281 -0.185419,0.41072 -0.445679,1.29116 -0.82805,1.51922 -6.138952,1.96192 -11.168293,1.5255 -13.488758,-2.98203 z"
       id="path3800-4-8-3-3-9"
       inkscape:connector-curvature="0"
       sodipodi:nodetypes="cccc" />
    <path
       style="fill:#ffffff;stroke:none"
       d="m 299.74745,942.04631 c 0.11316,-3.63998 8.58369,-4.97086 11.11168,-4.04061 13.36791,-4.41459 19.88952,2.77937 5.05076,10.10152 0.34759,5.70398 -4.03387,9.07734 -14.88443,9.42423 -18.64336,-1.15017 -17.93041,-18.41263 -1.27801,-15.48514 z"
       id="path4106"
       inkscape:connector-curvature="0"
       sodipodi:nodetypes="ccccc" />
    <path
       style="fill:#cccccc;fill-opacity:1;stroke:none"
       d="m 288.40625,951.33644 c 3.1135,2.73734 20.87819,6.71631 27.02679,-2.40186 0.74942,10.01557 -23.40266,11.3138 -27.02679,2.40186 z"
       id="path3800-4-8-3-3-5"
       inkscape:connector-curvature="0"
       sodipodi:nodetypes="ccc" />
    <path
       style="fill:#ffffff;stroke:none"
       d="m 0.31559705,939.90511 c 0.11316,-3.63998 8.58368995,-4.97086 11.11167995,-4.04061 13.36791,-4.41459 19.88952,2.77937 5.05076,10.10152 0.34759,5.70398 -4.03387,9.07734 -14.88443,9.42423 -18.643359,-1.15017 -17.930409,-18.41263 -1.27800995,-15.48514 z"
       id="path4106-9"
       inkscape:connector-curvature="0"
       sodipodi:nodetypes="ccccc" />
    <path
       style="fill:#cccccc;fill-opacity:1;stroke:none"
       d="m -11.025602,949.19524 c 3.1134995,2.73734 20.878189,6.71631 27.026789,-2.40186 0.74942,10.01557 -23.4026595,11.3138 -27.026789,2.40186 z"
       id="path3800-4-8-3-3-5-8"
       inkscape:connector-curvature="0"
       sodipodi:nodetypes="ccc" />
    <path
       style="fill:#ffffff;fill-opacity:1;stroke:none"
       d="m 229.71979,747.85835 c -14.40787,-17.83748 -48.79938,6.91949 -46.42868,14.28556 -25.03873,1.33689 -24.99989,19.46444 -24.99989,19.46444 7.0225,27.6086 38.3615,39.74918 60.71428,28.21429 10.62362,12.11206 41.10748,5.24141 46.4719,-4.18637 10.37723,4.36595 15.59084,4.97676 28.09995,4.1365 -2.95884,10.58708 32.50379,17.0839 47.21387,-2.27156 15.03803,-5.43728 46.40432,-27.72088 8.92857,-39.64286 13.02137,-6.89794 -1.78571,-34.10714 -50,-15 31.23499,-31.33474 -19.73395,-41.23202 -34.64286,-26.07143 -7.28731,-11.65467 -45.78091,-1.12814 -35.35714,21.07143 z"
       id="path3798-1"
       inkscape:connector-curvature="0"
       sodipodi:nodetypes="ccccccccccc" />
    <path
       style="fill:#cccccc;fill-opacity:1;stroke:none"
       d="m 173.71979,804.85835 c 19.65606,6.97143 23.51704,5.5815 43.14286,1.83929 l 2.14285,3.30357 c -18.28571,8.85714 -39.28571,0.85714 -45.28571,-5.14286 z"
       id="path3800-7"
       inkscape:connector-curvature="0"
       sodipodi:nodetypes="cccc" />
    <path
       style="fill:#cccccc;fill-opacity:1;stroke:none"
       d="m 215.11654,803.08922 c 3.60325,18.76913 43.60325,16.76913 52.60325,-0.23087 -22,10 -37,11 -52.60325,0.23087 z"
       id="path3802-2"
       inkscape:connector-curvature="0"
       sodipodi:nodetypes="ccc" />
    <path
       style="fill:#cccccc;fill-opacity:1;stroke:none"
       d="m 267.71979,802.85835 c 9.059,5.50346 19.25359,5.29299 28,4 l -2,3 c -10.22418,0.97295 -20.29056,-0.43811 -28,-4 z"
       id="path3804-9"
       inkscape:connector-curvature="0"
       sodipodi:nodetypes="ccccc" />
    <path
       style="fill:#cccccc;fill-opacity:1;stroke:none"
       d="m 337.71979,805.85835 c -16.26731,15.84791 -40,9 -44,4 -4,10 31,17 47,-2 8.17204,-4.04514 16.13708,-7.62898 20,-13 -9,6 -18,10 -23,11 z"
       id="path3806-2"
       inkscape:connector-curvature="0"
       sodipodi:nodetypes="ccccc" />
    <path
       style="fill:#ffffff;fill-opacity:1;stroke:none"
       d="m 229.00551,1049.287 c -14.40788,-17.8375 -48.79938,6.9195 -46.42868,14.2855 -25.03874,1.3369 -24.99989,19.4645 -24.99989,19.4645 7.0225,27.6086 38.3615,39.7491 60.71428,28.2143 10.62362,12.112 41.10748,5.2414 46.4719,-4.1864 10.37723,4.3659 15.59084,4.9767 28.09995,4.1365 -2.95884,10.5871 32.50379,17.0839 47.21387,-2.2716 15.03803,-5.4373 46.40432,-27.7209 8.92857,-39.6428 13.02137,-6.898 -1.78571,-34.1072 -50,-15 31.23499,-31.3348 -19.73395,-41.2321 -34.64286,-26.0715 -7.28731,-11.6546 -45.78091,-1.1281 -35.35714,21.0715 z"
       id="path3798-4"
       inkscape:connector-curvature="0"
       sodipodi:nodetypes="ccccccccccc" />
    <path
       style="fill:#cccccc;fill-opacity:1;stroke:none"
       d="m 173.00551,1106.287 c 19.65606,6.9714 23.51703,5.5815 43.14285,1.8393 l 2.14286,3.3035 c -18.28571,8.8572 -39.28571,0.8572 -45.28571,-5.1428 z"
       id="path3800-8"
       inkscape:connector-curvature="0"
       sodipodi:nodetypes="cccc" />
    <path
       style="fill:#cccccc;fill-opacity:1;stroke:none"
       d="m 214.40226,1104.5178 c 3.60325,18.7692 43.60325,16.7692 52.60325,-0.2308 -22,10 -37,11 -52.60325,0.2308 z"
       id="path3802-0"
       inkscape:connector-curvature="0"
       sodipodi:nodetypes="ccc" />
    <path
       style="fill:#cccccc;fill-opacity:1;stroke:none"
       d="m 267.00551,1104.287 c 9.059,5.5034 19.25359,5.293 28,4 l -2,3 c -10.22418,0.9729 -20.29056,-0.4381 -28,-4 z"
       id="path3804-6"
       inkscape:connector-curvature="0"
       sodipodi:nodetypes="ccccc" />
    <path
       style="fill:#cccccc;fill-opacity:1;stroke:none"
       d="m 337.00551,1107.287 c -16.26731,15.8479 -40,9 -44,4 -4,10 31,17 47,-2 8.17204,-4.0452 16.13708,-7.629 20,-13 -9,6 -18,10 -23,11 z"
       id="path3806-5"
       inkscape:connector-curvature="0"
       sodipodi:nodetypes="ccccc" />
    <path
       style="fill:#ffffff;fill-opacity:1;stroke:none"
       d="m -73.79599,747.01056 c -14.40787,-17.83748 -48.79939,6.91949 -46.42869,14.28556 -25.03873,1.33689 -24.99989,19.46444 -24.99989,19.46444 7.0225,27.6086 38.3615,39.74918 60.71429,28.21429 10.62362,12.11206 41.107479,5.24141 46.471899,-4.18637 10.37723,4.36595 15.59084,4.97676 28.0999502,4.1365 -2.9588402,10.58708 32.5037908,17.0839 47.2138698,-2.27156 15.03803,-5.43728 46.40432,-27.72088 8.92857,-39.64286 13.02137,-6.89794 -1.78571,-34.10714 -49.9999997,-15 C 27.439,720.67582 -23.529941,710.77854 -38.438851,725.93913 -45.72616,714.28446 -84.21976,724.81099 -73.79599,747.01056 z"
       id="path3798-43"
       inkscape:connector-curvature="0"
       sodipodi:nodetypes="ccccccccccc" />
    <path
       style="fill:#cccccc;fill-opacity:1;stroke:none"
       d="m -129.796,804.01056 c 19.65606,6.97143 23.51704,5.5815 43.14287,1.83929 l 2.14285,3.30357 c -18.28571,8.85714 -39.28572,0.85714 -45.28572,-5.14286 z"
       id="path3800-0"
       inkscape:connector-curvature="0"
       sodipodi:nodetypes="cccc" />
    <path
       style="fill:#cccccc;fill-opacity:1;stroke:none"
       d="m -88.39924,802.24143 c 3.60325,18.76913 43.603249,16.76913 52.603249,-0.23087 -21.999999,10 -36.999999,11 -52.603249,0.23087 z"
       id="path3802-5"
       inkscape:connector-curvature="0"
       sodipodi:nodetypes="ccc" />
    <path
       style="fill:#cccccc;fill-opacity:1;stroke:none"
       d="m -35.795991,802.01056 c 9.059,5.50346 19.25359,5.29299 28.0000002,4 l -2,3 c -10.2241802,0.97295 -20.2905602,-0.43811 -28.0000002,-4 z"
       id="path3804-2"
       inkscape:connector-curvature="0"
       sodipodi:nodetypes="ccccc" />
    <path
       style="fill:#cccccc;fill-opacity:1;stroke:none"
       d="m 34.204009,805.01056 c -16.267309,15.84791 -39.9999998,9 -43.9999998,4 -4.0000002,10 31.0000008,17 46.9999998,-2 8.17204,-4.04514 16.13708,-7.62898 20,-13 -9,6 -18,10 -23,11 z"
       id="path3806-1"
       inkscape:connector-curvature="0"
       sodipodi:nodetypes="ccccc" />
    <path
       style="fill:#ffffff;fill-opacity:1;stroke:none"
       d="m -71.351635,1049.8226 c -14.407874,-17.8375 -48.799375,6.9195 -46.428675,14.2856 -25.03874,1.3369 -24.9999,19.4644 -24.9999,19.4644 7.02251,27.6086 38.36151,39.7492 60.714289,28.2143 10.623616,12.1121 41.107475,5.2414 46.471895,-4.1864 10.37723,4.366 15.59084,4.9768 28.09995,4.1365 -2.95884,10.5871 32.50379,17.0839 47.21387,-2.2715 15.03803,-5.4373 46.40432,-27.7209 8.92857,-39.6429 13.02137,-6.8979 -1.78571,-34.1071 -50,-15 31.23499,-31.3347 -19.73395,-41.232 -34.64286,-26.0714 -7.287309,-11.6547 -45.78091,-1.1281 -35.357139,21.0714 z"
       id="path3798-3"
       inkscape:connector-curvature="0"
       sodipodi:nodetypes="ccccccccccc" />
    <path
       style="fill:#cccccc;fill-opacity:1;stroke:none"
       d="m -127.35164,1106.8226 c 19.65606,6.9715 23.51704,5.5815 43.142863,1.8393 l 2.142856,3.3036 c -18.285719,8.8571 -39.285719,0.8571 -45.285719,-5.1429 z"
       id="path3800-9"
       inkscape:connector-curvature="0"
       sodipodi:nodetypes="cccc" />
    <path
       style="fill:#cccccc;fill-opacity:1;stroke:none"
       d="m -85.954881,1105.0535 c 3.603246,18.7691 43.603245,16.7691 52.603245,-0.2309 -21.999999,10 -36.999999,11 -52.603245,0.2309 z"
       id="path3802-7"
       inkscape:connector-curvature="0"
       sodipodi:nodetypes="ccc" />
    <path
       style="fill:#cccccc;fill-opacity:1;stroke:none"
       d="m -33.351636,1104.8226 c 9.059,5.5035 19.25359,5.293 28,4 l -2,3 c -10.22418,0.973 -20.29056,-0.4381 -28,-4 z"
       id="path3804-4"
       inkscape:connector-curvature="0"
       sodipodi:nodetypes="ccccc" />
    <path
       style="fill:#cccccc;fill-opacity:1;stroke:none"
       d="m 36.648364,1107.8226 c -16.26731,15.8479 -40,9 -44,4 -4,10 31,17 47,-2 8.17204,-4.0451 16.13708,-7.629 20,-13 -9,6 -18,10 -23,11 z"
       id="path3806-18"
       inkscape:connector-curvature="0"
       sodipodi:nodetypes="ccccc" />
    <path
       style="fill:#ffffff;stroke:none;stroke-width:1px;stroke-linecap:butt;stroke-linejoin:miter;stroke-opacity:1"
       d="m 264.59684,229.03678 c 8.64229,-2.97367 20.07524,3.93403 7.1342,9.53332 -2.89607,4.25143 -9.16274,5.21733 -13.8896,2.84105 -7.71128,9.2967 -35.84464,-0.33271 -19.31917,-7.38673 -4.97662,-2.75028 1.31187,-12.71055 11.04854,-9.02825 5.52786,-2.40017 9.84967,1.28729 15.02603,4.04061 z"
       id="path4411"
       inkscape:connector-curvature="0"
       transform="translate(0,752.36215)"
       sodipodi:nodetypes="cccccc" />
    <path
       style="fill:#cccccc;fill-opacity:1;stroke:none"
       d="m 235.77233,994.08563 c 3.47063,2.51413 19.13711,2.07344 22.96428,-3.33936 -0.15821,8.2365 -18.25093,8.34544 -22.96428,3.33936 z"
       id="path3800-4-8-52"
       inkscape:connector-curvature="0"
       sodipodi:nodetypes="ccc" />
    <path
       style="fill:#cccccc;fill-opacity:1;stroke:none"
       d="m 258.37277,992.51201 c 3.23972,2.60801 8.02139,1.96851 13.1317,-1.67638 -1.71664,4.15073 -9.1311,5.27186 -13.4703,2.86638 z"
       id="path3800-4-7-6"
       inkscape:connector-curvature="0"
       sodipodi:nodetypes="cccc" />
    <path
       style="fill:#ffffff;stroke:none;stroke-width:1px;stroke-linecap:butt;stroke-linejoin:miter;stroke-opacity:1"
       d="m 156.78572,244.10714 c 7.30706,-11.37059 18.47364,-10.58734 22.32142,-7.5 19.92031,-10.96896 30.9366,4.08999 28.39286,8.39286 39.27857,0.97723 19.39546,15.80656 8.21429,15.71429 -2.27223,9.19056 -30.04467,15.26097 -39.46429,2.5 -10.59476,6.73294 -30.26226,3.84054 -36.42857,-2.85715 -18.44845,-1.22247 -12.17686,-12.22337 -2.14286,-15.53571 5.06174,-3.41299 10.74306,-5.3213 19.10715,-0.71429 z"
       id="path4462"
       inkscape:connector-curvature="0"
       sodipodi:nodetypes="cccccccc"
       transform="translate(0,752.36215)" />
    <path
       style="fill:#cccccc;fill-opacity:1;stroke:none"
       d="m 140.59375,1012.7463 c 6.81885,3.9874 33.91391,4.5288 37.74108,-0.884 -2.65068,11.1425 -34.74643,7.9659 -37.74108,0.884 z"
       id="path3800-4-8-0"
       inkscape:connector-curvature="0"
       sodipodi:nodetypes="ccc" />
    <path
       style="fill:#cccccc;fill-opacity:1;stroke:none"
       d="m 178.41742,1013.2263 c 3.86543,7.9871 32.02161,6.8944 36.70312,0.1093 -1.41288,8.8919 -30.44292,14.7915 -38.64886,2.0406 z"
       id="path3800-4-7-35"
       inkscape:connector-curvature="0"
       sodipodi:nodetypes="cccc" />
  </g>
</svg>
