<?xml version="1.0" encoding="UTF-8" standalone="no"?>
<!-- Created with Inkscape (http://www.inkscape.org/) -->

<svg
   xmlns:dc="http://purl.org/dc/elements/1.1/"
   xmlns:cc="http://creativecommons.org/ns#"
   xmlns:rdf="http://www.w3.org/1999/02/22-rdf-syntax-ns#"
   xmlns:svg="http://www.w3.org/2000/svg"
   xmlns="http://www.w3.org/2000/svg"
   xmlns:sodipodi="http://sodipodi.sourceforge.net/DTD/sodipodi-0.dtd"
   xmlns:inkscape="http://www.inkscape.org/namespaces/inkscape"
   width="640"
   height="360"
   id="svg2"
   version="1.1"
   inkscape:version="0.48.2 r9819"
   sodipodi:docname="Jefe1.svg">
  <defs
     id="defs4" />
  <sodipodi:namedview
     id="base"
     pagecolor="#ffffff"
     bordercolor="#666666"
     borderopacity="1.0"
     inkscape:pageopacity="0.0"
     inkscape:pageshadow="2"
     inkscape:zoom="0.49497475"
     inkscape:cx="-533.1686"
     inkscape:cy="-203.69403"
     inkscape:document-units="px"
     inkscape:current-layer="layer1"
     showgrid="false"
     showguides="true"
     inkscape:guide-bbox="true"
     inkscape:window-width="1366"
     inkscape:window-height="706"
     inkscape:window-x="-8"
     inkscape:window-y="-8"
     inkscape:window-maximized="1">
    <sodipodi:guide
       orientation="0,1"
       position="85,180"
       id="guide2985" />
  </sodipodi:namedview>
  <metadata
     id="metadata7">
    <rdf:RDF>
      <cc:Work
         rdf:about="">
        <dc:format>image/svg+xml</dc:format>
        <dc:type
           rdf:resource="http://purl.org/dc/dcmitype/StillImage" />
        <dc:title></dc:title>
      </cc:Work>
    </rdf:RDF>
  </metadata>
  <g
     inkscape:label="Capa 1"
     inkscape:groupmode="layer"
     id="layer1"
     transform="translate(0,-692.36218)">
    <path
       style="fill:#0000ff;stroke:#000000;stroke-width:1px;stroke-linecap:butt;stroke-linejoin:miter;stroke-opacity:1"
       d="m 295.74746,766.14281 1.42857,130 -15.71428,84.28572 46.42856,6.42857 44.28572,-9.28572 -18.57143,-80 7.85714,-134.28571 z"
       id="path2989"
       inkscape:connector-curvature="0"
       sodipodi:nodetypes="cccccccc"
       inkscape:export-filename="C:\Users\Propietario\Desktop\PiXJuegos\ripolles\fpg-sources\jefe1\61.png"
       inkscape:export-xdpi="90"
       inkscape:export-ydpi="90" />
    <path
       style="fill:#00ff00;stroke:#000000;stroke-width:1px;stroke-linecap:butt;stroke-linejoin:miter;stroke-opacity:1"
       d="m 215.03317,731.8571 -7.85714,32.85714 113.57143,18.57143 140.71428,-25 -1.42857,-32.85714 c 0,0 -120.71429,-8.57143 -124.28571,-7.85715 -3.57143,0.71429 -120.71429,14.28572 -120.71429,14.28572 z"
       id="path2987"
       inkscape:connector-curvature="0"
       inkscape:export-filename="C:\Users\Propietario\Desktop\PiXJuegos\ripolles\fpg-sources\jefe1\61.png"
       inkscape:export-xdpi="90"
       inkscape:export-ydpi="90" />
    <path
       style="fill:#ff0000;stroke:#000000;stroke-width:1px;stroke-linecap:butt;stroke-linejoin:miter;stroke-opacity:1"
       d="m 386.67988,364.18875 -47.85714,25.71429 -16.42857,-29.36493 65.67095,-25.96683 z"
       id="path2991"
       inkscape:connector-curvature="0"
       sodipodi:nodetypes="ccccc" />
    <path
       style="fill:#ffff00;stroke:#000000;stroke-width:1px;stroke-linecap:butt;stroke-linejoin:miter;stroke-opacity:1"
       d="m 339.4937,389.57128 -25.75761,47.51051 -28.5281,-21.79622 37.85714,-54.28571 z"
       id="path2993"
       inkscape:connector-curvature="0"
       sodipodi:nodetypes="ccccc" />
    <path
       style="fill:#0000ff;stroke:#000000;stroke-width:1px;stroke-linecap:butt;stroke-linejoin:round;stroke-opacity:1"
       d="m 285.46053,415.07636 -10.71429,69.28572 -26.42857,17.85714 25.71428,-9.28572 -7.53154,35.81582 11.81726,-28.67296 4.09881,34.58158 3.50579,-34.20649 7.63307,25.93836 -0.23767,-27.02773 12.66896,15.2674 -13.38325,-30.2674 22.14286,-48.57143 z"
       id="path2995"
       inkscape:connector-curvature="0"
       sodipodi:nodetypes="cccccccccccccc" />
    <path
       style="fill:#ff0000;stroke:#000000;stroke-width:1px;stroke-linecap:butt;stroke-linejoin:miter;stroke-opacity:1"
       d="m -709.58108,616.26215 -53.88135,6.95201 -4.87334,-33.29336 70.61342,-0.83371 z"
       id="path2991-1"
       inkscape:connector-curvature="0"
       sodipodi:nodetypes="ccccc"
       inkscape:export-filename="C:\Users\Propietario\Desktop\PiXJuegos\ripolles\fpg-sources\jefe1\21.png"
       inkscape:export-xdpi="90"
       inkscape:export-ydpi="90" />
    <path
       style="fill:#ffff00;stroke:#000000;stroke-width:1px;stroke-linecap:butt;stroke-linejoin:miter;stroke-opacity:1"
       d="m -728.71528,621.19357 -53.86115,4.43609 2.63455,-35.80484 66.15258,1.9844 z"
       id="path2993-7"
       inkscape:connector-curvature="0"
       sodipodi:nodetypes="ccccc"
       inkscape:export-filename="C:\Users\Propietario\Desktop\PiXJuegos\ripolles\fpg-sources\jefe1\21.png"
       inkscape:export-xdpi="90"
       inkscape:export-ydpi="90" />
    <path
       style="fill:#0000ff;stroke:#000000;stroke-width:1px;stroke-linecap:butt;stroke-linejoin:round;stroke-opacity:1"
       d="m -779.73352,587.85457 4.6202,69.95685 -21.90919,23.18047 23.0773,-14.65903 0.44306,36.59646 5.29435,-30.55742 11.52609,32.86084 -4.02211,-34.14963 13.09475,23.65565 -6.11365,-26.32827 15.68777,12.14453 -19.64919,-26.6296 11.04225,-52.22604 z"
       id="path2995-4"
       inkscape:connector-curvature="0"
       sodipodi:nodetypes="cccccccccccccc"
       inkscape:export-filename="C:\Users\Propietario\Desktop\PiXJuegos\ripolles\fpg-sources\jefe1\21.png"
       inkscape:export-xdpi="90"
       inkscape:export-ydpi="90" />
    <path
       style="fill:#ff0000;stroke:#000000;stroke-width:1px;stroke-linecap:butt;stroke-linejoin:miter;stroke-opacity:1"
       d="m -374.40237,564.80621 0.85206,54.32131 -33.63014,1.10051 7.10805,-70.2597 z"
       id="path2991-1-0"
       inkscape:connector-curvature="0"
       sodipodi:nodetypes="ccccc"
       inkscape:export-filename="C:\Users\Propietario\Desktop\PiXJuegos\ripolles\fpg-sources\jefe1\23.png"
       inkscape:export-xdpi="90"
       inkscape:export-ydpi="90" />
    <path
       style="fill:#ffff00;stroke:#000000;stroke-width:1px;stroke-linecap:butt;stroke-linejoin:miter;stroke-opacity:1"
       d="m -375.83251,619.13589 4.20598,53.8796 -35.79326,-2.78747 2.26696,-66.1435 z"
       id="path2993-7-9"
       inkscape:connector-curvature="0"
       sodipodi:nodetypes="ccccc"
       inkscape:export-filename="C:\Users\Propietario\Desktop\PiXJuegos\ripolles\fpg-sources\jefe1\23.png"
       inkscape:export-xdpi="90"
       inkscape:export-ydpi="90" />
    <path
       style="fill:#0000ff;stroke:#000000;stroke-width:1px;stroke-linecap:butt;stroke-linejoin:round;stroke-opacity:1"
       d="m -406.64682,657.84116 4.6202,69.95685 -21.90919,23.18047 23.0773,-14.65903 0.44306,36.59646 5.29435,-30.55742 11.52609,32.86084 -4.02211,-34.14963 13.09475,23.65565 -6.11365,-26.32827 15.68777,12.14453 -19.64919,-26.6296 11.04225,-52.22604 z"
       id="path2995-4-4"
       inkscape:connector-curvature="0"
       sodipodi:nodetypes="cccccccccccccc"
       inkscape:export-filename="C:\Users\Propietario\Desktop\PiXJuegos\ripolles\fpg-sources\jefe1\23.png"
       inkscape:export-xdpi="90"
       inkscape:export-ydpi="90" />
    <path
       style="fill:#ff0000;stroke:#000000;stroke-width:1.00609934px;stroke-linecap:butt;stroke-linejoin:miter;stroke-opacity:1"
       d="m -199.17011,584.77588 -45.08239,30.78817 -20.51651,-27.02762 63.09323,-33.07465 z"
       id="path2991-1-0-8"
       inkscape:connector-curvature="0"
       sodipodi:nodetypes="ccccc"
       inkscape:export-filename="C:\Users\Propietario\Desktop\PiXJuegos\ripolles\fpg-sources\jefe1\24.png"
       inkscape:export-xdpi="90"
       inkscape:export-ydpi="90" />
    <path
       style="fill:#ffff00;stroke:#000000;stroke-width:1px;stroke-linecap:butt;stroke-linejoin:miter;stroke-opacity:1"
       d="m -235.67619,594.61853 4.20598,53.8796 -35.79327,-2.78747 2.26697,-66.1435 z"
       id="path2993-7-9-8"
       inkscape:connector-curvature="0"
       sodipodi:nodetypes="ccccc"
       inkscape:export-filename="C:\Users\Propietario\Desktop\PiXJuegos\ripolles\fpg-sources\jefe1\24.png"
       inkscape:export-xdpi="90"
       inkscape:export-ydpi="90" />
    <path
       style="fill:#0000ff;stroke:#000000;stroke-width:1px;stroke-linecap:butt;stroke-linejoin:round;stroke-opacity:1"
       d="m -265.06193,621.18093 4.6202,69.95685 -21.90919,23.18047 23.0773,-14.65903 0.44306,36.59646 5.29435,-30.55742 11.52609,32.86084 -4.02211,-34.14963 13.09475,23.65565 -6.11365,-26.32827 15.68777,12.14453 -19.64919,-26.6296 11.04225,-52.22604 z"
       id="path2995-4-4-2"
       inkscape:connector-curvature="0"
       sodipodi:nodetypes="cccccccccccccc"
       inkscape:export-filename="C:\Users\Propietario\Desktop\PiXJuegos\ripolles\fpg-sources\jefe1\24.png"
       inkscape:export-xdpi="90"
       inkscape:export-ydpi="90" />
    <path
       style="fill:#ff0000;stroke:#000000;stroke-width:1px;stroke-linecap:butt;stroke-linejoin:miter;stroke-opacity:1"
       d="m -792.91487,964.37028 -53.88135,6.95201 -4.87334,-33.29336 70.61342,-0.83371 z"
       id="path2991-1-4"
       inkscape:connector-curvature="0"
       sodipodi:nodetypes="ccccc"
       inkscape:export-filename="C:\Users\Propietario\Desktop\PiXJuegos\ripolles\fpg-sources\jefe1\34.png"
       inkscape:export-xdpi="90"
       inkscape:export-ydpi="90" />
    <path
       style="fill:#ffff00;stroke:#000000;stroke-width:1px;stroke-linecap:butt;stroke-linejoin:miter;stroke-opacity:1"
       d="m -842.78514,968.50414 -48.62301,23.59037 -10.4754,-34.33939 62.40368,-22.04274 z"
       id="path2993-7-5"
       inkscape:connector-curvature="0"
       sodipodi:nodetypes="ccccc"
       inkscape:export-filename="C:\Users\Propietario\Desktop\PiXJuegos\ripolles\fpg-sources\jefe1\34.png"
       inkscape:export-xdpi="90"
       inkscape:export-ydpi="90" />
    <path
       style="fill:#0000ff;stroke:#000000;stroke-width:1px;stroke-linecap:butt;stroke-linejoin:round;stroke-opacity:1"
       d="m -895.90162,951.67212 -48.38982,50.73208 -31.89264,-0.4509 26.40785,7.0763 -26.64958,25.0858 26.0842,-16.7751 -16.40042,30.7199 22.42634,-26.066 -8.5605,25.6472 15.25169,-22.3146 1.67048,19.7689 6.31604,-32.486 45.92952,-27.20241 z"
       id="path2995-4-5"
       inkscape:connector-curvature="0"
       sodipodi:nodetypes="cccccccccccccc"
       inkscape:export-filename="C:\Users\Propietario\Desktop\PiXJuegos\ripolles\fpg-sources\jefe1\34.png"
       inkscape:export-xdpi="90"
       inkscape:export-ydpi="90" />
    <path
       style="fill:#ff0000;stroke:#000000;stroke-width:1px;stroke-linecap:butt;stroke-linejoin:miter;stroke-opacity:1"
       d="m -384.87901,918.62863 0.85206,54.32131 -33.63014,1.10051 7.10805,-70.2597 z"
       id="path2991-1-0-1"
       inkscape:connector-curvature="0"
       sodipodi:nodetypes="ccccc"
       inkscape:export-filename="C:\Users\Propietario\Desktop\PiXJuegos\ripolles\fpg-sources\jefe1\32.png"
       inkscape:export-xdpi="90"
       inkscape:export-ydpi="90" />
    <path
       style="fill:#ffff00;stroke:#000000;stroke-width:1px;stroke-linecap:butt;stroke-linejoin:miter;stroke-opacity:1"
       d="m -386.30915,972.95831 4.20598,53.87959 -35.79326,-2.7875 2.26696,-66.14346 z"
       id="path2993-7-9-7"
       inkscape:connector-curvature="0"
       sodipodi:nodetypes="ccccc"
       inkscape:export-filename="C:\Users\Propietario\Desktop\PiXJuegos\ripolles\fpg-sources\jefe1\32.png"
       inkscape:export-xdpi="90"
       inkscape:export-ydpi="90" />
    <path
       style="fill:#0000ff;stroke:#000000;stroke-width:1px;stroke-linecap:butt;stroke-linejoin:round;stroke-opacity:1"
       d="m -417.12346,1011.6636 4.6202,69.9568 -21.90919,23.1805 23.0773,-14.659 0.44306,36.5964 5.29435,-30.5574 11.52609,32.8609 -4.02211,-34.1497 13.09475,23.6557 -6.11365,-26.3283 15.68777,12.1445 -19.64919,-26.6296 11.04225,-52.226 z"
       id="path2995-4-4-1"
       inkscape:connector-curvature="0"
       sodipodi:nodetypes="cccccccccccccc"
       inkscape:export-filename="C:\Users\Propietario\Desktop\PiXJuegos\ripolles\fpg-sources\jefe1\32.png"
       inkscape:export-xdpi="90"
       inkscape:export-ydpi="90" />
    <path
       style="fill:#ff0000;stroke:#000000;stroke-width:1.00609934px;stroke-linecap:butt;stroke-linejoin:miter;stroke-opacity:1"
       d="m -209.64676,938.5983 -45.08238,30.78817 -20.51651,-27.02762 63.09323,-33.07465 z"
       id="path2991-1-0-8-1"
       inkscape:connector-curvature="0"
       sodipodi:nodetypes="ccccc"
       inkscape:export-filename="C:\Users\Propietario\Desktop\PiXJuegos\ripolles\fpg-sources\jefe1\31.png"
       inkscape:export-xdpi="90"
       inkscape:export-ydpi="90" />
    <path
       style="fill:#ffff00;stroke:#000000;stroke-width:1px;stroke-linecap:butt;stroke-linejoin:miter;stroke-opacity:1"
       d="m -246.15284,964.15524 4.20598,53.87966 -35.79326,-2.7875 2.26696,-66.14353 z"
       id="path2993-7-9-8-5"
       inkscape:connector-curvature="0"
       sodipodi:nodetypes="ccccc"
       inkscape:export-filename="C:\Users\Propietario\Desktop\PiXJuegos\ripolles\fpg-sources\jefe1\31.png"
       inkscape:export-xdpi="90"
       inkscape:export-ydpi="90" />
    <path
       style="fill:#0000ff;stroke:#000000;stroke-width:1px;stroke-linecap:butt;stroke-linejoin:round;stroke-opacity:1"
       d="m -280.98578,1016.0758 64.32442,27.8868 10.59361,30.0853 -2.48144,-27.2268 32.74724,16.3439 -24.7527,-18.6839 34.49409,4.7793 -32.20816,-12.0419 27.02548,-0.8259 -26.20933,-6.6047 17.97486,-8.3964 -32.66797,5.2944 -41.39338,-33.7058 z"
       id="path2995-4-4-2-2"
       inkscape:connector-curvature="0"
       sodipodi:nodetypes="cccccccccccccc"
       inkscape:export-filename="C:\Users\Propietario\Desktop\PiXJuegos\ripolles\fpg-sources\jefe1\31.png"
       inkscape:export-xdpi="90"
       inkscape:export-ydpi="90" />
    <path
       style="fill:#ff0000;stroke:#000000;stroke-width:1.00609934px;stroke-linecap:butt;stroke-linejoin:miter;stroke-opacity:1"
       d="m -541.26826,595.84343 -45.08239,30.78817 -20.51651,-27.02762 63.09323,-33.07465 z"
       id="path2991-1-0-8-7"
       inkscape:connector-curvature="0"
       sodipodi:nodetypes="ccccc"
       inkscape:export-filename="C:\Users\Propietario\Desktop\PiXJuegos\ripolles\fpg-sources\jefe1\22.png"
       inkscape:export-xdpi="90"
       inkscape:export-ydpi="90" />
    <path
       style="fill:#ffff00;stroke:#000000;stroke-width:1px;stroke-linecap:butt;stroke-linejoin:miter;stroke-opacity:1"
       d="m -577.77434,605.68608 4.20598,53.8796 -35.79327,-2.78747 2.26697,-66.1435 z"
       id="path2993-7-9-8-6"
       inkscape:connector-curvature="0"
       sodipodi:nodetypes="ccccc"
       inkscape:export-filename="C:\Users\Propietario\Desktop\PiXJuegos\ripolles\fpg-sources\jefe1\22.png"
       inkscape:export-xdpi="90"
       inkscape:export-ydpi="90" />
    <path
       style="fill:#0000ff;stroke:#000000;stroke-width:1px;stroke-linecap:butt;stroke-linejoin:round;stroke-opacity:1"
       d="m -607.16008,632.24848 4.6202,69.95685 -21.90919,23.18047 23.0773,-14.65903 0.44306,36.59646 5.29435,-30.55742 11.52609,32.86084 -4.02211,-34.14963 13.09475,23.65565 -6.11365,-26.32827 15.68777,12.14453 -19.64919,-26.6296 11.04225,-52.22604 z"
       id="path2995-4-4-2-1"
       inkscape:connector-curvature="0"
       sodipodi:nodetypes="cccccccccccccc"
       inkscape:export-filename="C:\Users\Propietario\Desktop\PiXJuegos\ripolles\fpg-sources\jefe1\22.png"
       inkscape:export-xdpi="90"
       inkscape:export-ydpi="90" />
    <path
       style="fill:#ff0000;stroke:#000000;stroke-width:1.00609934px;stroke-linecap:butt;stroke-linejoin:miter;stroke-opacity:1"
       d="m -541.26827,938.70058 -45.08238,30.78817 -20.51651,-27.02762 63.09323,-33.07465 z"
       id="path2991-1-0-8-1-4"
       inkscape:connector-curvature="0"
       sodipodi:nodetypes="ccccc"
       inkscape:export-filename="C:\Users\Propietario\Desktop\PiXJuegos\ripolles\fpg-sources\jefe1\33.png"
       inkscape:export-xdpi="90"
       inkscape:export-ydpi="90" />
    <path
       style="fill:#ffff00;stroke:#000000;stroke-width:1px;stroke-linecap:butt;stroke-linejoin:miter;stroke-opacity:1"
       d="m -588.89864,963.39141 -28.74818,45.76299 -27.07327,-23.57893 41.25686,-51.7492 z"
       id="path2993-7-9-8-5-2"
       inkscape:connector-curvature="0"
       sodipodi:nodetypes="ccccc"
       inkscape:export-filename="C:\Users\Propietario\Desktop\PiXJuegos\ripolles\fpg-sources\jefe1\33.png"
       inkscape:export-xdpi="90"
       inkscape:export-ydpi="90" />
    <path
       style="fill:#0000ff;stroke:#000000;stroke-width:1px;stroke-linecap:butt;stroke-linejoin:round;stroke-opacity:1"
       d="m -640.01437,977.90337 -28.37323,64.11143 -30.16466,10.3654 27.24473,-2.2751 -16.59134,32.6225 18.87084,-24.6105 -5.04041,34.4569 12.28549,-32.1161 0.62105,27.0311 6.80306,-26.1586 8.26004,18.0379 -5.04677,-32.7071 34.01836,-41.1369 z"
       id="path2995-4-4-2-2-3"
       inkscape:connector-curvature="0"
       sodipodi:nodetypes="cccccccccccccc"
       inkscape:export-filename="C:\Users\Propietario\Desktop\PiXJuegos\ripolles\fpg-sources\jefe1\33.png"
       inkscape:export-xdpi="90"
       inkscape:export-ydpi="90" />
    <path
       style="fill:#ff0000;stroke:#000000;stroke-width:1px;stroke-linecap:butt;stroke-linejoin:miter;stroke-opacity:1"
       d="m -426.66591,278.48744 -47.85714,25.71429 -16.42857,-29.36493 65.67095,-25.96683 z"
       id="path2991-2"
       inkscape:connector-curvature="0"
       sodipodi:nodetypes="ccccc"
       inkscape:export-filename="C:\Users\Propietario\Desktop\PiXJuegos\ripolles\fpg-sources\jefe1\3.png"
       inkscape:export-xdpi="90"
       inkscape:export-ydpi="90" />
    <path
       style="fill:#ffff00;stroke:#000000;stroke-width:1px;stroke-linecap:butt;stroke-linejoin:miter;stroke-opacity:1"
       d="m -473.85209,303.86997 -25.75761,47.51051 -28.5281,-21.79622 37.85714,-54.28571 z"
       id="path2993-2"
       inkscape:connector-curvature="0"
       sodipodi:nodetypes="ccccc"
       inkscape:export-filename="C:\Users\Propietario\Desktop\PiXJuegos\ripolles\fpg-sources\jefe1\3.png"
       inkscape:export-xdpi="90"
       inkscape:export-ydpi="90" />
    <path
       style="fill:#0000ff;stroke:#000000;stroke-width:1px;stroke-linecap:butt;stroke-linejoin:round;stroke-opacity:1"
       d="m -527.88527,329.37505 -10.71428,69.28572 -26.42857,17.85714 25.71428,-9.28572 -7.53154,35.81582 11.81726,-28.67296 4.0988,34.58158 3.5058,-34.20649 7.63307,25.93836 -0.23767,-27.02773 12.66896,15.2674 -13.38325,-30.2674 22.14286,-48.57143 z"
       id="path2995-1"
       inkscape:connector-curvature="0"
       sodipodi:nodetypes="cccccccccccccc"
       inkscape:export-filename="C:\Users\Propietario\Desktop\PiXJuegos\ripolles\fpg-sources\jefe1\3.png"
       inkscape:export-xdpi="90"
       inkscape:export-ydpi="90" />
    <path
       style="fill:#ff0000;stroke:#000000;stroke-width:1px;stroke-linecap:butt;stroke-linejoin:miter;stroke-opacity:1"
       d="m -657.13271,262.73807 -42.26829,34.13095 -21.58175,-25.81521 59.7273,-37.67756 z"
       id="path2991-7"
       inkscape:connector-curvature="0"
       sodipodi:nodetypes="ccccc"
       inkscape:export-filename="C:\Users\Propietario\Desktop\PiXJuegos\ripolles\fpg-sources\jefe1\4.png"
       inkscape:export-xdpi="90"
       inkscape:export-ydpi="90" />
    <path
       style="fill:#ffff00;stroke:#000000;stroke-width:1px;stroke-linecap:butt;stroke-linejoin:miter;stroke-opacity:1"
       d="m -698.80307,296.41876 -16.51508,51.45829 -32.07063,-16.13701 27.15089,-60.3567 z"
       id="path2993-6"
       inkscape:connector-curvature="0"
       sodipodi:nodetypes="ccccc"
       inkscape:export-filename="C:\Users\Propietario\Desktop\PiXJuegos\ripolles\fpg-sources\jefe1\4.png"
       inkscape:export-xdpi="90"
       inkscape:export-ydpi="90" />
    <path
       style="fill:#0000ff;stroke:#000000;stroke-width:1px;stroke-linecap:butt;stroke-linejoin:round;stroke-opacity:1"
       d="m -747.17935,331.48769 2.30005,70.07151 -22.66511,22.44191 23.55028,-13.88645 -0.76959,36.59105 6.30377,-30.36525 10.43112,33.22465 -2.88855,-34.26413 12.30386,24.07648 -5.23806,-26.51636 15.27684,12.65759 -18.7562,-27.26595 12.7664,-51.83155 z"
       id="path2995-18"
       inkscape:connector-curvature="0"
       sodipodi:nodetypes="cccccccccccccc"
       inkscape:export-filename="C:\Users\Propietario\Desktop\PiXJuegos\ripolles\fpg-sources\jefe1\4.png"
       inkscape:export-xdpi="90"
       inkscape:export-ydpi="90" />
    <path
       style="fill:#ff0000;stroke:#000000;stroke-width:1px;stroke-linecap:butt;stroke-linejoin:miter;stroke-opacity:1"
       d="m -128.40285,305.04017 -52.89958,12.37602 -8.22186,-32.62818 70.16548,-7.98467 z"
       id="path2991-9"
       inkscape:connector-curvature="0"
       sodipodi:nodetypes="ccccc" />
    <path
       style="fill:#ffff00;stroke:#000000;stroke-width:1px;stroke-linecap:butt;stroke-linejoin:miter;stroke-opacity:1"
       d="m -180.56825,317.27044 -37.2327,39.1718 -21.87401,-28.4685 50.67837,-42.5653 z"
       id="path2993-27"
       inkscape:connector-curvature="0"
       sodipodi:nodetypes="ccccc" />
    <path
       style="fill:#0000ff;stroke:#000000;stroke-width:1px;stroke-linecap:butt;stroke-linejoin:round;stroke-opacity:1"
       d="m -239.37669,327.83744 -28.3735,64.11125 -30.16468,10.36527 27.2447,-2.27496 -16.59146,32.62239 18.87097,-24.61042 -5.04058,34.4569 12.28563,-32.116 0.62093,27.03103 6.80319,-26.15858 8.25996,18.03799 -5.04662,-32.70716 34.01851,-41.13674 z"
       id="path2995-9"
       inkscape:connector-curvature="0"
       sodipodi:nodetypes="cccccccccccccc" />
    <path
       style="fill:#ff0000;stroke:#000000;stroke-width:1px;stroke-linecap:butt;stroke-linejoin:miter;stroke-opacity:1"
       d="m -415.9887,1386.0406 -54.25479,2.8191 -2.31789,-33.5682 70.47104,4.5585 z"
       id="path2991-1-0-15"
       inkscape:connector-curvature="0"
       sodipodi:nodetypes="ccccc"
       inkscape:export-filename="C:\Users\Propietario\Desktop\PiXJuegos\ripolles\fpg-sources\jefe1\51.png"
       inkscape:export-xdpi="90"
       inkscape:export-ydpi="90" />
    <path
       style="fill:#ffff00;stroke:#000000;stroke-width:1px;stroke-linecap:butt;stroke-linejoin:miter;stroke-opacity:1"
       d="m -470.33444,1386.5793 -53.6919,6.1548 1.48909,-35.8707 66.18221,-0.1304 z"
       id="path2993-7-9-9"
       inkscape:connector-curvature="0"
       sodipodi:nodetypes="ccccc"
       inkscape:export-filename="C:\Users\Propietario\Desktop\PiXJuegos\ripolles\fpg-sources\jefe1\51.png"
       inkscape:export-xdpi="90"
       inkscape:export-ydpi="90" />
    <path
       style="fill:#0000ff;stroke:#000000;stroke-width:1px;stroke-linecap:butt;stroke-linejoin:round;stroke-opacity:1"
       d="m -510.13048,1357.1872 -69.74364,7.1511 -23.95877,-21.0552 15.48527,22.5312 -36.55643,1.7683 30.72921,4.184 -32.42185,12.7089 33.98161,-5.2565 -23.16587,13.943 26.08958,-7.0633 -11.5684,16.1174 25.9004,-20.6009 52.5918,9.1433 z"
       id="path2995-4-4-7"
       inkscape:connector-curvature="0"
       sodipodi:nodetypes="cccccccccccccc"
       inkscape:export-filename="C:\Users\Propietario\Desktop\PiXJuegos\ripolles\fpg-sources\jefe1\51.png"
       inkscape:export-xdpi="90"
       inkscape:export-ydpi="90" />
  </g>
</svg>
