<?xml version="1.0" encoding="UTF-8" standalone="no"?>
<!-- Created with Inkscape (http://www.inkscape.org/) -->

<svg
   xmlns:dc="http://purl.org/dc/elements/1.1/"
   xmlns:cc="http://creativecommons.org/ns#"
   xmlns:rdf="http://www.w3.org/1999/02/22-rdf-syntax-ns#"
   xmlns:svg="http://www.w3.org/2000/svg"
   xmlns="http://www.w3.org/2000/svg"
   xmlns:xlink="http://www.w3.org/1999/xlink"
   xmlns:sodipodi="http://sodipodi.sourceforge.net/DTD/sodipodi-0.dtd"
   xmlns:inkscape="http://www.inkscape.org/namespaces/inkscape"
   width="100"
   height="100"
   id="svg2"
   version="1.1"
   inkscape:version="0.48.2 r9819"
   sodipodi:docname="Documento nuevo 1">
  <defs
     id="defs4" />
  <sodipodi:namedview
     id="base"
     pagecolor="#ffffff"
     bordercolor="#666666"
     borderopacity="1.0"
     inkscape:pageopacity="0.0"
     inkscape:pageshadow="2"
     inkscape:zoom="5.6"
     inkscape:cx="14.714166"
     inkscape:cy="49.106599"
     inkscape:document-units="px"
     inkscape:current-layer="layer1"
     showgrid="false"
     inkscape:window-width="1366"
     inkscape:window-height="706"
     inkscape:window-x="-8"
     inkscape:window-y="-8"
     inkscape:window-maximized="1" />
  <metadata
     id="metadata7">
    <rdf:RDF>
      <cc:Work
         rdf:about="">
        <dc:format>image/svg+xml</dc:format>
        <dc:type
           rdf:resource="http://purl.org/dc/dcmitype/StillImage" />
        <dc:title></dc:title>
      </cc:Work>
    </rdf:RDF>
  </metadata>
  <g
     inkscape:label="Capa 1"
     inkscape:groupmode="layer"
     id="layer1"
     transform="translate(0,-952.36218)">
    <path
       style="fill:#ffffff;stroke:#000000;stroke-width:1px;stroke-linecap:butt;stroke-linejoin:miter;stroke-opacity:1"
       d="m 55.892857,66.428571 9.107143,8.75 1.428572,6.607143 -3.035715,7.5 L 52.5,88.928571 l -1.428571,-7.5 -5.535715,-5.714285 c 0,0 -0.892857,-11.428572 -0.178571,-11.428572 0.714286,0 10.535714,2.142857 10.535714,2.142857 z"
       id="path3022"
       inkscape:connector-curvature="0"
       transform="translate(0,952.36218)" />
    <image
       y="950.84436"
       x="-108.58884"
       id="image2993"
       xlink:href="file:///C:/Users/Propietario/Desktop/PiXJuegos/ripolles/fpg-sources/Ripolles/1.png"
       height="100"
       width="100" />
    <path
       style="fill:#ffffff;stroke:#000000;stroke-width:1px;stroke-linecap:butt;stroke-linejoin:miter;stroke-opacity:1"
       d="m 57.486781,39.656076 5.494563,6.805839 11.264868,-0.505076 -1.163342,7.749459 -9.948336,1.84699 -6.060915,-4.545686 z"
       id="path3008"
       inkscape:connector-curvature="0"
       transform="translate(0,952.36218)"
       sodipodi:nodetypes="ccccccc" />
    <path
       style="fill:#ffffff;stroke:#000000;stroke-width:1px;stroke-linecap:butt;stroke-linejoin:miter;stroke-opacity:1"
       d="m 56.568543,51.512678 0.505076,14.142135 -26.263966,0.505077 2.020305,-18.182746 -3.382345,-9.627087 6.917879,-1.989667 16.16244,0 5.076144,2.877268 z"
       id="path3010"
       inkscape:connector-curvature="0"
       transform="translate(0,952.36218)"
       sodipodi:nodetypes="ccccccccc" />
    <path
       style="fill:#ffccaa;stroke:#000000;stroke-width:1px;stroke-linecap:butt;stroke-linejoin:miter;stroke-opacity:1"
       d="m 50.760165,14.010764 c 1.515229,2.525382 4.798225,19.824244 4.798225,19.824244 -6.877012,6.049397 -12.986662,6.727257 -18.435284,2.77792 L 31.819805,21.208101 z"
       id="path2998"
       inkscape:connector-curvature="0"
       transform="translate(0,952.36218)"
       sodipodi:nodetypes="ccccc" />
    <path
       style="fill:#ffffff;stroke:#000000;stroke-width:1px;stroke-linecap:butt;stroke-linejoin:miter;stroke-opacity:1"
       d="m 29.712842,38.171485 -11.552386,5.855725 -0.686739,8.592791 6.116935,3.407726 5.703772,-7.545507 c -5.531686,-4.027782 -4.352715,2.933972 3.535534,-1.010152 z"
       id="path3006"
       inkscape:connector-curvature="0"
       transform="translate(0,952.36218)"
       sodipodi:nodetypes="ccccccc" />
    <path
       style="fill:#ffffff;stroke:#000000;stroke-width:1px;stroke-linecap:butt;stroke-linejoin:miter;stroke-opacity:1"
       d="M 31.314729,66.664966 28.284271,74.24111 34.850263,78.786797 27.779195,89.393398 37.88072,92.928932 47.982246,82.827407 46.467017,71.715729 46.340748,66.03362 z"
       id="path3012"
       inkscape:connector-curvature="0"
       transform="translate(0,952.36218)"
       sodipodi:nodetypes="ccccccccc" />
    <path
       style="fill:#808080;stroke:#000000;stroke-width:1px;stroke-linecap:butt;stroke-linejoin:miter;stroke-opacity:1"
       d="m 26.263966,88.888322 -3.535534,8.586297 16.667517,2.020305 4.545687,-7.576144 z"
       id="path3014"
       inkscape:connector-curvature="0"
       transform="translate(0,952.36218)" />
    <path
       style="fill:#808080;stroke:#000000;stroke-width:1px;stroke-linecap:butt;stroke-linejoin:miter;stroke-opacity:1"
       d="m 52.022856,89.393398 -2.020305,8.586297 15.152288,1.515229 3.535534,-9.091373 z"
       id="path3016"
       inkscape:connector-curvature="0"
       transform="translate(0,952.36218)" />
    <path
       style="fill:none;stroke:#000000;stroke-width:1px;stroke-linecap:butt;stroke-linejoin:miter;stroke-opacity:1"
       d="m 40.911178,21.713178 3.535534,0"
       id="path3018"
       inkscape:connector-curvature="0"
       transform="translate(0,952.36218)" />
    <path
       style="fill:none;stroke:#000000;stroke-width:1px;stroke-linecap:butt;stroke-linejoin:miter;stroke-opacity:1"
       d="m 48.487322,21.713178 4.545687,-0.505077"
       id="path3020"
       inkscape:connector-curvature="0"
       transform="translate(0,952.36218)" />
    <path
       style="fill:#cccccc;stroke:#000000;stroke-width:1px;stroke-linecap:butt;stroke-linejoin:miter;stroke-opacity:1"
       d="m 33.335034,21.208101 8.829861,8.146213 10.363259,-0.220874 1.009931,-5.051787 c 5.46971,12.576037 -1.486709,19.156749 -7.649103,17.18043 -2.234558,-0.716637 -5.460786,-2.29659 -6.75164,-5.528179 z"
       id="path3000"
       inkscape:connector-curvature="0"
       transform="translate(0,952.36218)"
       sodipodi:nodetypes="ccccssc" />
    <path
       style="fill:#ffccaa;stroke:#000000;stroke-width:1px;stroke-linecap:butt;stroke-linejoin:miter;stroke-opacity:1"
       d="m 24.243661,46.461915 -1.515229,7.576144 c 0,0 6.060916,7.071068 7.576144,5.050763 1.515229,-2.020305 4.040611,-10.101526 4.040611,-10.101526 z"
       id="path3002"
       inkscape:connector-curvature="0"
       transform="translate(0,952.36218)" />
    <path
       style="fill:#ffccaa;stroke:#000000;stroke-width:1px;stroke-linecap:butt;stroke-linejoin:miter;stroke-opacity:1"
       d="m 67.669708,993.88537 -3.030458,6.56603 9.091373,7.5761 5.050763,-9.59643 z"
       id="path3004"
       inkscape:connector-curvature="0" />
    <path
       style="fill:#ffffff;stroke:#000000;stroke-width:1px;stroke-linecap:butt;stroke-linejoin:miter;stroke-opacity:1"
       d="m 51.391511,14.51584 c -6.613686,3.47505 -14.032378,6.405415 -20.581858,7.197338 -2.003494,-5.9538 0.903933,-9.71597 2.525381,-12.3743689 7.792969,-1.304055 17.043403,2.2629169 18.056477,5.1770309 z"
       id="path2996"
       inkscape:connector-curvature="0"
       transform="translate(0,952.36218)"
       sodipodi:nodetypes="cccc" />
  </g>
</svg>
