<?xml version="1.0" encoding="UTF-8" standalone="no"?>
<!-- Created with Inkscape (http://www.inkscape.org/) -->

<svg
   xmlns:dc="http://purl.org/dc/elements/1.1/"
   xmlns:cc="http://creativecommons.org/ns#"
   xmlns:rdf="http://www.w3.org/1999/02/22-rdf-syntax-ns#"
   xmlns:svg="http://www.w3.org/2000/svg"
   xmlns="http://www.w3.org/2000/svg"
   xmlns:xlink="http://www.w3.org/1999/xlink"
   xmlns:sodipodi="http://sodipodi.sourceforge.net/DTD/sodipodi-0.dtd"
   xmlns:inkscape="http://www.inkscape.org/namespaces/inkscape"
   width="210mm"
   height="297mm"
   id="svg2"
   sodipodi:version="0.32"
   inkscape:version="0.48.0 r9654"
   sodipodi:docname="calavera.svg"
   inkscape:output_extension="org.inkscape.output.svg.inkscape"
   version="1.1">
  <defs
     id="defs4">
    <inkscape:perspective
       sodipodi:type="inkscape:persp3d"
       inkscape:vp_x="0 : 526.18109 : 1"
       inkscape:vp_y="0 : 1000 : 0"
       inkscape:vp_z="744.09448 : 526.18109 : 1"
       inkscape:persp3d-origin="372.04724 : 350.78739 : 1"
       id="perspective10" />
    <inkscape:perspective
       id="perspective2428"
       inkscape:persp3d-origin="372.04724 : 350.78739 : 1"
       inkscape:vp_z="744.09448 : 526.18109 : 1"
       inkscape:vp_y="0 : 1000 : 0"
       inkscape:vp_x="0 : 526.18109 : 1"
       sodipodi:type="inkscape:persp3d" />
    <inkscape:perspective
       id="perspective3215"
       inkscape:persp3d-origin="372.04724 : 350.78739 : 1"
       inkscape:vp_z="744.09448 : 526.18109 : 1"
       inkscape:vp_y="0 : 1000 : 0"
       inkscape:vp_x="0 : 526.18109 : 1"
       sodipodi:type="inkscape:persp3d" />
    <linearGradient
       id="linearGradient5873">
      <stop
         style="stop-color:#ffbe00;stop-opacity:1.0000000;"
         offset="0.0000000"
         id="stop5875" />
      <stop
         style="stop-color:#ff0000;stop-opacity:1.0000000;"
         offset="1.0000000"
         id="stop5877" />
    </linearGradient>
    <radialGradient
       inkscape:collect="always"
       xlink:href="#linearGradient2932"
       id="radialGradient5880"
       cx="868.15033"
       cy="78.361816"
       fx="868.15033"
       fy="78.361816"
       r="24.011301"
       gradientTransform="matrix(1,0,0,1.110433,0,-8.653761)"
       gradientUnits="userSpaceOnUse" />
    <linearGradient
       id="linearGradient2932">
      <stop
         style="stop-color:#ffbe00;stop-opacity:1.0000000;"
         offset="0.0000000"
         id="stop2934" />
      <stop
         style="stop-color:#ff0000;stop-opacity:1.0000000;"
         offset="1.0000000"
         id="stop2936" />
    </linearGradient>
    <radialGradient
       inkscape:collect="always"
       xlink:href="#linearGradient2932"
       id="radialGradient2961"
       cx="868.15033"
       cy="78.361816"
       fx="868.15033"
       fy="78.361816"
       r="24.011301"
       gradientTransform="matrix(1,0,0,1.110433,0,-8.653761)"
       gradientUnits="userSpaceOnUse" />
    <inkscape:perspective
       id="perspective3123"
       inkscape:persp3d-origin="156.01973 : 90.563772 : 1"
       inkscape:vp_z="312.03946 : 135.84566 : 1"
       inkscape:vp_y="0 : 1000 : 0"
       inkscape:vp_x="0 : 135.84566 : 1"
       sodipodi:type="inkscape:persp3d" />
    <filter
       color-interpolation-filters="sRGB"
       inkscape:collect="always"
       id="filter4261"
       x="-0.053380128"
       width="1.1067603"
       y="-0.11056792"
       height="1.2211359">
      <feGaussianBlur
         inkscape:collect="always"
         stdDeviation="1.628461"
         id="feGaussianBlur4263" />
    </filter>
    <filter
       color-interpolation-filters="sRGB"
       inkscape:collect="always"
       id="filter4285">
      <feGaussianBlur
         inkscape:collect="always"
         stdDeviation="1.4314626"
         id="feGaussianBlur4287" />
    </filter>
  </defs>
  <sodipodi:namedview
     id="base"
     pagecolor="#ffffff"
     bordercolor="#666666"
     borderopacity="1.0"
     inkscape:pageopacity="0.0"
     inkscape:pageshadow="2"
     inkscape:zoom="0.35"
     inkscape:cx="-200.24762"
     inkscape:cy="714.43161"
     inkscape:document-units="px"
     inkscape:current-layer="layer1"
     showgrid="false"
     inkscape:window-width="1366"
     inkscape:window-height="706"
     inkscape:window-x="-8"
     inkscape:window-y="-8"
     showguides="true"
     inkscape:guide-bbox="true"
     inkscape:window-maximized="1" />
  <metadata
     id="metadata7">
    <rdf:RDF>
      <cc:Work
         rdf:about="">
        <dc:format>image/svg+xml</dc:format>
        <dc:type
           rdf:resource="http://purl.org/dc/dcmitype/StillImage" />
      </cc:Work>
    </rdf:RDF>
  </metadata>
  <g
     inkscape:label="Capa 1"
     inkscape:groupmode="layer"
     id="layer1">
    <g
       id="g4546"
       transform="matrix(0.9791007,0.2033759,-0.2033759,0.9791007,-1297.0661,-3.0183316)"
       style="stroke-width:5;stroke-linecap:round;stroke-miterlimit:4;stroke-dasharray:none"
       inkscape:export-filename="D:\bennu\PiX Juegos\calavera.png"
       inkscape:export-xdpi="100"
       inkscape:export-ydpi="100">
      <path
         sodipodi:nodetypes="csssscssssc"
         id="path3155"
         d="m 127.81758,649.11577 c -22.20774,-15.30957 -25.21889,-53.47933 16.62472,-62.14859 35.40738,-7.33579 59.32794,3.38938 103.54213,-29.53139 L 511.99648,360.85908 c 47.77312,-35.57065 31.415,-81.13679 66.24954,-93.5953 39.38747,-14.08686 50.22728,15.19362 51.20626,36.94006 21.76391,6.01366 34.8185,21.98636 17.70885,48.56027 -20.57817,31.96105 -73.74453,0.18897 -115.32093,31.53138 L 269.53567,582.03397 c -48.9877,36.92942 -40.14632,51.25899 -61.38303,88.08107 -29.93021,51.89562 -99.24635,14.85042 -80.33506,-20.99927 z"
         style="fill:#ffffff;fill-rule:evenodd;stroke:#000000;stroke-width:5;stroke-linecap:round;stroke-linejoin:miter;stroke-miterlimit:4;stroke-opacity:1;stroke-dasharray:none"
         inkscape:connector-curvature="0" />
      <path
         sodipodi:nodetypes="cc"
         id="path2434"
         d="m 127.85714,649.1479 c 5.34252,-13.81161 19.47421,-19.54373 27.5,-20.71429"
         style="fill:none;stroke:#000000;stroke-width:5;stroke-linecap:round;stroke-linejoin:miter;stroke-miterlimit:4;stroke-opacity:1;stroke-dasharray:none"
         inkscape:connector-curvature="0" />
      <path
         sodipodi:nodetypes="cc"
         id="path3206"
         d="m 587.40374,324.20919 c 5.34251,-13.81162 25.78765,-24.5945 41.89467,-20.20922"
         style="fill:none;stroke:#000000;stroke-width:5;stroke-linecap:round;stroke-linejoin:miter;stroke-miterlimit:4;stroke-opacity:1;stroke-dasharray:none"
         inkscape:connector-curvature="0" />
    </g>
    <g
       id="g4551"
       transform="matrix(-0.9515427,0.3075168,0.3075168,0.9515427,-815.58083,-24.756059)"
       style="stroke-width:5;stroke-linecap:round;stroke-miterlimit:4;stroke-dasharray:none"
       inkscape:export-filename="D:\bennu\PiX Juegos\calavera.png"
       inkscape:export-xdpi="100"
       inkscape:export-ydpi="100">
      <path
         sodipodi:nodetypes="csssscssssc"
         id="path4553"
         d="m 127.81758,649.11577 c -22.20774,-15.30957 -25.21889,-53.47933 16.62472,-62.14859 35.40738,-7.33579 59.32794,3.38938 103.54213,-29.53139 L 511.99648,360.85908 c 47.77312,-35.57065 31.415,-81.13679 66.24954,-93.5953 39.38747,-14.08686 50.22728,15.19362 51.20626,36.94006 21.76391,6.01366 34.8185,21.98636 17.70885,48.56027 -20.57817,31.96105 -73.74453,0.18897 -115.32093,31.53138 L 269.53567,582.03397 c -48.9877,36.92942 -40.14632,51.25899 -61.38303,88.08107 -29.93021,51.89562 -99.24635,14.85042 -80.33506,-20.99927 z"
         style="fill:#ffffff;fill-rule:evenodd;stroke:#000000;stroke-width:5;stroke-linecap:round;stroke-linejoin:miter;stroke-miterlimit:4;stroke-opacity:1;stroke-dasharray:none"
         inkscape:connector-curvature="0" />
      <path
         sodipodi:nodetypes="cc"
         id="path4555"
         d="m 127.85714,649.1479 c 5.34252,-13.81161 19.47421,-19.54373 27.5,-20.71429"
         style="fill:none;stroke:#000000;stroke-width:5;stroke-linecap:round;stroke-linejoin:miter;stroke-miterlimit:4;stroke-opacity:1;stroke-dasharray:none"
         inkscape:connector-curvature="0" />
      <path
         sodipodi:nodetypes="cc"
         id="path4557"
         d="m 587.40374,324.20919 c 5.34251,-13.81162 25.78765,-24.5945 41.89467,-20.20922"
         style="fill:none;stroke:#000000;stroke-width:5;stroke-linecap:round;stroke-linejoin:miter;stroke-miterlimit:4;stroke-opacity:1;stroke-dasharray:none"
         inkscape:connector-curvature="0" />
    </g>
    <path
       style="fill:#ffffff;fill-rule:evenodd;stroke:#000000;stroke-width:5;stroke-linecap:round;stroke-linejoin:miter;stroke-miterlimit:4;stroke-opacity:1;stroke-dasharray:none"
       d="m -1133.7477,494.68551 c -21.1282,201.88199 263.05438,195.34633 222.7725,-14.51008 -11.94952,-16.21716 -222.7725,12.80301 -222.7725,14.51008 z"
       id="path4530"
       sodipodi:nodetypes="ccc"
       inkscape:export-filename="D:\bennu\PiX Juegos\calavera.png"
       inkscape:export-xdpi="100"
       inkscape:export-ydpi="100"
       inkscape:connector-curvature="0" />
    <path
       style="fill:#000000;fill-rule:evenodd;stroke:#000000;stroke-width:5;stroke-linecap:round;stroke-linejoin:miter;stroke-miterlimit:4;stroke-opacity:1;stroke-dasharray:none"
       d="m -1028.8213,511.19938 c 0.9983,55.66307 -92.3183,15.69656 -92.6098,-11.81439 -0.2915,-27.50633 91.6119,-43.82874 92.6098,11.81439 z"
       id="path5331"
       sodipodi:nodetypes="czz"
       inkscape:export-filename="D:\bennu\PiX Juegos\calavera.png"
       inkscape:export-xdpi="100"
       inkscape:export-ydpi="100"
       inkscape:connector-curvature="0" />
    <path
       style="fill:#000000;fill-rule:evenodd;stroke:#000000;stroke-width:5;stroke-linecap:round;stroke-linejoin:miter;stroke-miterlimit:4;stroke-opacity:1;stroke-dasharray:none"
       d="m -1013.8725,510.16142 c -0.9983,55.66307 92.31826,15.69656 92.6098,-11.81439 0.29155,-27.50633 -91.6119,-43.82874 -92.6098,11.81439 z"
       id="path4534"
       sodipodi:nodetypes="czz"
       inkscape:export-filename="D:\bennu\PiX Juegos\calavera.png"
       inkscape:export-xdpi="100"
       inkscape:export-ydpi="100"
       inkscape:connector-curvature="0" />
    <path
       style="fill:#b3b3b3;fill-rule:evenodd;stroke:#000000;stroke-width:5;stroke-linecap:round;stroke-linejoin:miter;stroke-miterlimit:4;stroke-opacity:1;stroke-dasharray:none"
       d="m -863.72645,498.27262 c -108.09611,-30.99909 -252.26985,12.80635 -333.18305,-7.58022 29.1042,-11.41245 68.1106,-53.61682 68.1106,-53.61682 0,0 51.5968,-106.64532 116.4919,-107.31225 87.55496,-0.89983 94.49359,85.77977 95.45694,101.09424 9.82397,9.82387 47.29995,56.86347 53.12361,67.41505 z"
       id="path4536"
       sodipodi:nodetypes="cccscc"
       inkscape:export-filename="D:\bennu\PiX Juegos\calavera.png"
       inkscape:export-xdpi="100"
       inkscape:export-ydpi="100"
       inkscape:connector-curvature="0" />
    <path
       style="fill:none;stroke:#000000;stroke-width:5;stroke-linecap:round;stroke-linejoin:miter;stroke-miterlimit:4;stroke-opacity:1;stroke-dasharray:none"
       d="m -1112.5182,436.21887 c 50.5141,13.02879 127.40088,-13.05405 180.43626,-5.64363"
       id="path4538"
       sodipodi:nodetypes="cc"
       inkscape:export-filename="D:\bennu\PiX Juegos\calavera.png"
       inkscape:export-xdpi="100"
       inkscape:export-ydpi="100"
       inkscape:connector-curvature="0" />
    <g
       id="g4540"
       transform="matrix(2.9273323,0,0,2.9273323,-1718.0101,-804.75337)"
       inkscape:export-filename="D:\bennu\PiX Juegos\calavera.png"
       inkscape:export-xdpi="100"
       inkscape:export-ydpi="100"
       style="stroke-width:1.70803976;stroke-linecap:round;stroke-miterlimit:4;stroke-dasharray:none">
      <path
         sodipodi:nodetypes="cssc"
         id="path4542"
         d="m 263,478.36218 c -25.875,8.875 -33.74946,-14.48665 -44.5,-14.25 -19.06196,0.4196 -9.0625,20.21875 2.25,25.375 9.89673,4.51094 24.125,-1.25 42.25,-11.125 z"
         style="fill:#ffffff;fill-opacity:1;fill-rule:evenodd;stroke:#000000;stroke-width:1.70803976;stroke-linecap:round;stroke-linejoin:miter;stroke-miterlimit:4;stroke-opacity:1;stroke-dasharray:none"
         inkscape:connector-curvature="0" />
      <path
         id="path4544"
         d="m 208,473.23718 c 21.875,23 52,6.375 52,6.375 m -45.875,-6 c -1.5,4.125 -0.875,7.375 -0.875,7.375 m 8.125,-2.75 -1.5,6.5 m 7.875,-2.625 -0.625,4.125"
         style="fill:none;stroke:#000000;stroke-width:1.70803976;stroke-linecap:round;stroke-linejoin:miter;stroke-miterlimit:4;stroke-opacity:1;stroke-dasharray:none"
         inkscape:connector-curvature="0" />
    </g>
    <path
       inkscape:connector-curvature="0"
       style="fill:#333333;fill-rule:evenodd;stroke:#000000;stroke-width:0.57732111px;stroke-linecap:butt;stroke-linejoin:miter;stroke-opacity:1"
       d="m -1503.7415,-768.08103 c 118.7632,-72.57749 415.6712,-173.19627 560.82616,-84.12389 145.155,89.07249 529.48588,84.12389 585.56858,42.8868 -113.1194,278.94603 67.8972,566.07728 62.6805,664.74399 -48.5222,37.26792 -517.05498,98.758189 -593.81588,62.680579 -164.94886,-77.525989 -440.41356,-41.237219 -550.92926,6.59795 63.5521,-149.946769 39.7361,-662.764129 -64.3301,-692.785429 z"
       id="path3937"
       sodipodi:nodetypes="ccccscc" />
    <path
       inkscape:connector-curvature="0"
       style="fill:none;stroke:#000000;stroke-width:6;stroke-linecap:round;stroke-linejoin:miter;stroke-miterlimit:4;stroke-opacity:1;stroke-dasharray:none"
       d="M 37.300093,412.01748"
       id="path3929"
       sodipodi:nodetypes="cc" />
    <g
       id="g3973"
       transform="matrix(3.2709882,0,0,3.2709882,-428.83153,-1182.8438)"
       inkscape:export-filename="C:\Users\panreyes\Desktop\calavera.png"
       inkscape:export-xdpi="99.95723"
       inkscape:export-ydpi="99.95723"
       style="fill:#666666">
      <path
         inkscape:connector-curvature="0"
         id="path3975"
         d="m 198.25,449.36218 -2.75,41 11,-9 1.25,8.5 3.25,-4.25 6.5,7 10.75,-4.5 25.5,6.75 5,-7.75 3.5,10.5 6,-17.5 4.75,17.25 1.5,-19.25 4.25,12.25 -1.5,-42.75 -79,1.75 z"
         style="fill:#666666;fill-opacity:1;fill-rule:evenodd;stroke:#000000;stroke-width:2.34303832;stroke-linecap:butt;stroke-linejoin:miter;stroke-miterlimit:4;stroke-opacity:1;stroke-dasharray:none" />
      <path
         inkscape:connector-curvature="0"
         style="fill:#666666;fill-opacity:1;fill-rule:evenodd;stroke:#000000;stroke-width:2.34303832;stroke-linecap:butt;stroke-linejoin:miter;stroke-miterlimit:4;stroke-opacity:1;stroke-dasharray:none"
         d="m 277.5,440.5824 8.68142,19.27978 -8.49996,-9.70102 L 277.5,440.5824 z"
         id="path3977"
         sodipodi:nodetypes="cccc" />
      <path
         inkscape:connector-curvature="0"
         sodipodi:nodetypes="cccc"
         id="path3979"
         d="m 198.09327,442.17322 -8.68142,19.27978 8.49996,-9.70102 0.18146,-9.57876 z"
         style="fill:#666666;fill-opacity:1;fill-rule:evenodd;stroke:#000000;stroke-width:2.34303832;stroke-linecap:butt;stroke-linejoin:miter;stroke-miterlimit:4;stroke-opacity:1;stroke-dasharray:none" />
    </g>
    <path
       inkscape:connector-curvature="0"
       style="fill:#ffffff;fill-opacity:1;fill-rule:evenodd;stroke:#000000;stroke-width:7.66405106;stroke-miterlimit:4;stroke-opacity:1;stroke-dasharray:none;stroke-dashoffset:0"
       d="m 480.03599,310.84568 c -0.037,65.27399 -61.5301,132.07447 -140.784,130.88034 -78.4362,-1.19422 -138.5814,-119.50699 -113.7981,-206.81794 16.0201,-50.6878 54.998,-101.7138 111.164,-108.101 53.4398,-6.09379 99.5414,35.0348 120.6635,80.8629 15.5496,31.9864 22.7377,67.70817 22.7546,103.1757 z"
       id="path3981"
       sodipodi:nodetypes="czcccc"
       inkscape:export-filename="C:\Users\panreyes\Desktop\calavera.png"
       inkscape:export-xdpi="99.95723"
       inkscape:export-ydpi="99.95723" />
    <path
       inkscape:connector-curvature="0"
       style="fill:#000000;fill-opacity:0.67727272;fill-rule:evenodd;stroke:#000000;stroke-width:7.66405058;stroke-linecap:butt;stroke-linejoin:miter;stroke-miterlimit:4;stroke-opacity:1;stroke-dasharray:none"
       d="m 476.00679,251.13838 c -49.7004,-33.7178 -138.8087,-17.4348 -125.9975,43.1255 12.8069,60.53986 175.698,-9.4078 125.9975,-43.1255 z"
       id="path3983"
       sodipodi:nodetypes="czz"
       inkscape:export-filename="C:\Users\panreyes\Desktop\calavera.png"
       inkscape:export-xdpi="99.95723"
       inkscape:export-ydpi="99.95723" />
    <g
       id="g3985"
       transform="matrix(3.2709882,0,0,3.2709882,-297.99203,-1177.2457)"
       style="fill:#000000"
       inkscape:export-filename="C:\Users\panreyes\Desktop\calavera.png"
       inkscape:export-xdpi="99.95723"
       inkscape:export-ydpi="99.95723">
      <path
         inkscape:connector-curvature="0"
         id="path3987"
         d="m 225.75,437.61218 -15.02602,13.78858"
         style="fill:#000000;fill-opacity:0.75;fill-rule:evenodd;stroke:#ffffff;stroke-width:1.17151916;stroke-linecap:butt;stroke-linejoin:miter;stroke-miterlimit:4;stroke-opacity:1;stroke-dasharray:none" />
      <path
         inkscape:connector-curvature="0"
         style="fill:#000000;fill-opacity:0.75;fill-rule:evenodd;stroke:#ffffff;stroke-width:1.17151916;stroke-linecap:butt;stroke-linejoin:miter;stroke-miterlimit:4;stroke-opacity:1;stroke-dasharray:none"
         d="m 222.75,435.3236 -15.02602,13.78858"
         id="path3989" />
    </g>
    <path
       inkscape:connector-curvature="0"
       sodipodi:nodetypes="czz"
       id="path3991"
       d="m 217.51439,251.13838 c 49.7004,-33.7178 138.8087,-17.4348 125.9976,43.1255 -12.8069,60.53986 -175.698,-9.4078 -125.9976,-43.1255 z"
       style="fill:#000000;fill-opacity:0.67727272;fill-rule:evenodd;stroke:#000000;stroke-width:7.66405058;stroke-linecap:butt;stroke-linejoin:miter;stroke-miterlimit:4;stroke-opacity:1;stroke-dasharray:none"
       inkscape:export-filename="C:\Users\panreyes\Desktop\calavera.png"
       inkscape:export-xdpi="99.95723"
       inkscape:export-ydpi="99.95723" />
    <g
       id="g3993"
       transform="matrix(3.2709882,0,0,3.2709882,-428.83153,-1177.2457)"
       style="fill:#000000"
       inkscape:export-filename="C:\Users\panreyes\Desktop\calavera.png"
       inkscape:export-xdpi="99.95723"
       inkscape:export-ydpi="99.95723">
      <path
         inkscape:connector-curvature="0"
         style="fill:#000000;fill-opacity:0.75;fill-rule:evenodd;stroke:#ffffff;stroke-width:1.17151916;stroke-linecap:butt;stroke-linejoin:miter;stroke-miterlimit:4;stroke-opacity:1;stroke-dasharray:none"
         d="m 225.75,437.61218 -15.02602,13.78858"
         id="path3995" />
      <path
         inkscape:connector-curvature="0"
         id="path3997"
         d="m 222.75,435.3236 -15.02602,13.78858"
         style="fill:#000000;fill-opacity:0.75;fill-rule:evenodd;stroke:#ffffff;stroke-width:1.17151916;stroke-linecap:butt;stroke-linejoin:miter;stroke-miterlimit:4;stroke-opacity:1;stroke-dasharray:none" />
    </g>
    <g
       id="g3999"
       transform="matrix(3.2709882,0,0,3.2709882,-392.85113,-1174.454)"
       inkscape:export-filename="C:\Users\panreyes\Desktop\calavera.png"
       inkscape:export-xdpi="99.95723"
       inkscape:export-ydpi="99.95723"
       style="fill:#74975e;fill-opacity:1">
      <path
         inkscape:connector-curvature="0"
         sodipodi:nodetypes="czcczcc"
         id="path4001"
         d="m 191.40932,423.83095 c 23.5113,-42.24963 40.39348,-40.23879 55.50788,-31.99658 15.26545,8.32458 13.08147,29.34493 13.08147,29.34493 11.49049,11.84404 16.44024,14.67247 16.44024,14.67247 -15.02602,4.77297 -31.73141,8.77255 -59.39697,5.48008 -27.70924,-3.29766 -41.0122,-0.70711 -41.0122,-0.70711 l 15.37958,-16.79379 z"
         style="fill:#74975e;fill-opacity:1;fill-rule:evenodd;stroke:#000000;stroke-width:2.34303832;stroke-linecap:butt;stroke-linejoin:miter;stroke-miterlimit:4;stroke-opacity:1;stroke-dasharray:none" />
      <path
         inkscape:connector-curvature="0"
         id="path4003"
         d="m 200.5,423.36218 c 22.5,5.5 42.5,1.5 42.5,1.5"
         style="fill:#74975e;fill-opacity:1;fill-rule:evenodd;stroke:#000000;stroke-width:0.58575959pt;stroke-linecap:butt;stroke-linejoin:miter;stroke-opacity:1" />
    </g>
    <path
       inkscape:connector-curvature="0"
       style="fill:#ffffff;fill-rule:evenodd;stroke:#000000;stroke-width:7;stroke-linecap:round;stroke-linejoin:miter;stroke-miterlimit:4;stroke-opacity:1;stroke-dasharray:none"
       d="m 76.889193,427.9038 c -6.9415,-20.23279 -3.6456,-51.59127 31.734597,-53.91913 36.3131,-2.38923 45.9211,42.01284 98.2133,59.45395 l 312.2479,104.14437 c 56.5014,18.84498 80.5099,-12.41451 110.6524,9.03521 34.0821,24.25325 16.2626,49.89139 -1.0162,63.13175 7.5142,21.29242 1.8779,41.13636 -29.7063,42.29941 -37.987,1.39882 -44.3732,-54.67856 -93.8621,-70.85856 L 192.92849,479.11155 c -40.7383,-13.31907 -92.5819,23.21172 -120.802397,-2.77307 -18.3495,-16.89564 -12.2261,-38.32671 4.7631,-48.43468 z"
       id="path4005"
       sodipodi:nodetypes="czssscssssc"
       inkscape:export-filename="C:\Users\panreyes\Desktop\calavera.png"
       inkscape:export-xdpi="99.95723"
       inkscape:export-ydpi="99.95723" />
    <path
       inkscape:connector-curvature="0"
       style="opacity:0.34482757;fill:#000000;fill-opacity:1;fill-rule:evenodd;stroke:none;filter:url(#filter4261)"
       d="m 2893.9896,-614.26818 c 61.6738,13.89157 55.6226,-32.21438 109.4454,-61.17848 6.0452,-3.25317 313.9985,-117.9119 322.8554,-121.0552 30.217,-10.72397 97.1397,9.41192 127.5186,-10.80081 -6.9244,15.95788 -9.7543,24.62861 -36.1072,24.84485 -11.0502,-1.53092 -66.7883,-9.45389 -89.9082,-3.67198 -9.771,2.44357 -302.7417,114.59569 -321.6987,121.22093 -10.0494,5.86204 -49.7163,75.58468 -76.727,71.53708 -33.0968,-4.95965 -25.5663,-0.35744 -35.3783,-20.89639 z"
       id="path4033"
       sodipodi:nodetypes="cssccscsc"
       transform="matrix(-0.9990448,0.04369849,0.04369849,0.9990448,3547.9397,1116.6165)"
       inkscape:export-filename="C:\Users\panreyes\Desktop\calavera.png"
       inkscape:export-xdpi="99.95723"
       inkscape:export-ydpi="99.95723" />
    <path
       inkscape:connector-curvature="0"
       style="fill:#ffffff;fill-rule:evenodd;stroke:#000000;stroke-width:7;stroke-linecap:round;stroke-linejoin:miter;stroke-miterlimit:4;stroke-opacity:1;stroke-dasharray:none"
       d="m 629.47019,413.69898 c 6.0489,-20.51732 1.3831,-51.70141 -34.0651,-52.47789 -36.3828,-0.79694 -44.0374,43.98324 -95.5158,63.69728 l -307.3884,117.71654 c -55.622,21.30087 -80.9763,-8.87741 -110.150697,13.87156 -32.9875,25.7223 -14.0625,50.55561 3.7795,63.0267 -6.5747,21.60102 -0.075,41.17913 31.529897,40.95813 38.0119,-0.26582 41.9366,-56.56904 90.6696,-74.90044 L 515.78439,469.9385 c 40.116,-15.09006 93.5093,19.13569 120.5651,-8.05984 17.592,-17.68289 10.5362,-38.82529 -6.8793,-48.17968 z"
       id="path4007"
       sodipodi:nodetypes="czssscssssc"
       inkscape:export-filename="C:\Users\panreyes\Desktop\calavera.png"
       inkscape:export-xdpi="99.95723"
       inkscape:export-ydpi="99.95723" />
    <path
       inkscape:connector-curvature="0"
       style="fill:#000000;fill-rule:evenodd;stroke:#000000;stroke-width:1.78855383px;stroke-linecap:butt;stroke-linejoin:miter;stroke-opacity:1"
       d="m 349.59979,318.42581 c -9.5002,16.47264 -24.5268,36.1093 2.3625,36.41863 26.8919,0.30933 9.1346,-20.8164 -2.3625,-36.41863 z"
       id="path4009"
       sodipodi:nodetypes="czc"
       inkscape:export-filename="C:\Users\panreyes\Desktop\calavera.png"
       inkscape:export-xdpi="99.95723"
       inkscape:export-ydpi="99.95723" />
    <path
       inkscape:connector-curvature="0"
       style="fill:none;stroke:#000000;stroke-width:6;stroke-linecap:round;stroke-linejoin:miter;stroke-miterlimit:4;stroke-opacity:1;stroke-dasharray:none"
       d="m 295.71459,390.00524 111.3135,-0.29587"
       id="path4011"
       sodipodi:nodetypes="cc"
       inkscape:export-filename="C:\Users\panreyes\Desktop\calavera.png"
       inkscape:export-xdpi="99.95723"
       inkscape:export-ydpi="99.95723" />
    <path
       inkscape:connector-curvature="0"
       style="fill:none;stroke:#000000;stroke-width:6;stroke-linecap:round;stroke-linejoin:miter;stroke-miterlimit:4;stroke-opacity:1;stroke-dasharray:none"
       d="m 351.35489,380.46264 0.087,17.43128"
       id="path4013"
       sodipodi:nodetypes="cc"
       inkscape:export-filename="C:\Users\panreyes\Desktop\calavera.png"
       inkscape:export-xdpi="99.95723"
       inkscape:export-ydpi="99.95723" />
    <path
       inkscape:connector-curvature="0"
       style="fill:none;stroke:#000000;stroke-width:6;stroke-linecap:round;stroke-linejoin:miter;stroke-miterlimit:4;stroke-opacity:1;stroke-dasharray:none"
       d="m 379.88679,381.07611 c 0.09,11.53662 0.1803,8.39112 0.2704,17.39524"
       id="path4015"
       sodipodi:nodetypes="cc"
       inkscape:export-filename="C:\Users\panreyes\Desktop\calavera.png"
       inkscape:export-xdpi="99.95723"
       inkscape:export-ydpi="99.95723" />
    <path
       inkscape:connector-curvature="0"
       style="opacity:0.34482757;fill:#000000;fill-opacity:1;fill-rule:evenodd;stroke:none;filter:url(#filter4261)"
       d="m 85.036193,640.30674 c 61.673797,13.89157 55.622597,-32.21438 109.445397,-61.17848 6.0452,-3.25317 313.9985,-117.9119 322.8554,-121.0552 30.217,-10.72397 97.1397,9.41192 127.5186,-10.80081 -6.9244,15.95788 -9.7543,24.62861 -36.1072,24.84485 -11.0502,-1.53092 -66.7883,-9.45389 -89.9082,-3.67198 -9.771,2.44357 -302.7417,114.59569 -321.6987,121.22093 -10.0494,5.86204 -49.7163,75.58468 -76.727,71.53708 -33.096797,-4.95965 -25.566297,-0.35744 -35.378297,-20.89639 z"
       id="path4017"
       sodipodi:nodetypes="cssccscsc"
       inkscape:export-filename="C:\Users\panreyes\Desktop\calavera.png"
       inkscape:export-xdpi="99.95723"
       inkscape:export-ydpi="99.95723" />
    <path
       inkscape:connector-curvature="0"
       style="opacity:0.31417625;fill:#000000;fill-opacity:1;fill-rule:evenodd;stroke:none;filter:url(#filter4285)"
       d="m 263.14739,394.62333 c 19.8931,15.90321 102.2969,84.50536 207.8926,-44.18673 -0.2652,28.31152 -24.7225,67.91222 -93.5975,86.64904 -60.308,16.40624 -104.2855,-21.46993 -114.2951,-42.46231 z"
       id="path4019"
       sodipodi:nodetypes="ccsc"
       inkscape:export-filename="C:\Users\panreyes\Desktop\calavera.png"
       inkscape:export-xdpi="99.95723"
       inkscape:export-ydpi="99.95723" />
    <path
       inkscape:connector-curvature="0"
       style="opacity:0.34482757;fill:#000000;fill-opacity:1;fill-rule:evenodd;stroke:none;filter:url(#filter4261)"
       d="m 356.65439,528.45335 c 11.4917,-4.50454 34.3403,-16.49088 65.4657,-23.55603 10.795,2.38601 2.5412,-0.0563 14.0305,7.16283 -15.6267,9.68017 -52.3598,22.67653 -61.3419,25.21637 -23.31,-2.51332 -11.9098,7.04626 -18.1543,-8.82317 z"
       id="path4027"
       sodipodi:nodetypes="ccccc"
       inkscape:export-filename="C:\Users\panreyes\Desktop\calavera.png"
       inkscape:export-xdpi="99.95723"
       inkscape:export-ydpi="99.95723" />
    <path
       inkscape:connector-curvature="0"
       style="opacity:0.34482757;fill:#000000;fill-opacity:1;fill-rule:evenodd;stroke:none;filter:url(#filter4261)"
       d="m 264.62989,211.13858 c 10.2754,2.0633 116.9258,13.9043 135.6443,3.944 2.5807,9.1718 -4.1693,18.0642 -45.6124,18.9486 -41.443,0.8843 -79.7407,-15.2836 -90.0319,-22.8926 z"
       id="path4029"
       sodipodi:nodetypes="cczc"
       inkscape:export-filename="C:\Users\panreyes\Desktop\calavera.png"
       inkscape:export-xdpi="99.95723"
       inkscape:export-ydpi="99.95723" />
    <path
       inkscape:connector-curvature="0"
       style="fill:none;stroke:#000000;stroke-width:6;stroke-linecap:round;stroke-linejoin:miter;stroke-miterlimit:4;stroke-opacity:1;stroke-dasharray:none"
       d="m 319.37809,377.10822 0.1786,23.92857"
       id="path4031"
       sodipodi:nodetypes="cc"
       inkscape:export-filename="C:\Users\panreyes\Desktop\calavera.png"
       inkscape:export-xdpi="99.95723"
       inkscape:export-ydpi="99.95723" />
    <path
       inkscape:connector-curvature="0"
       style="opacity:0.34482757;fill:#000000;fill-opacity:1;fill-rule:evenodd;stroke:none;filter:url(#filter4261)"
       d="m 216.23069,264.70408 c 5.4771,1.0998 69.416,1.4927 133.0477,5.5139 28.3287,1.80617 129.7961,-9.1558 133.1798,-5.2354 -36.0577,20.53595 -93.7875,28.29569 -134.9781,23.11917 -41.4392,-5.20776 -104.2907,-17.55647 -131.2494,-23.39767 z"
       id="path4035"
       sodipodi:nodetypes="csczc"
       inkscape:export-filename="C:\Users\panreyes\Desktop\calavera.png"
       inkscape:export-xdpi="99.95723"
       inkscape:export-ydpi="99.95723" />
    <g
       id="g4037"
       transform="matrix(3.2709882,0,0,3.2709882,-1684.5289,-2027.0106)"
       inkscape:export-filename="/home/danigm/Documents/dibujos/pixpang/507v2.png"
       inkscape:export-xdpi="37.000000"
       inkscape:export-ydpi="37.000000"
       style="fill:#666666">
      <path
         inkscape:connector-curvature="0"
         id="path4039"
         d="m 198.25,449.36218 -2.75,41 11,-9 1.25,8.5 3.25,-4.25 6.5,7 10.75,-4.5 25.5,6.75 5,-7.75 3.5,10.5 6,-17.5 4.75,17.25 1.5,-19.25 4.25,12.25 -1.5,-42.75 -79,1.75 z"
         style="fill:#666666;fill-opacity:1;fill-rule:evenodd;stroke:#000000;stroke-width:2.34303832;stroke-linecap:butt;stroke-linejoin:miter;stroke-miterlimit:4;stroke-opacity:1;stroke-dasharray:none" />
      <path
         inkscape:connector-curvature="0"
         style="fill:#666666;fill-opacity:1;fill-rule:evenodd;stroke:#000000;stroke-width:2.34303832;stroke-linecap:butt;stroke-linejoin:miter;stroke-miterlimit:4;stroke-opacity:1;stroke-dasharray:none"
         d="m 277.5,440.5824 8.68142,19.27978 -8.49996,-9.70102 L 277.5,440.5824 z"
         id="path4041"
         sodipodi:nodetypes="cccc" />
      <path
         inkscape:connector-curvature="0"
         sodipodi:nodetypes="cccc"
         id="path4043"
         d="m 198.09327,442.17322 -8.68142,19.27978 8.49996,-9.70102 0.18146,-9.57876 z"
         style="fill:#666666;fill-opacity:1;fill-rule:evenodd;stroke:#000000;stroke-width:2.34303832;stroke-linecap:butt;stroke-linejoin:miter;stroke-miterlimit:4;stroke-opacity:1;stroke-dasharray:none" />
    </g>
    <path
       inkscape:connector-curvature="0"
       style="fill:#ffffff;fill-opacity:1;fill-rule:evenodd;stroke:#000000;stroke-width:7.66405106;stroke-miterlimit:4;stroke-opacity:1;stroke-dasharray:none;stroke-dashoffset:0"
       d="m -775.66144,-533.3211 c -0.037,65.27399 -61.5301,132.07447 -140.784,130.88034 -78.4362,-1.19422 -138.58136,-119.50699 -113.79806,-206.81794 16.0201,-50.68783 54.99796,-101.71383 111.16396,-108.10103 53.4398,-6.0938 99.5414,35.0348 120.6635,80.86293 15.5496,31.9864 22.7377,67.70817 22.7546,103.1757 z"
       id="path4045"
       sodipodi:nodetypes="czcccc"
       inkscape:export-filename="/home/danigm/Documents/dibujos/pixpang/507v2.png"
       inkscape:export-xdpi="37.000000"
       inkscape:export-ydpi="37.000000" />
    <path
       inkscape:connector-curvature="0"
       style="fill:#000000;fill-opacity:0.67727272;fill-rule:evenodd;stroke:#000000;stroke-width:7.66405058;stroke-linecap:butt;stroke-linejoin:miter;stroke-miterlimit:4;stroke-opacity:1;stroke-dasharray:none"
       d="m -779.69064,-593.0284 c -49.7004,-33.7178 -138.8087,-17.4348 -125.9975,43.1255 12.8069,60.53986 175.698,-9.4078 125.9975,-43.1255 z"
       id="path4047"
       sodipodi:nodetypes="czz" />
    <g
       id="g4049"
       transform="matrix(3.2709882,0,0,3.2709882,-1553.6894,-2021.4125)"
       style="fill:#000000">
      <path
         inkscape:connector-curvature="0"
         id="path4051"
         d="m 225.75,437.61218 -15.02602,13.78858"
         style="fill:#000000;fill-opacity:0.75;fill-rule:evenodd;stroke:#ffffff;stroke-width:1.17151916;stroke-linecap:butt;stroke-linejoin:miter;stroke-miterlimit:4;stroke-opacity:1;stroke-dasharray:none" />
      <path
         inkscape:connector-curvature="0"
         style="fill:#000000;fill-opacity:0.75;fill-rule:evenodd;stroke:#ffffff;stroke-width:1.17151916;stroke-linecap:butt;stroke-linejoin:miter;stroke-miterlimit:4;stroke-opacity:1;stroke-dasharray:none"
         d="m 222.75,435.3236 -15.02602,13.78858"
         id="path4053" />
    </g>
    <path
       inkscape:connector-curvature="0"
       sodipodi:nodetypes="czz"
       id="path4055"
       d="m -1038.183,-593.0284 c 49.70036,-33.7178 138.80866,-17.4348 125.99756,43.1255 -12.8069,60.53986 -175.69796,-9.4078 -125.99756,-43.1255 z"
       style="fill:#000000;fill-opacity:0.67727272;fill-rule:evenodd;stroke:#000000;stroke-width:7.66405058;stroke-linecap:butt;stroke-linejoin:miter;stroke-miterlimit:4;stroke-opacity:1;stroke-dasharray:none" />
    <g
       id="g4057"
       transform="matrix(3.2709882,0,0,3.2709882,-1684.5289,-2021.4125)"
       style="fill:#000000">
      <path
         inkscape:connector-curvature="0"
         style="fill:#000000;fill-opacity:0.75;fill-rule:evenodd;stroke:#ffffff;stroke-width:1.17151916;stroke-linecap:butt;stroke-linejoin:miter;stroke-miterlimit:4;stroke-opacity:1;stroke-dasharray:none"
         d="m 225.75,437.61218 -15.02602,13.78858"
         id="path4059" />
      <path
         inkscape:connector-curvature="0"
         id="path4061"
         d="m 222.75,435.3236 -15.02602,13.78858"
         style="fill:#000000;fill-opacity:0.75;fill-rule:evenodd;stroke:#ffffff;stroke-width:1.17151916;stroke-linecap:butt;stroke-linejoin:miter;stroke-miterlimit:4;stroke-opacity:1;stroke-dasharray:none" />
    </g>
    <g
       id="g4063"
       transform="matrix(3.2709882,0,0,3.2709882,-1648.5485,-2018.6208)"
       inkscape:export-filename="/home/danigm/Documents/dibujos/pixpang/507v2.png"
       inkscape:export-xdpi="37.000000"
       inkscape:export-ydpi="37.000000"
       style="fill:#74975e;fill-opacity:1">
      <path
         inkscape:connector-curvature="0"
         sodipodi:nodetypes="czcczcc"
         id="path4065"
         d="m 191.40932,423.83095 c 23.5113,-42.24963 40.39348,-40.23879 55.50788,-31.99658 15.26545,8.32458 13.08147,29.34493 13.08147,29.34493 11.49049,11.84404 16.44024,14.67247 16.44024,14.67247 -15.02602,4.77297 -31.73141,8.77255 -59.39697,5.48008 -27.70924,-3.29766 -41.0122,-0.70711 -41.0122,-0.70711 l 15.37958,-16.79379 z"
         style="fill:#74975e;fill-opacity:1;fill-rule:evenodd;stroke:#000000;stroke-width:2.34303832;stroke-linecap:butt;stroke-linejoin:miter;stroke-miterlimit:4;stroke-opacity:1;stroke-dasharray:none" />
      <path
         inkscape:connector-curvature="0"
         id="path4067"
         d="m 200.5,423.36218 c 22.5,5.5 42.5,1.5 42.5,1.5"
         style="fill:#74975e;fill-opacity:1;fill-rule:evenodd;stroke:#000000;stroke-width:0.58575959pt;stroke-linecap:butt;stroke-linejoin:miter;stroke-opacity:1" />
    </g>
    <path
       inkscape:connector-curvature="0"
       style="fill:#ffffff;fill-rule:evenodd;stroke:#000000;stroke-width:7;stroke-linecap:round;stroke-linejoin:miter;stroke-miterlimit:4;stroke-opacity:1;stroke-dasharray:none"
       d="m -1178.8082,-416.26298 c -6.9415,-20.23279 -3.6456,-51.59127 31.7346,-53.91913 36.3131,-2.38923 45.9211,42.01284 98.2133,59.45395 l 312.24786,104.14437 c 56.5014,18.84498 80.5099,-12.41451 110.6524,9.03521 34.0821,24.25325 16.2626,49.89139 -1.0162,63.13175 7.5142,21.29242 1.8779,41.13636 -29.7063,42.29941 -37.98699,1.39882 -44.37319,-54.67856 -93.8621,-70.85856 l -312.22426,-102.07925 c -40.7383,-13.31907 -92.5819,23.21172 -120.8024,-2.77307 -18.3495,-16.89564 -12.2261,-38.32671 4.7631,-48.43468 z"
       id="path4069"
       sodipodi:nodetypes="czssscssssc" />
    <path
       inkscape:connector-curvature="0"
       style="opacity:0.34482757;fill:#000000;fill-opacity:1;fill-rule:evenodd;stroke:none;filter:url(#filter4261)"
       d="m 2893.9896,-614.26818 c 61.6738,13.89157 55.6226,-32.21438 109.4454,-61.17848 6.0452,-3.25317 313.9985,-117.9119 322.8554,-121.0552 30.217,-10.72397 97.1397,9.41192 127.5186,-10.80081 -6.9244,15.95788 -9.7543,24.62861 -36.1072,24.84485 -11.0502,-1.53092 -66.7883,-9.45389 -89.9082,-3.67198 -9.771,2.44357 -302.7417,114.59569 -321.6987,121.22093 -10.0494,5.86204 -49.7163,75.58468 -76.727,71.53708 -33.0968,-4.95965 -25.5663,-0.35744 -35.3783,-20.89639 z"
       id="path4071"
       sodipodi:nodetypes="cssccscsc"
       transform="matrix(-0.9990448,0.04369849,0.04369849,0.9990448,2292.2423,272.44976)" />
    <path
       inkscape:connector-curvature="0"
       style="fill:#ffffff;fill-rule:evenodd;stroke:#000000;stroke-width:7;stroke-linecap:round;stroke-linejoin:miter;stroke-miterlimit:4;stroke-opacity:1;stroke-dasharray:none"
       d="m -626.22724,-430.4678 c 6.0489,-20.51732 1.3831,-51.70141 -34.0651,-52.47789 -36.38279,-0.79694 -44.03739,43.98324 -95.5158,63.69728 l -307.38836,117.71654 c -55.622,21.30087 -80.9763,-8.87741 -110.1507,13.87156 -32.9875,25.7223 -14.0625,50.55561 3.7795,63.0267 -6.5747,21.60102 -0.075,41.17913 31.5299,40.95813 38.0119,-0.26582 41.9366,-56.56904 90.6696,-74.90044 l 307.45516,-115.65236 c 40.11601,-15.09006 93.5093,19.13569 120.5651,-8.05984 17.592,-17.68289 10.5362,-38.82529 -6.8793,-48.17968 z"
       id="path4073"
       sodipodi:nodetypes="czssscssssc" />
    <path
       inkscape:connector-curvature="0"
       style="fill:#000000;fill-rule:evenodd;stroke:#000000;stroke-width:1.78855383px;stroke-linecap:butt;stroke-linejoin:miter;stroke-opacity:1"
       d="m -906.09764,-525.74097 c -9.5002,16.47264 -24.5268,36.1093 2.3625,36.41863 26.8919,0.30933 9.1346,-20.8164 -2.3625,-36.41863 z"
       id="path4075"
       sodipodi:nodetypes="czc" />
    <path
       inkscape:connector-curvature="0"
       style="fill:none;stroke:#000000;stroke-width:6;stroke-linecap:round;stroke-linejoin:miter;stroke-miterlimit:4;stroke-opacity:1;stroke-dasharray:none"
       d="m -959.98284,-454.16154 111.3135,-0.29587"
       id="path4077"
       sodipodi:nodetypes="cc" />
    <path
       inkscape:connector-curvature="0"
       style="fill:none;stroke:#000000;stroke-width:6;stroke-linecap:round;stroke-linejoin:miter;stroke-miterlimit:4;stroke-opacity:1;stroke-dasharray:none"
       d="m -904.34254,-463.70414 0.087,17.43128"
       id="path4079"
       sodipodi:nodetypes="cc" />
    <path
       inkscape:connector-curvature="0"
       style="fill:none;stroke:#000000;stroke-width:6;stroke-linecap:round;stroke-linejoin:miter;stroke-miterlimit:4;stroke-opacity:1;stroke-dasharray:none"
       d="m -875.81064,-463.09067 c 0.09,11.53662 0.1803,8.39112 0.2704,17.39524"
       id="path4081"
       sodipodi:nodetypes="cc" />
    <path
       inkscape:connector-curvature="0"
       style="opacity:0.34482757;fill:#000000;fill-opacity:1;fill-rule:evenodd;stroke:none;filter:url(#filter4261)"
       d="m -1170.6612,-203.86004 c 61.6738,13.89157 55.6226,-32.21438 109.4454,-61.17848 6.0452,-3.25317 313.99846,-117.9119 322.85536,-121.0552 30.21701,-10.72397 97.1397,9.41192 127.5186,-10.80081 -6.9244,15.95788 -9.7543,24.62861 -36.1072,24.84485 -11.0502,-1.53092 -66.78829,-9.45389 -89.9082,-3.67198 -9.771,2.44357 -302.74166,114.59569 -321.69866,121.22093 -10.0494,5.86204 -49.7163,75.58468 -76.727,71.53708 -33.0968,-4.95965 -25.5663,-0.35744 -35.3783,-20.89639 z"
       id="path4083"
       sodipodi:nodetypes="cssccscsc" />
    <path
       inkscape:connector-curvature="0"
       style="opacity:0.31417625;fill:#000000;fill-opacity:1;fill-rule:evenodd;stroke:none;filter:url(#filter4285)"
       d="m -992.55004,-449.54345 c 19.8931,15.90321 102.2969,84.50536 207.8926,-44.18673 -0.2652,28.31152 -24.7225,67.91222 -93.5975,86.64904 -60.308,16.40624 -104.2855,-21.46993 -114.2951,-42.46231 z"
       id="path4085"
       sodipodi:nodetypes="ccsc" />
    <path
       inkscape:connector-curvature="0"
       style="opacity:0.34482757;fill:#000000;fill-opacity:1;fill-rule:evenodd;stroke:none;filter:url(#filter4261)"
       d="m -899.04304,-315.71343 c 11.4917,-4.50454 34.3403,-16.49088 65.4657,-23.55603 10.795,2.38601 2.5412,-0.0563 14.0305,7.16283 -15.6267,9.68017 -52.3598,22.67653 -61.3419,25.21637 -23.31,-2.51332 -11.9098,7.04626 -18.1543,-8.82317 z"
       id="path4087"
       sodipodi:nodetypes="ccccc" />
    <path
       inkscape:connector-curvature="0"
       style="opacity:0.34482757;fill:#000000;fill-opacity:1;fill-rule:evenodd;stroke:none;filter:url(#filter4261)"
       d="m -991.06754,-633.0282 c 10.2754,2.0633 116.9258,13.9043 135.6443,3.944 2.5807,9.1718 -4.1693,18.0642 -45.6124,18.9486 -41.443,0.8843 -79.7407,-15.2836 -90.0319,-22.8926 z"
       id="path4090"
       sodipodi:nodetypes="cczc" />
    <path
       inkscape:connector-curvature="0"
       style="fill:none;stroke:#000000;stroke-width:6;stroke-linecap:round;stroke-linejoin:miter;stroke-miterlimit:4;stroke-opacity:1;stroke-dasharray:none"
       d="m -936.31934,-467.05856 0.1786,23.92857"
       id="path4092"
       sodipodi:nodetypes="cc" />
    <path
       inkscape:connector-curvature="0"
       style="opacity:0.34482757;fill:#000000;fill-opacity:1;fill-rule:evenodd;stroke:none;filter:url(#filter4261)"
       d="m -1039.4667,-579.4627 c 5.4771,1.0998 69.41596,1.4927 133.04766,5.5139 28.3287,1.80617 129.7961,-9.1558 133.1798,-5.2354 -36.0577,20.53595 -93.7875,28.29569 -134.9781,23.11917 -41.4392,-5.20776 -104.29066,-17.55647 -131.24936,-23.39767 z"
       id="path4094"
       sodipodi:nodetypes="csczc" />
  </g>
</svg>
