<?xml version="1.0" encoding="UTF-8" standalone="no"?>
<!-- Created with Inkscape (http://www.inkscape.org/) -->

<svg
   xmlns:dc="http://purl.org/dc/elements/1.1/"
   xmlns:cc="http://creativecommons.org/ns#"
   xmlns:rdf="http://www.w3.org/1999/02/22-rdf-syntax-ns#"
   xmlns:svg="http://www.w3.org/2000/svg"
   xmlns="http://www.w3.org/2000/svg"
   xmlns:sodipodi="http://sodipodi.sourceforge.net/DTD/sodipodi-0.dtd"
   xmlns:inkscape="http://www.inkscape.org/namespaces/inkscape"
   width="640"
   height="360"
   id="svg4063"
   version="1.1"
   inkscape:version="0.48.2 r9819"
   sodipodi:docname="cafetera.svg"
   inkscape:export-filename="D:\Dropbox\PiX Juegos\ripolles\fpg-sources\cutscenes\29.png"
   inkscape:export-xdpi="90"
   inkscape:export-ydpi="90">
  <defs
     id="defs4065" />
  <sodipodi:namedview
     id="base"
     pagecolor="#ffffff"
     bordercolor="#666666"
     borderopacity="1.0"
     inkscape:pageopacity="0.0"
     inkscape:pageshadow="2"
     inkscape:zoom="0.7"
     inkscape:cx="284.49141"
     inkscape:cy="342.56028"
     inkscape:document-units="px"
     inkscape:current-layer="layer1"
     showgrid="true"
     inkscape:window-width="1366"
     inkscape:window-height="706"
     inkscape:window-x="-8"
     inkscape:window-y="-8"
     inkscape:window-maximized="1">
    <inkscape:grid
       type="xygrid"
       id="grid4071"
       empspacing="5"
       visible="true"
       enabled="true"
       snapvisiblegridlinesonly="true" />
  </sodipodi:namedview>
  <metadata
     id="metadata4068">
    <rdf:RDF>
      <cc:Work
         rdf:about="">
        <dc:format>image/svg+xml</dc:format>
        <dc:type
           rdf:resource="http://purl.org/dc/dcmitype/StillImage" />
        <dc:title></dc:title>
      </cc:Work>
    </rdf:RDF>
  </metadata>
  <g
     inkscape:label="Capa 1"
     inkscape:groupmode="layer"
     id="layer1"
     transform="translate(0,-692.36218)">
    <path
       style="fill:#f2f2f2;stroke:#000000;stroke-width:1px;stroke-linecap:butt;stroke-linejoin:miter;stroke-opacity:1"
       d="m 0,360 0,-60 640,0 0,60 z"
       id="path4956"
       inkscape:connector-curvature="0"
       transform="translate(0,692.36218)" />
    <path
       style="fill:#ffdd55;stroke:#000000;stroke-width:1px;stroke-linecap:butt;stroke-linejoin:miter;stroke-opacity:1;fill-opacity:1"
       d="M 0,180 640,180 640,0 0,0 z"
       id="path4073"
       inkscape:connector-curvature="0"
       transform="translate(0,692.36218)" />
    <path
       style="fill:none;stroke:#000000;stroke-width:1px;stroke-linecap:butt;stroke-linejoin:miter;stroke-opacity:1"
       d="m 0,300 640,0"
       id="path4075"
       inkscape:connector-curvature="0"
       transform="translate(0,692.36218)" />
    <path
       sodipodi:type="arc"
       style="fill:#ffffff;fill-opacity:1;fill-rule:nonzero;stroke:#000000;stroke-width:1.49999999000000010;stroke-linecap:round;stroke-linejoin:round;stroke-miterlimit:4;stroke-opacity:1;stroke-dasharray:none;stroke-dashoffset:0"
       id="path4077"
       sodipodi:cx="140"
       sodipodi:cy="320"
       sodipodi:rx="30"
       sodipodi:ry="30"
       d="m 170,320 a 30,30 0 1 1 -60,0 30,30 0 1 1 60,0 z"
       transform="matrix(0.66666667,0,0,0.66666667,66.666667,809.02885)" />
    <path
       sodipodi:type="arc"
       style="fill:#ffffff;fill-opacity:1;fill-rule:nonzero;stroke:#000000;stroke-width:1.50000000000000000;stroke-linecap:round;stroke-linejoin:round;stroke-miterlimit:4;stroke-opacity:1;stroke-dasharray:none;stroke-dashoffset:0"
       id="path4077-4"
       sodipodi:cx="140"
       sodipodi:cy="320"
       sodipodi:rx="30"
       sodipodi:ry="30"
       d="m 170,320 a 30,30 0 1 1 -60,0 30,30 0 1 1 60,0 z"
       transform="matrix(0.66666667,0,0,0.66666667,206.66667,809.02885)" />
    <path
       sodipodi:type="arc"
       style="fill:#ffffff;fill-opacity:1;fill-rule:nonzero;stroke:#000000;stroke-width:1.50000000000000000;stroke-linecap:round;stroke-linejoin:round;stroke-miterlimit:4;stroke-opacity:1;stroke-dasharray:none;stroke-dashoffset:0"
       id="path4077-5"
       sodipodi:cx="140"
       sodipodi:cy="320"
       sodipodi:rx="30"
       sodipodi:ry="30"
       d="m 170,320 a 30,30 0 1 1 -60,0 30,30 0 1 1 60,0 z"
       transform="matrix(0.66666667,0,0,0.66666667,346.66667,809.02885)" />
    <path
       style="fill:none;stroke:#000000;stroke-width:1px;stroke-linecap:butt;stroke-linejoin:miter;stroke-opacity:1"
       d="m 160,310 0,20"
       id="path4872"
       inkscape:connector-curvature="0"
       transform="translate(0,692.36218)" />
    <path
       style="fill:none;stroke:#000000;stroke-width:1px;stroke-linecap:butt;stroke-linejoin:miter;stroke-opacity:1"
       d="m 300,310 0,20"
       id="path4874"
       inkscape:connector-curvature="0"
       transform="translate(0,692.36218)" />
    <path
       style="fill:none;stroke:#000000;stroke-width:1px;stroke-linecap:butt;stroke-linejoin:miter;stroke-opacity:1"
       d="m 440,310 0,20"
       id="path4876"
       inkscape:connector-curvature="0"
       transform="translate(0,692.36218)" />
    <path
       style="fill:#4d4d4d;stroke:#000000;stroke-width:1px;stroke-linecap:butt;stroke-linejoin:miter;stroke-opacity:1"
       d="m 0,180 640,0 0,120 -640,0 z"
       id="path4885"
       inkscape:connector-curvature="0"
       transform="translate(0,692.36218)" />
    <path
       sodipodi:type="arc"
       style="fill:#000000;fill-opacity:1;fill-rule:nonzero;stroke:#000000;stroke-width:1;stroke-linecap:round;stroke-linejoin:round;stroke-miterlimit:4;stroke-opacity:1;stroke-dasharray:none;stroke-dashoffset:0"
       id="path4974"
       sodipodi:cx="295"
       sodipodi:cy="240"
       sodipodi:rx="95"
       sodipodi:ry="40"
       d="m 390,240 a 95,40 0 1 1 -190,0 95,40 0 1 1 190,0 z"
       transform="translate(10,682.36218)" />
    <g
       id="g5022">
      <path
         transform="translate(0,692.36218)"
         inkscape:connector-curvature="0"
         id="path4887"
         d="m 250,230 30,20 40,0 30,-20 -20,-70 -60,0 z"
         style="fill:#999999;stroke:#000000;stroke-width:1px;stroke-linecap:round;stroke-linejoin:round;stroke-opacity:1" />
      <path
         sodipodi:nodetypes="ccccc"
         inkscape:connector-curvature="0"
         id="path4909-4"
         d="m 250,922.36218 30,20 5,-80 -15,-10 z"
         style="fill:#ececec;stroke:#000000;stroke-width:1px;stroke-linecap:round;stroke-linejoin:round;stroke-opacity:1" />
      <path
         sodipodi:nodetypes="ccccc"
         inkscape:connector-curvature="0"
         id="path4909-4-2"
         d="m 350,922.36218 -30,20 -5,-80 15,-10 z"
         style="fill:#666666;stroke:#000000;stroke-width:1px;stroke-linecap:round;stroke-linejoin:round;stroke-opacity:1" />
      <path
         sodipodi:nodetypes="ccccc"
         transform="translate(0,692.36218)"
         inkscape:connector-curvature="0"
         id="path4889"
         d="m 270,160 0,-15 c 0,15 58.86484,11.93242 60,0 l 0,15 c 0,15 -60,15 -60,0 z"
         style="fill:#999999;stroke:#000000;stroke-width:1px;stroke-linecap:round;stroke-linejoin:round;stroke-opacity:1;fill-opacity:1" />
      <path
         sodipodi:nodetypes="cccccccc"
         inkscape:connector-curvature="0"
         id="path4887-3"
         d="m 350,772.36218 -30,-20 -40,0 -24,16 -14,9 28,65 60,0 z"
         style="fill:#1a1a1a;stroke:#000000;stroke-width:1px;stroke-linecap:round;stroke-linejoin:round;stroke-opacity:1" />
      <path
         sodipodi:nodetypes="cccccc"
         inkscape:connector-curvature="0"
         id="path4909"
         d="m 242,777.36218 18.70208,2.13472 19.29792,12.86528 5,55 -15,-5 z"
         style="fill:#ececec;stroke:#000000;stroke-width:1px;stroke-linecap:round;stroke-linejoin:round;stroke-opacity:1" />
      <path
         inkscape:connector-curvature="0"
         id="path4909-9"
         d="m 350,772.36218 -30,20 -5,55 15,-5 z"
         style="fill:#666666;stroke:#000000;stroke-width:1px;stroke-linecap:round;stroke-linejoin:round;stroke-opacity:1;fill-opacity:1" />
      <path
         transform="translate(0,692.36218)"
         inkscape:connector-curvature="0"
         id="path4954"
         d="m 280,100 40,0 -5,55 c 0,0 -30,0 -30,0 z"
         style="fill:#999999;stroke:#000000;stroke-width:1px;stroke-linecap:round;stroke-linejoin:round;stroke-opacity:1" />
      <path
         sodipodi:nodetypes="cccc"
         transform="translate(0,692.36218)"
         inkscape:connector-curvature="0"
         id="path4958"
         d="M 250,80 300,75 280,60 z"
         style="fill:#f9f9f9;stroke:#000000;stroke-width:1px;stroke-linecap:round;stroke-linejoin:round;stroke-opacity:1" />
      <path
         sodipodi:nodetypes="cccc"
         transform="translate(0,692.36218)"
         inkscape:connector-curvature="0"
         id="path4960"
         d="m 250,80 30,20 20,-25 z"
         style="fill:#ececec;fill-opacity:1;stroke:#000000;stroke-width:1px;stroke-linecap:round;stroke-linejoin:round;stroke-opacity:1" />
      <path
         sodipodi:nodetypes="cccc"
         transform="translate(0,692.36218)"
         inkscape:connector-curvature="0"
         id="path4962"
         d="m 280,100 20,-25 20,25 z"
         style="fill:#999999;stroke:#000000;stroke-width:1px;stroke-linecap:round;stroke-linejoin:round;stroke-opacity:1;fill-opacity:1" />
      <path
         sodipodi:nodetypes="cccc"
         transform="translate(0,692.36218)"
         inkscape:connector-curvature="0"
         id="path4964"
         d="m 280,60 20,15 20,-15 z"
         style="fill:#ececec;stroke:#000000;stroke-width:1px;stroke-linecap:round;stroke-linejoin:round;stroke-opacity:1;fill-opacity:1" />
      <path
         sodipodi:nodetypes="cccc"
         transform="translate(0,692.36218)"
         inkscape:connector-curvature="0"
         id="path4966"
         d="m 320,60 -20,15 50,5 z"
         style="fill:#999999;stroke:#000000;stroke-width:1px;stroke-linecap:round;stroke-linejoin:round;stroke-opacity:1;fill-opacity:1" />
      <path
         sodipodi:nodetypes="cccc"
         transform="translate(0,692.36218)"
         inkscape:connector-curvature="0"
         id="path4968"
         d="m 320,100 -20,-25 50,5 z"
         style="fill:#666666;stroke:#000000;stroke-width:1px;stroke-linecap:round;stroke-linejoin:round;stroke-opacity:1;fill-opacity:1" />
      <path
         sodipodi:nodetypes="ccccccccc"
         transform="translate(0,692.36218)"
         inkscape:connector-curvature="0"
         id="path4970"
         d="m 297,78 5,0 3,-3 5,-15 -5,-5 -10,0 -5,5 5,15 z"
         style="fill:#000000;stroke:#000000;stroke-width:1px;stroke-linecap:round;stroke-linejoin:round;stroke-opacity:1" />
      <path
         sodipodi:nodetypes="ccccccc"
         transform="translate(0,692.36218)"
         inkscape:connector-curvature="0"
         id="path4972"
         d="m 350,80 20,0 15,55 -20,10 -5,-50 -15,5 z"
         style="fill:#000000;stroke:#000000;stroke-width:1px;stroke-linecap:butt;stroke-linejoin:miter;stroke-opacity:1" />
    </g>
    <path
       sodipodi:type="arc"
       style="fill:#ffffff;fill-opacity:1;fill-rule:nonzero;stroke:#000000;stroke-width:1.5;stroke-linecap:round;stroke-linejoin:round;stroke-miterlimit:4;stroke-opacity:1;stroke-dasharray:none;stroke-dashoffset:0"
       id="path4077-5-0"
       sodipodi:cx="140"
       sodipodi:cy="320"
       sodipodi:rx="30"
       sodipodi:ry="30"
       d="m 170,320 a 30,30 0 1 1 -60,0 30,30 0 1 1 60,0 z"
       transform="matrix(0.66666667,0,0,0.66666667,681.66667,784.02885)"
       inkscape:export-filename="D:\Dropbox\PiX Juegos\ripolles\fpg-sources\cutscenes\30.png"
       inkscape:export-xdpi="90"
       inkscape:export-ydpi="90" />
    <path
       style="fill:none;stroke:#000000;stroke-width:1px;stroke-linecap:butt;stroke-linejoin:miter;stroke-opacity:1"
       d="m 775,977.3622 0,20"
       id="path4876-5"
       inkscape:connector-curvature="0"
       inkscape:export-filename="D:\Dropbox\PiX Juegos\ripolles\fpg-sources\cutscenes\30.png"
       inkscape:export-xdpi="90"
       inkscape:export-ydpi="90" />
  </g>
</svg>
