<?xml version="1.0" encoding="UTF-8" standalone="no"?>
<!-- Created with Inkscape (http://www.inkscape.org/) -->

<svg
   xmlns:dc="http://purl.org/dc/elements/1.1/"
   xmlns:cc="http://creativecommons.org/ns#"
   xmlns:rdf="http://www.w3.org/1999/02/22-rdf-syntax-ns#"
   xmlns:svg="http://www.w3.org/2000/svg"
   xmlns="http://www.w3.org/2000/svg"
   xmlns:sodipodi="http://sodipodi.sourceforge.net/DTD/sodipodi-0.dtd"
   xmlns:inkscape="http://www.inkscape.org/namespaces/inkscape"
   width="90"
   height="90"
   id="svg2"
   version="1.1"
   inkscape:version="0.48.2 r9819"
   inkscape:export-filename="Y:\vilanet\fpg-sources\vilanet\21.png"
   inkscape:export-xdpi="90"
   inkscape:export-ydpi="90"
   sodipodi:docname="Documento nuevo 1">
  <defs
     id="defs4" />
  <sodipodi:namedview
     id="base"
     pagecolor="#ffffff"
     bordercolor="#666666"
     borderopacity="1.0"
     inkscape:pageopacity="0.0"
     inkscape:pageshadow="2"
     inkscape:zoom="2.8"
     inkscape:cx="6.3351765"
     inkscape:cy="23.497572"
     inkscape:document-units="px"
     inkscape:current-layer="layer2"
     showgrid="false"
     inkscape:window-width="1366"
     inkscape:window-height="706"
     inkscape:window-x="-8"
     inkscape:window-y="-8"
     inkscape:window-maximized="1" />
  <metadata
     id="metadata7">
    <rdf:RDF>
      <cc:Work
         rdf:about="">
        <dc:format>image/svg+xml</dc:format>
        <dc:type
           rdf:resource="http://purl.org/dc/dcmitype/StillImage" />
        <dc:title></dc:title>
      </cc:Work>
    </rdf:RDF>
  </metadata>
  <g
     inkscape:label="Capa 1"
     inkscape:groupmode="layer"
     id="layer1"
     transform="translate(0,-962.36218)"
     sodipodi:insensitive="true"
     style="display:none">
    <path
       style="fill:#ff6600;stroke:#000000;stroke-width:1px;stroke-linecap:round;stroke-linejoin:round;stroke-opacity:1"
       d="m 52.117413,1048.9883 c 0,0 -0.484131,2.2887 -3.121942,1.9509 -2.637749,-0.3383 -2.349353,-2.8117 -2.349353,-2.8117 l 4.380841,-48.22096 6.621923,-1.1554 z"
       id="path2995-9"
       inkscape:connector-curvature="0"
       sodipodi:nodetypes="czcccc" />
    <path
       style="fill:#ff6600;stroke:#000000;stroke-width:1px;stroke-linecap:round;stroke-linejoin:round;stroke-opacity:1"
       d="m 34.789857,1049.2259 c 0,0 0.484131,2.2887 3.121942,1.9509 2.637749,-0.3383 2.349353,-2.8117 2.349353,-2.8117 l -4.380841,-48.221 -6.621923,-1.15542 z"
       id="path2995"
       inkscape:connector-curvature="0"
       sodipodi:nodetypes="czcccc" />
    <path
       style="fill:#000000;stroke:#000000;stroke-width:1px;stroke-linecap:round;stroke-linejoin:round;stroke-opacity:1"
       d="m 31.424052,1007.5266 -3.355843,-37.52094 c 0,0 2.582557,-0.53414 2.636506,-1.60823 0.05395,-1.07409 -2.887694,-0.77957 -2.887694,-0.77957 l -0.794803,-1.50933 -0.485245,1.62616 c 0,0 -2.980733,0.71325 -2.771674,1.70254 0.209062,0.98928 2.577102,0.6429 2.577102,0.6429 z"
       id="path3015"
       inkscape:connector-curvature="0"
       sodipodi:nodetypes="cczccczcc" />
    <path
       style="fill:#000080;stroke:#000000;stroke-width:1px;stroke-linecap:round;stroke-linejoin:round;stroke-opacity:1"
       d="m 35.914521,1008.0369 c -0.797015,1.0728 -3.060436,8.5409 -2.343093,8.7003 2.57534,2.5641 3.556038,4.8122 6.607142,2.1429 1.011905,-2.4108 0.840969,-2.1105 3.739169,-5.2355 1.671866,2.5514 2.348897,3.9412 2.789521,4.9045 1.158938,2.5335 6.234406,0.9724 6.774882,-1.9009 0.28501,-1.9336 -0.520475,-8.8274 -1.241026,-9.0333 z"
       id="path2993"
       inkscape:connector-curvature="0"
       sodipodi:nodetypes="cccccccc" />
    <path
       style="fill:#000000;stroke:#000000;stroke-width:1px;stroke-linecap:round;stroke-linejoin:round;stroke-opacity:1"
       d="m 59.290372,1007.2676 3.355843,-37.52086 c 0,0 -2.582557,-0.53414 -2.636506,-1.60823 -0.05395,-1.07409 2.887694,-0.77957 2.887694,-0.77957 l 0.794803,-1.50933 0.485245,1.62616 c 0,0 2.980733,0.71325 2.771674,1.70254 -0.209062,0.98928 -2.577102,0.6429 -2.577102,0.6429 z"
       id="path3015-7"
       inkscape:connector-curvature="0"
       sodipodi:nodetypes="cczccczcc" />
    <path
       style="fill:#55d400;stroke:#000000;stroke-width:1px;stroke-linecap:round;stroke-linejoin:round;stroke-opacity:1"
       d="m 38.035714,985.93362 c -8.696724,2.57194 -11.231869,10.90031 -9.821428,20.17858 1.623592,0.6993 5.803571,-1.875 5.803571,-1.875 -0.0433,-3.6674 -0.326013,-5.51854 1.160714,-7.58929 -0.07195,3.85169 0.06146,7.70329 1.156228,11.55499 l 6.879486,1.1236 9.477747,-1.2085 c 1.091014,-2.4013 1.108535,-7.1644 1.415105,-11.29153 1.189844,2.26974 2.129866,3.27993 0.669648,7.99123 l 5.580357,1.7409 c 2.922288,-8.93477 -0.596455,-19.13097 -10.714286,-20.71427 z"
       id="path2991"
       inkscape:connector-curvature="0"
       sodipodi:nodetypes="cccccccccccc" />
    <path
       style="fill:#ffb380;stroke:#000000;stroke-width:1px;stroke-linecap:round;stroke-linejoin:round;stroke-opacity:1"
       d="m 43.008529,989.70209 c 4.314734,0.20663 8.245717,-2.00893 9.491844,-11.54279 -5.134942,-0.33672 -12.45407,-4.49576 -15.404826,-1.01015 -0.534973,4.84069 2.620536,12.52714 5.912982,12.55294 z"
       id="path2985"
       inkscape:connector-curvature="0"
       sodipodi:nodetypes="cccc" />
    <path
       style="fill:#800000;stroke:#000000;stroke-width:1px;stroke-linecap:round;stroke-linejoin:round;stroke-opacity:1"
       d="m 36.696429,974.59433 c 4.727804,-9.61655 6.887888,-10.24228 16.517857,1.16072 -1.620672,4.15675 -17.575687,2.71799 -16.517857,-1.16072 z"
       id="path2989"
       inkscape:connector-curvature="0"
       sodipodi:nodetypes="ccc" />
    <path
       style="fill:#000080;stroke:#000000;stroke-width:1px;stroke-linecap:round;stroke-linejoin:round;stroke-opacity:1"
       d="m 37.276786,978.65683 c 0.230006,3.83439 2.973894,5.83839 6.026785,5.75892 1.256701,-1.71532 1.167793,-1.69703 2.232143,0.0447 3.692788,0.73755 6.115897,-2.79645 6.651786,-5.58036 -0.752159,0.25162 -15.462518,0.19064 -14.910714,-0.22321 z"
       id="path3888"
       inkscape:connector-curvature="0"
       sodipodi:nodetypes="ccccc" />
    <path
       style="fill:#800000;stroke:#000000;stroke-width:1px;stroke-linecap:round;stroke-linejoin:round;stroke-opacity:1"
       d="m 36.617975,974.92085 c -1.060608,1.10392 -0.789995,2.36836 -0.135244,3.85645 4.825148,3.49291 8.896618,4.63537 15.852158,0.79723 0.396057,-1.09023 1.051235,-0.84005 0.83158,-3.93492 -5.748788,2.31853 -10.565571,4.45501 -16.548494,-0.71876 z"
       id="path2987"
       inkscape:connector-curvature="0"
       sodipodi:nodetypes="ccccc" />
    <path
       style="fill:#666666;stroke:#000000;stroke-width:1px;stroke-linecap:round;stroke-linejoin:round;stroke-opacity:1"
       d="m 33.482143,1016.5586 c 1.406773,2.7476 2.998154,3.6807 6.785714,2.1428 l -2.053571,5.5357 c -1.609579,9.4432 -5.645549,6.9858 -5.892857,-0.1785 z"
       id="path3078"
       inkscape:connector-curvature="0"
       sodipodi:nodetypes="ccccc" />
    <path
       style="fill:#4d4d4d;stroke:#000000;stroke-width:1px;stroke-linecap:round;stroke-linejoin:round;stroke-opacity:1"
       d="m 32.857143,1003.88 c 2.450234,0.2202 2.846888,1.3575 2.678571,2.7679 l -2.678571,-0.089 2.946429,0.089 c 0.393352,7.387 -6.480581,6.0242 -7.589286,-0.2679 1.379154,-1.7337 2.516105,-2.2145 4.642857,-2.5 z"
       id="path3098"
       inkscape:connector-curvature="0"
       sodipodi:nodetypes="cccccc" />
    <path
       style="fill:#4d4d4d;stroke:#000000;stroke-width:1px;stroke-linecap:round;stroke-linejoin:round;stroke-opacity:1"
       d="m 56.347405,1003.8284 c -2.450234,0.2202 -2.846888,1.3575 -2.678571,2.7679 l 2.678571,-0.089 -2.946429,0.089 c -0.393352,7.387 6.480581,6.0242 7.589286,-0.2679 -1.379154,-1.7337 -2.516105,-2.2145 -4.642857,-2.5 z"
       id="path3098-8"
       inkscape:connector-curvature="0"
       sodipodi:nodetypes="cccccc" />
    <path
       style="fill:none;stroke:#000000;stroke-width:1;stroke-linecap:round;stroke-linejoin:round;stroke-miterlimit:4;stroke-opacity:1;stroke-dasharray:1, 1;stroke-dashoffset:0"
       d="m 43.562829,989.60645 c 0.631345,3.91434 0.252538,18.81405 0.252538,18.81405"
       id="path3118"
       inkscape:connector-curvature="0" />
    <path
       style="fill:#666666;stroke:#000000;stroke-width:1px;stroke-linecap:round;stroke-linejoin:round;stroke-opacity:1"
       d="m 53.526786,1016.4164 c -1.406773,2.7476 -2.998154,3.6807 -6.785714,2.1428 l 2.053571,5.5357 c 1.609579,9.4432 5.645549,6.9858 5.892857,-0.1785 z"
       id="path3078-8"
       inkscape:connector-curvature="0"
       sodipodi:nodetypes="ccccc" />
  </g>
  <g
     inkscape:groupmode="layer"
     id="layer2"
     inkscape:label="Capa">
    <path
       style="fill:#000080;stroke:#000000;stroke-width:1px;stroke-linecap:round;stroke-linejoin:round;stroke-opacity:1"
       d="m 36.628738,45.935253 c -0.797015,1.0728 -3.060436,8.5409 -2.343093,8.7003 2.57534,2.564098 3.556038,4.812198 6.607142,2.142898 1.011905,-2.410798 0.840969,-2.110498 3.739169,-5.235498 1.671866,2.5514 2.348897,3.9412 2.789521,4.904498 1.158938,2.5335 6.234406,0.9724 6.774882,-1.900898 0.28501,-1.9336 -0.520475,-8.8274 -1.241026,-9.0333 z"
       id="path2993-4"
       inkscape:connector-curvature="0"
       sodipodi:nodetypes="cccccccc" />
    <path
       style="fill:#000000;stroke:#000000;stroke-width:1px;stroke-linecap:round;stroke-linejoin:round;stroke-opacity:1"
       d="M 70.510906,36.191937 45.086851,8.3945627 c 0,0 -2.137007,1.54535 -2.966046,0.860313 -0.829039,-0.685035 1.373469,-2.657082 1.373469,-2.657082 L 42.916827,4.992694 44.444328,5.7320168 c 0,0 2.537892,-1.7183137 3.126861,-0.8964161 0.58896,0.821893 -1.264723,2.335648 -1.264723,2.335648 z"
       id="path3015-7-3"
       inkscape:connector-curvature="0"
       sodipodi:nodetypes="cczccczcc" />
    <path
       style="fill:#55d400;stroke:#000000;stroke-width:1px;stroke-linecap:round;stroke-linejoin:round;stroke-opacity:1"
       d="m 43.693912,42.791183 c -2.803867,-3.67806 0.24003,-12.53216 -4.743745,-17.269118 1.623592,0.6993 -4.640229,4.396664 -4.640229,4.396664 1.131105,-3.6674 3.218512,14.10637 -0.881255,14.434732 -0.07195,3.85169 1.776924,3.722416 3.376768,5.048735 l 7.123051,-2.177343 9.477747,-1.2085 c 1.091014,-2.4013 4.061309,3.806141 4.367879,-0.320989 1.189844,2.26974 6.404429,-2.559987 8.606014,-9.717979 l -5.956536,-4.644343 c -2.165809,8.460996 -5.40465,12.271507 -9.530819,7.766784 z"
       id="path2991-6"
       inkscape:connector-curvature="0"
       sodipodi:nodetypes="cccccccccccc" />
    <path
       style="fill:#666666;stroke:#000000;stroke-width:1px;stroke-linecap:round;stroke-linejoin:round;stroke-opacity:1"
       d="m 34.19636,54.456953 c 1.406773,2.747598 2.998154,3.680698 6.785714,2.142798 l -2.053571,5.5357 c -1.609579,9.4432 -5.645549,6.9858 -5.892857,-0.1785 z"
       id="path3078-9"
       inkscape:connector-curvature="0"
       sodipodi:nodetypes="ccccc" />
    <path
       style="fill:#4d4d4d;stroke:#000000;stroke-width:1px;stroke-linecap:round;stroke-linejoin:round;stroke-opacity:1"
       d="m 63.80542,35.305949 c 2.321539,0.813996 3.153463,-0.05703 3.584177,-1.410561 l -2.475069,-1.027959 2.718892,1.138856 c 3.416396,-6.561305 -3.404956,-8.166712 -7.019209,-2.898228 0.537616,2.149127 1.373493,3.057501 3.191209,4.197892 z"
       id="path3098-8-0"
       inkscape:connector-curvature="0"
       sodipodi:nodetypes="cccccc" />
    <path
       style="fill:#666666;stroke:#000000;stroke-width:1px;stroke-linecap:round;stroke-linejoin:round;stroke-opacity:1"
       d="m 54.241003,54.314753 c -1.406773,2.747598 -2.998154,3.680698 -6.785714,2.142798 l 2.053571,5.5357 c 1.609579,9.4432 5.645549,6.9858 5.892857,-0.1785 z"
       id="path3078-8-8"
       inkscape:connector-curvature="0"
       sodipodi:nodetypes="ccccc" />
    <path
       style="fill:#ff6600;stroke:#000000;stroke-width:1px;stroke-linecap:round;stroke-linejoin:round;stroke-opacity:1"
       d="m 81.144133,25.424309 c 0,0 1.423386,-1.856476 3.657951,-0.414645 2.234293,1.442255 0.90791,3.549763 0.90791,3.549763 L 60.97147,70.182233 54.498285,68.370415 z"
       id="path2995-9-3"
       inkscape:connector-curvature="0"
       sodipodi:nodetypes="czcccc" />
    <path
       style="fill:#ffffff;stroke:#4c5157;stroke-width:1px;stroke-linecap:round;stroke-linejoin:miter;stroke-opacity:1"
       d="M 4.4194174,69.418143 C 2.0761827,59.649926 9.0913729,48.583746 16.793786,56.917505 c 0.378807,-12.2481 13.763328,-22.223357 19.192898,-9.975257 9.59645,-13.384522 29.673231,-3.282996 24.36993,7.323606 3.743611,-2.038597 10.590787,2.207079 7.770239,9.177952 7.61261,-5.626426 19.015233,0.982051 13.695503,8.878525"
       id="path4018"
       inkscape:connector-curvature="0"
       sodipodi:nodetypes="cccccc" />
    <g
       id="g4012"
       transform="matrix(0.77459971,0.63245181,-0.63245181,0.77459971,24.74482,6.3777202)"
       inkscape:transform-center-x="6.6922606"
       inkscape:transform-center-y="-35.734146">
      <path
         sodipodi:nodetypes="cccc"
         inkscape:connector-curvature="0"
         id="path2985-8"
         d="m 43.722746,27.600443 c 4.314734,0.20663 8.245717,-2.00893 9.491844,-11.54279 -5.134942,-0.33672 -12.45407,-4.49576 -15.404826,-1.01015 -0.534973,4.84069 2.620536,12.52714 5.912982,12.55294 z"
         style="fill:#ffb380;stroke:#000000;stroke-width:1px;stroke-linecap:round;stroke-linejoin:round;stroke-opacity:1" />
      <path
         sodipodi:nodetypes="ccc"
         inkscape:connector-curvature="0"
         id="path2989-4"
         d="m 37.410646,12.492683 c 4.727804,-9.6165496 6.887888,-10.2422796 16.517857,1.16072 -1.620672,4.15675 -17.575687,2.71799 -16.517857,-1.16072 z"
         style="fill:#800000;stroke:#000000;stroke-width:1px;stroke-linecap:round;stroke-linejoin:round;stroke-opacity:1" />
      <path
         sodipodi:nodetypes="ccccc"
         inkscape:connector-curvature="0"
         id="path3888-7"
         d="m 37.991003,16.555183 c 0.230006,3.83439 2.973894,5.83839 6.026785,5.75892 1.256701,-1.71532 1.167793,-1.69703 2.232143,0.0447 3.692788,0.73755 6.115897,-2.79645 6.651786,-5.58036 -0.752159,0.25162 -15.462518,0.19064 -14.910714,-0.22321 z"
         style="fill:#000080;stroke:#000000;stroke-width:1px;stroke-linecap:round;stroke-linejoin:round;stroke-opacity:1" />
      <path
         sodipodi:nodetypes="ccccc"
         inkscape:connector-curvature="0"
         id="path2987-3"
         d="m 37.332192,12.819203 c -1.060608,1.10392 -0.789995,2.36836 -0.135244,3.85645 4.825148,3.49291 8.896618,4.63537 15.852158,0.79723 0.396057,-1.09023 1.051235,-0.84005 0.83158,-3.93492 -5.748788,2.31853 -10.565571,4.45501 -16.548494,-0.71876 z"
         style="fill:#800000;stroke:#000000;stroke-width:1px;stroke-linecap:round;stroke-linejoin:round;stroke-opacity:1" />
    </g>
    <path
       style="fill:#ff6600;stroke:#000000;stroke-width:1px;stroke-linecap:round;stroke-linejoin:round;stroke-opacity:1"
       d="m 7.5925777,32.45396 c 0,0 -1.8652536,-1.411864 -3.6367346,0.571571 -1.771106,1.983771 0.06729,3.663412 0.06729,3.663412 l 34.9029359,33.559521 5.759702,-3.465645 z"
       id="path2995-4"
       inkscape:connector-curvature="0"
       sodipodi:nodetypes="czcccc" />
    <path
       style="fill:#000000;stroke:#000000;stroke-width:1px;stroke-linecap:round;stroke-linejoin:round;stroke-opacity:1"
       d="M 41.676606,21.476248 9.3350429,40.792199 c 0,0 -1.602596,-2.09442 -2.593561,-1.676607 -0.9909656,0.417813 0.5517104,2.939749 0.5517104,2.939749 l -1.0144679,1.371365 1.6755537,-0.269032 c 0,0 1.9368418,2.375319 2.7372109,1.757412 0.80036,-0.617906 -0.539952,-2.600621 -0.539952,-2.600621 z"
       id="path3015-3"
       inkscape:connector-curvature="0"
       sodipodi:nodetypes="cczccczcc" />
    <path
       style="fill:#4d4d4d;stroke:#000000;stroke-width:1px;stroke-linecap:round;stroke-linejoin:round;stroke-opacity:1"
       d="m 36.277517,29.456625 c -2.230168,1.038502 -3.143769,0.253569 -3.705591,-1.051006 l 2.361897,-1.266534 -2.593623,1.400888 c -4.045494,-6.193261 2.584765,-8.462146 6.699933,-3.574903 -0.323522,2.191601 -1.065947,3.177822 -2.762616,4.491555 z"
       id="path3098-80"
       inkscape:connector-curvature="0"
       sodipodi:nodetypes="cccccc" />
  </g>
</svg>
