<?xml version="1.0" encoding="UTF-8" standalone="no"?>
<!-- Created with Inkscape (http://www.inkscape.org/) -->

<svg
   xmlns:dc="http://purl.org/dc/elements/1.1/"
   xmlns:cc="http://creativecommons.org/ns#"
   xmlns:rdf="http://www.w3.org/1999/02/22-rdf-syntax-ns#"
   xmlns:svg="http://www.w3.org/2000/svg"
   xmlns="http://www.w3.org/2000/svg"
   xmlns:xlink="http://www.w3.org/1999/xlink"
   xmlns:sodipodi="http://sodipodi.sourceforge.net/DTD/sodipodi-0.dtd"
   xmlns:inkscape="http://www.inkscape.org/namespaces/inkscape"
   width="480"
   height="800"
   id="svg3908"
   version="1.1"
   inkscape:version="0.48.2 r9819"
   inkscape:export-filename="Y:\vilanet\fpg-sources\vilanet\11.png"
   inkscape:export-xdpi="90"
   inkscape:export-ydpi="90"
   sodipodi:docname="Documento nuevo 10">
  <defs
     id="defs3910">
    <linearGradient
       id="linearGradient4594">
      <stop
         style="stop-color:#4d4d4d;stop-opacity:1;"
         offset="0"
         id="stop4596" />
      <stop
         style="stop-color:#261f28;stop-opacity:1;"
         offset="1"
         id="stop4598" />
    </linearGradient>
    <linearGradient
       inkscape:collect="always"
       xlink:href="#linearGradient4594"
       id="linearGradient4600"
       x1="60.617321"
       y1="485.50726"
       x2="62.286507"
       y2="491.82071"
       gradientUnits="userSpaceOnUse"
       gradientTransform="matrix(0.5152694,0,0,0.5152694,361.04995,469.2503)" />
    <linearGradient
       inkscape:collect="always"
       xlink:href="#linearGradient4594-6"
       id="linearGradient4600-5"
       x1="60.617321"
       y1="485.50726"
       x2="62.286507"
       y2="491.82071"
       gradientUnits="userSpaceOnUse"
       gradientTransform="matrix(0.5152694,0,0,0.5152694,42.952193,490.67887)" />
    <linearGradient
       id="linearGradient4594-6">
      <stop
         style="stop-color:#4d4d4d;stop-opacity:1;"
         offset="0"
         id="stop4596-0" />
      <stop
         style="stop-color:#261f28;stop-opacity:1;"
         offset="1"
         id="stop4598-8" />
    </linearGradient>
    <linearGradient
       y2="491.82071"
       x2="62.286507"
       y1="485.50726"
       x1="60.617321"
       gradientTransform="matrix(0.5152694,0,0,0.5152694,366.45456,469.68031)"
       gradientUnits="userSpaceOnUse"
       id="linearGradient4617"
       xlink:href="#linearGradient4594-6"
       inkscape:collect="always" />
    <linearGradient
       inkscape:collect="always"
       xlink:href="#linearGradient4594-5"
       id="linearGradient4600-1"
       x1="60.617321"
       y1="485.50726"
       x2="62.286507"
       y2="491.82071"
       gradientUnits="userSpaceOnUse"
       gradientTransform="matrix(0.5152694,0,0,0.5152694,42.952193,490.67887)" />
    <linearGradient
       id="linearGradient4594-5">
      <stop
         style="stop-color:#4d4d4d;stop-opacity:1;"
         offset="0"
         id="stop4596-7" />
      <stop
         style="stop-color:#261f28;stop-opacity:1;"
         offset="1"
         id="stop4598-5" />
    </linearGradient>
    <linearGradient
       y2="491.82071"
       x2="62.286507"
       y1="485.50726"
       x1="60.617321"
       gradientTransform="matrix(0.5152694,0,0,0.5152694,364.05545,467.43903)"
       gradientUnits="userSpaceOnUse"
       id="linearGradient4617-7"
       xlink:href="#linearGradient4594-5"
       inkscape:collect="always" />
    <linearGradient
       inkscape:collect="always"
       xlink:href="#linearGradient4594-3"
       id="linearGradient4600-2"
       x1="60.617321"
       y1="485.50726"
       x2="62.286507"
       y2="491.82071"
       gradientUnits="userSpaceOnUse"
       gradientTransform="matrix(0.5152694,0,0,0.5152694,42.952193,490.67887)" />
    <linearGradient
       id="linearGradient4594-3">
      <stop
         style="stop-color:#4d4d4d;stop-opacity:1;"
         offset="0"
         id="stop4596-72" />
      <stop
         style="stop-color:#261f28;stop-opacity:1;"
         offset="1"
         id="stop4598-7" />
    </linearGradient>
    <linearGradient
       y2="491.82071"
       x2="62.286507"
       y1="485.50726"
       x1="60.617321"
       gradientTransform="matrix(0.5152694,0,0,0.5152694,273.27065,741.08768)"
       gradientUnits="userSpaceOnUse"
       id="linearGradient4617-9"
       xlink:href="#linearGradient4594-3"
       inkscape:collect="always" />
    <linearGradient
       inkscape:collect="always"
       xlink:href="#linearGradient4594-38"
       id="linearGradient4600-6"
       x1="60.617321"
       y1="485.50726"
       x2="62.286507"
       y2="491.82071"
       gradientUnits="userSpaceOnUse"
       gradientTransform="matrix(0.5152694,0,0,0.5152694,42.952193,490.67887)" />
    <linearGradient
       id="linearGradient4594-38">
      <stop
         style="stop-color:#4d4d4d;stop-opacity:1;"
         offset="0"
         id="stop4596-1" />
      <stop
         style="stop-color:#261f28;stop-opacity:1;"
         offset="1"
         id="stop4598-0" />
    </linearGradient>
    <linearGradient
       y2="491.82071"
       x2="62.286507"
       y1="485.50726"
       x1="60.617321"
       gradientTransform="matrix(0.5152694,0,0,0.5152694,71.413504,204.08768)"
       gradientUnits="userSpaceOnUse"
       id="linearGradient4617-6"
       xlink:href="#linearGradient4594-38"
       inkscape:collect="always" />
  </defs>
  <sodipodi:namedview
     id="base"
     pagecolor="#ffffff"
     bordercolor="#666666"
     borderopacity="1.0"
     inkscape:pageopacity="1"
     inkscape:pageshadow="2"
     inkscape:zoom="0.7"
     inkscape:cx="216.58795"
     inkscape:cy="339.56794"
     inkscape:document-units="px"
     inkscape:current-layer="layer1"
     showgrid="false"
     showguides="true"
     inkscape:guide-bbox="true"
     inkscape:window-width="1366"
     inkscape:window-height="706"
     inkscape:window-x="-8"
     inkscape:window-y="-8"
     inkscape:window-maximized="1">
    <sodipodi:guide
       orientation="1,0"
       position="101.42857,657.14286"
       id="guide4687" />
    <sodipodi:guide
       orientation="1,0"
       position="202.85714,650"
       id="guide4689" />
    <sodipodi:guide
       orientation="1,0"
       position="302.85714,652.85714"
       id="guide4691" />
    <sodipodi:guide
       orientation="1,0"
       position="388.57143,568.57143"
       id="guide4693" />
  </sodipodi:namedview>
  <metadata
     id="metadata3913">
    <rdf:RDF>
      <cc:Work
         rdf:about="">
        <dc:format>image/svg+xml</dc:format>
        <dc:type
           rdf:resource="http://purl.org/dc/dcmitype/StillImage" />
        <dc:title></dc:title>
      </cc:Work>
    </rdf:RDF>
  </metadata>
  <g
     inkscape:label="Capa 1"
     inkscape:groupmode="layer"
     id="layer1"
     transform="translate(0,-252.36218)">
    <path
       style="fill:url(#linearGradient4617-7);fill-opacity:1;stroke:none"
       d="m 391.57692,720.51146 c -1.42225,-1.5543 1.38161,-2.65809 3.57844,-2.92781 2.19684,-0.26973 6.02454,1.07158 5.07489,2.27719 -0.94965,1.20561 -7.23107,2.20492 -8.65333,0.65062 z"
       id="path4584-9"
       inkscape:connector-curvature="0"
       sodipodi:nodetypes="zzzz" />
    <path
       style="fill:none;stroke:#706d74;stroke-width:1px;stroke-linecap:round;stroke-linejoin:miter;stroke-opacity:1"
       d="m 101.42857,338.93395 c 12.79795,-11.66491 23.74686,-6.93104 23.99112,-6.81853 13.47988,-5.0298 13.78068,-0.42872 19.44544,0.25254 13.64697,-1.63837 17.81264,2.90796 19.44543,6.18718"
       id="path4022"
       inkscape:connector-curvature="0"
       sodipodi:nodetypes="cccc" />
    <path
       style="fill:none;stroke:#706d74;stroke-width:1px;stroke-linecap:round;stroke-linejoin:miter;stroke-opacity:1"
       d="m 283.15917,540.70772 c 11.36471,-6.08739 14.95957,-2.9013 19.69797,-1.38897 10.55338,-3.34299 17.43384,-0.24876 19.06663,3.03046"
       id="path4022-5"
       inkscape:connector-curvature="0"
       sodipodi:nodetypes="ccc" />
    <path
       style="fill:none;stroke:#706d74;stroke-width:1px;stroke-linecap:round;stroke-linejoin:miter;stroke-opacity:1"
       d="m 7.05864,899.20701 c 12.79795,-11.66491 24.12567,-2.63789 24.36993,-2.52538 13.47988,-5.0298 16.99496,-2.30372 19.44543,0.25253"
       id="path4022-2"
       inkscape:connector-curvature="0"
       sodipodi:nodetypes="ccc" />
    <path
       style="fill:#008000;stroke:#000000;stroke-width:1px;stroke-linecap:butt;stroke-linejoin:miter;stroke-opacity:0"
       d="m 100.87753,608.07754 c -0.70092,-6.2543 -2.58782,-11.89078 -9.99954,-13.9071 5.16906,1.17085 7.40914,0.43865 10.55058,8.6038 0.65548,-4.69048 -0.31213,-8.95515 -1.71175,-14.52729 4.52499,6.02143 4.5321,11.8089 5.09935,16.02457 0.8717,-5.15506 9.74438,-14.01696 9.74438,-14.01696 -4.43344,7.34019 -9.0055,13.52332 -9.26994,17.71574 -1.24739,0.65075 -2.68985,0.76504 -4.41308,0.10724 z"
       id="path4557"
       inkscape:connector-curvature="0"
       sodipodi:nodetypes="cccccccc" />
    <path
       style="fill:#008000;stroke:#000000;stroke-width:1px;stroke-linecap:butt;stroke-linejoin:miter;stroke-opacity:0"
       d="m 203.17413,840.6286 c -0.70093,-6.2543 -2.58783,-11.89078 -9.99955,-13.9071 5.16906,1.17085 7.40914,0.43865 10.55058,8.6038 0.65549,-4.69048 -0.31213,-8.95515 -1.71175,-14.52729 4.52499,6.02143 4.5321,11.8089 5.09935,16.02457 0.87171,-5.15506 9.74438,-14.01696 9.74438,-14.01696 -4.43344,7.34019 -9.0055,13.52332 -9.26994,17.71574 -1.24739,0.65075 -2.68985,0.76504 -4.41307,0.10724 z"
       id="path4557-1"
       inkscape:connector-curvature="0"
       sodipodi:nodetypes="cccccccc" />
    <path
       style="fill:#008000;stroke:#000000;stroke-width:1px;stroke-linecap:butt;stroke-linejoin:miter;stroke-opacity:0"
       d="m 303.17413,370.98413 c -0.70093,-6.2543 -2.58783,-11.89078 -9.99955,-13.9071 5.16906,1.17085 7.40914,0.43865 10.55058,8.6038 0.65548,-4.69048 -0.31213,-8.95515 -1.71175,-14.52729 4.52499,6.02143 4.5321,11.8089 5.09935,16.02457 0.87171,-5.15506 9.74438,-14.01696 9.74438,-14.01696 -4.43344,7.34019 -9.0055,13.52332 -9.26994,17.71574 -1.24739,0.65075 -2.68985,0.76504 -4.41307,0.10724 z"
       id="path4557-4"
       inkscape:connector-curvature="0"
       sodipodi:nodetypes="cccccccc" />
    <path
       style="fill:url(#linearGradient4600);fill-opacity:1;stroke:none"
       d="m 388.57143,722.32273 c -1.42226,-1.5543 1.3816,-2.65809 3.57844,-2.92781 2.19684,-0.26973 6.02453,1.07158 5.07488,2.27719 -0.94965,1.20561 -7.23107,2.20492 -8.65332,0.65062 z"
       id="path4584"
       inkscape:connector-curvature="0"
       sodipodi:nodetypes="zzzz" />
    <path
       style="fill:url(#linearGradient4617);fill-opacity:1;stroke:none"
       d="m 393.97603,722.75274 c -1.42225,-1.5543 1.38161,-2.65809 3.57845,-2.92781 2.19684,-0.26973 6.02453,1.07158 5.07488,2.27719 -0.94965,1.20561 -7.23107,2.20492 -8.65333,0.65062 z"
       id="path4584-8"
       inkscape:connector-curvature="0"
       sodipodi:nodetypes="zzzz" />
    <path
       style="fill:url(#linearGradient4617-9);fill-opacity:1;stroke:none"
       d="m 300.79212,994.16011 c -1.42225,-1.5543 1.3816,-2.6581 3.57844,-2.9278 2.19684,-0.2697 6.02453,1.0716 5.07489,2.2772 -0.94965,1.2056 -7.23107,2.2049 -8.65333,0.6506 z"
       id="path4584-3"
       inkscape:connector-curvature="0"
       sodipodi:nodetypes="zzzz" />
    <path
       style="fill:url(#linearGradient4617-6);fill-opacity:1;stroke:none"
       d="m 98.934978,457.16011 c -1.422254,-1.5543 1.381602,-2.65809 3.578442,-2.92781 2.19684,-0.26973 6.02453,1.07158 5.07488,2.27719 -0.94965,1.20561 -7.23107,2.20492 -8.653322,0.65062 z"
       id="path4584-87"
       inkscape:connector-curvature="0"
       sodipodi:nodetypes="zzzz" />
  </g>
</svg>
