<?xml version="1.0" encoding="UTF-8" standalone="no"?>
<!-- Created with Inkscape (http://www.inkscape.org/) -->
<svg
   xmlns:dc="http://purl.org/dc/elements/1.1/"
   xmlns:cc="http://web.resource.org/cc/"
   xmlns:rdf="http://www.w3.org/1999/02/22-rdf-syntax-ns#"
   xmlns:svg="http://www.w3.org/2000/svg"
   xmlns="http://www.w3.org/2000/svg"
   xmlns:xlink="http://www.w3.org/1999/xlink"
   xmlns:sodipodi="http://sodipodi.sourceforge.net/DTD/sodipodi-0.dtd"
   xmlns:inkscape="http://www.inkscape.org/namespaces/inkscape"
   width="210mm"
   height="297mm"
   id="svg10317"
   sodipodi:version="0.32"
   inkscape:version="0.44.1"
   sodipodi:docbase="D:\fenix\iparty"
   sodipodi:docname="bruja.svg">
  <defs
     id="defs10319" />
  <sodipodi:namedview
     id="base"
     pagecolor="#ffffff"
     bordercolor="#666666"
     borderopacity="1.0"
     inkscape:pageopacity="0.0"
     inkscape:pageshadow="2"
     inkscape:zoom="5.6"
     inkscape:cx="394.6506"
     inkscape:cy="588.93892"
     inkscape:document-units="px"
     inkscape:current-layer="layer1"
     inkscape:window-width="942"
     inkscape:window-height="573"
     inkscape:window-x="182"
     inkscape:window-y="218" />
  <metadata
     id="metadata10322">
    <rdf:RDF>
      <cc:Work
         rdf:about="">
        <dc:format>image/svg+xml</dc:format>
        <dc:type
           rdf:resource="http://purl.org/dc/dcmitype/StillImage" />
      </cc:Work>
    </rdf:RDF>
  </metadata>
  <g
     inkscape:label="Capa 1"
     inkscape:groupmode="layer"
     id="layer1">
    <image
       y="158.07646"
       x="22.857145"
       id="image10332"
       height="480"
       width="640"
       sodipodi:absref="D:\bruja.jpg"
       xlink:href="D:\bruja.jpg"
       style="fill:black" />
    <path
       style="fill:#999;fill-rule:evenodd;stroke:black;stroke-width:1px;stroke-linecap:butt;stroke-linejoin:miter;stroke-opacity:1"
       d="M 276.78571,489.50504 C 294.2761,492.43425 312.05527,493.19763 331.42857,482.00504 C 316.31846,476.52287 298.55609,477.8608 276.78571,489.50504 z "
       id="path15707"
       sodipodi:nodetypes="ccc" />
    <path
       style="fill:#999;fill-rule:evenodd;stroke:black;stroke-width:1px;stroke-linecap:butt;stroke-linejoin:miter;stroke-opacity:1"
       d="M 510.35714,370.93361 C 512.50028,392.19997 502.03713,407.7362 494.28572,424.50504 C 496.43514,406.6479 495.55492,388.79075 510.35714,370.93361 z "
       id="path15705"
       sodipodi:nodetypes="ccc" />
    <path
       style="fill:#784421;fill-rule:evenodd;stroke:black;stroke-width:1px;stroke-linecap:butt;stroke-linejoin:miter;stroke-opacity:1"
       d="M 402.85714,316.11218 C 395.2736,321.97515 393.63276,331.26213 379.28571,332.8979 L 356.78571,329.50504 L 393.57143,308.61218 L 402.85714,316.11218 z "
       id="path14818"
       sodipodi:nodetypes="ccccc" />
    <path
       style="fill:#fca;fill-rule:evenodd;stroke:black;stroke-width:1px;stroke-linecap:butt;stroke-linejoin:miter;stroke-opacity:1;fill-opacity:1"
       d="M 356.42857,356.6479 L 369.06907,340.89029 L 388.57143,335.21932 L 398.57143,316.6479 L 410.17857,319.86218 L 410.71429,340.21932 L 428.57143,360.93361 C 404.04851,371.86283 380.31142,362.36043 356.42857,356.6479 z "
       id="path10377"
       sodipodi:nodetypes="cccccccc" />
    <path
       style="fill:fuchsia;fill-rule:evenodd;stroke:black;stroke-width:1px;stroke-linecap:butt;stroke-linejoin:miter;stroke-opacity:1"
       d="M 360.35715,519.50504 L 352.5,516.6479 L 333.92857,545.93362 L 346.07143,542.36219 C 345.56715,553.55267 336.71496,564.74314 344.64286,575.93362 C 348.92613,581.45229 355.79528,584.26255 358.92857,565.21933 L 358.92857,522.36219 L 360.35715,519.50504 z "
       id="path10359"
       sodipodi:nodetypes="cccccccc" />
    <path
       style="fill:#a05a2c;fill-rule:evenodd;stroke:black;stroke-width:1px;stroke-linecap:butt;stroke-linejoin:miter;stroke-opacity:1"
       d="M 249.28571,519.50504 L 495.71428,448.07647 C 547.23636,444.41848 608.5228,455.36073 612.85715,447.71932 C 616.30996,441.63206 566.01811,417.0673 552.14286,418.07647 C 541.89666,418.82169 249.28571,505.21932 249.28571,505.21932"
       id="path10347"
       sodipodi:nodetypes="ccssc" />
    <path
       style="fill:#fca;fill-rule:evenodd;stroke:black;stroke-width:1px;stroke-linecap:butt;stroke-linejoin:miter;stroke-opacity:1;fill-opacity:1"
       d="M 381.42857,440.93361 L 395,441.6479 L 373.92857,473.07646 C 368.35893,471.95385 362.35042,471.70895 355.35714,473.43361 C 361.58429,462.78262 365.61074,446.35332 381.42857,440.93361 z "
       id="path10375"
       sodipodi:nodetypes="ccccc" />
    <path
       style="fill:#fca;fill-rule:evenodd;stroke:black;stroke-width:1px;stroke-linecap:butt;stroke-linejoin:miter;stroke-opacity:1;fill-opacity:1"
       d="M 427.14286,269.68361 C 430.73919,274.93112 429.25119,280.77635 427.14286,286.82647 C 428.01153,292.6574 430.96645,299.76244 430.22943,302.43123 C 429.59013,304.74618 428.86246,303.95773 426.60714,305.75503 C 423.64759,312.25119 423.91641,324.09522 415.53572,323.25504 C 402.4904,322.34604 393.025,313.21813 385,303.79075 L 405,268.79075 L 427.14286,269.68361 z "
       id="path13036"
       sodipodi:nodetypes="ccsccccc" />
    <path
       style="fill:#c87137;fill-rule:evenodd;stroke:black;stroke-width:1px;stroke-linecap:butt;stroke-linejoin:miter;stroke-opacity:1"
       d="M 410,275.39789 C 402.17963,295.28663 392.13352,331.33328 364.64286,333.43361 C 368.34586,329.29656 369.04778,331.28545 368.03571,324.14789 C 359.85844,330.38393 358.58352,332.40912 345.71429,331.6479 C 352.45328,327.54299 359.38513,323.92026 364.28571,315.21932 L 385.71429,273.07647 L 410,275.39789 z "
       id="path13040"
       sodipodi:nodetypes="ccccccc" />
    <path
       style="fill:#fca;fill-rule:evenodd;stroke:black;stroke-width:1px;stroke-linecap:butt;stroke-linejoin:miter;stroke-opacity:1;fill-opacity:1"
       d="M 407.14286,285.21932 C 397.24582,273.71453 396.11185,293.3652 401.42857,301.6479"
       id="path13038"
       sodipodi:nodetypes="cc" />
    <path
       style="fill:#c87137;fill-rule:evenodd;stroke:black;stroke-width:1px;stroke-linecap:butt;stroke-linejoin:miter;stroke-opacity:1;fill-opacity:1"
       d="M 405.71429,295.75503 C 409.88785,288.40353 414.82166,282.12421 415.71429,272.89789 L 406.42858,274.86218 C 407.16833,285.75617 406.83599,290.50108 405.71429,295.75503 z "
       id="path14816"
       sodipodi:nodetypes="cccc" />
    <path
       style="fill:fuchsia;fill-rule:evenodd;stroke:black;stroke-width:1px;stroke-linecap:butt;stroke-linejoin:miter;stroke-opacity:1"
       d="M 310.71429,306.52535 L 398.73477,281.93139 L 505,252.23963 L 425.71429,231.52535 L 387.14286,168.66821 L 340.71429,202.95392 L 350,242.95392 L 355.71429,208.66821 L 382.14286,190.09678 L 370.71429,245.09678 L 310.71429,306.52535 z "
       id="path10335"
       sodipodi:nodetypes="ccccccccccc" />
    <path
       style="fill:blue;fill-rule:evenodd;stroke:black;stroke-width:1px;stroke-linecap:butt;stroke-linejoin:miter;stroke-opacity:1"
       d="M 367.14286,265.09678 C 394.06473,266.44052 420.72295,266.54267 438.21429,249.02535 C 433.25775,245.83097 431.00504,239.51955 426.07143,232.59678 L 370.71429,245.81106 C 369.11487,254.97538 369.90223,261.00627 367.14286,265.09678 z "
       id="path10337"
       sodipodi:nodetypes="ccccc" />
    <path
       style="fill:fuchsia;fill-rule:evenodd;stroke:black;stroke-width:1px;stroke-linecap:butt;stroke-linejoin:miter;stroke-opacity:1"
       d="M 345.71429,515.21932 C 332.47286,515.61323 325.96732,526.11097 317.77048,534.07175 L 332.43872,529.99525 C 328.88473,537.88305 325.48955,554.94129 325.95939,566.84968 C 328.41813,580.19794 341.15166,580.95782 344.28571,560.93361 L 344.28571,518.07647 L 345.71429,515.21932 z "
       id="path10355"
       sodipodi:nodetypes="ccccccc" />
    <path
       style="fill:blue;fill-rule:evenodd;stroke:black;stroke-width:1px;stroke-linecap:butt;stroke-linejoin:miter;stroke-opacity:1"
       d="M 411.74239,442.57139 C 420.20775,443.37876 438.31481,436.14923 435.53571,450.21933 C 432.75661,464.28943 368.96252,528.30078 365.71429,533.79075 C 362.54465,539.14789 358.57143,558.79075 358.57143,558.79075 C 349.90138,563.18952 350.95578,550.57052 353.57143,535.21932 C 364.77402,496.06477 392.09953,473.28567 411.74239,442.57139 z "
       id="path10345"
       sodipodi:nodetypes="czzccc" />
    <path
       style="fill:blue;fill-rule:evenodd;stroke:black;stroke-width:1px;stroke-linecap:butt;stroke-linejoin:miter;stroke-opacity:1"
       d="M 390.35715,439.86218 C 399.77692,440.07775 416.402,437.21537 416.42857,443.79075 C 416.51275,464.98304 367.48197,515.8965 356.25,527.36218 C 351.9841,531.71684 344.59462,543.25504 344.28572,557.00504 C 336.07849,564.47594 333.1448,542.91833 345.17857,515.21932 L 388.57143,458.07647 L 376.25,474.86218 L 367.5,475.21933 C 370.90458,461.99079 375.63947,454.13905 390.35715,439.86218 z "
       id="path10343"
       sodipodi:nodetypes="csscccccc" />
    <path
       style="fill:none;fill-rule:evenodd;stroke:#520;stroke-width:2;stroke-linecap:round;stroke-linejoin:round;stroke-miterlimit:4;stroke-dasharray:none;stroke-opacity:1"
       d="M 505.71428,439.50504 L 554.28571,425.93361 L 596.42857,441.64789 L 527.85714,441.29075 L 550.71428,432.36218 L 567.85714,435.93361"
       id="path10349"
       sodipodi:nodetypes="cccccc" />
    <path
       style="fill:#fca;fill-rule:evenodd;stroke:black;stroke-width:1px;stroke-linecap:butt;stroke-linejoin:miter;stroke-opacity:1;fill-opacity:1"
       d="M 509.36865,371.6479 C 544.24686,356.38026 539.0653,402.79511 500.71429,386.6479 L 509.36865,371.6479 z "
       id="path10367"
       sodipodi:nodetypes="ccc" />
    <path
       style="fill:white;fill-rule:evenodd;stroke:black;stroke-width:1px;stroke-linecap:butt;stroke-linejoin:miter;stroke-opacity:1"
       d="M 355,355.93361 C 379.6598,360.35601 404.05624,367.28029 430,359.50504 C 450.94527,378.33353 481.38414,371.84574 510,370.21932 C 497.01974,388.31456 493.86658,406.4098 494.28571,424.50504 C 472.87412,401.03868 452.52844,378.1272 420.71429,373.07647 L 401.42857,396.6479 L 351.55113,403.9133 L 363.57143,382.36218 C 340.72981,415.54408 335.85565,448.72597 331.46447,481.90787 C 317.52609,476.18424 301.66876,477.83427 276.76033,488.66821 L 332.14286,413.07647 L 355,355.93361 z "
       id="path10351"
       sodipodi:nodetypes="cccccccccccc" />
    <path
       style="fill:none;fill-rule:evenodd;stroke:black;stroke-width:5;stroke-linecap:round;stroke-linejoin:miter;stroke-opacity:1;stroke-miterlimit:4;stroke-dasharray:none"
       d="M 480.71429,425.21932 L 562.85714,326.6479"
       id="path10339" />
    <path
       style="fill:fuchsia;fill-rule:evenodd;stroke:black;stroke-width:1px;stroke-linecap:butt;stroke-linejoin:miter;stroke-opacity:1"
       d="M 417.14286,346.69122 C 418.38121,364.17785 420.36549,375.77705 410.47969,399.44376 C 403.73357,411.26066 385.00851,426.95035 385.70685,438.62487 L 367.14286,436.6479 L 387.35207,439.38249 C 371.43574,446.25929 366.0637,460.5171 359.28571,473.79075 L 332.19361,481.41331 C 334.0783,457.78658 337.58581,427.7059 352.31617,402.81649 C 352.31617,402.81649 373.92857,397.54075 380,380.93361 C 386.07143,364.32647 372.56128,340.176 372.56128,340.176 L 379.37237,337.86726 C 379.37237,337.86726 391.85441,375.5289 401.42857,375.93361 C 411.25482,376.34898 412.73341,352.69592 414.54123,343.69979 C 416.6246,345.95173 416.22517,344.53222 417.14286,346.69122 z "
       id="path10341"
       sodipodi:nodetypes="cccccccczcczcc" />
    <path
       style="fill:olive;fill-rule:evenodd;stroke:black;stroke-width:1px;stroke-linecap:butt;stroke-linejoin:miter;stroke-opacity:1"
       d="M 135,511.6479 L 237.85714,508.07647 L 264.28571,488.79075 L 241.42857,512.36218 L 272.14286,496.6479 L 242.14286,517.36218 L 276.42857,511.6479 L 245.71429,523.07647 L 55,610.21933 L 95,573.07647 L 74.285714,579.50504 L 118.57143,549.50504 L 105.71429,550.93361 L 136.42857,529.50504 L 117.85714,533.79075 L 144.28571,520.21932 L 110.71429,523.07647 L 135,511.6479 z "
       id="path10361" />
    <path
       style="fill:none;fill-rule:evenodd;stroke:black;stroke-width:5;stroke-linecap:round;stroke-linejoin:miter;stroke-opacity:1;stroke-miterlimit:4;stroke-dasharray:none"
       d="M 240,498.79075 L 252.14286,526.6479 L 232.85714,501.6479 L 242.85714,529.50504"
       id="path10363" />
    <path
       style="fill:#fca;fill-rule:evenodd;stroke:black;stroke-width:1px;stroke-linecap:butt;stroke-linejoin:miter;stroke-opacity:1"
       d="M 297.14286,483.07647 C 283.028,492.36006 288.85998,519.51022 307.37309,512.20374 C 316.11944,507.59897 317.27245,497.02702 312.14286,486.6479 L 322.35206,484.38249 C 321.31489,475.84467 311.62274,476.82731 297.14286,483.07647 z "
       id="path10365"
       sodipodi:nodetypes="ccccc" />
    <path
       style="fill:#fca;fill-rule:evenodd;stroke:black;stroke-width:1px;stroke-linecap:butt;stroke-linejoin:miter;stroke-opacity:1;fill-opacity:1"
       d="M 518.57143,383.07647 C 523.0133,384.71117 525.91554,377.51849 527.51794,369.12995 C 516.09569,362.73093 511.15312,377.76097 518.57143,383.07647 z "
       id="path10369"
       sodipodi:nodetypes="ccc" />
    <path
       sodipodi:type="star"
       style="opacity:1;fill:#ffd42a;fill-opacity:1;stroke:black;stroke-width:1;stroke-linecap:round;stroke-linejoin:round;stroke-miterlimit:4;stroke-dasharray:none;stroke-opacity:1"
       id="path10373"
       sodipodi:sides="5"
       sodipodi:cx="572.85714"
       sodipodi:cy="314.50504"
       sodipodi:r1="28.571429"
       sodipodi:r2="14.078943"
       sodipodi:arg1="-0.92729522"
       sodipodi:arg2="-0.29897669"
       inkscape:flatsided="false"
       inkscape:rounded="0"
       inkscape:randomized="0"
       d="M 589.99997,291.64789 L 586.3115,310.35819 L 599.89299,323.74562 L 580.95863,326.01946 L 572.42335,343.07317 L 564.40975,325.76819 L 545.55316,322.92053 L 559.53484,309.95162 L 556.41612,291.13796 L 573.07086,300.42771 L 589.99997,291.64789 z " />
    <path
       style="fill:none;fill-rule:evenodd;stroke:black;stroke-width:5;stroke-linecap:round;stroke-linejoin:miter;stroke-opacity:1;stroke-miterlimit:4;stroke-dasharray:none"
       d="M 389.28571,331.6479 L 412.14286,340.21932"
       id="path10379" />
    <path
       sodipodi:type="arc"
       style="opacity:1;fill:#28170b;fill-opacity:1;stroke:none;stroke-width:5;stroke-linecap:round;stroke-linejoin:round;stroke-miterlimit:4;stroke-dasharray:none;stroke-opacity:1"
       id="path13927"
       sodipodi:cx="417.5"
       sodipodi:cy="283.79074"
       sodipodi:rx="1.7857143"
       sodipodi:ry="6.4285712"
       d="M 419.28571 283.79074 A 1.7857143 6.4285712 0 1 1  415.71429,283.79074 A 1.7857143 6.4285712 0 1 1  419.28571 283.79074 z"
       transform="matrix(2,0,0,1.222222,-415.7143,-61.63604)" />
    <path
       sodipodi:type="arc"
       style="opacity:1;fill:blue;fill-opacity:1;stroke:none;stroke-width:5;stroke-linecap:round;stroke-linejoin:round;stroke-miterlimit:4;stroke-dasharray:none;stroke-opacity:1"
       id="path13929"
       sodipodi:cx="401.07144"
       sodipodi:cy="300.21933"
       sodipodi:rx="3.2142856"
       sodipodi:ry="3.5714285"
       d="M 404.28573 300.21933 A 3.2142856 3.5714285 0 1 1  397.85716,300.21933 A 3.2142856 3.5714285 0 1 1  404.28573 300.21933 z" />
    <path
       style="fill:none;fill-rule:evenodd;stroke:#715b00;stroke-width:2;stroke-linecap:butt;stroke-linejoin:miter;stroke-opacity:1;fill-opacity:1;stroke-miterlimit:4;stroke-dasharray:none"
       d="M 95,574.50504 L 205.71429,533.07647"
       id="path16594" />
    <path
       style="fill:none;fill-rule:evenodd;stroke:#715b00;stroke-width:2;stroke-linecap:butt;stroke-linejoin:miter;stroke-opacity:1;fill-opacity:1;stroke-miterlimit:4;stroke-dasharray:none"
       d="M 120,548.79075 L 212.85714,524.50504"
       id="path16596" />
    <path
       style="fill:none;fill-rule:evenodd;stroke:#715b00;stroke-width:2;stroke-linecap:butt;stroke-linejoin:miter;stroke-opacity:1;fill-opacity:1;stroke-miterlimit:4;stroke-dasharray:none"
       d="M 141.42857,530.93361 L 234.28571,515.21932"
       id="path16598" />
    <path
       style="fill:none;fill-rule:evenodd;stroke:#715b00;stroke-width:2;stroke-linecap:butt;stroke-linejoin:miter;stroke-opacity:1;fill-opacity:1;stroke-miterlimit:4;stroke-dasharray:none"
       d="M 145,520.21932 L 235,512.36218"
       id="path16600" />
  </g>
</svg>
