<?xml version="1.0" encoding="UTF-8" standalone="no"?>
<!-- Created with Inkscape (http://www.inkscape.org/) -->
<svg
   xmlns:dc="http://purl.org/dc/elements/1.1/"
   xmlns:cc="http://web.resource.org/cc/"
   xmlns:rdf="http://www.w3.org/1999/02/22-rdf-syntax-ns#"
   xmlns:svg="http://www.w3.org/2000/svg"
   xmlns="http://www.w3.org/2000/svg"
   xmlns:xlink="http://www.w3.org/1999/xlink"
   xmlns:sodipodi="http://sodipodi.sourceforge.net/DTD/sodipodi-0.dtd"
   xmlns:inkscape="http://www.inkscape.org/namespaces/inkscape"
   width="210mm"
   height="297mm"
   id="svg2819"
   sodipodi:version="0.32"
   inkscape:version="0.44.1"
   sodipodi:docbase="D:\fenix\iparty"
   sodipodi:docname="malo2.svg">
  <defs
     id="defs2821" />
  <sodipodi:namedview
     id="base"
     pagecolor="#ffffff"
     bordercolor="#666666"
     borderopacity="1.0"
     inkscape:pageopacity="0.0"
     inkscape:pageshadow="2"
     inkscape:zoom="0.7"
     inkscape:cx="354.99685"
     inkscape:cy="224.43864"
     inkscape:document-units="px"
     inkscape:current-layer="layer1"
     inkscape:window-width="942"
     inkscape:window-height="573"
     inkscape:window-x="176"
     inkscape:window-y="208" />
  <metadata
     id="metadata2824">
    <rdf:RDF>
      <cc:Work
         rdf:about="">
        <dc:format>image/svg+xml</dc:format>
        <dc:type
           rdf:resource="http://purl.org/dc/dcmitype/StillImage" />
      </cc:Work>
    </rdf:RDF>
  </metadata>
  <g
     inkscape:label="Capa 1"
     inkscape:groupmode="layer"
     id="layer1">
    <image
       y="82.647903"
       x="144"
       id="image2834"
       height="288"
       width="352"
       sodipodi:absref="D:\fenix\iparty\graficos\malo2.jpg"
       xlink:href="graficos\malo2.jpg" />
    <path
       style="fill:olive;fill-rule:evenodd;stroke:black;stroke-width:1px;stroke-linecap:butt;stroke-linejoin:miter;stroke-opacity:1;fill-opacity:1"
       d="M 283.21429,293.43361 L 304.28571,295.57647 C 305.28469,310.00538 343.02748,312.18635 364.28571,319.86218 L 262.14286,319.1479 C 264.5677,309.51517 268.57127,300.24676 283.21429,293.43361 z "
       id="path5528"
       sodipodi:nodetypes="ccccc" />
    <path
       style="fill:green;fill-rule:evenodd;stroke:black;stroke-width:1px;stroke-linecap:butt;stroke-linejoin:miter;stroke-opacity:1"
       d="M 293.95439,217.4711 C 316.17775,226.56248 337.39095,241.20969 350.01786,240.19954 C 362.64476,239.18938 402.54579,238.68431 404.56609,231.61324 C 414.16254,228.58278 434.87067,246.76553 434.87067,246.76553 C 434.87067,246.76553 411.13209,256.36198 403.55595,250.30106 C 402.54579,243.22999 374.26152,245.75537 349.00771,251.31121 C 323.75389,256.86705 308.6016,231.61324 286.88332,239.18938 C 265.16504,246.76553 250.51783,254.84675 250.51783,254.84675 C 250.51783,254.84675 249.0026,245.75537 241.93153,247.2706 C 234.86047,248.78583 237.38818,235.47684 230.31478,233.38101 C 230.69126,230.65383 235.36554,220.50156 235.36554,220.50156 C 235.36554,220.50156 259.6092,202.82389 293.95439,217.4711 z "
       id="path2837"
       sodipodi:nodetypes="cscccsscsccc" />
    <path
       style="fill:#deaa87;fill-rule:evenodd;stroke:black;stroke-width:1px;stroke-linecap:butt;stroke-linejoin:miter;stroke-opacity:1"
       d="M 239.40615,247.2706 C 237.1732,255.77096 229.93888,259.46211 223.24371,264.4432 C 233.81353,262.76042 244.9877,261.85466 251.02291,254.34167 C 249.03726,250.18007 248.74958,244.39432 239.40615,247.2706 z "
       id="path2839"
       sodipodi:nodetypes="cccc" />
    <path
       style="fill:#deaa87;fill-rule:evenodd;stroke:black;stroke-width:1px;stroke-linecap:butt;stroke-linejoin:miter;stroke-opacity:1"
       d="M 230.81986,231.99204 C 235.97828,229.93518 238.27253,226.3754 236.3757,219.99648 C 227.95776,218.94859 219.53982,221.89156 211.12188,227.57263 C 219.33675,226.66487 226.60456,227.56703 230.81986,231.99204 z "
       id="path2841"
       sodipodi:nodetypes="cccc" />
    <path
       style="fill:#deaa87;fill-rule:evenodd;stroke:black;stroke-width:1px;stroke-linecap:butt;stroke-linejoin:miter;stroke-opacity:1"
       d="M 230.56731,232.11831 C 241.28257,230.94996 241.4107,245.07468 238.90108,247.2706 L 213.14219,246.76553 L 230.56731,232.11831 z "
       id="path2843"
       sodipodi:nodetypes="cccc" />
    <path
       style="fill:red;fill-rule:evenodd;stroke:black;stroke-width:1px;stroke-linecap:butt;stroke-linejoin:miter;stroke-opacity:1"
       d="M 244.33436,234.55704 C 249.04714,229.27884 254.79627,226.41879 263.52726,230.51643 C 258.6852,238.08559 251.85523,237.70312 244.33436,234.55704 z "
       id="path2845"
       sodipodi:nodetypes="ccc" />
    <path
       style="fill:olive;fill-rule:evenodd;stroke:black;stroke-width:1px;stroke-linecap:butt;stroke-linejoin:miter;stroke-opacity:1"
       d="M 388.33802,173.94788 C 359.57532,189.01207 314.57463,200.38271 310.0512,232.03166 L 290.8583,229.50628 L 289.34307,181.01895 L 388.33802,173.94788 z "
       id="path2853"
       sodipodi:nodetypes="ccccc" />
    <path
       style="fill:olive;fill-rule:evenodd;stroke:black;stroke-width:1px;stroke-linecap:butt;stroke-linejoin:miter;stroke-opacity:1"
       d="M 357.52837,110.39493 C 352.5744,139.37493 366.93092,161.33599 388.33803,174.45296 L 290.85831,171.92758 L 357.52837,110.39493 z "
       id="path2851"
       sodipodi:nodetypes="cccc" />
    <path
       style="fill:green;fill-rule:evenodd;stroke:black;stroke-width:1px;stroke-linecap:butt;stroke-linejoin:miter;stroke-opacity:1"
       d="M 277.24399,227.21811 C 278.62529,226.72577 281.1434,225.25428 281.0532,224.14231 C 279.63087,206.60821 271.6934,188.59386 281.76693,170.91743 C 308.11756,135.87008 337.32532,125.41862 365.10452,102.73213 C 345.74326,124.11369 314.98983,147.42207 298.43444,168.89713 C 329.04689,171.98528 371.33136,170.92228 403.49031,172.93773 C 367.77053,178.4774 305.15571,180.87102 292.37353,182.53418 C 285.36291,186.05029 293.21533,217.5528 291.86846,231.0215"
       id="path2849"
       sodipodi:nodetypes="cscccccc" />
    <path
       style="fill:#fc0;fill-rule:evenodd;stroke:none;stroke-width:1px;stroke-linecap:butt;stroke-linejoin:miter;stroke-opacity:1;fill-opacity:0.26404494"
       d="M 356.20885,119.02842 C 355.21778,138.17601 365.37143,157.79563 376.69597,167.15298 C 357.75598,168.64347 329.53512,167.41874 309.64286,164.14789 C 322.41468,152.19211 341.87163,130.09586 356.20885,119.02842 z "
       id="path2855"
       sodipodi:nodetypes="cccc" />
    <path
       style="fill:#fc0;fill-rule:evenodd;stroke:none;stroke-width:1px;stroke-linecap:butt;stroke-linejoin:miter;stroke-opacity:1;fill-opacity:0.26404494"
       d="M 372.05312,181.69122 C 347.57712,191.66779 314.25525,206.08625 310.06871,231.23691 L 296.93365,229.80834 C 298.80629,218.03554 291.98726,194.55395 296.78571,188.07646 C 320.0078,182.11628 352.21417,184.26825 372.05312,181.69122 z "
       id="path2857"
       sodipodi:nodetypes="ccccc" />
    <path
       style="fill:black;fill-rule:evenodd;stroke:none;stroke-width:1px;stroke-linecap:butt;stroke-linejoin:miter;stroke-opacity:1;fill-opacity:0.29608938"
       d="M 241.07143,245.9336 C 260.39408,244.39658 275.63094,237.90012 293.21428,232.71933 C 297.97619,231.17171 315.55186,240.27161 338.92858,245.57646 C 351.30746,247.83319 366.31115,245.58052 380,245.57646 C 365.94831,248.66764 353.02218,251.45579 337.14286,251.6479 C 324.48441,248.88968 307.60102,238.74926 291.78572,237.36218 L 251.16072,253.96933 C 248.86962,249.88127 246.21345,246.22043 241.07143,245.9336 z "
       id="path3744"
       sodipodi:nodetypes="cccccccc" />
    <path
       style="fill:yellow;fill-rule:evenodd;stroke:none;stroke-width:1px;stroke-linecap:butt;stroke-linejoin:miter;stroke-opacity:1"
       d="M 256.78571,230.57647 L 253.75,234.68361 L 259.28571,232.18361 L 256.78571,230.57647 z "
       id="path3746" />
    <path
       style="fill:black;fill-rule:evenodd;stroke:none;stroke-width:1px;stroke-linecap:butt;stroke-linejoin:miter;stroke-opacity:1;fill-opacity:0.3463687"
       d="M 239.40615,239.69446 C 240.44706,242.03193 239.6192,244.36941 239.06433,246.70688 L 214.27444,246.34974 C 222.65168,244.61495 231.02891,244.8738 239.40615,239.69446 z "
       id="path4633"
       sodipodi:nodetypes="cccc" />
    <path
       style="fill:black;fill-rule:evenodd;stroke:none;stroke-width:1px;stroke-linecap:butt;stroke-linejoin:miter;stroke-opacity:1;fill-opacity:0.3463687"
       d="M 224.5064,263.93812 C 233.43461,260.61136 242.62272,257.62249 249.25514,251.31121 L 250.51783,254.34167 C 246.20924,260.42805 234.57952,262.94346 224.5064,263.93812 z "
       id="path4637"
       sodipodi:nodetypes="cccc" />
    <path
       style="fill:black;fill-rule:evenodd;stroke:none;stroke-width:1px;stroke-linecap:butt;stroke-linejoin:miter;stroke-opacity:1;fill-opacity:0.3463687"
       d="M 234.60793,229.59293 C 226.08557,222.16809 219.42477,225.46701 212.44322,227.00891 C 220.3237,228.07962 227.86034,227.41651 230.56732,232.11831 L 234.60793,229.59293 z "
       id="path4639"
       sodipodi:nodetypes="cccc" />
    <path
       style="fill:olive;fill-rule:evenodd;stroke:black;stroke-width:1px;stroke-linecap:butt;stroke-linejoin:miter;stroke-opacity:1;fill-opacity:1"
       d="M 361.42857,320.93361 L 266.07143,327.00504 C 272.1468,341.48125 315.52953,349.89251 353.21429,358.07647 C 344.12183,341.06617 348.64683,329.38444 361.42857,320.93361 z "
       id="path5530"
       sodipodi:nodetypes="cccc" />
    <path
       style="fill:green;fill-rule:evenodd;stroke:black;stroke-width:1px;stroke-linecap:butt;stroke-linejoin:miter;stroke-opacity:1;fill-opacity:1"
       d="M 264.64286,292.00504 C 269.37568,292.93824 268.68866,296.89462 267.60429,298.16439 C 258.23376,309.13697 252.28922,316.29476 249.28571,327.71932 C 264.43512,347.60146 324.28572,356.88598 365.35715,360.57646 C 331.78571,352.95742 267.702,335.02555 269.64285,330.57646 C 273.09712,323.75691 342.252,324.28438 375,319.50504 C 340.57242,318.51166 273.55824,320.54962 268.92857,316.6479 C 262.97358,309.97017 279.94798,300.66914 283.57143,292.71932"
       id="path5526"
       sodipodi:nodetypes="cscccccc" />
    <path
       style="fill:green;fill-rule:evenodd;stroke:black;stroke-width:1px;stroke-linecap:butt;stroke-linejoin:miter;stroke-opacity:1"
       d="M 269.52955,616.06558 C 291.75291,625.15696 312.96611,639.80417 325.59302,638.79402 C 338.21992,637.78386 374.08034,618.08589 376.10064,611.01482 C 385.69709,607.98436 406.9103,614.55036 406.9103,614.55036 C 406.9103,614.55036 384.68695,632.22803 375.0905,629.70264 C 371.55496,623.64172 349.83668,644.34985 324.58287,649.90569 C 299.32905,655.46153 284.17676,630.20772 262.45848,637.78386 C 240.7402,645.36001 226.09299,653.44123 226.09299,653.44123 C 226.09299,653.44123 224.57776,644.34985 217.50669,645.86508 C 210.43563,647.38031 212.96334,634.07132 205.88994,631.97549 C 206.26642,629.24831 210.9407,619.09604 210.9407,619.09604 C 210.9407,619.09604 235.18436,601.41837 269.52955,616.06558 z "
       id="path5532"
       sodipodi:nodetypes="cscccsscsccc"
       inkscape:export-filename="D:\fenix\iparty\malo23.png"
       inkscape:export-xdpi="58.779491"
       inkscape:export-ydpi="58.779491" />
    <path
       style="fill:#deaa87;fill-rule:evenodd;stroke:black;stroke-width:1px;stroke-linecap:butt;stroke-linejoin:miter;stroke-opacity:1"
       d="M 214.98131,645.86508 C 212.74836,654.36544 205.51404,658.05659 198.81887,663.03768 C 209.38869,661.3549 220.56286,660.44914 226.59807,652.93615 C 224.61242,648.77455 224.32474,642.9888 214.98131,645.86508 z "
       id="path5534"
       sodipodi:nodetypes="cccc"
       inkscape:export-filename="D:\fenix\iparty\malo23.png"
       inkscape:export-xdpi="58.779491"
       inkscape:export-ydpi="58.779491" />
    <path
       style="fill:#deaa87;fill-rule:evenodd;stroke:black;stroke-width:1px;stroke-linecap:butt;stroke-linejoin:miter;stroke-opacity:1"
       d="M 206.39502,630.58652 C 211.55344,628.52966 213.84769,624.96988 211.95086,618.59096 C 203.53292,617.54307 195.11498,620.48604 186.69704,626.16711 C 194.91191,625.25935 202.17972,626.16151 206.39502,630.58652 z "
       id="path5536"
       sodipodi:nodetypes="cccc"
       inkscape:export-filename="D:\fenix\iparty\malo23.png"
       inkscape:export-xdpi="58.779491"
       inkscape:export-ydpi="58.779491" />
    <path
       style="fill:#deaa87;fill-rule:evenodd;stroke:black;stroke-width:1px;stroke-linecap:butt;stroke-linejoin:miter;stroke-opacity:1"
       d="M 206.14247,630.71279 C 216.85773,629.54444 216.98586,643.66916 214.47624,645.86508 L 188.71735,645.36001 L 206.14247,630.71279 z "
       id="path5538"
       sodipodi:nodetypes="cccc"
       inkscape:export-filename="D:\fenix\iparty\malo23.png"
       inkscape:export-xdpi="58.779491"
       inkscape:export-ydpi="58.779491" />
    <path
       style="fill:red;fill-rule:evenodd;stroke:black;stroke-width:1px;stroke-linecap:butt;stroke-linejoin:miter;stroke-opacity:1"
       d="M 219.90952,633.15152 C 224.6223,627.87332 230.37143,625.01327 239.10242,629.11091 C 234.26036,636.68007 227.43039,636.2976 219.90952,633.15152 z "
       id="path5540"
       sodipodi:nodetypes="ccc"
       inkscape:export-filename="D:\fenix\iparty\malo23.png"
       inkscape:export-xdpi="58.779491"
       inkscape:export-ydpi="58.779491" />
    <path
       style="fill:black;fill-opacity:0.29608938;fill-rule:evenodd;stroke:none;stroke-width:1px;stroke-linecap:butt;stroke-linejoin:miter;stroke-opacity:1"
       d="M 216.64659,644.52808 C 235.96924,642.99106 251.2061,636.4946 268.78944,631.31381 C 273.55135,629.76619 291.12702,638.86609 314.50374,644.17094 C 326.88262,646.42767 337.24345,642.38929 349.50373,638.8138 C 340.45204,644.40498 328.59734,650.05027 312.71802,650.24238 C 300.05957,647.48416 283.17618,637.34374 267.36088,635.95666 L 226.73588,652.56381 C 224.44478,648.47575 221.78861,644.81491 216.64659,644.52808 z "
       id="path5542"
       sodipodi:nodetypes="cccccccc"
       inkscape:export-filename="D:\fenix\iparty\malo23.png"
       inkscape:export-xdpi="58.779491"
       inkscape:export-ydpi="58.779491" />
    <path
       style="fill:yellow;fill-rule:evenodd;stroke:none;stroke-width:1px;stroke-linecap:butt;stroke-linejoin:miter;stroke-opacity:1"
       d="M 232.36087,629.17095 L 229.32516,633.27809 L 234.86087,630.77809 L 232.36087,629.17095 z "
       id="path5544"
       inkscape:export-filename="D:\fenix\iparty\malo23.png"
       inkscape:export-xdpi="58.779491"
       inkscape:export-ydpi="58.779491" />
    <path
       style="fill:black;fill-opacity:0.34636871;fill-rule:evenodd;stroke:none;stroke-width:1px;stroke-linecap:butt;stroke-linejoin:miter;stroke-opacity:1"
       d="M 214.98131,638.28894 C 216.02222,640.62641 215.19436,642.96389 214.63949,645.30136 L 189.8496,644.94422 C 198.22684,643.20943 206.60407,643.46828 214.98131,638.28894 z "
       id="path5546"
       sodipodi:nodetypes="cccc"
       inkscape:export-filename="D:\fenix\iparty\malo23.png"
       inkscape:export-xdpi="58.779491"
       inkscape:export-ydpi="58.779491" />
    <path
       style="fill:black;fill-opacity:0.34636871;fill-rule:evenodd;stroke:none;stroke-width:1px;stroke-linecap:butt;stroke-linejoin:miter;stroke-opacity:1"
       d="M 200.08156,662.5326 C 209.00977,659.20584 218.19788,656.21697 224.8303,649.90569 L 226.09299,652.93615 C 221.7844,659.02253 210.15468,661.53794 200.08156,662.5326 z "
       id="path5548"
       sodipodi:nodetypes="cccc"
       inkscape:export-filename="D:\fenix\iparty\malo23.png"
       inkscape:export-xdpi="58.779491"
       inkscape:export-ydpi="58.779491" />
    <path
       style="fill:black;fill-opacity:0.34636871;fill-rule:evenodd;stroke:none;stroke-width:1px;stroke-linecap:butt;stroke-linejoin:miter;stroke-opacity:1"
       d="M 210.18309,628.18741 C 201.66073,620.76257 194.99993,624.06149 188.01838,625.60339 C 195.89886,626.6741 203.4355,626.01099 206.14248,630.71279 L 210.18309,628.18741 z "
       id="path5550"
       sodipodi:nodetypes="cccc"
       inkscape:export-filename="D:\fenix\iparty\malo23.png"
       inkscape:export-xdpi="58.779491"
       inkscape:export-ydpi="58.779491" />
    <path
       style="fill:olive;fill-opacity:1;fill-rule:evenodd;stroke:black;stroke-width:1px;stroke-linecap:butt;stroke-linejoin:miter;stroke-opacity:1"
       d="M 272.50001,630.21932 L 289.28572,632.36218 C 290.2847,646.79109 332.3132,648.97206 353.57143,656.64789 L 251.42858,655.93361 C 253.85342,646.30088 257.85699,637.03247 272.50001,630.21932 z "
       id="path5552"
       sodipodi:nodetypes="ccccc"
       inkscape:export-filename="D:\fenix\iparty\malo23.png"
       inkscape:export-xdpi="58.779491"
       inkscape:export-ydpi="58.779491" />
    <path
       style="fill:olive;fill-opacity:1;fill-rule:evenodd;stroke:black;stroke-width:1px;stroke-linecap:butt;stroke-linejoin:miter;stroke-opacity:1"
       d="M 350.71429,657.71932 L 255.35715,663.79075 C 261.43252,678.26696 304.81525,686.67822 342.50001,694.86218 C 333.40755,677.85188 337.93255,666.17015 350.71429,657.71932 z "
       id="path5554"
       sodipodi:nodetypes="cccc"
       inkscape:export-filename="D:\fenix\iparty\malo23.png"
       inkscape:export-xdpi="58.779491"
       inkscape:export-ydpi="58.779491" />
    <path
       style="fill:green;fill-opacity:1;fill-rule:evenodd;stroke:black;stroke-width:1px;stroke-linecap:butt;stroke-linejoin:miter;stroke-opacity:1"
       d="M 253.92858,628.79075 C 258.6614,629.72395 257.97438,633.68033 256.89001,634.9501 C 247.51948,645.92268 241.57494,653.08047 238.57143,664.50503 C 253.72084,684.38717 313.57144,693.67169 354.64287,697.36217 C 321.07143,689.74313 256.98772,671.81126 258.92857,667.36217 C 262.38284,660.54262 331.53772,661.07009 364.28572,656.29075 C 329.85814,655.29737 262.84396,657.33533 258.21429,653.43361 C 252.2593,646.75588 269.2337,637.45485 272.85715,629.50503"
       id="path5556"
       sodipodi:nodetypes="cscccccc"
       inkscape:export-filename="D:\fenix\iparty\malo23.png"
       inkscape:export-xdpi="58.779491"
       inkscape:export-ydpi="58.779491" />
    <path
       style="fill:green;fill-rule:evenodd;stroke:black;stroke-width:1px;stroke-linecap:butt;stroke-linejoin:miter;stroke-opacity:1"
       d="M 278.10097,480.33191 C 300.32433,489.42329 321.53753,504.0705 334.16444,503.06035 C 346.79134,502.05019 384.67206,490.43344 386.69236,483.36237 C 396.28881,480.33191 419.01725,490.43344 419.01725,490.43344 C 419.01725,490.43344 393.25836,508.11111 385.68222,502.05019 C 384.67206,494.97912 358.4081,508.61618 333.15429,514.17202 C 307.90047,519.72786 292.74818,494.47405 271.0299,502.05019 C 249.31162,509.62634 234.66441,517.70756 234.66441,517.70756 C 234.66441,517.70756 233.14918,508.61618 226.07811,510.13141 C 219.00705,511.64664 221.53476,498.33765 214.46136,496.24182 C 214.83784,493.51464 219.51212,483.36237 219.51212,483.36237 C 219.51212,483.36237 243.75578,465.6847 278.10097,480.33191 z "
       id="path5558"
       sodipodi:nodetypes="cscccsscsccc"
       inkscape:export-filename="D:\fenix\iparty\malo22.png"
       inkscape:export-xdpi="58.779491"
       inkscape:export-ydpi="58.779491" />
    <path
       style="fill:#deaa87;fill-rule:evenodd;stroke:black;stroke-width:1px;stroke-linecap:butt;stroke-linejoin:miter;stroke-opacity:1"
       d="M 223.55273,510.13141 C 221.31978,518.63177 214.08546,522.32292 207.39029,527.30401 C 217.96011,525.62123 229.13428,524.71547 235.16949,517.20248 C 233.18384,513.04088 232.89616,507.25513 223.55273,510.13141 z "
       id="path5560"
       sodipodi:nodetypes="cccc"
       inkscape:export-filename="D:\fenix\iparty\malo22.png"
       inkscape:export-xdpi="58.779491"
       inkscape:export-ydpi="58.779491" />
    <path
       style="fill:#deaa87;fill-rule:evenodd;stroke:black;stroke-width:1px;stroke-linecap:butt;stroke-linejoin:miter;stroke-opacity:1"
       d="M 214.96644,494.85285 C 220.12486,492.79599 222.41911,489.23621 220.52228,482.85729 C 212.10434,481.8094 203.6864,484.75237 195.26846,490.43344 C 203.48333,489.52568 210.75114,490.42784 214.96644,494.85285 z "
       id="path5562"
       sodipodi:nodetypes="cccc"
       inkscape:export-filename="D:\fenix\iparty\malo22.png"
       inkscape:export-xdpi="58.779491"
       inkscape:export-ydpi="58.779491" />
    <path
       style="fill:#deaa87;fill-rule:evenodd;stroke:black;stroke-width:1px;stroke-linecap:butt;stroke-linejoin:miter;stroke-opacity:1"
       d="M 214.71389,494.97912 C 225.42915,493.81077 225.55728,507.93549 223.04766,510.13141 L 197.28877,509.62634 L 214.71389,494.97912 z "
       id="path5564"
       sodipodi:nodetypes="cccc"
       inkscape:export-filename="D:\fenix\iparty\malo22.png"
       inkscape:export-xdpi="58.779491"
       inkscape:export-ydpi="58.779491" />
    <path
       style="fill:red;fill-rule:evenodd;stroke:black;stroke-width:1px;stroke-linecap:butt;stroke-linejoin:miter;stroke-opacity:1"
       d="M 228.48094,497.41785 C 233.19372,492.13965 238.94285,489.2796 247.67384,493.37724 C 242.83178,500.9464 236.00181,500.56393 228.48094,497.41785 z "
       id="path5566"
       sodipodi:nodetypes="ccc"
       inkscape:export-filename="D:\fenix\iparty\malo22.png"
       inkscape:export-xdpi="58.779491"
       inkscape:export-ydpi="58.779491" />
    <path
       style="fill:black;fill-opacity:0.29608938;fill-rule:evenodd;stroke:none;stroke-width:1px;stroke-linecap:butt;stroke-linejoin:miter;stroke-opacity:1"
       d="M 225.21801,508.79441 C 244.54066,507.25739 259.77752,500.76093 277.36086,495.58014 C 282.12277,494.03252 299.69844,503.13242 323.07516,508.43727 C 335.45404,510.694 346.9222,507.43118 360.61105,504.90174 C 346.55936,511.52845 337.16876,514.3166 321.28944,514.50871 C 308.63099,511.75049 291.7476,501.61007 275.9323,500.22299 L 235.3073,516.83014 C 233.0162,512.74208 230.36003,509.08124 225.21801,508.79441 z "
       id="path5568"
       sodipodi:nodetypes="cccccccc"
       inkscape:export-filename="D:\fenix\iparty\malo22.png"
       inkscape:export-xdpi="58.779491"
       inkscape:export-ydpi="58.779491" />
    <path
       style="fill:yellow;fill-rule:evenodd;stroke:none;stroke-width:1px;stroke-linecap:butt;stroke-linejoin:miter;stroke-opacity:1"
       d="M 240.93229,493.43728 L 237.89658,497.54442 L 243.43229,495.04442 L 240.93229,493.43728 z "
       id="path5570"
       inkscape:export-filename="D:\fenix\iparty\malo22.png"
       inkscape:export-xdpi="58.779491"
       inkscape:export-ydpi="58.779491" />
    <path
       style="fill:black;fill-opacity:0.34636871;fill-rule:evenodd;stroke:none;stroke-width:1px;stroke-linecap:butt;stroke-linejoin:miter;stroke-opacity:1"
       d="M 223.55273,502.55527 C 224.59364,504.89274 223.76578,507.23022 223.21091,509.56769 L 198.42102,509.21055 C 206.79826,507.47576 215.17549,507.73461 223.55273,502.55527 z "
       id="path5572"
       sodipodi:nodetypes="cccc"
       inkscape:export-filename="D:\fenix\iparty\malo22.png"
       inkscape:export-xdpi="58.779491"
       inkscape:export-ydpi="58.779491" />
    <path
       style="fill:black;fill-opacity:0.34636871;fill-rule:evenodd;stroke:none;stroke-width:1px;stroke-linecap:butt;stroke-linejoin:miter;stroke-opacity:1"
       d="M 208.65298,526.79893 C 217.58119,523.47217 226.7693,520.4833 233.40172,514.17202 L 234.66441,517.20248 C 230.35582,523.28886 218.7261,525.80427 208.65298,526.79893 z "
       id="path5574"
       sodipodi:nodetypes="cccc"
       inkscape:export-filename="D:\fenix\iparty\malo22.png"
       inkscape:export-xdpi="58.779491"
       inkscape:export-ydpi="58.779491" />
    <path
       style="fill:black;fill-opacity:0.34636871;fill-rule:evenodd;stroke:none;stroke-width:1px;stroke-linecap:butt;stroke-linejoin:miter;stroke-opacity:1"
       d="M 218.75451,492.45374 C 210.23215,485.0289 203.57135,488.32782 196.5898,489.86972 C 204.47028,490.94043 212.00692,490.27732 214.7139,494.97912 L 218.75451,492.45374 z "
       id="path5576"
       sodipodi:nodetypes="cccc"
       inkscape:export-filename="D:\fenix\iparty\malo22.png"
       inkscape:export-xdpi="58.779491"
       inkscape:export-ydpi="58.779491" />
    <path
       style="fill:olive;fill-opacity:1;fill-rule:evenodd;stroke:black;stroke-width:1px;stroke-linecap:butt;stroke-linejoin:miter;stroke-opacity:1"
       d="M 275.91298,491.2102 L 293.41297,493.35305 C 294.41195,478.92414 335.72617,472.45746 356.9844,464.78163 L 254.84155,465.49591 C 257.26639,475.12864 261.26996,484.39705 275.91298,491.2102 z "
       id="path5578"
       sodipodi:nodetypes="ccccc"
       inkscape:export-filename="D:\fenix\iparty\malo22.png"
       inkscape:export-xdpi="58.779491"
       inkscape:export-ydpi="58.779491" />
    <path
       style="fill:olive;fill-opacity:1;fill-rule:evenodd;stroke:black;stroke-width:1px;stroke-linecap:butt;stroke-linejoin:miter;stroke-opacity:1"
       d="M 354.12726,463.7102 L 258.77012,457.63877 C 264.84549,443.16256 308.22822,434.7513 345.91298,426.56734 C 336.82052,443.57764 341.34552,455.25937 354.12726,463.7102 z "
       id="path5580"
       sodipodi:nodetypes="cccc"
       inkscape:export-filename="D:\fenix\iparty\malo22.png"
       inkscape:export-xdpi="58.779491"
       inkscape:export-ydpi="58.779491" />
    <path
       style="fill:green;fill-opacity:1;fill-rule:evenodd;stroke:black;stroke-width:1px;stroke-linecap:butt;stroke-linejoin:miter;stroke-opacity:1"
       d="M 257.34155,492.63877 C 262.07437,491.70557 261.38735,487.74919 260.30298,486.47942 C 250.93245,475.50684 244.98791,468.34905 241.9844,456.92449 C 257.13381,437.04235 316.98441,427.75783 358.05584,424.06735 C 324.4844,431.68639 260.40069,449.61826 262.34154,454.06735 C 265.79581,460.8869 334.95069,460.35943 367.69869,465.13877 C 333.27111,466.13215 266.25693,464.09419 261.62726,467.99591 C 255.67227,474.67364 272.64667,483.97467 276.27012,491.92449"
       id="path5582"
       sodipodi:nodetypes="cscccccc"
       inkscape:export-filename="D:\fenix\iparty\malo22.png"
       inkscape:export-xdpi="58.779491"
       inkscape:export-ydpi="58.779491" />
    <path
       style="fill:#a19400;fill-opacity:1;fill-rule:evenodd;stroke:none;stroke-width:1px;stroke-linecap:butt;stroke-linejoin:miter;stroke-opacity:1"
       d="M 339.01259,688.74167 C 335.62894,679.02407 337.09743,669.16573 344.56844,661.46754 C 319.23044,663.65621 269.56196,664.75429 268.55445,668.03353 C 266.57666,670.54846 315.52654,681.83895 339.01259,688.74167 z "
       id="path5592"
       sodipodi:nodetypes="cccc"
       inkscape:export-filename="D:\fenix\iparty\malo23.png"
       inkscape:export-xdpi="58.779491"
       inkscape:export-ydpi="58.779491" />
    <path
       style="fill:#a19400;fill-opacity:1;fill-rule:evenodd;stroke:none;stroke-width:1px;stroke-linecap:butt;stroke-linejoin:miter;stroke-opacity:1"
       d="M 288.25242,633.18327 L 276.5094,631.54177 C 270.38786,638.53422 263.28582,645.36626 264.76638,649.59825 C 265.82785,651.60932 332.10677,654.44168 338.25497,652.88125 C 319.90601,649.30763 292.40508,645.09215 288.25242,633.18327 z "
       id="path5594"
       sodipodi:nodetypes="ccccc"
       inkscape:export-filename="D:\fenix\iparty\malo23.png"
       inkscape:export-xdpi="58.779491"
       inkscape:export-ydpi="58.779491" />
    <path
       style="fill:#a19400;fill-opacity:1;fill-rule:evenodd;stroke:none;stroke-width:1px;stroke-linecap:butt;stroke-linejoin:miter;stroke-opacity:1"
       d="M 349.10678,352.13706 C 345.72313,342.41946 347.19162,332.56112 354.66263,324.86293 C 329.32463,327.0516 279.65615,328.14968 278.64864,331.42892 C 276.67085,333.94385 325.62073,345.23434 349.10678,352.13706 z "
       id="path6481"
       sodipodi:nodetypes="cccc" />
    <path
       style="fill:#a19400;fill-opacity:1;fill-rule:evenodd;stroke:none;stroke-width:1px;stroke-linecap:butt;stroke-linejoin:miter;stroke-opacity:1"
       d="M 302.63976,297.08374 L 290.89674,295.44224 C 284.7752,302.43469 277.67316,309.26673 279.15372,313.49872 C 280.21519,315.50979 346.49411,318.34215 352.64231,316.78172 C 334.29335,313.2081 306.79242,308.99262 302.63976,297.08374 z "
       id="path6483"
       sodipodi:nodetypes="ccccc" />
    <path
       style="fill:#a19400;fill-opacity:1;fill-rule:evenodd;stroke:none;stroke-width:1px;stroke-linecap:butt;stroke-linejoin:miter;stroke-opacity:1"
       d="M 342.19161,432.10022 C 338.80796,441.81782 340.27645,451.67616 347.74746,459.37435 C 322.40946,457.18568 272.74098,456.0876 271.73347,452.80836 C 269.75568,450.29343 318.70556,439.00294 342.19161,432.10022 z "
       id="path6485"
       sodipodi:nodetypes="cccc"
       inkscape:export-filename="D:\fenix\iparty\malo22.png"
       inkscape:export-xdpi="58.779491"
       inkscape:export-ydpi="58.779491" />
    <path
       style="fill:#a19400;fill-opacity:1;fill-rule:evenodd;stroke:none;stroke-width:1px;stroke-linecap:butt;stroke-linejoin:miter;stroke-opacity:1"
       d="M 292.69413,492.20431 L 280.95111,491.06789 C 274.82957,484.07544 267.98007,475.98071 269.46063,471.74872 C 272.28986,468.98003 340.33655,466.65275 346.48475,468.21318 C 328.13579,471.7868 296.08917,479.28528 292.69413,492.20431 z "
       id="path6487"
       sodipodi:nodetypes="ccccc"
       inkscape:export-filename="D:\fenix\iparty\malo22.png"
       inkscape:export-xdpi="58.779491"
       inkscape:export-ydpi="58.779491" />
    <path
       style="fill:green;fill-rule:evenodd;stroke:black;stroke-width:1px;stroke-linecap:butt;stroke-linejoin:miter;stroke-opacity:1"
       d="M 238.10097,916.24562 C 260.32433,925.337 281.53753,939.98421 294.16444,938.97406 C 306.79134,937.9639 346.69237,937.45883 348.71267,930.38776 C 358.30912,927.3573 379.01725,945.54005 379.01725,945.54005 C 379.01725,945.54005 355.27867,955.1365 347.70253,949.07558 C 346.69237,942.00451 318.4081,944.52989 293.15429,950.08573 C 267.90047,955.64157 252.74818,930.38776 231.0299,937.9639 C 209.31162,945.54005 194.66441,953.62127 194.66441,953.62127 C 194.66441,953.62127 193.14918,944.52989 186.07811,946.04512 C 179.00705,947.56035 181.53476,934.25136 174.46136,932.15553 C 174.83784,929.42835 179.51212,919.27608 179.51212,919.27608 C 179.51212,919.27608 203.75578,901.59841 238.10097,916.24562 z "
       id="path6515"
       sodipodi:nodetypes="cscccsscsccc"
       inkscape:export-filename="D:\fenix\iparty\malo21.png"
       inkscape:export-xdpi="55.312771"
       inkscape:export-ydpi="55.312771" />
    <path
       style="fill:#deaa87;fill-rule:evenodd;stroke:black;stroke-width:1px;stroke-linecap:butt;stroke-linejoin:miter;stroke-opacity:1"
       d="M 183.55273,946.04512 C 181.31978,954.54548 174.08546,958.23663 167.39029,963.21772 C 177.96011,961.53494 189.13428,960.62918 195.16949,953.11619 C 193.18384,948.95459 192.89616,943.16884 183.55273,946.04512 z "
       id="path6517"
       sodipodi:nodetypes="cccc"
       inkscape:export-filename="D:\fenix\iparty\malo21.png"
       inkscape:export-xdpi="55.312771"
       inkscape:export-ydpi="55.312771" />
    <path
       style="fill:#deaa87;fill-rule:evenodd;stroke:black;stroke-width:1px;stroke-linecap:butt;stroke-linejoin:miter;stroke-opacity:1"
       d="M 174.96644,930.76656 C 180.12486,928.7097 182.41911,925.14992 180.52228,918.771 C 172.10434,917.72311 163.6864,920.66608 155.26846,926.34715 C 163.48333,925.43939 170.75114,926.34155 174.96644,930.76656 z "
       id="path6519"
       sodipodi:nodetypes="cccc"
       inkscape:export-filename="D:\fenix\iparty\malo21.png"
       inkscape:export-xdpi="55.312771"
       inkscape:export-ydpi="55.312771" />
    <path
       style="fill:#deaa87;fill-rule:evenodd;stroke:black;stroke-width:1px;stroke-linecap:butt;stroke-linejoin:miter;stroke-opacity:1"
       d="M 174.71389,930.89283 C 185.42915,929.72448 185.55728,943.8492 183.04766,946.04512 L 157.28877,945.54005 L 174.71389,930.89283 z "
       id="path6521"
       sodipodi:nodetypes="cccc"
       inkscape:export-filename="D:\fenix\iparty\malo21.png"
       inkscape:export-xdpi="55.312771"
       inkscape:export-ydpi="55.312771" />
    <path
       style="fill:red;fill-rule:evenodd;stroke:black;stroke-width:1px;stroke-linecap:butt;stroke-linejoin:miter;stroke-opacity:1"
       d="M 188.48094,933.33156 C 193.19372,928.05336 198.94285,925.19331 207.67384,929.29095 C 202.83178,936.86011 196.00181,936.47764 188.48094,933.33156 z "
       id="path6523"
       sodipodi:nodetypes="ccc"
       inkscape:export-filename="D:\fenix\iparty\malo21.png"
       inkscape:export-xdpi="55.312771"
       inkscape:export-ydpi="55.312771" />
    <path
       style="fill:olive;fill-rule:evenodd;stroke:black;stroke-width:1px;stroke-linecap:butt;stroke-linejoin:miter;stroke-opacity:1"
       d="M 332.4846,872.7224 C 303.7219,887.78659 258.72121,899.15723 254.19778,930.80618 L 235.00488,928.2808 L 233.48965,879.79347 L 332.4846,872.7224 z "
       id="path6525"
       sodipodi:nodetypes="ccccc"
       inkscape:export-filename="D:\fenix\iparty\malo21.png"
       inkscape:export-xdpi="55.312771"
       inkscape:export-ydpi="55.312771" />
    <path
       style="fill:olive;fill-rule:evenodd;stroke:black;stroke-width:1px;stroke-linecap:butt;stroke-linejoin:miter;stroke-opacity:1"
       d="M 301.67495,809.16945 C 296.72098,838.14945 311.0775,860.11051 332.48461,873.22748 L 235.00489,870.7021 L 301.67495,809.16945 z "
       id="path6527"
       sodipodi:nodetypes="cccc"
       inkscape:export-filename="D:\fenix\iparty\malo21.png"
       inkscape:export-xdpi="55.312771"
       inkscape:export-ydpi="55.312771" />
    <path
       style="fill:green;fill-rule:evenodd;stroke:black;stroke-width:1px;stroke-linecap:butt;stroke-linejoin:miter;stroke-opacity:1"
       d="M 221.39057,925.99263 C 222.77187,925.50029 225.28998,924.0288 225.19978,922.91683 C 223.77745,905.38273 215.83998,887.36838 225.91351,869.69195 C 252.26414,834.6446 281.4719,824.19314 309.2511,801.50665 C 289.88984,822.88821 259.13641,846.19659 242.58102,867.67165 C 273.19347,870.7598 315.47794,869.6968 347.63689,871.71225 C 311.91711,877.25192 249.30229,879.64554 236.52011,881.3087 C 229.50949,884.82481 237.36191,916.32732 236.01504,929.79602"
       id="path6529"
       sodipodi:nodetypes="cscccccc"
       inkscape:export-filename="D:\fenix\iparty\malo21.png"
       inkscape:export-xdpi="55.312771"
       inkscape:export-ydpi="55.312771" />
    <path
       style="fill:#fc0;fill-opacity:0.26404497;fill-rule:evenodd;stroke:none;stroke-width:1px;stroke-linecap:butt;stroke-linejoin:miter;stroke-opacity:1"
       d="M 300.35543,817.80294 C 299.36436,836.95053 309.51801,856.57015 320.84255,865.9275 C 301.90256,867.41799 273.6817,866.19326 253.78944,862.92241 C 266.56126,850.96663 286.01821,828.87038 300.35543,817.80294 z "
       id="path6531"
       sodipodi:nodetypes="cccc"
       inkscape:export-filename="D:\fenix\iparty\malo21.png"
       inkscape:export-xdpi="55.312771"
       inkscape:export-ydpi="55.312771" />
    <path
       style="fill:#fc0;fill-opacity:0.26404497;fill-rule:evenodd;stroke:none;stroke-width:1px;stroke-linecap:butt;stroke-linejoin:miter;stroke-opacity:1"
       d="M 316.1997,880.46574 C 291.7237,890.44231 258.40183,904.86077 254.21529,930.01143 L 241.08023,928.58286 C 242.95287,916.81006 236.13384,893.32847 240.93229,886.85098 C 264.15438,880.8908 296.36075,883.04277 316.1997,880.46574 z "
       id="path6533"
       sodipodi:nodetypes="ccccc"
       inkscape:export-filename="D:\fenix\iparty\malo21.png"
       inkscape:export-xdpi="55.312771"
       inkscape:export-ydpi="55.312771" />
    <path
       style="fill:black;fill-opacity:0.29608938;fill-rule:evenodd;stroke:none;stroke-width:1px;stroke-linecap:butt;stroke-linejoin:miter;stroke-opacity:1"
       d="M 185.21801,944.70812 C 204.54066,943.1711 219.77752,936.67464 237.36086,931.49385 C 242.12277,929.94623 259.69844,939.04613 283.07516,944.35098 C 295.45404,946.60771 310.45773,944.35504 324.14658,944.35098 C 310.09489,947.44216 297.16876,950.23031 281.28944,950.42242 C 268.63099,947.6642 251.7476,937.52378 235.9323,936.1367 L 195.3073,952.74385 C 193.0162,948.65579 190.36003,944.99495 185.21801,944.70812 z "
       id="path6535"
       sodipodi:nodetypes="cccccccc"
       inkscape:export-filename="D:\fenix\iparty\malo21.png"
       inkscape:export-xdpi="55.312771"
       inkscape:export-ydpi="55.312771" />
    <path
       style="fill:yellow;fill-rule:evenodd;stroke:none;stroke-width:1px;stroke-linecap:butt;stroke-linejoin:miter;stroke-opacity:1"
       d="M 200.93229,929.35099 L 197.89658,933.45813 L 203.43229,930.95813 L 200.93229,929.35099 z "
       id="path6537"
       inkscape:export-filename="D:\fenix\iparty\malo21.png"
       inkscape:export-xdpi="55.312771"
       inkscape:export-ydpi="55.312771" />
    <path
       style="fill:black;fill-opacity:0.34636871;fill-rule:evenodd;stroke:none;stroke-width:1px;stroke-linecap:butt;stroke-linejoin:miter;stroke-opacity:1"
       d="M 183.55273,938.46898 C 184.59364,940.80645 183.76578,943.14393 183.21091,945.4814 L 158.42102,945.12426 C 166.79826,943.38947 175.17549,943.64832 183.55273,938.46898 z "
       id="path6539"
       sodipodi:nodetypes="cccc"
       inkscape:export-filename="D:\fenix\iparty\malo21.png"
       inkscape:export-xdpi="55.312771"
       inkscape:export-ydpi="55.312771" />
    <path
       style="fill:black;fill-opacity:0.34636871;fill-rule:evenodd;stroke:none;stroke-width:1px;stroke-linecap:butt;stroke-linejoin:miter;stroke-opacity:1"
       d="M 168.65298,962.71264 C 177.58119,959.38588 186.7693,956.39701 193.40172,950.08573 L 194.66441,953.11619 C 190.35582,959.20257 178.7261,961.71798 168.65298,962.71264 z "
       id="path6541"
       sodipodi:nodetypes="cccc"
       inkscape:export-filename="D:\fenix\iparty\malo21.png"
       inkscape:export-xdpi="55.312771"
       inkscape:export-ydpi="55.312771" />
    <path
       style="fill:black;fill-opacity:0.34636871;fill-rule:evenodd;stroke:none;stroke-width:1px;stroke-linecap:butt;stroke-linejoin:miter;stroke-opacity:1"
       d="M 178.75451,928.36745 C 170.23215,920.94261 163.57135,924.24153 156.5898,925.78343 C 164.47028,926.85414 172.00692,926.19103 174.7139,930.89283 L 178.75451,928.36745 z "
       id="path6543"
       sodipodi:nodetypes="cccc"
       inkscape:export-filename="D:\fenix\iparty\malo21.png"
       inkscape:export-xdpi="55.312771"
       inkscape:export-ydpi="55.312771" />
  </g>
</svg>
