<?xml version="1.0" encoding="UTF-8" standalone="no"?>
<!-- Created with Inkscape (http://www.inkscape.org/) -->
<svg
   xmlns:dc="http://purl.org/dc/elements/1.1/"
   xmlns:cc="http://web.resource.org/cc/"
   xmlns:rdf="http://www.w3.org/1999/02/22-rdf-syntax-ns#"
   xmlns:svg="http://www.w3.org/2000/svg"
   xmlns="http://www.w3.org/2000/svg"
   xmlns:xlink="http://www.w3.org/1999/xlink"
   xmlns:sodipodi="http://sodipodi.sourceforge.net/DTD/sodipodi-0.dtd"
   xmlns:inkscape="http://www.inkscape.org/namespaces/inkscape"
   width="210mm"
   height="297mm"
   id="svg2"
   sodipodi:version="0.32"
   inkscape:version="0.44.1"
   sodipodi:docbase="D:\fenix\iparty"
   sodipodi:docname="malo1.svg">
  <defs
     id="defs4" />
  <sodipodi:namedview
     id="base"
     pagecolor="#ffffff"
     bordercolor="#666666"
     borderopacity="1.0"
     inkscape:pageopacity="0.0"
     inkscape:pageshadow="2"
     inkscape:zoom="0.49497475"
     inkscape:cx="203.64624"
     inkscape:cy="338.82868"
     inkscape:document-units="px"
     inkscape:current-layer="layer1"
     inkscape:window-width="942"
     inkscape:window-height="573"
     inkscape:window-x="22"
     inkscape:window-y="26" />
  <metadata
     id="metadata7">
    <rdf:RDF>
      <cc:Work
         rdf:about="">
        <dc:format>image/svg+xml</dc:format>
        <dc:type
           rdf:resource="http://purl.org/dc/dcmitype/StillImage" />
      </cc:Work>
    </rdf:RDF>
  </metadata>
  <g
     inkscape:label="Capa 1"
     inkscape:groupmode="layer"
     id="layer1">
    <image
       y="56.923397"
       x="177.10225"
       id="image1879"
       height="288"
       width="352"
       sodipodi:absref="D:\fenix\iparty\graficos\Imagen 001.jpg"
       xlink:href="graficos\Imagen 001.jpg" />
    <path
       style="fill:navy;fill-rule:evenodd;stroke:black;stroke-width:1px;stroke-linecap:butt;stroke-linejoin:miter;stroke-opacity:1"
       d="M 192.14285,615.21932 C 206.42857,608.79075 246.39331,602.42965 233.57143,625.93361 C 214.97348,660.02576 190.71428,628.07646 190.71428,628.07646 C 190.71428,628.07646 162.85714,675.93361 210,670.21932 C 231.24946,667.64363 246.51705,655.07927 267.92983,652.18864 C 294.02223,648.66628 325.77612,654.31314 345,644.50503 C 392.7448,622.24983 413.8118,591.17398 472.14286,579.50503 C 436.31156,561.58938 395.71816,592.72125 376.42857,593.07646 C 346.01991,593.63642 297.85714,556.64789 264.28571,561.64789 C 230.71428,566.64789 191.42857,590.21932 192.14285,615.21932 z "
       id="path1882"
       sodipodi:nodetypes="cscssccssc"
       inkscape:export-filename="D:\fenix\iparty\malo11.png"
       inkscape:export-xdpi="40.570961"
       inkscape:export-ydpi="40.570961" />
    <path
       style="fill:white;fill-rule:evenodd;stroke:black;stroke-width:1px;stroke-linecap:butt;stroke-linejoin:miter;stroke-opacity:1"
       d="M 273.57143,596.64789 C 288.03564,588.79075 295.68785,569.50504 265.71428,583.79075 C 240.27958,595.91318 254.28571,606.64789 273.57143,596.64789 z "
       id="path1884"
       sodipodi:nodetypes="csc"
       inkscape:export-filename="D:\fenix\iparty\malo11.png"
       inkscape:export-xdpi="40.570961"
       inkscape:export-ydpi="40.570961" />
    <path
       style="fill:red;fill-rule:evenodd;stroke:black;stroke-width:1px;stroke-linecap:butt;stroke-linejoin:miter;stroke-opacity:1"
       d="M 268.39285,583.07646 L 270.53571,595.21932 L 261.07143,587.00504 L 268.39285,583.07646 z "
       id="path1886"
       inkscape:export-filename="D:\fenix\iparty\malo11.png"
       inkscape:export-xdpi="40.570961"
       inkscape:export-ydpi="40.570961" />
    <path
       style="opacity:0.28502413;fill:aqua;fill-rule:evenodd;stroke:none;stroke-width:1px;stroke-linecap:butt;stroke-linejoin:miter;stroke-opacity:1"
       d="M 197.92066,607.5136 C 219.48357,574.02301 258.02939,563.04735 277.21764,566.09734 C 255.77912,571.75958 218.01972,592.47514 197.92066,607.5136 z "
       id="path1888"
       sodipodi:nodetypes="ccc"
       inkscape:export-filename="D:\fenix\iparty\malo11.png"
       inkscape:export-xdpi="40.570961"
       inkscape:export-ydpi="40.570961" />
    <path
       style="opacity:0.28502413;fill:aqua;fill-rule:evenodd;stroke:none;stroke-width:1px;stroke-linecap:butt;stroke-linejoin:miter;stroke-opacity:1"
       d="M 393.38518,595.39176 C 409.2869,584.45896 425.63753,577.56641 442.88265,578.72424 L 393.38518,595.39176 z "
       id="path1892"
       sodipodi:nodetypes="ccc"
       inkscape:export-filename="D:\fenix\iparty\malo11.png"
       inkscape:export-xdpi="40.570961"
       inkscape:export-ydpi="40.570961" />
    <path
       style="fill:navy;fill-rule:evenodd;stroke:black;stroke-width:1px;stroke-linecap:butt;stroke-linejoin:miter;stroke-opacity:1"
       d="M 189.08667,788.78631 C 203.37239,782.35774 243.33713,775.99664 230.51525,799.5006 C 211.9173,833.59275 187.6581,801.64345 187.6581,801.64345 C 187.6581,801.64345 159.80096,849.5006 206.94382,843.78631 C 228.19328,841.21062 244.48282,832.90245 264.87365,825.75563 C 290.42281,816.80086 313.00976,807.56403 341.94382,818.07202 C 401.06388,814.81876 399.14711,810.09759 470.51525,775.92916 C 436.92341,768.09109 405.73462,786.49884 371.94382,769.50059 C 338.78454,752.82002 294.80096,728.40519 261.22953,735.21488 C 227.96523,741.96227 188.37239,763.78631 189.08667,788.78631 z "
       id="path2780"
       sodipodi:nodetypes="cscssccssc"
       inkscape:export-filename="D:\fenix\iparty\malo12.png"
       inkscape:export-xdpi="40.720226"
       inkscape:export-ydpi="40.720226" />
    <path
       style="fill:white;fill-rule:evenodd;stroke:black;stroke-width:1px;stroke-linecap:butt;stroke-linejoin:miter;stroke-opacity:1"
       d="M 270.51525,770.21488 C 284.97946,762.35774 292.63167,743.07203 262.6581,757.35774 C 237.2234,769.48017 251.22953,780.21488 270.51525,770.21488 z "
       id="path2782"
       sodipodi:nodetypes="csc"
       inkscape:export-filename="D:\fenix\iparty\malo12.png"
       inkscape:export-xdpi="40.720226"
       inkscape:export-ydpi="40.720226" />
    <path
       style="fill:red;fill-rule:evenodd;stroke:black;stroke-width:1px;stroke-linecap:butt;stroke-linejoin:miter;stroke-opacity:1"
       d="M 265.33667,756.64345 L 267.47953,768.78631 L 258.01525,760.57203 L 265.33667,756.64345 z "
       id="path2784"
       inkscape:export-filename="D:\fenix\iparty\malo12.png"
       inkscape:export-xdpi="40.720226"
       inkscape:export-ydpi="40.720226" />
    <path
       style="opacity:0.28502413;fill:aqua;fill-rule:evenodd;stroke:none;stroke-width:1px;stroke-linecap:butt;stroke-linejoin:miter;stroke-opacity:1"
       d="M 194.86448,781.08059 C 216.42739,747.59 254.97321,736.61434 274.16146,739.66433 C 252.72294,745.32657 214.96354,766.04213 194.86448,781.08059 z "
       id="path2786"
       sodipodi:nodetypes="ccc"
       inkscape:export-filename="D:\fenix\iparty\malo12.png"
       inkscape:export-xdpi="40.720226"
       inkscape:export-ydpi="40.720226" />
    <path
       style="opacity:0.28502413;fill:aqua;fill-rule:evenodd;stroke:none;stroke-width:1px;stroke-linecap:butt;stroke-linejoin:miter;stroke-opacity:1"
       d="M 403.90043,783.95875 C 419.80215,773.02595 441.50992,775.77626 458.75504,776.93409 L 403.90043,783.95875 z "
       id="path2788"
       sodipodi:nodetypes="ccc"
       inkscape:export-filename="D:\fenix\iparty\malo12.png"
       inkscape:export-xdpi="40.720226"
       inkscape:export-ydpi="40.720226" />
    <path
       style="fill:navy;fill-rule:evenodd;stroke:black;stroke-width:1px;stroke-linecap:butt;stroke-linejoin:miter;stroke-opacity:1"
       d="M 177.6581,944.5006 C 191.94382,938.07203 231.90856,931.71093 219.08668,955.21489 C 200.48873,989.30704 176.22953,957.35774 176.22953,957.35774 C 176.22953,957.35774 148.37239,1005.2149 195.51525,999.5006 C 216.76471,996.92491 232.0323,984.36055 253.44508,981.46992 C 279.53748,977.94756 311.29137,983.59442 330.51525,973.78631 C 379.59535,939.24638 396.19177,920.91456 449.57689,954.74825 C 432.59671,919.6962 403.55995,899.42652 361.94382,922.35774 C 338.11744,935.48649 289.37577,884.21392 249.80096,890.92917 C 216.33757,896.60741 176.94382,919.5006 177.6581,944.5006 z "
       id="path2790"
       sodipodi:nodetypes="cscssccssc"
       inkscape:export-filename="D:\fenix\iparty\malo13.png"
       inkscape:export-xdpi="40.720226"
       inkscape:export-ydpi="40.720226" />
    <path
       style="fill:white;fill-rule:evenodd;stroke:black;stroke-width:1px;stroke-linecap:butt;stroke-linejoin:miter;stroke-opacity:1"
       d="M 259.08668,925.92917 C 273.55089,918.07203 281.2031,898.78632 251.22953,913.07203 C 225.79483,925.19446 239.80096,935.92917 259.08668,925.92917 z "
       id="path2792"
       sodipodi:nodetypes="csc"
       inkscape:export-filename="D:\fenix\iparty\malo13.png"
       inkscape:export-xdpi="40.720226"
       inkscape:export-ydpi="40.720226" />
    <path
       style="fill:red;fill-rule:evenodd;stroke:black;stroke-width:1px;stroke-linecap:butt;stroke-linejoin:miter;stroke-opacity:1"
       d="M 253.9081,912.35774 L 256.05096,924.5006 L 246.58668,916.28632 L 253.9081,912.35774 z "
       id="path2794"
       inkscape:export-filename="D:\fenix\iparty\malo13.png"
       inkscape:export-xdpi="40.720226"
       inkscape:export-ydpi="40.720226" />
    <path
       style="opacity:0.28502413;fill:aqua;fill-rule:evenodd;stroke:none;stroke-width:1px;stroke-linecap:butt;stroke-linejoin:miter;stroke-opacity:1"
       d="M 183.43591,936.79488 C 204.99882,903.30429 243.54464,892.32863 262.73289,895.37862 C 241.29437,901.04086 203.53497,921.75642 183.43591,936.79488 z "
       id="path2796"
       sodipodi:nodetypes="ccc"
       inkscape:export-filename="D:\fenix\iparty\malo13.png"
       inkscape:export-xdpi="40.720226"
       inkscape:export-ydpi="40.720226" />
    <path
       style="opacity:0.28502413;fill:aqua;fill-rule:evenodd;stroke:none;stroke-width:1px;stroke-linecap:butt;stroke-linejoin:miter;stroke-opacity:1"
       d="M 356.67707,929.7238 C 372.57879,918.791 390.94973,915.93906 408.19485,917.09689 L 356.67707,929.7238 z "
       id="path2798"
       sodipodi:nodetypes="ccc"
       inkscape:export-filename="D:\fenix\iparty\malo13.png"
       inkscape:export-xdpi="40.720226"
       inkscape:export-ydpi="40.720226" />
  </g>
</svg>
