<?xml version="1.0" encoding="UTF-8" standalone="no"?>
<!-- Created with Inkscape (http://www.inkscape.org/) -->
<svg
   xmlns:dc="http://purl.org/dc/elements/1.1/"
   xmlns:cc="http://web.resource.org/cc/"
   xmlns:rdf="http://www.w3.org/1999/02/22-rdf-syntax-ns#"
   xmlns:svg="http://www.w3.org/2000/svg"
   xmlns="http://www.w3.org/2000/svg"
   xmlns:sodipodi="http://sodipodi.sourceforge.net/DTD/sodipodi-0.dtd"
   xmlns:inkscape="http://www.inkscape.org/namespaces/inkscape"
   width="210mm"
   height="297mm"
   id="svg2"
   sodipodi:version="0.32"
   inkscape:version="0.44.1"
   sodipodi:docbase="D:\fenix\iparty"
   sodipodi:docname="marcadores.svg">
  <defs
     id="defs4" />
  <sodipodi:namedview
     id="base"
     pagecolor="#ffffff"
     bordercolor="#666666"
     borderopacity="1.0"
     inkscape:pageopacity="0.0"
     inkscape:pageshadow="2"
     inkscape:zoom="0.49497475"
     inkscape:cx="290.82277"
     inkscape:cy="563.6743"
     inkscape:document-units="px"
     inkscape:current-layer="layer1"
     inkscape:window-width="942"
     inkscape:window-height="573"
     inkscape:window-x="154"
     inkscape:window-y="182" />
  <metadata
     id="metadata7">
    <rdf:RDF>
      <cc:Work
         rdf:about="">
        <dc:format>image/svg+xml</dc:format>
        <dc:type
           rdf:resource="http://purl.org/dc/dcmitype/StillImage" />
      </cc:Work>
    </rdf:RDF>
  </metadata>
  <g
     inkscape:label="Capa 1"
     inkscape:groupmode="layer"
     id="layer1">
    <rect
       style="opacity:1;fill:maroon;fill-opacity:1;stroke:none;stroke-width:5;stroke-linecap:round;stroke-linejoin:round;stroke-miterlimit:4;stroke-dasharray:none;stroke-opacity:1"
       id="rect1876"
       width="411.42856"
       height="60"
       x="158.57143"
       y="293.79074"
       ry="30"
       inkscape:export-filename="D:\fenix\iparty\barra2.png"
       inkscape:export-xdpi="43.75"
       inkscape:export-ydpi="43.75" />
    <rect
       style="opacity:1;fill:yellow;fill-opacity:1;stroke:none;stroke-width:5;stroke-linecap:round;stroke-linejoin:round;stroke-miterlimit:4;stroke-dasharray:none;stroke-opacity:1"
       id="rect1878"
       width="386.12244"
       height="37.142857"
       x="170.71939"
       y="305.7244"
       ry="18.571428" />
    <path
       style="fill:#784421;fill-rule:evenodd;stroke:black;stroke-width:1px;stroke-linecap:butt;stroke-linejoin:miter;stroke-opacity:1"
       d="M 165.71424,608.96931 C 158.1307,614.83228 156.48986,624.11926 142.14281,625.75503 L 119.64281,622.36217 L 156.42853,601.46931 L 165.71424,608.96931 z "
       id="path14818"
       sodipodi:nodetypes="ccccc"
       inkscape:export-filename="D:\fenix\iparty\vidas.png"
       inkscape:export-xdpi="27.146797"
       inkscape:export-ydpi="27.146797" />
    <path
       style="fill:#fca;fill-opacity:1;fill-rule:evenodd;stroke:black;stroke-width:1px;stroke-linecap:butt;stroke-linejoin:miter;stroke-opacity:1"
       d="M 189.99996,562.54074 C 193.59629,567.78825 192.10829,573.63348 189.99996,579.6836 C 190.86863,585.51453 193.82355,592.61957 193.08653,595.28836 C 192.44723,597.60331 191.71956,596.81486 189.46424,598.61216 C 186.50469,605.10832 186.77351,616.95235 178.39282,616.11217 C 165.3475,615.20317 155.8821,606.07526 147.8571,596.64788 L 167.8571,561.64788 L 189.99996,562.54074 z "
       id="path13036"
       sodipodi:nodetypes="ccsccccc"
       inkscape:export-filename="D:\fenix\iparty\vidas.png"
       inkscape:export-xdpi="27.146797"
       inkscape:export-ydpi="27.146797" />
    <path
       style="fill:#c87137;fill-rule:evenodd;stroke:black;stroke-width:1px;stroke-linecap:butt;stroke-linejoin:miter;stroke-opacity:1"
       d="M 172.8571,568.25502 C 165.03673,588.14376 154.99062,624.19041 127.49996,626.29074 C 131.20296,622.15369 131.90488,624.14258 130.89281,617.00502 C 122.71554,623.24106 121.44062,625.26625 108.57139,624.50503 C 115.31038,620.40012 122.24223,616.77739 127.14281,608.07645 L 148.57139,565.9336 L 172.8571,568.25502 z "
       id="path13040"
       sodipodi:nodetypes="ccccccc"
       inkscape:export-filename="D:\fenix\iparty\vidas.png"
       inkscape:export-xdpi="27.146797"
       inkscape:export-ydpi="27.146797" />
    <path
       style="fill:#fca;fill-opacity:1;fill-rule:evenodd;stroke:black;stroke-width:1px;stroke-linecap:butt;stroke-linejoin:miter;stroke-opacity:1"
       d="M 169.99996,578.07645 C 160.10292,566.57166 158.96895,586.22233 164.28567,594.50503"
       id="path13038"
       sodipodi:nodetypes="cc"
       inkscape:export-filename="D:\fenix\iparty\vidas.png"
       inkscape:export-xdpi="27.146797"
       inkscape:export-ydpi="27.146797" />
    <path
       style="fill:#c87137;fill-opacity:1;fill-rule:evenodd;stroke:black;stroke-width:1px;stroke-linecap:butt;stroke-linejoin:miter;stroke-opacity:1"
       d="M 168.57139,588.61216 C 172.74495,581.26066 177.67876,574.98134 178.57139,565.75502 L 169.28568,567.71931 C 170.02543,578.6133 169.69309,583.35821 168.57139,588.61216 z "
       id="path14816"
       sodipodi:nodetypes="cccc"
       inkscape:export-filename="D:\fenix\iparty\vidas.png"
       inkscape:export-xdpi="27.146797"
       inkscape:export-ydpi="27.146797" />
    <path
       style="fill:fuchsia;fill-rule:evenodd;stroke:black;stroke-width:1px;stroke-linecap:butt;stroke-linejoin:miter;stroke-opacity:1"
       d="M 73.57139,599.38248 L 161.59187,574.78852 L 267.8571,545.09676 L 188.57139,524.38248 L 149.99996,461.52534 L 103.57139,495.81105 L 112.8571,535.81105 L 118.57139,501.52534 L 144.99996,482.95391 L 133.57139,537.95391 L 73.57139,599.38248 z "
       id="path10335"
       sodipodi:nodetypes="ccccccccccc"
       inkscape:export-filename="D:\fenix\iparty\vidas.png"
       inkscape:export-xdpi="27.146797"
       inkscape:export-ydpi="27.146797" />
    <path
       style="fill:blue;fill-rule:evenodd;stroke:black;stroke-width:1px;stroke-linecap:butt;stroke-linejoin:miter;stroke-opacity:1"
       d="M 129.99996,557.95391 C 156.92183,559.29765 183.58005,559.3998 201.07139,541.88248 C 196.11485,538.6881 193.86214,532.37668 188.92853,525.45391 L 133.57139,538.66819 C 131.97197,547.83251 132.75933,553.8634 129.99996,557.95391 z "
       id="path10337"
       sodipodi:nodetypes="ccccc"
       inkscape:export-filename="D:\fenix\iparty\vidas.png"
       inkscape:export-xdpi="27.146797"
       inkscape:export-ydpi="27.146797" />
    <path
       sodipodi:type="arc"
       style="fill:#28170b;fill-opacity:1;stroke:none;stroke-width:5;stroke-linecap:round;stroke-linejoin:round;stroke-miterlimit:4;stroke-dasharray:none;stroke-opacity:1"
       id="path13927"
       sodipodi:cx="417.5"
       sodipodi:cy="283.79074"
       sodipodi:rx="1.7857143"
       sodipodi:ry="6.4285712"
       d="M 419.28571 283.79074 A 1.7857143 6.4285712 0 1 1  415.71429,283.79074 A 1.7857143 6.4285712 0 1 1  419.28571 283.79074 z"
       transform="matrix(2,0,0,1.222222,-652.8572,231.2211)"
       inkscape:export-filename="D:\fenix\iparty\vidas.png"
       inkscape:export-xdpi="27.146797"
       inkscape:export-ydpi="27.146797" />
    <path
       sodipodi:type="arc"
       style="fill:blue;fill-opacity:1;stroke:none;stroke-width:5;stroke-linecap:round;stroke-linejoin:round;stroke-miterlimit:4;stroke-dasharray:none;stroke-opacity:1"
       id="path13929"
       sodipodi:cx="401.07144"
       sodipodi:cy="300.21933"
       sodipodi:rx="3.2142856"
       sodipodi:ry="3.5714285"
       d="M 404.28573 300.21933 A 3.2142856 3.5714285 0 1 1  397.85716,300.21933 A 3.2142856 3.5714285 0 1 1  404.28573 300.21933 z"
       transform="translate(-237.1429,292.8571)"
       inkscape:export-filename="D:\fenix\iparty\vidas.png"
       inkscape:export-xdpi="27.146797"
       inkscape:export-ydpi="27.146797" />
  </g>
</svg>
